<svg width="88" height="88" viewBox="0 0 88 88" fill="none" xmlns="http://www.w3.org/2000/svg">
<rect x="31" y="35" width="27" height="27" fill="#000326"/>
<path d="M76.5765 39.7547L73.3328 38.1337C73.3328 21.9312 60.1988 8.7998 43.9998 8.7998C27.799 8.7998 14.6659 21.9312 14.6659 38.1337L11.424 39.7547C9.98077 40.4763 8.7998 42.3876 8.7998 43.9998V49.8668C8.7998 51.4789 9.98077 53.3903 11.424 54.1119L14.6659 55.7328H19.0659V38.1337C19.0659 24.3837 30.2516 13.1998 43.9998 13.1998C57.7472 13.1998 68.9328 24.3837 68.9328 38.1337V61.5998C68.9328 68.8897 63.0236 74.7998 55.7328 74.7998H46.9328V70.3998H41.0659V79.1998H55.7328C65.4524 79.1998 73.3328 71.3194 73.3328 61.5998V55.7328L76.5765 54.1119C78.0197 53.3903 79.1998 51.4789 79.1998 49.8668V43.9998C79.1998 42.3876 78.0197 40.4763 76.5765 39.7547Z" fill="url(#paint0_linear_2671_1746)"/>
<path d="M55.7328 30.8001H46.1997V24.5662C47.9298 23.9766 49.1328 22.727 49.1328 21.2662C49.1328 19.2413 46.836 17.6001 43.9997 17.6001C41.1635 17.6001 38.8658 19.2413 38.8658 21.2662C38.8658 22.727 40.0688 23.9801 41.7997 24.5662V30.8001H32.2658C27.4082 30.8001 23.4658 34.7416 23.4658 39.6001V51.3331C23.4658 59.4283 30.0385 66.0001 38.1337 66.0001H49.8667C57.9618 66.0001 64.5328 59.4283 64.5328 51.3331V39.6001C64.5328 34.7416 60.5913 30.8001 55.7328 30.8001ZM33.7337 45.4671V42.534C33.7337 40.9113 35.0484 39.6001 36.6658 39.6001C38.285 39.6001 39.5997 40.9113 39.5997 42.534V45.4671C39.5997 47.0915 38.285 48.4001 36.6658 48.4001C35.0484 48.4001 33.7337 47.0915 33.7337 45.4671ZM51.3328 57.2001L45.4667 58.6671H42.5337L36.6658 57.2001V54.2671H51.3328V57.2001ZM54.2667 45.4671C54.2667 47.0915 52.952 48.4001 51.3328 48.4001C49.7145 48.4001 48.3997 47.0915 48.3997 45.4671V42.534C48.3997 40.9113 49.7145 39.6001 51.3328 39.6001C52.952 39.6001 54.2667 40.9113 54.2667 42.534V45.4671Z" fill="url(#paint1_linear_2671_1746)"/>
<defs>
<linearGradient id="paint0_linear_2671_1746" x1="43.9998" y1="8.7998" x2="43.9998" y2="79.1998" gradientUnits="userSpaceOnUse">
<stop stop-color="#FFE59E"/>
<stop offset="1" stop-color="#FFBC01"/>
</linearGradient>
<linearGradient id="paint1_linear_2671_1746" x1="43.9993" y1="17.6001" x2="43.9993" y2="66.0001" gradientUnits="userSpaceOnUse">
<stop stop-color="#FFE59E"/>
<stop offset="1" stop-color="#FFBC01"/>
</linearGradient>
</defs>
</svg>
