<svg width="88" height="88" viewBox="0 0 88 88" fill="none" xmlns="http://www.w3.org/2000/svg">
<rect width="27" height="27" transform="matrix(-1 0 0 1 57 35)" fill="#000326"/>
<path d="M11.4235 39.7547L14.6672 38.1337C14.6672 21.9312 27.8012 8.7998 44.0002 8.7998C60.201 8.7998 73.3341 21.9312 73.3341 38.1337L76.576 39.7547C78.0192 40.4763 79.2002 42.3876 79.2002 43.9998V49.8668C79.2002 51.4789 78.0192 53.3903 76.576 54.1119L73.3341 55.7328H68.9341V38.1337C68.9341 24.3837 57.7484 13.1998 44.0002 13.1998C30.2528 13.1998 19.0672 24.3837 19.0672 38.1337V61.5998C19.0672 68.8897 24.9764 74.7998 32.2672 74.7998H41.0672V70.3998H46.9341V79.1998H32.2672C22.5476 79.1998 14.6672 71.3194 14.6672 61.5998V55.7328L11.4235 54.1119C9.98028 53.3903 8.8002 51.4789 8.8002 49.8668V43.9998C8.8002 42.3876 9.98028 40.4763 11.4235 39.7547Z" fill="url(#paint0_linear_2671_1754)"/>
<path d="M32.2672 30.8001H41.8003V24.5662C40.0702 23.9766 38.8672 22.727 38.8672 21.2662C38.8672 19.2413 41.164 17.6001 44.0003 17.6001C46.8365 17.6001 49.1342 19.2413 49.1342 21.2662C49.1342 22.727 47.9312 23.9801 46.2003 24.5662V30.8001H55.7342C60.5918 30.8001 64.5342 34.7416 64.5342 39.6001V51.3331C64.5342 59.4283 57.9615 66.0001 49.8663 66.0001H38.1333C30.0382 66.0001 23.4672 59.4283 23.4672 51.3331V39.6001C23.4672 34.7416 27.4087 30.8001 32.2672 30.8001ZM54.2663 45.4671V42.534C54.2663 40.9113 52.9516 39.6001 51.3342 39.6001C49.715 39.6001 48.4003 40.9113 48.4003 42.534V45.4671C48.4003 47.0915 49.715 48.4001 51.3342 48.4001C52.9516 48.4001 54.2663 47.0915 54.2663 45.4671ZM36.6672 57.2001L42.5333 58.6671H45.4663L51.3342 57.2001V54.2671H36.6672V57.2001ZM33.7333 45.4671C33.7333 47.0915 35.048 48.4001 36.6672 48.4001C38.2855 48.4001 39.6003 47.0915 39.6003 45.4671V42.534C39.6003 40.9113 38.2855 39.6001 36.6672 39.6001C35.048 39.6001 33.7333 40.9113 33.7333 42.534V45.4671Z" fill="url(#paint1_linear_2671_1754)"/>
<defs>
<linearGradient id="paint0_linear_2671_1754" x1="44.0002" y1="8.7998" x2="44.0002" y2="79.1998" gradientUnits="userSpaceOnUse">
<stop stop-color="#FFE59E"/>
<stop offset="1" stop-color="#FFBC01"/>
</linearGradient>
<linearGradient id="paint1_linear_2671_1754" x1="44.0007" y1="17.6001" x2="44.0007" y2="66.0001" gradientUnits="userSpaceOnUse">
<stop stop-color="#FFE59E"/>
<stop offset="1" stop-color="#FFBC01"/>
</linearGradient>
</defs>
</svg>
