<svg width="88" height="88" viewBox="0 0 88 88" fill="none" xmlns="http://www.w3.org/2000/svg">
<path d="M28.0639 17.0845L30.5875 24.0928C33.3908 31.8711 39.5161 37.9963 47.2943 40.7997L54.3027 43.3233C54.9343 43.5527 54.9343 44.4484 54.3027 44.6747L47.2943 47.1983C39.5161 50.0016 33.3908 56.1268 30.5875 63.9051L28.0639 70.9134C27.8345 71.5451 26.9388 71.5451 26.7125 70.9134L24.1889 63.9051C21.3856 56.1268 15.2604 50.0016 7.48208 47.1983L0.473768 44.6747C-0.157923 44.4452 -0.157923 43.5496 0.473768 43.3233L7.48208 40.7997C15.2604 37.9963 21.3856 31.8711 24.1889 24.0928L26.7125 17.0845C26.9388 16.4497 27.8345 16.4497 28.0639 17.0845Z" fill="url(#paint0_linear_2710_1053)"/>
<path d="M59.6115 0.242777L60.8906 3.79093C62.3111 7.72879 65.413 10.8307 69.3508 12.2512L72.899 13.5303C73.2196 13.6466 73.2196 14.0991 72.899 14.2154L69.3508 15.4945C65.413 16.915 62.3111 20.0169 60.8906 23.9548L59.6115 27.5029C59.4952 27.8235 59.0427 27.8235 58.9264 27.5029L57.6473 23.9548C56.2268 20.0169 53.1249 16.915 49.187 15.4945L45.6389 14.2154C45.3183 14.0991 45.3183 13.6466 45.6389 13.5303L49.187 12.2512C53.1249 10.8307 56.2268 7.72879 57.6473 3.79093L58.9264 0.242777C59.0427 -0.0809256 59.4984 -0.0809256 59.6115 0.242777Z" fill="url(#paint1_linear_2710_1053)"/>
<path d="M59.6115 60.4987L60.8906 64.0469C62.3111 67.9847 65.413 71.0866 69.3508 72.5071L72.899 73.7862C73.2196 73.9025 73.2196 74.3551 72.899 74.4713L69.3508 75.7505C65.413 77.171 62.3111 80.2729 60.8906 84.2107L59.6115 87.7589C59.4952 88.0794 59.0427 88.0794 58.9264 87.7589L57.6473 84.2107C56.2268 80.2729 53.1249 77.171 49.187 75.7505L45.6389 74.4713C45.3183 74.3551 45.3183 73.9025 45.6389 73.7862L49.187 72.5071C53.1249 71.0866 56.2268 67.9847 57.6473 64.0469L58.9264 60.4987C59.0427 60.1782 59.4984 60.1782 59.6115 60.4987Z" fill="url(#paint2_linear_2710_1053)"/>
<defs>
<linearGradient id="paint0_linear_2710_1053" x1="27.3882" y1="16.6084" x2="27.3882" y2="71.3872" gradientUnits="userSpaceOnUse">
<stop stop-color="#FFE59E"/>
<stop offset="1" stop-color="#FFBC01"/>
</linearGradient>
<linearGradient id="paint1_linear_2710_1053" x1="59.2689" y1="0" x2="59.2689" y2="27.7433" gradientUnits="userSpaceOnUse">
<stop stop-color="#FFE59E"/>
<stop offset="1" stop-color="#FFBC01"/>
</linearGradient>
<linearGradient id="paint2_linear_2710_1053" x1="59.2689" y1="60.2583" x2="59.2689" y2="87.9993" gradientUnits="userSpaceOnUse">
<stop stop-color="#FFE59E"/>
<stop offset="1" stop-color="#FFBC01"/>
</linearGradient>
</defs>
</svg>
