<svg xmlns="http://www.w3.org/2000/svg" width="70" height="70" viewBox="0 0 88 88" fill="none">
                  <path
                    d="M85.5802 47.5356H55.0815C53.7486 47.5356 52.6621 48.6222 52.6621 49.9548C52.6621 50.6336 52.9506 51.245 53.4004 51.6862L74.876 73.1618C75.3171 73.6371 75.9544 73.9346 76.6506 73.9346C77.4907 73.9346 78.229 73.51 78.662 72.8649C83.9419 66.7361 87.3373 58.9523 87.9488 50.3875C87.9827 50.2433 87.9996 50.099 87.9996 49.9545C87.9998 48.6222 86.9215 47.5356 85.5802 47.5356Z"
                    fill="url(#paint0_linear_3013_2267)" />
                  <path
                    d="M45.8717 3.69238C44.5388 3.70053 43.4609 4.7789 43.4609 6.11152V40.0058C43.4609 41.3471 44.5388 42.4336 45.8717 42.4336H79.7746C81.1075 42.4336 82.1938 41.3471 82.1938 40.0058C80.9967 20.4998 65.3864 4.88946 45.8717 3.69238Z"
                    fill="url(#paint1_linear_3013_2267)" />
                  <path
                    d="M64.5037 71.1842L39.4969 46.1774C39.0726 45.7445 38.8181 45.1417 38.8181 44.4882L38.8091 9.16755C38.8091 7.83494 37.7313 6.75684 36.3984 6.75684C16.0857 7.99628 0 24.871 0 45.4899C0 66.9232 17.3762 84.3075 38.8091 84.3075C48.5878 84.3075 57.5177 80.6916 64.3424 74.7238C64.8688 74.2822 65.1999 73.6205 65.1999 72.8819C65.1999 72.2281 64.9364 71.6254 64.5037 71.1842Z"
                    fill="url(#paint2_linear_3013_2267)" />
                  <defs>
                    <linearGradient id="paint0_linear_3013_2267" x1="70.3308" y1="47.5356" x2="70.3308" y2="73.9346"
                      gradientUnits="userSpaceOnUse">
                      <stop stop-color="#FFE59E" />
                      <stop offset="1" stop-color="#FFBC01" />
                    </linearGradient>
                    <linearGradient id="paint1_linear_3013_2267" x1="62.8273" y1="3.69238" x2="62.8273" y2="42.4336"
                      gradientUnits="userSpaceOnUse">
                      <stop stop-color="#FFE59E" />
                      <stop offset="1" stop-color="#FFBC01" />
                    </linearGradient>
                    <linearGradient id="paint2_linear_3013_2267" x1="32.6" y1="6.75684" x2="32.6" y2="84.3075"
                      gradientUnits="userSpaceOnUse">
                      <stop stop-color="#FFE59E" />
                      <stop offset="1" stop-color="#FFBC01" />
                    </linearGradient>
                  </defs>
                </svg>