<svg xmlns="http://www.w3.org/2000/svg" width="64" height="64" viewBox="0 0 64 64" fill="none">
                  <rect x="1.06667" y="1.06667" width="61.8667" height="61.8667" rx="13.6"
                    fill="url(#paint0_linear_2686_950)" />
                  <rect x="1.06667" y="1.06667" width="61.8667" height="61.8667" rx="13.6" stroke="#000326"
                    stroke-width="2.13333" />
                  <g clip-path="url(#clip0_2686_950)">
                    <path
                      d="M29.0006 19.6229L30.2299 16.166H34.437L35.6663 19.6229L38.7282 20.8912L42.0419 19.3161L45.0167 22.2909L43.4416 25.6046L44.7099 28.6665L48.1668 29.8958V34.1029L44.7099 35.3322L43.4416 38.3941L45.0167 41.7078L42.0419 44.6826L38.7282 43.1075L35.6663 44.3758L34.437 47.8327H30.23L29.0006 44.3758L25.9387 43.1074L22.625 44.6826L19.6502 41.7078L21.2253 38.3941L19.957 35.3322L16.5001 34.1028V29.8958L19.957 28.6665L21.2254 25.6045L19.6502 22.2909L22.625 19.3161L25.9387 20.8912L29.0006 19.6229Z"
                      stroke="#000326" stroke-width="2" stroke-miterlimit="10" />
                    <path
                      d="M32.3335 34.7383C33.7142 34.7383 34.8335 33.619 34.8335 32.2383C34.8335 30.8576 33.7142 29.7383 32.3335 29.7383C30.9528 29.7383 29.8335 30.8576 29.8335 32.2383C29.8335 33.619 30.9528 34.7383 32.3335 34.7383Z"
                      stroke="#000326" stroke-width="2" stroke-miterlimit="10" />
                    <path
                      d="M32.3335 38.071C35.5551 38.071 38.1668 35.4593 38.1668 32.2376C38.1668 29.016 35.5551 26.4043 32.3335 26.4043C29.1118 26.4043 26.5001 29.016 26.5001 32.2376C26.5001 35.4593 29.1118 38.071 32.3335 38.071Z"
                      stroke="#000326" stroke-width="2" stroke-miterlimit="10" />
                    <path
                      d="M38.1513 50.4951C38.2521 50.0461 37.9697 49.6003 37.5207 49.4996C37.0716 49.3988 36.6259 49.6812 36.5251 50.1302C36.4243 50.5793 36.7067 51.025 37.1558 51.1258C37.6048 51.2266 38.0506 50.9442 38.1513 50.4951Z"
                      fill="#000326" />
                    <path
                      d="M46.1943 25.7208L49.521 26.4687L50.6584 21.4098L50.1681 20.6353L48.4929 21.6956C46.2074 18.1094 42.7936 15.3856 38.7896 13.9533C34.7855 12.5211 30.4187 12.4617 26.3772 13.7845"
                      stroke="#000326" stroke-width="2" stroke-miterlimit="10" stroke-linecap="round" />
                    <path
                      d="M17.5519 38.0721L15.1461 37.5312L14.0088 42.5901L14.499 43.3646L16.1743 42.3044C18.1499 45.4025 20.9744 47.8676 24.3112 49.4061C27.6481 50.9446 31.3568 51.4917 34.9958 50.9823"
                      stroke="#000326" stroke-width="2" stroke-miterlimit="10" stroke-linecap="round" />
                    <path
                      d="M24.8097 15.0948C24.9104 14.6457 24.6281 14.2 24.179 14.0992C23.7299 13.9984 23.2842 14.2808 23.1834 14.7299C23.0827 15.1789 23.365 15.6247 23.8141 15.7254C24.2632 15.8262 24.7089 15.5438 24.8097 15.0948Z"
                      fill="#000326" />
                  </g>
                  <defs>
                    <linearGradient id="paint0_linear_2686_950" x1="32" y1="0" x2="32" y2="64"
                      gradientUnits="userSpaceOnUse">
                      <stop stop-color="#FFE59E" />
                      <stop offset="1" stop-color="#FFBC01" />
                    </linearGradient>
                    <clipPath id="clip0_2686_950">
                      <rect width="40" height="40" fill="white" transform="translate(12.3335 12)" />
                    </clipPath>
                  </defs>
                </svg>