<svg xmlns="http://www.w3.org/2000/svg" width="88" height="88" viewBox="0 0 88 88" fill="none">
                      <path
                        d="M67.2525 37.4692C68.9081 32.5664 68.3379 27.1955 65.6904 22.7359C61.7091 15.8957 53.7053 12.3767 45.8885 14.0327C42.411 10.1671 37.415 7.96892 32.1771 8.00033C24.187 7.98233 17.0976 13.0585 14.6394 20.5601C9.50658 21.5973 5.07585 24.7677 2.48327 29.261C-1.52771 36.0832 -0.613383 44.6828 4.74526 50.5329C3.08972 55.4357 3.65987 60.8067 6.30718 65.2663C10.2886 72.1065 18.2923 75.6254 26.1091 73.9694C29.5842 77.835 34.5826 80.0332 39.8205 79.9996C47.8151 80.0198 54.9069 74.9392 57.3649 67.4309C62.4977 66.3937 66.9285 63.2233 69.521 58.7299C73.5276 51.9077 72.6108 43.315 67.2544 37.4648L67.2525 37.4692ZM39.8253 75.2947C36.6261 75.2991 33.5272 74.1945 31.0713 72.1717C31.183 72.1131 31.3769 72.0075 31.5022 71.9309L46.0322 63.6507C46.7757 63.2345 47.2317 62.4537 47.2271 61.6099V41.3978L53.3679 44.8966C53.4339 44.9282 53.4773 44.9912 53.4864 45.0632V61.8013C53.4775 69.2443 47.3685 75.2789 39.8253 75.2947ZM10.4462 62.9127C8.84317 60.1811 8.26632 56.9793 8.81581 53.8719C8.92302 53.9349 9.11233 54.0497 9.24672 54.1261L23.7768 62.4063C24.5133 62.8315 25.4254 62.8315 26.1642 62.4063L43.9026 52.2991V59.2967C43.9072 59.3687 43.873 59.4385 43.816 59.4835L29.1287 67.8515C22.5866 71.5685 14.2316 69.3591 10.4486 62.9127H10.4462ZM6.62213 31.6168C8.21829 28.8808 10.7381 26.7882 13.7389 25.7015C13.7389 25.8253 13.732 26.0435 13.732 26.1965V42.759C13.7273 43.6006 14.1836 44.3812 14.9246 44.7976L32.663 54.9025L26.5222 58.4013C26.4605 58.4417 26.3831 58.4485 26.3146 58.4193L11.6251 50.0446C5.0967 46.314 2.85741 38.072 6.61989 31.619L6.62213 31.6168ZM57.0756 43.2022L39.3373 33.095L45.4781 29.5984C45.5397 29.558 45.6171 29.5512 45.6856 29.5804L60.3752 37.9484C66.9151 41.6768 69.1566 49.9322 65.3781 56.3853C63.7797 59.1169 61.2621 61.2093 58.2636 62.2985V45.241C58.2705 44.3994 57.8166 43.621 57.0779 43.2024H57.0756V43.2022ZM63.1868 34.1256C63.0796 34.0604 62.8905 33.9478 62.7559 33.8714L48.2259 25.5913C47.4893 25.166 46.5772 25.166 45.8384 25.5913L28.1001 35.6984V28.7008C28.0956 28.6288 28.1297 28.559 28.1866 28.514L42.8739 20.1529C49.4161 16.4291 57.7802 18.6453 61.5518 25.103C63.1457 27.83 63.7226 31.0228 63.1822 34.1258L63.1868 34.1256ZM24.7618 46.5976L18.6188 43.0988C18.5527 43.0674 18.5093 43.0044 18.5002 42.9324V26.1943C18.5048 18.7421 24.6319 12.7029 32.1842 12.7075C35.379 12.7075 38.471 13.8145 40.9269 15.8305C40.8152 15.8889 40.6237 15.9947 40.496 16.0713L25.966 24.3515C25.2225 24.7677 24.7665 25.5463 24.7711 26.39L24.762 46.5932V46.5976H24.7618ZM28.0978 39.501L35.999 34.9986L43.9001 39.4988V48.5012L35.999 53.0013L28.0978 48.5012V39.501Z"
                        fill="url(#paint0_linear_1914_967)" />
                      <defs>
                        <linearGradient id="paint0_linear_1914_967" x1="36" y1="8" x2="36" y2="80"
                          gradientUnits="userSpaceOnUse">
                          <stop stop-color="#FFE59E" />
                          <stop offset="1" stop-color="#FFBC01" />
                        </linearGradient>
                      </defs>
                    </svg>