<svg xmlns="http://www.w3.org/2000/svg" width="64" height="64" viewBox="0 0 64 64" fill="none">
                  <rect x="1.06667" y="1.06667" width="61.8667" height="61.8667" rx="13.6"
                    fill="url(#paint0_linear_2490_534)" />
                  <rect x="1.06667" y="1.06667" width="61.8667" height="61.8667" rx="13.6" stroke="#000326"
                    stroke-width="2.13333" />
                  <g clip-path="url(#clip0_2490_534)">
                    <path fill-rule="evenodd" clip-rule="evenodd"
                      d="M46.4476 44.9791L51.7413 50.2728C52.1699 50.7014 52.1699 51.3957 51.7413 51.8243L51.6771 51.8884C51.2491 52.3165 50.5542 52.3165 50.1261 51.8884L45.7491 47.5114C45.4809 47.2428 45.0451 47.2428 44.7769 47.5114C44.5084 47.7795 44.5084 48.2154 44.7769 48.4835C44.7769 48.4835 46.3495 50.0565 49.154 52.8606C50.1193 53.8258 51.684 53.8258 52.6497 52.8606L52.7134 52.7964C53.6791 51.8311 53.6791 50.2659 52.7134 49.3007L47.2382 43.8254C48.1287 42.3125 48.6393 40.5506 48.6393 38.6706C48.6393 33.0509 44.0771 28.4887 38.4579 28.4887C32.8387 28.4887 28.2765 33.0509 28.2765 38.6706C28.2765 44.2897 32.8387 48.852 38.4579 48.852C41.6951 48.852 44.5817 47.3381 46.4476 44.9791ZM38.4579 29.8637C43.3185 29.8637 47.2643 33.8099 47.2643 38.6706C47.2643 43.5307 43.3185 47.477 38.4579 47.477C33.5973 47.477 29.6515 43.5307 29.6515 38.6706C29.6515 33.8099 33.5973 29.8637 38.4579 29.8637ZM15.8204 32.9176C15.8204 32.4922 15.6512 32.0843 15.3501 31.7832C15.0494 31.4825 14.6415 31.3134 14.2162 31.3134C13.4256 31.3134 12.2903 31.3134 11.5001 31.3134C11.0748 31.3134 10.6669 31.4825 10.3657 31.7832C10.0651 32.0843 9.89594 32.4922 9.89594 32.9176V45.5465C9.89594 45.9264 10.2039 46.234 10.5834 46.234H15.1329C15.5124 46.234 15.8204 45.9264 15.8204 45.5465V32.9176ZM23.6927 30.6318C23.6927 29.7459 22.9745 29.0277 22.0885 29.0277C21.2984 29.0277 20.1631 29.0277 19.3724 29.0277C18.4865 29.0277 17.7683 29.7459 17.7683 30.6318V45.5465C17.7683 45.9264 18.0763 46.234 18.4558 46.234H23.0052C23.3847 46.234 23.6927 45.9264 23.6927 45.5465V30.6318ZM29.0442 44.859H27.0161V27.4391C27.0161 27.3781 27.0399 27.3199 27.083 27.2768C27.1261 27.2342 27.1843 27.2099 27.2452 27.2099H29.9609C30.0218 27.2099 30.08 27.2342 30.1231 27.2768C30.1662 27.3199 30.19 27.3781 30.19 27.4391V30.0026C30.19 30.3821 30.498 30.6901 30.8775 30.6901C31.257 30.6901 31.565 30.3821 31.565 30.0026V27.4391C31.565 27.0138 31.3964 26.6054 31.0952 26.3047C30.7946 26.0041 30.3866 25.8349 29.9609 25.8349C29.1707 25.8349 28.0354 25.8349 27.2452 25.8349C26.8199 25.8349 26.4115 26.0041 26.1109 26.3047C25.8102 26.6054 25.6411 27.0138 25.6411 27.4391V45.5465C25.6411 45.9264 25.9486 46.234 26.3286 46.234H29.0442C29.4237 46.234 29.7317 45.926 29.7317 45.5465C29.7317 45.1674 29.4237 44.859 29.0442 44.859ZM34.656 34.7128C35.6428 33.7646 36.9825 33.1811 38.4579 33.1811C41.4875 33.1811 43.9469 35.641 43.9469 38.6706C43.9469 41.7001 41.4875 44.1596 38.4579 44.1596C35.4283 44.1596 32.9689 41.7001 32.9689 38.6706C32.9689 37.9299 33.1156 37.2236 33.3819 36.5792C33.5267 36.2281 33.3594 35.8261 33.0088 35.6813C32.6581 35.536 32.2557 35.7033 32.1109 36.0539C31.7777 36.8606 31.5939 37.7443 31.5939 38.6706C31.5939 42.4591 34.6693 45.5346 38.4579 45.5346C42.2465 45.5346 45.3219 42.4591 45.3219 38.6706C45.3219 34.882 42.2465 31.8061 38.4579 31.8061C36.6131 31.8061 34.937 32.5353 33.7031 33.7215C33.4295 33.9841 33.4208 34.42 33.6839 34.6936C33.947 34.9672 34.3824 34.9759 34.656 34.7128ZM22.3177 30.6318V44.859H19.1433V30.6318C19.1433 30.5054 19.2459 30.4027 19.3724 30.4027H22.0885C22.215 30.4027 22.3177 30.5054 22.3177 30.6318ZM14.4454 32.9176V44.859H11.2709V32.9176C11.2709 32.8571 11.2952 32.7988 11.3379 32.7558C11.3809 32.7127 11.4391 32.6884 11.5001 32.6884H14.2162C14.2767 32.6884 14.3349 32.7127 14.378 32.7558C14.4211 32.7988 14.4454 32.8571 14.4454 32.9176ZM34.8884 27.7865V21.1439C34.8884 21.0834 34.9127 21.0252 34.9558 20.9821C34.9984 20.939 35.0571 20.9147 35.1176 20.9147H37.8336C37.8941 20.9147 37.9528 20.939 37.9954 20.9821C38.0385 21.0252 38.0628 21.0834 38.0628 21.1439V26.8698C38.0628 27.2493 38.3708 27.5573 38.7503 27.5573C39.1298 27.5573 39.4378 27.2493 39.4378 26.8698C39.4378 26.8698 39.4378 22.9662 39.4378 21.1439C39.4378 20.7186 39.2687 20.3106 38.968 20.01C38.6669 19.7088 38.259 19.5397 37.8336 19.5397C37.043 19.5397 35.9077 19.5397 35.1176 19.5397C34.6922 19.5397 34.2843 19.7088 33.9832 20.01C33.6825 20.3106 33.5134 20.7186 33.5134 21.1439V27.7865C33.5134 28.166 33.8214 28.474 34.2009 28.474C34.5804 28.474 34.8884 28.166 34.8884 27.7865ZM32.2938 14.7258L26.7094 18.6469C26.1549 18.1436 25.4192 17.8366 24.6121 17.8366C22.8966 17.8366 21.5023 19.2235 21.4895 20.9358L15.8483 22.1651C15.3506 21.1008 14.2703 20.3629 13.0186 20.3629C11.2952 20.3629 9.89594 21.7617 9.89594 23.4855C9.89594 25.2088 11.2952 26.6077 13.0186 26.6077C14.7341 26.6077 16.1284 25.2212 16.1407 23.5084L21.7819 22.2796C22.2796 23.3434 23.3604 24.0818 24.6121 24.0818C26.3354 24.0818 27.7347 22.6825 27.7347 20.9592C27.7347 20.5389 27.6513 20.1374 27.5005 19.7712L33.0849 15.8506C33.6394 16.3534 34.3751 16.6605 35.1822 16.6605C36.9055 16.6605 38.3048 15.2612 38.3048 13.5378C38.3048 11.8145 36.9055 10.4152 35.1822 10.4152C33.4589 10.4152 32.0596 11.8145 32.0596 13.5378C32.0596 13.9586 32.143 14.3596 32.2938 14.7258ZM13.0186 25.2327C12.0538 25.2327 11.2709 24.4498 11.2709 23.4855C11.2709 22.5207 12.0538 21.7379 13.0186 21.7379C13.9829 21.7379 14.7657 22.5207 14.7657 23.4855C14.7657 24.4498 13.9829 25.2327 13.0186 25.2327ZM26.0394 19.9513L26.0453 19.9596C26.2433 20.2428 26.3597 20.5875 26.3597 20.9592C26.3597 21.9235 25.5764 22.7068 24.6121 22.7068C23.6478 22.7068 22.8645 21.9235 22.8645 20.9592C22.8645 19.9948 23.6478 19.2116 24.6121 19.2116C25.2011 19.2116 25.7226 19.504 26.0394 19.9513ZM33.7549 14.5462L33.749 14.5375C33.551 14.2542 33.4346 13.9096 33.4346 13.5378C33.4346 12.5735 34.2179 11.7902 35.1822 11.7902C36.1465 11.7902 36.9298 12.5735 36.9298 13.5378C36.9298 14.5022 36.1465 15.2855 35.1822 15.2855C34.5932 15.2855 34.0716 14.9931 33.7549 14.5462Z"
                      fill="#070322" />
                  </g>
                  <defs>
                    <linearGradient id="paint0_linear_2490_534" x1="32" y1="0" x2="32" y2="64"
                      gradientUnits="userSpaceOnUse">
                      <stop stop-color="#FFE59E" />
                      <stop offset="1" stop-color="#FFBC01" />
                    </linearGradient>
                    <clipPath id="clip0_2490_534">
                      <rect width="44" height="44" fill="white" transform="translate(9.66675 10)" />
                    </clipPath>
                  </defs>
                </svg>