<svg xmlns="http://www.w3.org/2000/svg" width="88" height="88" viewBox="0 0 88 88" fill="none">
                  <g clip-path="url(#clip0_3047_2176)">
                    <path
                      d="M30.2502 34.07C30.2449 33.5668 30.34 33.0677 30.5301 32.6018C30.7202 32.1359 31.0013 31.7127 31.3571 31.3569C31.7129 31.0011 32.1362 30.7199 32.6021 30.5298C33.0679 30.3398 33.5671 30.2446 34.0702 30.25H46.2902C47.3033 30.25 48.275 30.6524 48.9914 31.3688C49.7077 32.0852 50.1102 33.0568 50.1102 34.07C50.1102 35.0831 49.7077 36.0547 48.9914 36.7711C48.275 37.4875 47.3033 37.89 46.2902 37.89H34.0702C33.5671 37.8953 33.0679 37.8002 32.6021 37.6101C32.1362 37.42 31.7129 37.1388 31.3571 36.783C31.0013 36.4273 30.7202 36.004 30.5301 35.5381C30.34 35.0722 30.2449 34.5731 30.2502 34.07Z"
                      fill="url(#paint0_linear_3047_2176)" />
                    <path
                      d="M57.75 53.93C57.7554 54.4332 57.6602 54.9323 57.4701 55.3982C57.28 55.8641 56.9989 56.2873 56.6431 56.6431C56.2873 56.9989 55.864 57.2801 55.3982 57.4702C54.9323 57.6602 54.4331 57.7554 53.93 57.75H34.07C33.0569 57.75 32.0852 57.3476 31.3689 56.6312C30.6525 55.9148 30.25 54.9432 30.25 53.93C30.25 52.9169 30.6525 51.9453 31.3689 51.2289C32.0852 50.5125 33.0569 50.11 34.07 50.11H53.93C54.433 50.1054 54.9318 50.201 55.3974 50.3913C55.8629 50.5816 56.2859 50.8628 56.6416 51.2185C56.9972 51.5741 57.2784 51.9971 57.4687 52.4627C57.6591 52.9282 57.7547 53.4271 57.75 53.93Z"
                      fill="url(#paint1_linear_3047_2176)" />
                    <path
                      d="M44 0C35.2976 0 26.7907 2.58056 19.5549 7.41534C12.3192 12.2501 6.67958 19.122 3.34932 27.1619C0.0190647 35.2019 -0.852282 44.0488 0.845467 52.584C2.54322 61.1191 6.73381 68.9592 12.8873 75.1127C19.0408 81.2662 26.8809 85.4568 35.416 87.1546C43.9512 88.8523 52.7981 87.981 60.8381 84.6507C68.878 81.3204 75.7499 75.6809 80.5847 68.4451C85.4195 61.2093 88 52.7024 88 44C88 32.3305 83.3643 21.1389 75.1127 12.8873C66.8611 4.6357 55.6695 0 44 0ZM71.5 55C71.5 64.475 64.78 71.5 55.155 71.5H33C23.22 71.5 16.5 64.5 16.5 55V33C16.5 23.375 23.22 16.5 32.845 16.5H46.75C52.25 16.5 60.805 22 60.805 30.25V37.89C69.055 37.89 71.5 41.25 71.5 49.5V55Z"
                      fill="url(#paint2_linear_3047_2176)" />
                  </g>
                  <defs>
                    <linearGradient id="paint0_linear_3047_2176" x1="40.1801" y1="30.2498" x2="40.1801" y2="37.8902"
                      gradientUnits="userSpaceOnUse">
                      <stop stop-color="#FFE59E" />
                      <stop offset="1" stop-color="#FFBC01" />
                    </linearGradient>
                    <linearGradient id="paint1_linear_3047_2176" x1="44.0001" y1="50.1099" x2="44.0001" y2="57.7502"
                      gradientUnits="userSpaceOnUse">
                      <stop stop-color="#FFE59E" />
                      <stop offset="1" stop-color="#FFBC01" />
                    </linearGradient>
                    <linearGradient id="paint2_linear_3047_2176" x1="44" y1="0" x2="44" y2="88"
                      gradientUnits="userSpaceOnUse">
                      <stop stop-color="#FFE59E" />
                      <stop offset="1" stop-color="#FFBC01" />
                    </linearGradient>
                    <clipPath id="clip0_3047_2176">
                      <rect width="88" height="88" fill="white" />
                    </clipPath>
                  </defs>
                </svg>