<svg xmlns="http://www.w3.org/2000/svg" width="88" height="88" viewBox="0 0 88 88" fill="none">
                  <path fill-rule="evenodd" clip-rule="evenodd"
                    d="M11.1157 36.3021L27.2888 22.1472C27.0646 21.535 26.9424 20.8739 26.9424 20.1842C26.9424 17.0306 29.4989 14.4743 32.6523 14.4743C35.7455 14.4743 38.264 16.9339 38.3594 20.0039L51.1421 24.4792C52.1893 23.2498 53.7486 22.47 55.49 22.47C56.4726 22.47 57.3971 22.7182 58.2044 23.1552L72.9408 10.5645C72.7318 9.97088 72.6177 9.33254 72.6177 8.66738C72.6177 5.51399 75.1742 2.95752 78.3276 2.95752C81.4813 2.95752 84.0378 5.51399 84.0378 8.66738C84.0378 11.8211 81.4813 14.3776 78.3276 14.3776C77.3451 14.3776 76.4204 14.1294 75.6133 13.6923L60.8769 26.283C61.0859 26.8767 61.2 27.515 61.2 28.1802C61.2 31.3336 58.6436 33.89 55.4898 33.89C52.3968 33.89 49.8785 31.4305 49.7831 28.3606L37.0004 23.8854C35.953 25.1148 34.3939 25.8946 32.6523 25.8946C31.6934 25.8946 30.79 25.6579 29.9967 25.2403L13.8236 39.3952C14.0477 40.0072 14.1699 40.6684 14.1699 41.3582C14.1699 44.5119 11.6134 47.068 8.45969 47.068C5.30647 47.0677 2.75 44.5116 2.75 41.3578C2.75 38.2041 5.30647 35.648 8.45986 35.648C9.41875 35.648 10.3223 35.8845 11.1157 36.3021ZM73.9839 25.6538C72.5641 25.6538 71.4058 26.8119 71.4058 28.2319V80.8477C71.4058 82.2677 72.5641 83.4258 73.9839 83.4258H82.6719C84.0921 83.4258 85.2502 82.2677 85.2502 80.8477V28.2319C85.2502 26.8119 84.0922 25.6538 82.6719 25.6538H73.9839ZM51.146 46.6793C49.726 46.6793 48.5681 47.8373 48.5681 49.2574V81.3867C48.5681 82.8069 49.7262 83.9648 51.146 83.9648H59.8343C61.2544 83.9648 62.4123 82.8067 62.4123 81.3867C62.4123 70.6771 62.4123 59.9673 62.4123 49.2574C62.4123 47.8373 61.2544 46.6793 59.8343 46.6793C56.9381 46.6793 54.0423 46.6793 51.146 46.6793ZM28.3085 39.131C26.8883 39.131 25.7302 40.2891 25.7302 41.7091V81.9257C25.7302 83.3457 26.8881 84.5038 28.3085 84.5038H36.9964C38.4163 84.5038 39.5746 83.3457 39.5746 81.9257V41.7091C39.5746 40.2891 38.4163 39.131 36.9964 39.131H28.3085ZM5.47078 61.323H14.1585C15.5786 61.323 16.7368 62.4811 16.7368 63.9011V82.4645C16.7368 83.8845 15.5786 85.0426 14.1585 85.0426H5.47078C4.05075 85.0426 2.89248 83.8845 2.89248 82.4645V63.9011C2.89266 62.4809 4.05092 61.323 5.47078 61.323Z"
                    fill="url(#paint0_linear_3047_2236)" />
                  <defs>
                    <linearGradient id="paint0_linear_3047_2236" x1="44.0001" y1="2.95752" x2="44.0001" y2="85.0426"
                      gradientUnits="userSpaceOnUse">
                      <stop stop-color="#FFE59E" />
                      <stop offset="1" stop-color="#FFBC01" />
                    </linearGradient>
                  </defs>
                </svg>