<svg xmlns="http://www.w3.org/2000/svg" width="16" height="14" viewBox="0 0 16 14" fill="none">
                <path
                  d="M15.751 6.69296C15.7509 6.79094 15.722 6.88673 15.668 6.96845C15.6139 7.05016 15.537 7.11419 15.4469 7.15258L1.04597 13.3242C0.919122 13.3785 0.779744 13.3968 0.643177 13.377C0.50661 13.3573 0.378148 13.3002 0.271929 13.2121C0.165711 13.124 0.0858547 13.0083 0.0411488 12.8778C-0.00355703 12.7472 -0.0113789 12.6069 0.0185439 12.4721L1.30336 6.69296L0.0185444 0.91378C-0.0116246 0.778936 -0.00395504 0.638378 0.0407066 0.507617C0.0853682 0.376855 0.165286 0.260974 0.271641 0.172759C0.377996 0.0845445 0.506654 0.0274259 0.643417 0.00770645C0.780181 -0.012013 0.919734 0.00643334 1.04668 0.0610096L15.4462 6.23405C15.5363 6.27245 15.6132 6.33648 15.6673 6.41819C15.7213 6.4999 15.7502 6.5957 15.7503 6.69367L15.751 6.69296ZM2.74707 7.58826L1.10042 12.2119L13.7471 6.69296L2.74707 7.58826ZM13.7471 6.69296L1.10042 1.17258L2.74707 5.58826L13.7471 6.69296Z"
                  fill="black" />
              </svg>