<svg xmlns="http://www.w3.org/2000/svg" width="88" height="88" viewBox="0 0 88 88" fill="none">
                  <path
                    d="M42.625 34.375V37.125H38.489L40.491 42.625H42.625V45.375H41.492L43.5229 50.9547L48.5856 34.8672L50.875 31.3665V4.125H37.125V9.625H42.625V12.375H37.125V17.875H42.625V20.625H37.125V26.125H42.625V28.875H37.125V33.3768L37.488 34.375H42.625Z"
                    fill="url(#paint0_linear_3030_2140)" />
                  <path
                    d="M34.8728 59.3555C36.5283 60.3411 38.3321 61.0529 40.2146 61.4633L42.1658 55.2676L29.7 21.0273L21.9478 23.8488L34.8728 59.3555Z"
                    fill="url(#paint1_linear_3030_2140)" />
                  <path d="M28.7622 18.4422L20.6538 8.22461L21.0099 21.2637L28.7622 18.4422Z"
                    fill="url(#paint2_linear_3030_2140)" />
                  <path
                    d="M43.9999 61.8741C46.5443 61.8725 49.0587 61.3258 51.374 60.2708L61.3029 40.1491L62.7755 32.2552C62.5005 32.2827 62.2145 32.3295 61.9313 32.3295C60.7032 32.3342 59.489 32.0694 58.3743 31.5539C57.2596 31.0383 56.2715 30.2846 55.4798 29.3457L51.0949 36.0543L42.9824 61.8246C43.322 61.8438 43.6589 61.8741 43.9999 61.8741Z"
                    fill="url(#paint3_linear_3030_2140)" />
                  <path
                    d="M59.785 29.1713C63.3078 30.5862 67.5675 28.2377 69.2986 23.9257C71.0298 19.6137 67.98 8.75391 67.98 8.75391C67.98 8.75391 58.2684 14.4932 56.5373 18.8038C54.8061 23.1144 56.2609 27.7564 59.785 29.1713Z"
                    fill="url(#paint4_linear_3030_2140)" />
                  <path
                    d="M83.27 50.875C84.0767 46.3272 84.0767 41.6728 83.27 37.125H63.4425C64.2284 39.3318 64.6284 41.6574 64.625 44C64.625 49.4701 62.452 54.7161 58.5841 58.5841C54.7161 62.452 49.4701 64.625 44 64.625C38.5299 64.625 33.2839 62.452 29.4159 58.5841C25.548 54.7161 23.375 49.4701 23.375 44C23.3716 41.6574 23.7716 39.3318 24.5575 37.125H4.73C3.92333 41.6728 3.92333 46.3272 4.73 50.875H13.1313C13.9283 54.4563 15.3427 57.8714 17.3113 60.9675L11.3713 66.9075C14.0084 70.6997 17.3003 73.9916 21.0925 76.6287L27.0325 70.6887C30.1286 72.6573 33.5437 74.0717 37.125 74.8688V83.27C41.6728 84.0767 46.3272 84.0767 50.875 83.27V74.8688C54.4563 74.0717 57.8714 72.6573 60.9675 70.6887L66.9075 76.6287C70.6997 73.9916 73.9916 70.6997 76.6287 66.9075L70.6887 60.9675C72.6573 57.8714 74.0717 54.4563 74.8688 50.875H83.27Z"
                    fill="url(#paint5_linear_3030_2140)" />
                  <defs>
                    <linearGradient id="paint0_linear_3030_2140" x1="44" y1="4.125" x2="44" y2="50.9548"
                      gradientUnits="userSpaceOnUse">
                      <stop stop-color="#FFE59E" />
                      <stop offset="1" stop-color="#FFBC01" />
                    </linearGradient>
                    <linearGradient id="paint1_linear_3030_2140" x1="32.0568" y1="21.0273" x2="32.0568" y2="61.4633"
                      gradientUnits="userSpaceOnUse">
                      <stop stop-color="#FFE59E" />
                      <stop offset="1" stop-color="#FFBC01" />
                    </linearGradient>
                    <linearGradient id="paint2_linear_3030_2140" x1="24.708" y1="8.22461" x2="24.708" y2="21.2637"
                      gradientUnits="userSpaceOnUse">
                      <stop stop-color="#FFE59E" />
                      <stop offset="1" stop-color="#FFBC01" />
                    </linearGradient>
                    <linearGradient id="paint3_linear_3030_2140" x1="52.879" y1="29.3457" x2="52.879" y2="61.8741"
                      gradientUnits="userSpaceOnUse">
                      <stop stop-color="#FFE59E" />
                      <stop offset="1" stop-color="#FFBC01" />
                    </linearGradient>
                    <linearGradient id="paint4_linear_3030_2140" x1="62.819" y1="8.75391" x2="62.819" y2="29.5831"
                      gradientUnits="userSpaceOnUse">
                      <stop stop-color="#FFE59E" />
                      <stop offset="1" stop-color="#FFBC01" />
                    </linearGradient>
                    <linearGradient id="paint5_linear_3030_2140" x1="44" y1="37.125" x2="44" y2="83.875"
                      gradientUnits="userSpaceOnUse">
                      <stop stop-color="#FFE59E" />
                      <stop offset="1" stop-color="#FFBC01" />
                    </linearGradient>
                  </defs>
                </svg>