<svg xmlns="http://www.w3.org/2000/svg" width="88" height="88" viewBox="0 0 88 88" fill="none">
                  <g clip-path="url(#clip0_3047_2194)">
                    <path
                      d="M78.1671 6.90967H9.83292C4.41107 6.90967 0 11.3206 0 16.7424V71.2574C0 76.6792 4.41107 81.0901 9.83292 81.0901H78.1672C83.5891 81.0901 88.0002 76.6791 88.0002 71.2574V16.7424C88 11.3206 83.5889 6.90967 78.1671 6.90967ZM27.5394 17.4042C28.664 16.2796 30.4874 16.2796 31.6121 17.4042C32.7367 18.5289 32.7367 20.3523 31.6121 21.4769C30.4874 22.6015 28.664 22.6015 27.5394 21.4769C26.4148 20.3523 26.4148 18.5289 27.5394 17.4042ZM14.7073 21.4769C13.5827 22.6015 11.7593 22.6015 10.6347 21.4769C9.51005 20.3523 9.51005 18.5289 10.6347 17.4042C11.7593 16.2796 13.5827 16.2796 14.7073 17.4042C15.8319 18.5289 15.8319 20.3523 14.7073 21.4769ZM23.1598 21.4769C22.0352 22.6015 20.2117 22.6015 19.0871 21.4769C17.9625 20.3523 17.9625 18.5289 19.0871 17.4042C20.2117 16.2796 22.0352 16.2796 23.1598 17.4042C24.2844 18.5289 24.2844 20.3523 23.1598 21.4769ZM42.6606 61.5827C38.8338 65.4095 32.6073 65.4097 28.7803 61.5827C24.9448 57.7476 24.944 51.5385 28.7803 47.7023L33.4337 43.0491C37.2692 39.2134 43.4779 39.2127 47.3141 43.0491C48.3936 44.1284 48.3936 45.8786 47.3141 46.9579C46.2347 48.0375 44.4846 48.0375 43.4052 46.9579C41.7299 45.2828 39.0183 45.2822 37.3428 46.9579L32.6892 51.6114C31.014 53.2866 31.0138 55.9985 32.6892 57.6738C34.3607 59.3454 37.0802 59.3452 38.7518 57.6738C39.8311 56.5943 41.5813 56.5943 42.6606 57.6738C43.7402 58.7532 43.7402 60.5033 42.6606 61.5827ZM59.2197 49.3169L54.5663 53.9702C50.7308 57.8058 44.5221 57.8065 40.6859 53.9702C39.6064 52.8908 39.6064 51.1406 40.6859 50.0613C41.7653 48.9817 43.5154 48.9817 44.5948 50.0613C46.2701 51.7365 48.9817 51.737 50.6572 50.0613L55.3108 45.4078C56.986 43.7325 56.9862 41.0209 55.3108 39.3454C53.6393 37.674 50.9194 37.674 49.2482 39.3454C48.1689 40.4249 46.4187 40.4248 45.3394 39.3454C44.2598 38.2659 44.2598 36.5159 45.3394 35.4365C49.1662 31.6099 55.3927 31.6099 59.2197 35.4365C63.055 39.2718 63.0562 45.4806 59.2197 49.3169Z"
                      fill="url(#paint0_linear_3047_2194)" />
                  </g>
                  <defs>
                    <linearGradient id="paint0_linear_3047_2194" x1="44.0001" y1="6.90967" x2="44.0001" y2="81.0901"
                      gradientUnits="userSpaceOnUse">
                      <stop stop-color="#FFE59E" />
                      <stop offset="1" stop-color="#FFBC01" />
                    </linearGradient>
                    <clipPath id="clip0_3047_2194">
                      <rect width="88" height="88" fill="white" />
                    </clipPath>
                  </defs>
                </svg>