<svg xmlns="http://www.w3.org/2000/svg" width="54" height="56" viewBox="0 0 54 56" fill="none">
                    <path
                      d="M26.3623 6.12974C28.1224 11.3531 29.8801 16.574 31.6408 21.7967L31.7165 22.0212C32.0725 21.9197 32.4279 21.8183 32.7886 21.715H32.7898C32.8535 21.6964 32.9165 21.6784 32.9807 21.6598C33.0444 21.6418 33.1092 21.6232 33.1734 21.6046C33.5564 21.4953 33.9394 21.386 34.3218 21.2762C34.7048 21.1669 35.0878 21.0571 35.4714 20.9478L35.5087 20.937C39.3374 19.8408 42.9375 18.4937 46.4181 17.8328L50.2661 17.1022L47.2753 19.6313L43.6176 22.7253L43.4532 22.864L43.2473 22.9258C41.8401 23.3461 41.4295 23.4745 40.014 23.8953C39.245 24.1247 38.476 24.354 37.707 24.5839C36.9374 24.8138 36.1678 25.0437 35.3982 25.2731C35.2913 25.3055 35.1845 25.3367 35.08 25.3679C34.9738 25.3991 34.8705 25.4303 34.7673 25.4616H34.7643C34.1922 25.6326 33.6207 25.8037 33.048 25.9748L33.0966 26.1183C33.473 27.2391 33.8512 28.3605 34.23 29.4818H34.2312L34.4671 30.1836C36.8059 37.1274 39.1459 44.0706 41.4865 51.015L42.366 53.6245L39.99 52.233C36.8726 50.4081 33.7557 48.5831 30.6389 46.7576C27.5221 44.9326 24.4059 43.1077 21.2885 41.2828C20.7278 40.955 20.1689 40.6272 19.61 40.3C19.553 40.4921 19.4966 40.6836 19.4395 40.8757C19.4017 41.0036 19.3621 41.1381 19.3207 41.2731C19.1406 41.8813 18.9605 42.4948 18.7786 43.1059V43.1071C18.6483 43.5417 18.5199 43.9769 18.3902 44.4146L18.3031 44.7093L18.0684 44.908L11.5244 50.4441L8.70597 52.8285L9.88258 49.3293C11.2615 45.2274 12.6404 41.1279 14.0193 37.0265C10.9061 35.2028 7.7929 33.3803 4.67969 31.5565L2.59961 30.3385L4.91741 29.6769C9.18562 28.4583 13.452 27.2379 17.7202 26.018C18.8062 22.789 19.8922 19.5599 20.9781 16.3308C22.1217 12.9307 23.2653 9.53051 24.4083 6.13035L25.3838 3.22904L26.3611 6.12974H26.3623ZM27.68 27.5759C26.4686 27.9372 25.2565 28.2986 24.0445 28.6594C23.775 28.7405 23.506 28.8209 23.2371 28.9007C23.1465 28.9278 23.0552 28.9548 22.9646 28.9818L22.7112 29.8396C22.4567 30.7011 22.2022 31.5655 21.9464 32.4276C21.7351 33.1425 21.5226 33.8581 21.3113 34.5725C21.2098 34.9147 21.1102 35.2472 21.0105 35.5852L21.3731 35.7833C21.911 36.0769 22.4495 36.3704 22.988 36.664C23.5264 36.9575 24.0649 37.2511 24.6028 37.5452C26.4344 38.5435 28.2653 39.543 30.0962 40.542C31.1552 41.1195 32.2141 41.697 33.2725 42.2745C32.2123 39.1474 31.1522 36.021 30.092 32.894C29.4971 31.1387 28.901 29.381 28.3055 27.6239L28.2335 27.4114C28.0492 27.4666 27.8655 27.5212 27.6812 27.5765L27.68 27.5759ZM15.274 31.2774H15.271L15.268 31.2792C15.1593 31.311 15.0555 31.3416 14.9522 31.3728H14.9498L14.9474 31.374C14.5902 31.4809 14.2324 31.5871 13.8752 31.6934C14.4215 31.9911 14.9678 32.2895 15.5141 32.5872C15.6864 32.0752 15.8587 31.5631 16.031 31.0505C15.7788 31.1255 15.5267 31.2005 15.2746 31.2768L15.274 31.2774ZM25.2349 21.329C24.96 22.2559 24.685 23.1822 24.4107 24.1091C24.5848 24.0592 24.7595 24.0094 24.9336 23.9596H24.9354C25.1143 23.9086 25.2932 23.8569 25.4733 23.8053C25.6491 23.7549 25.8268 23.7038 26.0051 23.6534L26.2224 23.591C26.4404 23.5286 26.6577 23.4661 26.8738 23.4043L25.6702 19.8577C25.5249 20.3481 25.3796 20.838 25.2343 21.3284L25.2349 21.329Z"
                      fill="url(#paint0_linear_3118_2582)" />
                    <path
                      d="M6.55419 56L12.777 37.4924L0 30.0101L16.9174 25.177L25.3835 0L29.2543 11.4881C30.2953 14.5792 31.3362 17.6695 32.3784 20.7605L35.2172 19.9489C36.4839 19.5863 37.7349 19.1931 38.944 18.8131C41.4629 18.0213 43.8419 17.2733 46.2251 16.8213L53.9217 15.3602L43.9536 23.7903L43.5412 23.9134C42.912 24.1013 42.4822 24.2309 42.0728 24.354C41.5661 24.5071 41.0901 24.6506 40.3067 24.8835L34.3642 26.6568C34.5659 27.2553 34.7676 27.8532 34.9693 28.4511H34.9705L35.4436 29.8553C37.475 35.8872 39.5083 41.9197 41.5415 47.9522L44.2219 55.9052L20.2239 41.8537L19.2033 45.2971L6.55239 56H6.55419ZM18.998 38.7465L40.512 51.344L39.5905 48.6108C37.5573 42.5777 35.524 36.5457 33.4919 30.5126L33.2554 29.8114C32.876 28.6895 32.4978 27.5675 32.1208 26.4461L31.7306 25.2935L39.7202 22.9085C40.5006 22.6761 40.9748 22.5333 41.4797 22.3814C41.8909 22.2577 42.3219 22.1275 42.9528 21.939L46.6099 18.8456C44.3456 19.2754 42.0224 20.006 39.5623 20.7792C38.3407 21.1634 37.077 21.5602 35.7917 21.9282L31.0529 23.2825L30.6639 22.1257C29.5425 18.7993 28.4217 15.473 27.3009 12.1461L25.3853 6.45934L18.5244 26.8609L5.20049 30.6681L15.2623 36.5613L10.859 49.6577L17.4024 44.1217L18.9962 38.7459L18.998 38.7465ZM35.0954 44.4428L19.785 36.0907L20.9581 32.1364C21.179 31.3933 21.3981 30.6501 21.6172 29.9081L22.1347 28.1552L27.385 26.5884L28.8882 26.1399L35.0954 44.4422V44.4428ZM22.2349 35.0804L31.4491 40.1056L27.5759 28.6823C26.4965 29.004 25.4172 29.3258 24.3378 29.647L23.7951 29.8096L23.5742 30.5576C23.3617 31.2786 23.1486 32.0008 22.9349 32.7211L22.2355 35.0804H22.2349ZM16.1027 34.0682L13.3815 32.5987L11.209 31.4131L14.6752 30.3805C14.7682 30.3523 14.8625 30.3247 14.9597 30.2965L14.9754 30.2917L17.6395 29.4963L16.1021 34.0682H16.1027ZM22.8893 25.6165L25.6045 16.4569L28.1972 24.0983L22.8893 25.6165Z"
                      fill="#000326" />
                    <defs>
                      <linearGradient id="paint0_linear_3118_2582" x1="26.4338" y1="3.22964" x2="26.4338" y2="53.6239"
                        gradientUnits="userSpaceOnUse">
                        <stop stop-color="#FFE59E" />
                        <stop offset="1" stop-color="#FFBC01" />
                      </linearGradient>
                    </defs>
                  </svg>