<svg xmlns="http://www.w3.org/2000/svg" width="64" height="64" viewBox="0 0 64 64" fill="none">
                  <rect x="1.06667" y="1.06667" width="61.8667" height="61.8667" rx="13.6"
                    fill="url(#paint0_linear_2686_2928)" />
                  <rect x="1.06667" y="1.06667" width="61.8667" height="61.8667" rx="13.6" stroke="#000326"
                    stroke-width="2.13333" />
                  <g clip-path="url(#clip0_2686_2928)">
                    <path
                      d="M18 38.666C15.0179 38.666 12 39.582 12 41.3327V49.3327C12 51.0833 15.0179 51.9993 18 51.9993C20.9821 51.9993 24 51.0833 24 49.3327V41.3327C24 39.582 20.9821 38.666 18 38.666ZM18 39.9993C21.0312 39.9993 22.6667 40.946 22.6667 41.3327C22.6667 41.7194 21.0312 42.666 18 42.666C14.9688 42.666 13.3333 41.7194 13.3333 41.3327C13.3333 40.946 14.9688 39.9993 18 39.9993ZM18 50.666C14.9688 50.666 13.3333 49.7194 13.3333 49.3327V48.3994C14.7979 49.0612 16.3939 49.3802 18 49.3327C19.6061 49.3802 21.2021 49.0612 22.6667 48.3994V49.3327C22.6667 49.7194 21.0312 50.666 18 50.666ZM18 47.9993C14.9688 47.9993 13.3333 47.0527 13.3333 46.666V45.7327C14.7979 46.3945 16.3939 46.7135 18 46.666C19.6061 46.7135 21.2021 46.3945 22.6667 45.7327V46.666C22.6667 47.0527 21.0312 47.9993 18 47.9993ZM18 45.3327C14.9688 45.3327 13.3333 44.3861 13.3333 43.9993V43.0661C14.7979 43.7279 16.3939 44.0469 18 43.9993C19.6061 44.0469 21.2021 43.7279 22.6667 43.0661V43.9993C22.6667 44.3861 21.0312 45.3327 18 45.3327Z"
                      fill="#000326" />
                    <path
                      d="M32 33.334C29.0179 33.334 26 34.25 26 36.0007V49.334C26 51.0846 29.0179 52.0007 32 52.0007C34.9821 52.0007 38 51.0846 38 49.334V36.0007C38 34.25 34.9821 33.334 32 33.334ZM32 34.6673C35.0312 34.6673 36.6667 35.6139 36.6667 36.0007C36.6667 36.3874 35.0312 37.334 32 37.334C28.9688 37.334 27.3333 36.3874 27.3333 36.0007C27.3333 35.6139 28.9688 34.6673 32 34.6673ZM32 50.6673C28.9688 50.6673 27.3333 49.7207 27.3333 49.334V48.4007C28.7979 49.0625 30.3939 49.3815 32 49.334C33.6061 49.3815 35.2021 49.0625 36.6667 48.4007V49.334C36.6667 49.7207 35.0312 50.6673 32 50.6673ZM32 48.0007C28.9688 48.0007 27.3333 47.054 27.3333 46.6673V45.734C28.7979 46.3958 30.3939 46.7148 32 46.6673C33.6061 46.7148 35.2021 46.3958 36.6667 45.734V46.6673C36.6667 47.054 35.0312 48.0007 32 48.0007ZM32 45.334C28.9688 45.334 27.3333 44.3874 27.3333 44.0007V43.0674C28.7979 43.7292 30.3939 44.0482 32 44.0007C33.6061 44.0482 35.2021 43.7292 36.6667 43.0674V44.0007C36.6667 44.3874 35.0312 45.334 32 45.334ZM32 42.6673C28.9688 42.6673 27.3333 41.7207 27.3333 41.334V40.4007C28.7979 41.0625 30.3939 41.3815 32 41.334C33.6061 41.3815 35.2021 41.0625 36.6667 40.4007V41.334C36.6667 41.7207 35.0312 42.6673 32 42.6673ZM32 40.0007C28.9688 40.0007 27.3333 39.054 27.3333 38.6673V37.734C28.7979 38.3958 30.3939 38.7148 32 38.6673C33.6061 38.7148 35.2021 38.3958 36.6667 37.734V38.6673C36.6667 39.054 35.0312 40.0007 32 40.0007Z"
                      fill="#000326" />
                    <path
                      d="M46 25.334C43.0179 25.334 40 26.25 40 28.0007V49.334C40 51.0846 43.0179 52.0007 46 52.0007C48.9821 52.0007 52 51.0846 52 49.334V28.0007C52 26.25 48.9821 25.334 46 25.334ZM46 26.6673C49.0312 26.6673 50.6667 27.6139 50.6667 28.0007C50.6667 28.3874 49.0312 29.334 46 29.334C42.9688 29.334 41.3333 28.3874 41.3333 28.0007C41.3333 27.6139 42.9688 26.6673 46 26.6673ZM46 50.6673C42.9688 50.6673 41.3333 49.7207 41.3333 49.334V48.4007C42.7979 49.0625 44.3939 49.3815 46 49.334C47.6061 49.3815 49.2021 49.0625 50.6667 48.4007V49.334C50.6667 49.7207 49.0312 50.6673 46 50.6673ZM46 48.0007C42.9688 48.0007 41.3333 47.054 41.3333 46.6673V45.7341C42.7979 46.3958 44.3939 46.7148 46 46.6673C47.6061 46.7148 49.2021 46.3958 50.6667 45.7341V46.6673C50.6667 47.054 49.0312 48.0007 46 48.0007ZM46 45.334C42.9688 45.334 41.3333 44.3874 41.3333 44.0007V43.0674C42.7979 43.7292 44.3939 44.0482 46 44.0007C47.6061 44.0482 49.2021 43.7292 50.6667 43.0674V44.0007C50.6667 44.3874 49.0312 45.334 46 45.334ZM46 42.6673C42.9688 42.6673 41.3333 41.7207 41.3333 41.334V40.4007C42.7979 41.0625 44.3939 41.3815 46 41.334C47.6061 41.3815 49.2021 41.0625 50.6667 40.4007V41.334C50.6667 41.7207 49.0312 42.6673 46 42.6673ZM46 40.0007C42.9688 40.0007 41.3333 39.054 41.3333 38.6673V37.734C42.7979 38.3958 44.3939 38.7148 46 38.6673C47.6061 38.7148 49.2021 38.3958 50.6667 37.734V38.6673C50.6667 39.054 49.0312 40.0007 46 40.0007ZM46 37.334C42.9688 37.334 41.3333 36.3874 41.3333 36.0007V35.0674C42.7979 35.7292 44.3939 36.0482 46 36.0007C47.6061 36.0482 49.2021 35.7292 50.6667 35.0674V36.0007C50.6667 36.3874 49.0312 37.334 46 37.334ZM46 34.6673C42.9688 34.6673 41.3333 33.7207 41.3333 33.334V32.4007C42.7979 33.0625 44.3939 33.3815 46 33.334C47.6061 33.3815 49.2021 33.0625 50.6667 32.4007V33.334C50.6667 33.7207 49.0312 34.6673 46 34.6673ZM46 32.0007C42.9688 32.0007 41.3333 31.054 41.3333 30.6673V29.734C42.7979 30.3958 44.3939 30.7148 46 30.6673C47.6061 30.7148 49.2021 30.3958 50.6667 29.734V30.6673C50.6667 31.054 49.0312 32.0007 46 32.0007Z"
                      fill="#000326" />
                    <path
                      d="M44.667 12V13.3333H49.7243L37.0576 26H23.083L12.2275 35.498L13.1064 36.502L23.5843 27.3333H37.6097L50.667 14.276V19.3333H52.0003V12H44.667Z"
                      fill="#000326" />
                  </g>
                  <defs>
                    <linearGradient id="paint0_linear_2686_2928" x1="32" y1="0" x2="32" y2="64"
                      gradientUnits="userSpaceOnUse">
                      <stop stop-color="#FFE59E" />
                      <stop offset="1" stop-color="#FFBC01" />
                    </linearGradient>
                    <clipPath id="clip0_2686_2928">
                      <rect width="40" height="40" fill="white" transform="translate(12 12)" />
                    </clipPath>
                  </defs>
                </svg>