<svg xmlns="http://www.w3.org/2000/svg" width="88" height="88" viewBox="0 0 88 88" fill="none">
                    <path
                      d="M28.0649 17.0843L30.5885 24.0927C33.3918 31.8709 39.517 37.9961 47.2953 40.7995L54.3036 43.3231C54.9353 43.5525 54.9353 44.4482 54.3036 44.6745L47.2953 47.1981C39.517 50.0014 33.3918 56.1266 30.5885 63.9049L28.0649 70.9132C27.8355 71.5449 26.9398 71.5449 26.7135 70.9132L24.1899 63.9049C21.3866 56.1266 15.2613 50.0014 7.48306 47.1981L0.474745 44.6745C-0.156946 44.4451 -0.156946 43.5494 0.474745 43.3231L7.48306 40.7995C15.2613 37.9961 21.3866 31.8709 24.1899 24.0927L26.7135 17.0843C26.9398 16.4495 27.8355 16.4495 28.0649 17.0843Z"
                      fill="url(#paint0_linear_2936_1856)" />
                    <path
                      d="M59.6115 0.242777L60.8906 3.79093C62.3111 7.72879 65.413 10.8307 69.3508 12.2512L72.899 13.5303C73.2196 13.6466 73.2196 14.0991 72.899 14.2154L69.3508 15.4945C65.413 16.915 62.3111 20.0169 60.8906 23.9548L59.6115 27.5029C59.4952 27.8235 59.0427 27.8235 58.9264 27.5029L57.6473 23.9548C56.2268 20.0169 53.1249 16.915 49.187 15.4945L45.6389 14.2154C45.3183 14.0991 45.3183 13.6466 45.6389 13.5303L49.187 12.2512C53.1249 10.8307 56.2268 7.72879 57.6473 3.79093L58.9264 0.242777C59.0427 -0.0809256 59.4984 -0.0809256 59.6115 0.242777Z"
                      fill="url(#paint1_linear_2936_1856)" />
                    <path
                      d="M59.6115 60.4988L60.8906 64.047C62.3111 67.9848 65.413 71.0867 69.3508 72.5072L72.899 73.7863C73.2196 73.9026 73.2196 74.3552 72.899 74.4714L69.3508 75.7505C65.413 77.1711 62.3111 80.2729 60.8906 84.2108L59.6115 87.759C59.4952 88.0795 59.0427 88.0795 58.9264 87.759L57.6473 84.2108C56.2268 80.2729 53.1249 77.1711 49.187 75.7505L45.6389 74.4714C45.3183 74.3552 45.3183 73.9026 45.6389 73.7863L49.187 72.5072C53.1249 71.0867 56.2268 67.9848 57.6473 64.047L58.9264 60.4988C59.0427 60.1783 59.4984 60.1783 59.6115 60.4988Z"
                      fill="url(#paint2_linear_2936_1856)" />
                    <defs>
                      <linearGradient id="paint0_linear_2936_1856" x1="27.3892" y1="16.6082" x2="27.3892" y2="71.387"
                        gradientUnits="userSpaceOnUse">
                        <stop stop-color="#FFE59E" />
                        <stop offset="1" stop-color="#FFBC01" />
                      </linearGradient>
                      <linearGradient id="paint1_linear_2936_1856" x1="59.2689" y1="0" x2="59.2689" y2="27.7433"
                        gradientUnits="userSpaceOnUse">
                        <stop stop-color="#FFE59E" />
                        <stop offset="1" stop-color="#FFBC01" />
                      </linearGradient>
                      <linearGradient id="paint2_linear_2936_1856" x1="59.2689" y1="60.2584" x2="59.2689" y2="87.9994"
                        gradientUnits="userSpaceOnUse">
                        <stop stop-color="#FFE59E" />
                        <stop offset="1" stop-color="#FFBC01" />
                      </linearGradient>
                    </defs>
                  </svg>