<svg xmlns="http://www.w3.org/2000/svg" width="64" height="64" viewBox="0 0 64 64" fill="none">
                  <rect x="1.06667" y="1.06667" width="61.8667" height="61.8667" rx="13.6"
                    fill="url(#paint0_linear_2694_3351)" />
                  <rect x="1.06667" y="1.06667" width="61.8667" height="61.8667" rx="13.6" stroke="#000326"
                    stroke-width="2.13333" />
                  <path
                    d="M28.2672 42.1121L14.5172 35.8621C14.0535 35.6509 13.5047 35.7434 13.1372 36.0959C12.7672 36.4484 12.6497 36.9909 12.8397 37.4646L15.1547 43.2509L12.8397 49.0371C12.651 49.5108 12.7672 50.0521 13.1372 50.4059C13.3735 50.6321 13.6847 50.7508 13.9997 50.7508C14.1747 50.7508 14.351 50.7146 14.5172 50.6383L28.2672 44.3884C28.7122 44.1859 28.9997 43.7409 28.9997 43.2509C28.9997 42.7609 28.7135 42.3146 28.2672 42.1121ZM16.316 47.0746L17.6597 43.7146C17.7785 43.4171 17.7785 43.0846 17.6597 42.7871L16.316 39.4271L24.7272 43.2521L16.316 47.0771V47.0746Z"
                    fill="#000326" />
                  <path
                    d="M42.75 28.25C46.8862 28.25 50.25 24.8862 50.25 20.75C50.25 16.6137 46.8862 13.25 42.75 13.25C38.6137 13.25 35.25 16.6137 35.25 20.75C35.25 24.8862 38.6137 28.25 42.75 28.25ZM42.75 15.75C45.5075 15.75 47.75 17.9925 47.75 20.75C47.75 23.5075 45.5075 25.75 42.75 25.75C39.9925 25.75 37.75 23.5075 37.75 20.75C37.75 17.9925 39.9925 15.75 42.75 15.75Z"
                    fill="#000326" />
                  <path
                    d="M43.375 30.7503H19.625C17.2125 30.7503 15.25 28.7878 15.25 26.3753C15.25 23.9628 17.2125 22.0003 19.625 22.0003H29.7325L29.3663 22.3666C28.8775 22.8553 28.8775 23.6453 29.3663 24.1341C29.61 24.3778 29.93 24.5003 30.25 24.5003C30.57 24.5003 30.89 24.3778 31.1337 24.1341L33.6338 21.6341C34.1225 21.1453 34.1225 20.3553 33.6338 19.8666L31.1337 17.3666C30.645 16.8778 29.855 16.8778 29.3663 17.3666C28.8775 17.8553 28.8775 18.6453 29.3663 19.1341L29.7325 19.5003H19.625C15.835 19.5003 12.75 22.5841 12.75 26.3753C12.75 30.1666 15.835 33.2503 19.625 33.2503H43.375C45.7875 33.2503 47.75 35.2128 47.75 37.6253C47.75 40.0378 45.7875 42.0003 43.375 42.0003H31.5C30.8088 42.0003 30.25 42.5591 30.25 43.2503C30.25 43.9416 30.8088 44.5003 31.5 44.5003H43.375C47.165 44.5003 50.25 41.4153 50.25 37.6253C50.25 33.8353 47.165 30.7503 43.375 30.7503Z"
                    fill="#000326" />
                  <path
                    d="M42.75 24.5C44.8175 24.5 46.5 22.8175 46.5 20.75C46.5 18.6825 44.8175 17 42.75 17C40.6825 17 39 18.6825 39 20.75C39 22.8175 40.6825 24.5 42.75 24.5ZM42.75 19.5C43.44 19.5 44 20.0612 44 20.75C44 21.4387 43.44 22 42.75 22C42.06 22 41.5 21.4387 41.5 20.75C41.5 20.0612 42.06 19.5 42.75 19.5Z"
                    fill="#000326" />
                  <defs>
                    <linearGradient id="paint0_linear_2694_3351" x1="32" y1="0" x2="32" y2="64"
                      gradientUnits="userSpaceOnUse">
                      <stop stop-color="#FFE59E" />
                      <stop offset="1" stop-color="#FFBC01" />
                    </linearGradient>
                  </defs>
                </svg>