<svg xmlns="http://www.w3.org/2000/svg" width="88" height="88" viewBox="0 0 88 88" fill="none">
                  <path fill-rule="evenodd" clip-rule="evenodd"
                    d="M69.234 10.084C72.006 10.084 74.657 11.1327 76.615 12.9843C78.6317 14.8873 79.75 17.476 79.75 20.1673V56.834C79.75 59.5253 78.6317 62.114 76.615 64.017C74.657 65.8687 72.006 66.9173 69.234 66.9173H18.766C15.994 66.9173 13.343 65.8687 11.385 64.017C9.36833 62.114 8.25 59.5253 8.25 56.834V20.1673C8.25 17.476 9.36833 14.8873 11.385 12.9843C13.343 11.1327 15.994 10.084 18.766 10.084H69.234ZM25.6667 46.7507C25.6667 48.2687 26.8987 49.5007 28.4167 49.5007C29.9347 49.5007 31.1667 48.2687 31.1667 46.7507V42.1673H36.6667V46.7507C36.6667 48.2687 37.8987 49.5007 39.4167 49.5007C40.9347 49.5007 42.1667 48.2687 42.1667 46.7507V35.7507C42.1667 31.193 38.4743 27.5007 33.9167 27.5007C29.359 27.5007 25.6667 31.193 25.6667 35.7507V46.7507ZM36.6667 36.6673H31.1667V35.7507C31.1667 34.2327 32.3987 33.0007 33.9167 33.0007C35.4347 33.0007 36.6667 34.2327 36.6667 35.7507V36.6673ZM45.8333 46.7507C45.8333 48.2687 47.0653 49.5007 48.5833 49.5007H54.0833C58.641 49.5007 62.3333 45.8083 62.3333 41.2507V35.7507C62.3333 31.193 58.641 27.5007 54.0833 27.5007H48.5833C47.0653 27.5007 45.8333 28.7327 45.8333 30.2507V46.7507ZM51.3333 44.0007V33.0007H54.0833C55.6013 33.0007 56.8333 34.2327 56.8333 35.7507V41.2507C56.8333 42.7687 55.6013 44.0007 54.0833 44.0007H51.3333Z"
                    fill="url(#paint0_linear_3034_2029)" />
                  <path fill-rule="evenodd" clip-rule="evenodd"
                    d="M80.6666 72.418C82.1846 72.418 83.4166 73.65 83.4166 75.168C83.4166 76.686 82.1846 77.918 80.6666 77.918H7.33325C5.81525 77.918 4.58325 76.686 4.58325 75.168C4.58325 73.65 5.81525 72.418 7.33325 72.418H80.6666Z"
                    fill="url(#paint1_linear_3034_2029)" />
                  <defs>
                    <linearGradient id="paint0_linear_3034_2029" x1="44" y1="10.084" x2="44" y2="66.9173"
                      gradientUnits="userSpaceOnUse">
                      <stop stop-color="#FFE59E" />
                      <stop offset="1" stop-color="#FFBC01" />
                    </linearGradient>
                    <linearGradient id="paint1_linear_3034_2029" x1="43.9999" y1="72.418" x2="43.9999" y2="77.918"
                      gradientUnits="userSpaceOnUse">
                      <stop stop-color="#FFE59E" />
                      <stop offset="1" stop-color="#FFBC01" />
                    </linearGradient>
                  </defs>
                </svg>