<svg xmlns="http://www.w3.org/2000/svg" width="64" height="64" viewBox="0 0 64 64" fill="none">
                  <rect x="1.06667" y="1.06667" width="61.8667" height="61.8667" rx="13.6"
                    fill="url(#paint0_linear_2482_380)" />
                  <rect x="1.06667" y="1.06667" width="61.8667" height="61.8667" rx="13.6" stroke="#000326"
                    stroke-width="2.13333" />
                  <g clip-path="url(#clip0_2482_380)">
                    <path
                      d="M38.2262 34.9896C39.3266 33.5825 40.6962 31.8312 40.6962 29.0116C40.6962 24.2167 36.7953 20.3157 32.0004 20.3157C27.2056 20.3157 23.3046 24.2167 23.3046 29.0116C23.3046 31.8312 24.6741 33.5825 25.7745 34.9896C26.4635 35.8707 27.0076 36.5665 27.0076 37.2414C27.0076 37.2616 27.0097 37.2813 27.0106 37.3012V42.398C27.0106 43.1099 27.5878 43.6871 28.2997 43.6871H35.7025C36.4144 43.6871 36.9915 43.1099 36.9915 42.398V37.2729C36.9918 37.2624 36.9932 37.252 36.9932 37.2414C36.9931 36.5666 37.5372 35.8707 38.2262 34.9896ZM25.8827 29.0116C25.8827 25.6383 28.6271 22.8939 32.0004 22.8939C35.3738 22.8939 38.1181 25.6383 38.1181 29.0116C38.1181 30.9429 37.1841 32.1371 36.1954 33.4015C35.5788 34.1901 34.9473 34.9975 34.628 35.9524H33.2895V31.2772L34.8631 30.0183C35.4191 29.5735 35.5092 28.7623 35.0644 28.2064C34.6196 27.6505 33.8084 27.5603 33.2525 28.0051L32.0004 29.0068L30.7482 28.0051C30.1923 27.5604 29.3811 27.6506 28.9364 28.2064C28.4917 28.7623 28.5818 29.5735 29.1377 30.0183L30.7113 31.2772V35.9524H29.3727C29.0534 34.9976 28.422 34.1901 27.8054 33.4015C26.8166 32.1371 25.8827 30.9428 25.8827 29.0116ZM29.5887 41.1089V38.5305H34.4133V41.1089H29.5887Z"
                      fill="#000326" />
                    <path
                      d="M31.9999 17.7344C33.381 17.7344 34.5946 17.0061 35.2788 15.914C37.4843 16.3633 39.5983 17.2733 41.4429 18.5733C41.6686 18.7324 41.9278 18.8088 42.1844 18.8088C42.5894 18.8088 42.9882 18.6184 43.2393 18.2622C43.6494 17.6803 43.5101 16.8761 42.9282 16.466C40.8058 14.9702 38.3747 13.9211 35.8376 13.3975C35.6049 11.4859 33.9732 10 31.9999 10C29.8675 10 28.1327 11.7348 28.1327 13.8672C28.1327 15.9996 29.8675 17.7344 31.9999 17.7344ZM31.9999 12.5781C32.7107 12.5781 33.2889 13.1564 33.2889 13.8672C33.2889 14.578 32.7107 15.1562 31.9999 15.1562C31.2891 15.1562 30.7108 14.578 30.7108 13.8672C30.7108 13.1564 31.2891 12.5781 31.9999 12.5781Z"
                      fill="#000326" />
                    <path
                      d="M32.0003 46.2657C30.6192 46.2657 29.4056 46.994 28.7213 48.0861C26.5159 47.6367 24.4018 46.7268 22.5571 45.4268C21.9752 45.0168 21.171 45.1561 20.7608 45.7379C20.3508 46.3198 20.4901 47.1241 21.072 47.5341C23.1944 49.0299 25.6255 50.079 28.1626 50.6026C28.3952 52.5141 30.0269 54.0001 32.0002 54.0001C34.1326 54.0001 35.8674 52.2653 35.8674 50.1329C35.8675 48.0005 34.1326 46.2657 32.0003 46.2657ZM32.0003 51.4219C31.2895 51.4219 30.7112 50.8437 30.7112 50.1329C30.7112 49.4221 31.2895 48.8438 32.0003 48.8438C32.7111 48.8438 33.2893 49.4221 33.2893 50.1329C33.2893 50.8437 32.7111 51.4219 32.0003 51.4219Z"
                      fill="#000326" />
                    <path
                      d="M47.7025 37.1992C45.5701 37.1992 43.8353 38.934 43.8353 41.0664C43.8353 41.7213 43.9995 42.3385 44.2881 42.8796C42.7906 44.5674 40.9472 45.9447 38.908 46.8925C38.2624 47.1926 37.9823 47.9592 38.2824 48.6048C38.5008 49.0747 38.9661 49.351 39.4522 49.351C39.634 49.351 39.8189 49.3122 39.9947 49.2306C42.3399 48.1405 44.4603 46.5596 46.1863 44.6237C46.6521 44.823 47.1646 44.9337 47.7025 44.9337C49.8348 44.9337 51.5696 43.1989 51.5696 41.0665C51.5696 38.934 49.8348 37.1992 47.7025 37.1992ZM47.7025 42.3555C46.9917 42.3555 46.4134 41.7773 46.4134 41.0664C46.4134 40.3556 46.9917 39.7773 47.7025 39.7773C48.4132 39.7773 48.9915 40.3556 48.9915 41.0664C48.9915 41.7773 48.4132 42.3555 47.7025 42.3555Z"
                      fill="#000326" />
                    <path
                      d="M16.4273 37.2023C15.8687 35.5312 15.5859 33.7846 15.5859 32C15.5859 31.5166 15.6077 31.0245 15.6506 30.5374C15.7132 29.8282 15.189 29.2026 14.4797 29.14C13.7706 29.0777 13.145 29.6018 13.0825 30.3109C13.0329 30.873 13.0078 31.4412 13.0078 31.9999C13.0078 34.0498 13.3311 36.0572 13.9693 37.9801C13.0347 38.6867 12.4294 39.8069 12.4294 41.0662C12.4294 43.1986 14.1643 44.9334 16.2966 44.9334C18.429 44.9334 20.1638 43.1986 20.1638 41.0662C20.1638 38.9776 18.4993 37.2718 16.4273 37.2023ZM16.2966 42.3553C15.5858 42.3553 15.0076 41.7771 15.0076 41.0663C15.0076 40.3555 15.5858 39.7772 16.2966 39.7772C17.0074 39.7772 17.5857 40.3555 17.5857 41.0663C17.5857 41.7771 17.0074 42.3553 16.2966 42.3553Z"
                      fill="#000326" />
                    <path
                      d="M47.5715 26.7974C48.1301 28.4681 48.4138 30.2135 48.4138 31.9999C48.4138 32.7118 48.991 33.289 49.7029 33.289C50.4148 33.289 50.992 32.7118 50.992 31.9999C50.992 29.9484 50.6679 27.9423 50.0298 26.0203C50.9648 25.3137 51.5703 24.1932 51.5703 22.9336C51.5703 20.8012 49.8355 19.0664 47.7031 19.0664C45.5708 19.0664 43.8359 20.8012 43.8359 22.9336C43.8359 25.0219 45.4999 26.7276 47.5715 26.7974ZM47.7031 21.6445C48.4139 21.6445 48.9922 22.2228 48.9922 22.9336C48.9922 23.6444 48.4139 24.2227 47.7031 24.2227C46.9923 24.2227 46.4141 23.6444 46.4141 22.9336C46.4141 22.2228 46.9923 21.6445 47.7031 21.6445Z"
                      fill="#000326" />
                    <path
                      d="M25.091 17.1075C25.7367 16.8074 26.0168 16.0408 25.7167 15.3952C25.4166 14.7496 24.65 14.4695 24.0044 14.7695C21.6591 15.8597 19.5388 17.4406 17.8128 19.3764C17.347 19.1771 16.8345 19.0664 16.2966 19.0664C14.1643 19.0664 12.4294 20.8012 12.4294 22.9336C12.4294 25.066 14.1643 26.8008 16.2966 26.8008C18.429 26.8008 20.1638 25.0661 20.1638 22.9336C20.1638 22.2787 19.9996 21.6616 19.7111 21.1204C21.2084 19.4326 23.0517 18.0553 25.091 17.1075ZM16.2966 24.2227C15.5858 24.2227 15.0076 23.6444 15.0076 22.9336C15.0076 22.2228 15.5858 21.6445 16.2966 21.6445C17.0074 21.6445 17.5857 22.2228 17.5857 22.9336C17.5857 23.6444 17.0074 24.2227 16.2966 24.2227Z"
                      fill="#000326" />
                  </g>
                  <defs>
                    <linearGradient id="paint0_linear_2482_380" x1="32" y1="0" x2="32" y2="64"
                      gradientUnits="userSpaceOnUse">
                      <stop stop-color="#FFE59E" />
                      <stop offset="1" stop-color="#FFBC01" />
                    </linearGradient>
                    <clipPath id="clip0_2482_380">
                      <rect width="44" height="44" fill="white" transform="translate(10 10)" />
                    </clipPath>
                  </defs>
                </svg>