<svg xmlns="http://www.w3.org/2000/svg" width="64" height="64" viewBox="0 0 64 64" fill="none">
                  <rect x="1.06667" y="1.06667" width="61.8667" height="61.8667" rx="13.6"
                    fill="url(#paint0_linear_2527_3647)" />
                  <rect x="1.06667" y="1.06667" width="61.8667" height="61.8667" rx="13.6" stroke="#000326"
                    stroke-width="2.13333" />
                  <g clip-path="url(#clip0_2527_3647)">
                    <path
                      d="M50.5625 21.0005H49.6696C50.4673 20.1106 50.9903 19.0088 51.1754 17.8282C51.3604 16.6475 51.1996 15.4386 50.7123 14.3474C50.2251 13.2561 49.4323 12.3294 48.4297 11.679C47.4271 11.0287 46.2576 10.6826 45.0625 10.6826C43.8674 10.6826 42.6979 11.0287 41.6953 11.679C40.6927 12.3294 39.8999 13.2561 39.4126 14.3474C38.9254 15.4386 38.7646 16.6475 38.9496 17.8282C39.1347 19.0088 39.6577 20.1106 40.4554 21.0005H32V14.1255C32 13.9431 31.9276 13.7683 31.7986 13.6393C31.6697 13.5104 31.4948 13.438 31.3125 13.438H28.5625C28.3802 13.438 28.2053 13.5104 28.0764 13.6393C27.9474 13.7683 27.875 13.9431 27.875 14.1255V21.0005H27.1875V11.3755C27.1875 11.1931 27.1151 11.0183 26.9861 10.8893C26.8572 10.7604 26.6823 10.688 26.5 10.688H23.75C23.5677 10.688 23.3928 10.7604 23.2639 10.8893C23.1349 11.0183 23.0625 11.1931 23.0625 11.3755V21.0005H22.375V16.188C22.375 16.0056 22.3026 15.8308 22.1736 15.7018C22.0447 15.5729 21.8698 15.5005 21.6875 15.5005H18.9375C18.7552 15.5005 18.5803 15.5729 18.4514 15.7018C18.3224 15.8308 18.25 16.0056 18.25 16.188V21.0005H13.4375C12.7084 21.0013 12.0094 21.2913 11.4939 21.8068C10.9783 22.3224 10.6883 23.0214 10.6875 23.7505V44.3755C10.6883 45.1045 10.9783 45.8035 11.4939 46.3191C12.0094 46.8346 12.7084 47.1246 13.4375 47.1255H27.6086L26.6916 49.8755H24.4375C24.2552 49.8755 24.0803 49.9479 23.9514 50.0768C23.8224 50.2058 23.75 50.3806 23.75 50.563V51.938H16.875C16.6927 51.938 16.5178 52.0104 16.3889 52.1393C16.2599 52.2683 16.1875 52.4431 16.1875 52.6255C16.1875 52.8078 16.2599 52.9827 16.3889 53.1116C16.5178 53.2405 16.6927 53.313 16.875 53.313H47.125C47.3073 53.313 47.4822 53.2405 47.6111 53.1116C47.7401 52.9827 47.8125 52.8078 47.8125 52.6255C47.8125 52.4431 47.7401 52.2683 47.6111 52.1393C47.4822 52.0104 47.3073 51.938 47.125 51.938H40.25V50.563C40.25 50.3806 40.1776 50.2058 40.0486 50.0768C39.9197 49.9479 39.7448 49.8755 39.5625 49.8755H37.3084L36.3914 47.1255H50.5625C51.2916 47.1246 51.9906 46.8346 52.5061 46.3191C53.0217 45.8035 53.3117 45.1045 53.3125 44.3755V23.7505C53.3117 23.0214 53.0217 22.3224 52.5061 21.8068C51.9906 21.2913 51.2916 21.0013 50.5625 21.0005ZM45.75 12.1128C46.7775 12.2627 47.7291 12.7403 48.4634 13.4746C49.1976 14.2088 49.6752 15.1605 49.8252 16.188H45.75V12.1128ZM45.347 17.563H49.8252C49.7064 18.3891 49.3747 19.1701 48.8627 19.8292C48.3507 20.4882 47.6759 21.0027 46.9048 21.3221C46.1337 21.6414 45.2928 21.7545 44.4647 21.6504C43.6366 21.5462 42.8499 21.2284 42.1819 20.728L45.347 17.563ZM40.25 16.8755C40.2517 15.7187 40.6692 14.6012 41.4265 13.7268C42.1839 12.8524 43.2304 12.2796 44.375 12.1128V16.591L41.2099 19.7561C40.5859 18.9255 40.2489 17.9144 40.25 16.8755ZM29.25 14.813H30.625V27.8755H29.25V14.813ZM27.1875 22.3755H27.875V27.8755H27.1875V22.3755ZM24.4375 12.063H25.8125V27.8755H24.4375V12.063ZM22.375 22.3755H23.0625V27.8755H22.375V22.3755ZM19.625 16.8755H21V27.8755H19.625V16.8755ZM38.875 51.2505V51.938H25.125V51.2505H38.875ZM28.1414 49.8755L29.0584 47.1255H34.9416L35.8586 49.8755H28.1414ZM51.9375 44.3755C51.937 44.74 51.792 45.0894 51.5342 45.3472C51.2765 45.605 50.927 45.75 50.5625 45.7505H13.4375C13.073 45.75 12.7235 45.605 12.4658 45.3472C12.208 45.0894 12.063 44.74 12.0625 44.3755V43.0005H51.9375V44.3755ZM51.9375 41.6255H12.0625V23.7505C12.063 23.3859 12.208 23.0365 12.4658 22.7787C12.7235 22.521 13.073 22.3759 13.4375 22.3755H18.25V27.8755H17.5625V23.7505C17.5625 23.5681 17.4901 23.3933 17.3611 23.2643C17.2322 23.1354 17.0573 23.063 16.875 23.063H14.125C13.9427 23.063 13.7678 23.1354 13.6389 23.2643C13.5099 23.3933 13.4375 23.5681 13.4375 23.7505V28.563C13.4375 28.7453 13.5099 28.9202 13.6389 29.0491C13.7678 29.178 13.9427 29.2505 14.125 29.2505H36.125C36.3073 29.2505 36.4822 29.178 36.6111 29.0491C36.7401 28.9202 36.8125 28.7453 36.8125 28.563V23.7505C36.8125 23.5681 36.7401 23.3933 36.6111 23.2643C36.4822 23.1354 36.3073 23.063 36.125 23.063H33.375C33.1927 23.063 33.0178 23.1354 32.8889 23.2643C32.7599 23.3933 32.6875 23.5681 32.6875 23.7505V27.8755H32V22.3755H42.2334C43.108 22.8272 44.0781 23.063 45.0625 23.063C46.0469 23.063 47.017 22.8272 47.8916 22.3755H50.5625C50.927 22.3759 51.2765 22.521 51.5342 22.7787C51.792 23.0365 51.937 23.3859 51.9375 23.7505V41.6255ZM16.1875 24.438V27.8755H14.8125V24.438H16.1875ZM34.0625 27.8755V24.438H35.4375V27.8755H34.0625Z"
                      fill="#000326" />
                    <path
                      d="M18.25 43.6875H14.125C13.9427 43.6875 13.7678 43.7599 13.6389 43.8889C13.5099 44.0178 13.4375 44.1927 13.4375 44.375C13.4375 44.5573 13.5099 44.7322 13.6389 44.8611C13.7678 44.9901 13.9427 45.0625 14.125 45.0625H18.25C18.4323 45.0625 18.6072 44.9901 18.7361 44.8611C18.8651 44.7322 18.9375 44.5573 18.9375 44.375C18.9375 44.1927 18.8651 44.0178 18.7361 43.8889C18.6072 43.7599 18.4323 43.6875 18.25 43.6875Z"
                      fill="#000326" />
                    <path
                      d="M21 43.6875H20.3125C20.1302 43.6875 19.9553 43.7599 19.8264 43.8889C19.6974 44.0178 19.625 44.1927 19.625 44.375C19.625 44.5573 19.6974 44.7322 19.8264 44.8611C19.9553 44.9901 20.1302 45.0625 20.3125 45.0625H21C21.1823 45.0625 21.3572 44.9901 21.4861 44.8611C21.6151 44.7322 21.6875 44.5573 21.6875 44.375C21.6875 44.1927 21.6151 44.0178 21.4861 43.8889C21.3572 43.7599 21.1823 43.6875 21 43.6875Z"
                      fill="#000326" />
                    <path
                      d="M39.5625 27.875C39.6528 27.8751 39.7423 27.8574 39.8257 27.8228C39.9091 27.7883 39.9849 27.7376 40.0487 27.6736L42.5972 25.125H48.5C48.6824 25.125 48.8572 25.0526 48.9862 24.9236C49.1151 24.7947 49.1875 24.6198 49.1875 24.4375C49.1875 24.2552 49.1151 24.0803 48.9862 23.9514C48.8572 23.8224 48.6824 23.75 48.5 23.75H42.3125C42.2222 23.75 42.1328 23.7678 42.0494 23.8023C41.966 23.8369 41.8902 23.8875 41.8264 23.9514L39.0764 26.7014C38.9802 26.7975 38.9147 26.92 38.8882 27.0534C38.8617 27.1867 38.8753 27.325 38.9273 27.4506C38.9794 27.5762 39.0675 27.6836 39.1806 27.7591C39.2936 27.8347 39.4265 27.875 39.5625 27.875Z"
                      fill="#000326" />
                    <path
                      d="M48.5 35.4375C48.1387 35.4378 47.7839 35.5329 47.4709 35.7134C47.158 35.894 46.8979 36.1535 46.7168 36.4662L39.5196 32.2673C39.422 31.7987 39.1647 31.3787 38.7915 31.0791C38.4183 30.7796 37.9526 30.6191 37.4741 30.6252C36.9955 30.6313 36.534 30.8036 36.1686 31.1125C35.8032 31.4215 35.5566 31.848 35.471 32.3188L28.2282 37.7509C28.0312 37.4475 27.7577 37.2013 27.4354 37.0371C27.113 36.8728 26.7531 36.7964 26.3918 36.8153C26.0305 36.8343 25.6806 36.9481 25.3772 37.1452C25.0738 37.3423 24.8277 37.6159 24.6635 37.9383L17.5049 34.9554C17.392 34.4844 17.117 34.0682 16.7281 33.7796C16.3391 33.491 15.8611 33.3484 15.3776 33.3768C14.8941 33.4052 14.4361 33.6027 14.0836 33.9348C13.7311 34.2669 13.5066 34.7124 13.4495 35.1934C13.3924 35.6743 13.5063 36.16 13.7713 36.5654C14.0362 36.9708 14.4353 37.2701 14.8987 37.4109C15.3621 37.5516 15.8602 37.5249 16.3059 37.3354C16.7516 37.1459 17.1164 36.8056 17.3365 36.3742L24.4951 39.3571C24.6056 39.8171 24.8709 40.225 25.2465 40.5126C25.6221 40.8002 26.0852 40.9499 26.5581 40.9366C27.0309 40.9233 27.4848 40.7478 27.8437 40.4396C28.2025 40.1314 28.4445 39.7091 28.529 39.2437L35.7718 33.8116C35.9637 34.1071 36.2282 34.3486 36.54 34.5128C36.8518 34.6769 37.2005 34.7584 37.5528 34.7494C37.9051 34.7403 38.2491 34.641 38.5521 34.461C38.8551 34.2811 39.1068 34.0264 39.2832 33.7213L46.4805 37.9202C46.5599 38.302 46.746 38.6533 47.017 38.9337C47.288 39.214 47.6329 39.4117 48.0118 39.5039C48.3906 39.5962 48.7878 39.5792 49.1574 39.4548C49.527 39.3305 49.8537 39.104 50.0997 38.8015C50.3458 38.499 50.501 38.133 50.5475 37.7459C50.594 37.3587 50.5298 36.9664 50.3623 36.6142C50.1949 36.2621 49.9311 35.9647 49.6015 35.7564C49.2718 35.5481 48.8899 35.4376 48.5 35.4375ZM16.1875 35.4409C16.1871 35.6236 16.1141 35.7986 15.9847 35.9275C15.8554 36.0564 15.6801 36.1287 15.4974 36.1284C15.3148 36.1282 15.1397 36.0555 15.0107 35.9263C14.8816 35.797 14.8091 35.6219 14.8091 35.4392C14.8091 35.2566 14.8816 35.0814 15.0107 34.9522C15.1397 34.8229 15.3148 34.7502 15.4974 34.75C15.6801 34.7498 15.8554 34.822 15.9847 34.951C16.1141 35.0799 16.1871 35.2549 16.1875 35.4375V35.4409ZM26.5 39.5625C26.3178 39.5622 26.143 39.4897 26.0142 39.3609C25.8853 39.232 25.8128 39.0573 25.8125 38.875V38.8716C25.8132 38.7357 25.8541 38.6032 25.9301 38.4905C26.006 38.3779 26.1136 38.2904 26.2393 38.2388C26.365 38.1873 26.5031 38.1742 26.6362 38.2011C26.7694 38.228 26.8916 38.2938 26.9874 38.3901C27.0832 38.4864 27.1483 38.6089 27.1746 38.7421C27.2008 38.8754 27.187 39.0135 27.1349 39.1389C27.0827 39.2643 26.9946 39.3715 26.8816 39.4469C26.7686 39.5223 26.6358 39.5625 26.5 39.5625ZM37.5 33.375C37.364 33.375 37.2311 33.3347 37.1181 33.2591C37.005 33.1836 36.9169 33.0762 36.8649 32.9506C36.8128 32.825 36.7992 32.6867 36.8257 32.5534C36.8523 32.42 36.9177 32.2975 37.0139 32.2014C37.11 32.1052 37.2325 32.0397 37.3659 32.0132C37.4993 31.9867 37.6375 32.0003 37.7631 32.0523C37.8887 32.1044 37.9961 32.1925 38.0717 32.3055C38.1472 32.4186 38.1875 32.5515 38.1875 32.6875C38.1873 32.8698 38.1148 33.0445 37.9859 33.1734C37.857 33.3022 37.6823 33.3747 37.5 33.375ZM48.5 38.1875C48.364 38.1875 48.2311 38.1472 48.1181 38.0716C48.005 37.9961 47.9169 37.8887 47.8649 37.7631C47.8128 37.6375 47.7992 37.4992 47.8257 37.3659C47.8523 37.2325 47.9177 37.11 48.0139 37.0139C48.11 36.9177 48.2325 36.8522 48.3659 36.8257C48.4993 36.7992 48.6375 36.8128 48.7631 36.8648C48.8887 36.9169 48.9961 37.005 49.0717 37.118C49.1472 37.2311 49.1875 37.364 49.1875 37.5C49.1873 37.6823 49.1148 37.857 48.9859 37.9859C48.857 38.1147 48.6823 38.1872 48.5 38.1875Z"
                      fill="#000326" />
                    <path
                      d="M43 39.5625H38.1875C38.0052 39.5625 37.8303 39.6349 37.7014 39.7639C37.5724 39.8928 37.5 40.0677 37.5 40.25C37.5 40.4323 37.5724 40.6072 37.7014 40.7361C37.8303 40.8651 38.0052 40.9375 38.1875 40.9375H43C43.1823 40.9375 43.3572 40.8651 43.4861 40.7361C43.6151 40.6072 43.6875 40.4323 43.6875 40.25C43.6875 40.0677 43.6151 39.8928 43.4861 39.7639C43.3572 39.6349 43.1823 39.5625 43 39.5625Z"
                      fill="#000326" />
                    <path
                      d="M43 37.5H40.9375C40.7552 37.5 40.5803 37.5724 40.4514 37.7014C40.3224 37.8303 40.25 38.0052 40.25 38.1875C40.25 38.3698 40.3224 38.5447 40.4514 38.6736C40.5803 38.8026 40.7552 38.875 40.9375 38.875H43C43.1823 38.875 43.3572 38.8026 43.4861 38.6736C43.6151 38.5447 43.6875 38.3698 43.6875 38.1875C43.6875 38.0052 43.6151 37.8303 43.4861 37.7014C43.3572 37.5724 43.1823 37.5 43 37.5Z"
                      fill="#000326" />
                    <path
                      d="M14.125 31.3125H21.6875C21.8698 31.3125 22.0447 31.2401 22.1736 31.1111C22.3026 30.9822 22.375 30.8073 22.375 30.625C22.375 30.4427 22.3026 30.2678 22.1736 30.1389C22.0447 30.0099 21.8698 29.9375 21.6875 29.9375H14.125C13.9427 29.9375 13.7678 30.0099 13.6389 30.1389C13.5099 30.2678 13.4375 30.4427 13.4375 30.625C13.4375 30.8073 13.5099 30.9822 13.6389 31.1111C13.7678 31.2401 13.9427 31.3125 14.125 31.3125Z"
                      fill="#000326" />
                    <path
                      d="M23.75 31.3125H24.4375C24.6198 31.3125 24.7947 31.2401 24.9236 31.1111C25.0526 30.9822 25.125 30.8073 25.125 30.625C25.125 30.4427 25.0526 30.2678 24.9236 30.1389C24.7947 30.0099 24.6198 29.9375 24.4375 29.9375H23.75C23.5677 29.9375 23.3928 30.0099 23.2639 30.1389C23.1349 30.2678 23.0625 30.4427 23.0625 30.625C23.0625 30.8073 23.1349 30.9822 23.2639 31.1111C23.3928 31.2401 23.5677 31.3125 23.75 31.3125Z"
                      fill="#000326" />
                  </g>
                  <defs>
                    <linearGradient id="paint0_linear_2527_3647" x1="32" y1="0" x2="32" y2="64"
                      gradientUnits="userSpaceOnUse">
                      <stop stop-color="#FFE59E" />
                      <stop offset="1" stop-color="#FFBC01" />
                    </linearGradient>
                    <clipPath id="clip0_2527_3647">
                      <rect width="44" height="44" fill="white" transform="translate(10 10)" />
                    </clipPath>
                  </defs>
                </svg>