<svg xmlns="http://www.w3.org/2000/svg" width="64" height="64" viewBox="0 0 64 64" fill="none">
                  <rect x="1.06667" y="1.06667" width="61.8667" height="61.8667" rx="13.6"
                    fill="url(#paint0_linear_2525_2581)" />
                  <rect x="1.06667" y="1.06667" width="61.8667" height="61.8667" rx="13.6" stroke="#000326"
                    stroke-width="2.13333" />
                  <g clip-path="url(#clip0_2525_2581)">
                    <path
                      d="M41.9026 24.1797H48.1795C48.768 24.9619 49.7038 25.4688 50.7559 25.4688C52.533 25.4688 53.9786 24.0231 53.9786 22.2461C53.9786 20.4691 52.533 19.0234 50.7559 19.0234C49.7038 19.0234 48.768 19.5303 48.1795 20.3126C48.1789 20.3126 48.1784 20.3125 48.1778 20.3125H41.9027C41.709 20.0552 41.4775 19.8282 41.2169 19.6387V17.4181L43.5217 15.1133H48.1485C48.7349 15.9196 49.6849 16.4453 50.7559 16.4453C52.533 16.4453 53.9786 14.9997 53.9786 13.2227C53.9786 11.4456 52.5329 10 50.7559 10C49.7234 10 48.8034 10.4886 48.2133 11.2461H42.7207C42.2042 11.2461 41.7187 11.4472 41.3534 11.8124L37.9159 15.2499C37.5507 15.6152 37.3496 16.1007 37.3496 16.6172V19.7035C36.3793 20.4468 35.8433 21.8513 36.2353 23.1567L33.7578 26.4795C33.1968 26.2983 32.5991 26.1993 31.9785 26.1993C28.7799 26.1993 26.1777 28.8015 26.1777 32.0001C26.1777 35.1987 28.7799 37.8009 31.9785 37.8009C32.5886 37.8009 33.1767 37.7057 33.7294 37.5302L36.2316 40.8565C36.1487 41.1416 36.1035 41.4425 36.1035 41.7539C36.1035 42.7864 36.5921 43.7063 37.3496 44.2965V47.3828C37.3496 47.8993 37.5507 48.3848 37.9159 48.7501L41.3534 52.1876C41.7187 52.5528 42.2042 52.7539 42.7207 52.7539H48.2133C48.8035 53.5114 49.7234 54 50.7559 54C52.5329 54 53.9785 52.5544 53.9785 50.7773C53.9785 49.0003 52.5329 47.5547 50.7559 47.5547C49.6848 47.5547 48.7347 48.0804 48.1484 48.8867H43.5216L41.2168 46.5819V44.3613C41.4774 44.1718 41.709 43.9448 41.9026 43.6875H48.1795C48.768 44.4697 49.7038 44.9766 50.7559 44.9766C52.533 44.9766 53.9786 43.5309 53.9786 41.7539C53.9786 39.9769 52.533 38.5312 50.7559 38.5312C49.7038 38.5312 48.768 39.0381 48.1795 39.8204C48.1789 39.8204 48.1784 39.8203 48.1778 39.8203H41.9027C41.3142 39.0381 40.3784 38.5312 39.3263 38.5312C39.3248 38.5312 39.3233 38.5313 39.3218 38.5313L36.8147 35.1984C37.0743 34.8073 37.2874 34.3831 37.4468 33.9336H48.1778C48.1784 33.9336 48.1789 33.9335 48.1795 33.9335C48.768 34.7158 49.7039 35.2227 50.7559 35.2227C52.533 35.2227 53.9786 33.777 53.9786 32C53.9786 30.223 52.533 28.7773 50.7559 28.7773C49.7038 28.7773 48.768 29.2842 48.1795 30.0665C48.1789 30.0665 48.1784 30.0664 48.1778 30.0664H44.4367C44.0807 30.0664 43.7922 30.355 43.7922 30.7109C43.7922 31.0669 44.0807 31.3555 44.4367 31.3555H47.5981C47.5347 31.6869 47.4978 32.1238 47.5981 32.6445H37.7426C37.7781 32.3072 37.7992 31.8815 37.7426 31.3555H41.3457C41.7017 31.3555 41.9902 31.0669 41.9902 30.7109C41.9902 30.355 41.7017 30.0664 41.3457 30.0664H37.4467C37.2907 29.6266 37.083 29.2113 36.8311 28.8273L39.3354 25.4686C40.3837 25.4656 41.3157 24.9596 41.9026 24.1797ZM50.7559 20.3125C51.8221 20.3125 52.6895 21.1799 52.6895 22.2461C52.6895 23.3123 51.8221 24.1797 50.7559 24.1797C49.6896 24.1797 48.8223 23.3123 48.8223 22.2461C48.8223 21.1799 49.6896 20.3125 50.7559 20.3125ZM42.4839 21.6016H47.598C47.5346 21.933 47.4977 22.3699 47.598 22.8906H42.4839C42.5264 22.6823 42.5488 22.4668 42.5488 22.2461C42.5488 22.0254 42.5264 21.8099 42.4839 21.6016ZM50.7559 11.2891C51.8221 11.2891 52.6895 12.1564 52.6895 13.2227C52.6895 14.2889 51.8221 15.1562 50.7559 15.1562C49.6896 15.1562 48.8223 14.2889 48.8223 13.2227C48.8223 12.1564 49.6896 11.2891 50.7559 11.2891ZM50.7559 48.8438C51.8221 48.8438 52.6895 49.7111 52.6895 50.7773C52.6895 51.8436 51.8221 52.7109 50.7559 52.7109C49.6896 52.7109 48.8223 51.8436 48.8223 50.7773C48.8223 49.7111 49.6896 48.8438 50.7559 48.8438ZM50.7559 39.8203C51.8221 39.8203 52.6895 40.6877 52.6895 41.7539C52.6895 42.8201 51.8221 43.6875 50.7559 43.6875C49.6896 43.6875 48.8223 42.8201 48.8223 41.7539C48.8223 40.6877 49.6896 39.8203 50.7559 39.8203ZM42.4839 41.1094H47.598C47.5346 41.4408 47.4977 41.8777 47.598 42.3984H42.4839C42.5474 42.067 42.5842 41.6301 42.4839 41.1094ZM50.7559 30.0664C51.8221 30.0664 52.6895 30.9338 52.6895 32C52.6895 33.0662 51.8221 33.9336 50.7559 33.9336C49.6896 33.9336 48.8223 33.0662 48.8223 32C48.8223 30.9338 49.6896 30.0664 50.7559 30.0664ZM38.6387 16.6172C38.6387 16.4451 38.7057 16.2832 38.8275 16.1615L42.265 12.724C42.3867 12.6022 42.5486 12.5352 42.7207 12.5352H47.6078C47.5594 12.7568 47.5332 12.9867 47.5332 13.2227C47.5332 13.4283 47.5534 13.6292 47.5904 13.8242H43.2546C43.0837 13.8242 42.9197 13.8921 42.7989 14.013L40.1165 16.6954C39.9956 16.8162 39.9277 16.9802 39.9277 17.1511V19.0806C39.584 19.0194 39.1691 18.9905 38.6387 19.098V16.6172ZM31.9785 36.5117C29.4907 36.5117 27.4668 34.4878 27.4668 32C27.4668 29.5122 29.4907 27.4883 31.9785 27.4883C34.4663 27.4883 36.4902 29.5122 36.4902 32C36.4902 34.4878 34.4663 36.5117 31.9785 36.5117ZM42.7989 49.987C42.9197 50.1079 43.0837 50.1758 43.2546 50.1758H47.5904C47.5292 50.5195 47.5003 50.9344 47.6078 51.4648H42.7207C42.5486 51.4648 42.3867 51.3978 42.265 51.276L38.8275 47.8385C38.7057 47.7168 38.6387 47.5549 38.6387 47.3828V44.902C38.9579 44.9689 39.4258 45.0138 39.9277 44.9194V46.8489C39.9277 47.0198 39.9956 47.1838 40.1165 47.3046L42.7989 49.987ZM39.3262 39.8203C40.3924 39.8203 41.2598 40.6877 41.2598 41.7539C41.2598 42.8201 40.3924 43.6875 39.3262 43.6875C38.2599 43.6875 37.3926 42.8201 37.3926 41.7539C37.3926 40.6877 38.2599 39.8203 39.3262 39.8203ZM37.9435 38.8435C37.5499 39.0313 37.2005 39.2968 36.9143 39.6198L34.9349 36.9882C35.3063 36.7673 35.6506 36.5057 35.9627 36.2103L37.9435 38.8435ZM35.9825 27.8087C35.6718 27.5117 35.329 27.2482 34.9586 27.0254L36.9233 24.3905C37.2107 24.7122 37.5614 24.976 37.956 25.162L35.9825 27.8087ZM37.3926 22.2461C37.3926 21.1799 38.2599 20.3125 39.3262 20.3125C40.3924 20.3125 41.2598 21.1799 41.2598 22.2461C41.2598 23.3123 40.3924 24.1797 39.3262 24.1797C38.2599 24.1797 37.3926 23.3123 37.3926 22.2461Z"
                      fill="#000326" />
                    <path
                      d="M30.4316 52.7109H29.5886C28.9915 52.7109 28.5058 52.2252 28.5058 51.6281V49.7676C28.5058 48.743 27.8526 47.8385 26.8805 47.517C26.131 47.2687 25.3935 46.9631 24.6885 46.6086C23.7718 46.1474 22.6692 46.3241 21.9451 47.0483L20.6285 48.3649C20.424 48.5694 20.152 48.6821 19.8626 48.6821C19.5733 48.6821 19.3013 48.5694 19.0967 48.3648L15.6561 44.925C15.2342 44.5025 15.2342 43.8151 15.6556 43.3932L16.9733 42.0764C17.6976 41.3521 17.8742 40.2496 17.4131 39.333C17.0585 38.628 16.7528 37.8905 16.5046 37.1411C16.1829 36.1689 15.2785 35.5157 14.2539 35.5157H12.3934C11.7963 35.5157 11.3105 35.03 11.3105 34.4329V29.5671C11.3105 28.97 11.7963 28.4843 12.3934 28.4843H14.2539C15.2785 28.4843 16.1829 27.8311 16.5045 26.859C16.7528 26.1095 17.0584 25.372 17.4129 24.667C17.8741 23.7503 17.6975 22.6479 16.973 21.9234L15.6561 20.6073C15.2342 20.1848 15.2342 19.4974 15.6558 19.0753L19.0965 15.6346C19.519 15.2126 20.2065 15.2126 20.6283 15.6341L21.9451 16.9517C22.6694 17.6759 23.772 17.8528 24.6884 17.3915C25.3935 17.0369 26.131 16.7312 26.8804 16.4831C27.8526 16.1615 28.5058 15.257 28.5058 14.2324V12.3719C28.5058 11.7748 28.9915 11.2891 29.5886 11.2891H34.3684C34.9007 11.2891 35.3611 11.6851 35.4393 12.2104C35.4444 12.2444 35.4398 12.2811 35.4261 12.3166L34.7727 14.0064C34.6443 14.3385 34.8094 14.7117 35.1414 14.84C35.4734 14.9683 35.8466 14.8033 35.975 14.4713L36.6283 12.7815C36.7225 12.538 36.7522 12.2748 36.7143 12.0203C36.5427 10.8685 35.5343 10 34.3684 10H29.5886C28.2807 10 27.2167 11.064 27.2167 12.3719V14.2324C27.2167 14.6999 26.9189 15.1126 26.4753 15.2594C25.6662 15.5273 24.8702 15.8572 24.1091 16.2399C23.6902 16.4507 23.1869 16.3705 22.8567 16.0404L21.5397 14.7225C20.6149 13.799 19.1102 13.799 18.1853 14.7228L14.744 18.1641C13.8204 19.0888 13.8204 20.5934 14.7444 21.5186L16.0617 22.835C16.3919 23.1653 16.4722 23.6687 16.2614 24.0877C15.8787 24.8487 15.5488 25.6448 15.2808 26.4539C15.1341 26.8974 14.7214 27.1952 14.2539 27.1952H12.3934C11.0855 27.1952 10.0215 28.2592 10.0215 29.5671V34.4329C10.0215 35.7408 11.0855 36.8048 12.3934 36.8048H14.2539C14.7214 36.8048 15.1341 37.1026 15.2809 37.5462C15.5488 38.3552 15.8787 39.1513 16.2614 39.9124C16.4722 40.3313 16.3919 40.8346 16.0619 41.1648L14.744 42.4818C13.8204 43.4066 13.8204 44.9112 14.7444 45.8363L18.1853 49.2763C19.1101 50.2012 20.615 50.2012 21.54 49.2763L22.8566 47.9597C23.1869 47.6295 23.6903 47.5492 24.1093 47.7601C24.8703 48.1428 25.6663 48.4727 26.4755 48.7407C26.9189 48.8874 27.2168 49.3001 27.2168 49.7676V51.6281C27.2168 52.936 28.2808 54 29.5887 54H30.4317C30.7877 54 31.0763 53.7114 31.0763 53.3555C31.0763 52.9995 30.7876 52.7109 30.4316 52.7109Z"
                      fill="#000326" />
                    <path
                      d="M32.7847 41.1966C32.5741 40.6476 32.0593 40.2701 31.4733 40.2349C27.1063 39.9728 23.6855 36.3368 23.6855 31.9571C23.6855 27.5766 27.107 23.9404 31.4748 23.6791C32.0591 23.6442 32.5734 23.2681 32.7849 22.7212L34.8895 17.2785C35.0179 16.9465 34.8528 16.5732 34.5208 16.4449C34.1888 16.3165 33.8155 16.4816 33.6872 16.8136L33.0003 18.59C32.6615 18.5646 32.3186 18.5509 31.9785 18.5509C24.5626 18.5509 18.5293 24.5842 18.5293 32.0001C18.5293 35.0366 19.5169 37.9024 21.3853 40.2874C21.5124 40.4498 21.7018 40.5345 21.8931 40.5345C22.0321 40.5345 22.1722 40.4897 22.2901 40.3973C22.5703 40.1778 22.6195 39.7727 22.4 39.4925C20.7111 37.3364 19.8184 34.7456 19.8184 32C19.8184 25.2949 25.2734 19.8399 31.9785 19.8399C32.1561 19.8399 32.3345 19.8438 32.5125 19.8515L31.5826 22.2563C31.5525 22.334 31.4801 22.3874 31.398 22.3924C26.3504 22.6943 22.3965 26.8957 22.3965 31.9571C22.3965 37.0176 26.3496 41.2188 31.3961 41.5217C31.4785 41.5266 31.5512 41.5804 31.5811 41.6584L32.5357 44.147C29.6732 44.2964 26.677 43.3477 24.4182 41.5249C24.1395 41.3034 23.734 41.3497 23.5126 41.6284C23.291 41.9071 23.3374 42.3125 23.616 42.534C26.265 44.6494 29.5991 45.6653 33.02 45.4094L35.4265 51.6832C35.44 51.7184 35.4445 51.7551 35.4394 51.7892C35.3614 52.3147 34.9011 52.711 34.3684 52.711H33.4395C33.0835 52.711 32.7949 52.9996 32.7949 53.3555C32.7949 53.7115 33.0835 54 33.4395 54H34.3684C35.535 54 36.5436 53.131 36.7145 51.9783C36.7521 51.7249 36.7229 51.4632 36.63 51.2212L32.7847 41.1966Z"
                      fill="#000326" />
                  </g>
                  <defs>
                    <linearGradient id="paint0_linear_2525_2581" x1="32" y1="0" x2="32" y2="64"
                      gradientUnits="userSpaceOnUse">
                      <stop stop-color="#FFE59E" />
                      <stop offset="1" stop-color="#FFBC01" />
                    </linearGradient>
                    <clipPath id="clip0_2525_2581">
                      <rect width="44" height="44" fill="white" transform="translate(10 10)" />
                    </clipPath>
                  </defs>
                </svg>