<svg xmlns="http://www.w3.org/2000/svg" width="64" height="64" viewBox="0 0 64 64" fill="none">
                  <rect x="1.06667" y="1.06667" width="61.8667" height="61.8667" rx="13.6"
                    fill="url(#paint0_linear_2115_1120)" />
                  <rect x="1.06667" y="1.06667" width="61.8667" height="61.8667" rx="13.6" stroke="#000326"
                    stroke-width="2.13333" />
                  <path
                    d="M28.2672 42.1126L14.5172 35.8626C14.0535 35.6513 13.5047 35.7438 13.1372 36.0963C12.7672 36.4488 12.6497 36.9913 12.8397 37.4651L15.1547 43.2513L12.8397 49.0376C12.651 49.5113 12.7672 50.0526 13.1372 50.4063C13.3735 50.6326 13.6847 50.7513 13.9997 50.7513C14.1747 50.7513 14.351 50.7151 14.5172 50.6388L28.2672 44.3888C28.7122 44.1863 28.9997 43.7413 28.9997 43.2513C28.9997 42.7613 28.7135 42.3151 28.2672 42.1126ZM16.316 47.0751L17.6597 43.7151C17.7785 43.4176 17.7785 43.0851 17.6597 42.7876L16.316 39.4276L24.7272 43.2526L16.316 47.0776V47.0751Z"
                    fill="#000326" />
                  <path
                    d="M42.75 28.25C46.8862 28.25 50.25 24.8862 50.25 20.75C50.25 16.6137 46.8862 13.25 42.75 13.25C38.6137 13.25 35.25 16.6137 35.25 20.75C35.25 24.8862 38.6137 28.25 42.75 28.25ZM42.75 15.75C45.5075 15.75 47.75 17.9925 47.75 20.75C47.75 23.5075 45.5075 25.75 42.75 25.75C39.9925 25.75 37.75 23.5075 37.75 20.75C37.75 17.9925 39.9925 15.75 42.75 15.75Z"
                    fill="#000326" />
                  <path
                    d="M43.375 30.7499H19.625C17.2125 30.7499 15.25 28.7874 15.25 26.3749C15.25 23.9624 17.2125 21.9999 19.625 21.9999H29.7325L29.3663 22.3662C28.8775 22.8549 28.8775 23.6449 29.3663 24.1337C29.61 24.3774 29.93 24.4999 30.25 24.4999C30.57 24.4999 30.89 24.3774 31.1337 24.1337L33.6338 21.6337C34.1225 21.1449 34.1225 20.3549 33.6338 19.8662L31.1337 17.3662C30.645 16.8774 29.855 16.8774 29.3663 17.3662C28.8775 17.8549 28.8775 18.6449 29.3663 19.1337L29.7325 19.4999H19.625C15.835 19.4999 12.75 22.5837 12.75 26.3749C12.75 30.1662 15.835 33.2499 19.625 33.2499H43.375C45.7875 33.2499 47.75 35.2124 47.75 37.6249C47.75 40.0374 45.7875 41.9999 43.375 41.9999H31.5C30.8088 41.9999 30.25 42.5587 30.25 43.2499C30.25 43.9412 30.8088 44.4999 31.5 44.4999H43.375C47.165 44.4999 50.25 41.4149 50.25 37.6249C50.25 33.8349 47.165 30.7499 43.375 30.7499Z"
                    fill="#000326" />
                  <path
                    d="M42.75 24.5C44.8175 24.5 46.5 22.8175 46.5 20.75C46.5 18.6825 44.8175 17 42.75 17C40.6825 17 39 18.6825 39 20.75C39 22.8175 40.6825 24.5 42.75 24.5ZM42.75 19.5C43.44 19.5 44 20.0612 44 20.75C44 21.4387 43.44 22 42.75 22C42.06 22 41.5 21.4387 41.5 20.75C41.5 20.0612 42.06 19.5 42.75 19.5Z"
                    fill="#000326" />
                  <defs>
                    <linearGradient id="paint0_linear_2115_1120" x1="32" y1="0" x2="32" y2="64"
                      gradientUnits="userSpaceOnUse">
                      <stop stop-color="#FFE59E" />
                      <stop offset="1" stop-color="#FFBC01" />
                    </linearGradient>
                  </defs>
                </svg>