<svg xmlns="http://www.w3.org/2000/svg" width="88" height="88" viewBox="0 0 88 88" fill="none">
                  <path fill-rule="evenodd" clip-rule="evenodd"
                    d="M67.6382 60.4651L76.1654 75.2345L63.0751 72.5923L58.8181 85.25L49.614 69.3079C56.5176 68.1844 62.7379 65.0253 67.6382 60.4651ZM44.0001 2.75C26.1596 2.75 11.697 17.2126 11.697 35.053C11.697 52.8935 26.1596 67.3561 44.0001 67.3561C61.8405 67.3561 76.3031 52.8935 76.3031 35.053C76.3031 17.2126 61.8405 2.75 44.0001 2.75ZM44.0001 20.75L48.0383 31.0047L59.0391 31.6766L50.5341 38.6861L53.2946 49.3561L44.0001 43.4333L34.7054 49.356L37.4659 38.686L28.961 31.6766L39.9619 31.0047L44.0001 20.75ZM44.0001 10.1645C57.7453 10.1645 68.8886 21.3077 68.8886 35.053C68.8886 48.7982 57.7453 59.9416 44.0001 59.9416C30.2549 59.9416 19.1115 48.7984 19.1115 35.053C19.1115 21.3077 30.2549 10.1645 44.0001 10.1645ZM44.0001 12.5709C56.4168 12.5709 66.4822 22.6363 66.4822 35.053C66.4822 47.4698 56.4168 57.5352 44.0001 57.5352C31.5833 57.5352 21.518 47.4698 21.518 35.053C21.518 22.6363 31.5833 12.5709 44.0001 12.5709ZM20.3619 60.4651C25.2621 65.0255 31.4824 68.1844 38.3861 69.3079L29.5364 84.6359L25.2794 71.9782L12.1891 74.6204L20.3619 60.4651Z"
                    fill="url(#paint0_linear_3030_2087)" />
                  <defs>
                    <linearGradient id="paint0_linear_3030_2087" x1="44.0001" y1="2.75" x2="44.0001" y2="85.25"
                      gradientUnits="userSpaceOnUse">
                      <stop stop-color="#FFE59E" />
                      <stop offset="1" stop-color="#FFBC01" />
                    </linearGradient>
                  </defs>
                </svg>