<svg xmlns="http://www.w3.org/2000/svg" width="88" height="88" viewBox="0 0 88 88" fill="none">
                  <path fill-rule="evenodd" clip-rule="evenodd"
                    d="M30.7136 65.5427L38.8871 76.1655C39.6291 77.1297 39.499 78.4947 38.5979 79.3122L35.787 81.8631C35.285 82.3186 34.6808 82.5212 34.0057 82.4602C33.3308 82.3992 32.7748 82.09 32.3604 81.5536L23.2986 69.8236L30.7136 65.5427ZM75.5505 38.2803H83.8749C85.2064 38.2803 86.2839 37.1928 86.2812 35.863C86.2784 34.5315 85.1927 33.4556 83.8629 33.4556H75.5385C74.2069 33.4556 73.1295 34.543 73.1322 35.8727C73.1348 37.2045 74.2205 38.2803 75.5505 38.2803ZM65.6696 16.3624L69.8319 9.15331C70.4968 8.00158 70.1081 6.52345 68.9562 5.8552C67.806 5.18798 66.3254 5.57728 65.6598 6.73039L61.4975 13.9395C60.8325 15.0912 61.2213 16.5694 62.3732 17.2376C63.5234 17.9048 65.0037 17.5155 65.6696 16.3624ZM75.3008 24.9978L82.135 21.052C83.2952 20.3822 83.6925 18.8991 83.0227 17.7388C82.353 16.5787 80.8698 16.1813 79.7095 16.8511L72.8754 20.797C71.7153 21.4668 71.3179 22.9499 71.9877 24.1102C72.6575 25.2702 74.1406 25.6676 75.3008 24.9978ZM64.552 35.8548L72.613 49.8169C74.1265 52.4381 73.2199 55.8212 70.5986 57.3347C68.1525 58.747 65.0433 58.0517 63.4087 55.8224H63.4084C54.4857 54.4651 42.8628 55.9231 31.3054 60.4284L20.1944 41.1838C29.8785 33.4358 36.9745 24.1484 40.2606 15.7425L40.2608 15.7421C39.1065 13.2005 40.0547 10.1239 42.5199 8.70059C45.1413 7.18706 48.5242 8.0937 50.0377 10.715L58.0986 24.6771C58.3281 24.4997 58.572 24.3355 58.8301 24.1865C61.9449 22.3882 65.9279 23.4554 67.7262 26.5703C69.5245 29.6852 68.4574 33.6682 65.3425 35.4665C65.0845 35.6155 64.8203 35.7448 64.552 35.8548ZM28.5116 62.4643L16.8689 42.2989L7.61328 47.6427C1.98919 50.8897 0.0445943 58.1478 3.29149 63.7717L3.29166 63.7719C6.53872 69.3958 13.7967 71.3406 19.4208 68.0937L28.6764 62.75L28.5116 62.4643Z"
                    fill="url(#paint0_linear_3030_2180)" />
                  <defs>
                    <linearGradient id="paint0_linear_3030_2180" x1="44" y1="5.5293" x2="44" y2="82.4708"
                      gradientUnits="userSpaceOnUse">
                      <stop stop-color="#FFE59E" />
                      <stop offset="1" stop-color="#FFBC01" />
                    </linearGradient>
                  </defs>
                </svg>