<svg xmlns="http://www.w3.org/2000/svg" width="64" height="64" viewBox="0 0 64 64" fill="none">
                  <rect x="1.06667" y="1.06667" width="61.8667" height="61.8667" rx="13.6"
                    fill="url(#paint0_linear_2482_404)" />
                  <rect x="1.06667" y="1.06667" width="61.8667" height="61.8667" rx="13.6" stroke="#000326"
                    stroke-width="2.13333" />
                  <g clip-path="url(#clip0_2482_404)">
                    <path
                      d="M52.7102 27.1368H48.6353C48.3554 26.2204 48.0001 25.3292 47.5729 24.4718L50.7695 21.2751C51.0114 21.0332 51.1473 20.7052 51.1473 20.3631C51.1473 20.021 51.0115 19.693 50.7695 19.4511L45.0816 13.7632C44.578 13.2595 43.7613 13.2595 43.2575 13.7632L40.1619 16.8588C39.2914 16.3951 38.3833 16.0069 37.4469 15.6979V11.3038C37.4469 10.5915 36.8694 10.014 36.1571 10.014H28.1133C27.401 10.014 26.8235 10.5915 26.8235 11.3038V15.6043C25.8426 15.9087 24.8907 16.3 23.9777 16.7741L21.1913 13.9877C20.6877 13.484 19.871 13.4841 19.3673 13.9877L13.6794 19.6756C13.1757 20.1792 13.1757 20.9959 13.6794 21.4996L16.4872 24.3075C16.0215 25.2166 15.6379 26.163 15.3401 27.1368H11.2898C10.5775 27.1368 10 27.7143 10 28.4266V36.4705C10 37.1828 10.5775 37.7603 11.2898 37.7603H15.4806C15.7856 38.6713 16.1658 39.5552 16.6176 40.4033L13.6233 43.3975C13.3814 43.6393 13.2455 43.9674 13.2455 44.3095C13.2455 44.6516 13.3813 44.9796 13.6233 45.2215L19.3111 50.9093C19.8147 51.413 20.6314 51.413 21.1351 50.9093L24.2303 47.8142C25.0148 48.2053 25.8271 48.5362 26.6602 48.8039V52.696C26.6602 53.4083 27.2377 53.9858 27.95 53.9858H35.9939C36.7062 53.9858 37.2836 53.4083 37.2836 52.696V48.8137C38.1861 48.5256 39.0643 48.1633 39.9099 47.7301L43.1173 50.9374C43.6208 51.441 44.4375 51.4411 44.9413 50.9374L50.6292 45.2495C50.8711 45.0076 51.0071 44.6796 51.0071 44.3375C51.0071 43.9954 50.8712 43.6674 50.6292 43.4255L47.4432 40.2394C47.8576 39.4412 48.2092 38.6122 48.4946 37.7602H52.7102C53.4225 37.7602 54 37.1827 54 36.4704V28.4266C54 27.7143 53.4225 27.1368 52.7102 27.1368ZM51.4204 35.1807H47.5385C46.9565 35.1807 46.4468 35.5703 46.2939 36.1318C45.9435 37.4194 45.4189 38.6546 44.7347 39.8033C44.4326 40.3105 44.5135 40.958 44.9308 41.3753L47.8931 44.3376L44.0291 48.2014L41.0498 45.222C40.6343 44.8066 39.9909 44.7243 39.4846 45.0218C38.2902 45.7233 37.0082 46.2521 35.6741 46.5933C35.1032 46.7393 34.704 47.2537 34.704 47.8429V51.4062H29.2397V47.8349C29.2397 47.2466 28.8417 46.733 28.2721 46.586C27.0017 46.2582 25.7779 45.7605 24.6351 45.1064C24.1301 44.8174 23.4939 44.9023 23.0824 45.3139L20.223 48.1732L16.3591 44.3094L19.1375 41.5312C19.5588 41.11 19.6368 40.4551 19.3261 39.9467C18.6001 38.7584 18.0466 37.4748 17.6812 36.1318C17.5285 35.5703 17.0186 35.1806 16.4366 35.1806H12.5796V29.7164H16.324C16.9195 29.7164 17.4376 29.3086 17.5776 28.7297C17.9166 27.3281 18.461 25.9833 19.1955 24.7327C19.493 24.2262 19.4107 23.5828 18.9954 23.1675L16.4154 20.5875L20.2793 16.7237L22.842 19.2863C23.2594 19.7038 23.9067 19.7845 24.414 19.4824C25.6647 18.7374 27.0133 18.1834 28.4224 17.8357C28.9983 17.6936 29.4031 17.1768 29.4031 16.5835V12.5936H34.8673V16.6587C34.8673 17.2428 35.2599 17.7541 35.8243 17.9048C37.1915 18.2701 38.4973 18.8295 39.7055 19.5676C40.2138 19.8781 40.8687 19.8002 41.2899 19.379L44.1696 16.4993L48.0335 20.3631L45.0726 23.324C44.6611 23.7355 44.5761 24.3715 44.8652 24.8766C45.5553 26.0824 46.0709 27.3789 46.3978 28.7299C46.5378 29.3087 47.0558 29.7164 47.6514 29.7164H51.4204V35.1807Z"
                      fill="#000326" />
                    <path
                      d="M22.2445 30.3289C22.5094 30.7438 23.0753 31.0328 23.6437 30.88L25.9282 30.3029C26.6188 30.1284 27.0372 29.4271 26.8628 28.7365C26.713 28.1435 26.1745 27.7523 25.5882 27.7637C26.9848 25.6851 29.3578 24.3601 31.9592 24.3601C35.3024 24.3601 38.2357 26.4964 39.2584 29.6758C39.4765 30.3539 40.2027 30.727 40.8811 30.5087C41.5593 30.2906 41.9322 29.5641 41.7141 28.886C40.3472 24.636 36.427 21.7805 31.9593 21.7805C28.2601 21.7805 24.9046 23.7852 23.1009 26.8766C22.6963 26.3647 21.9622 26.2311 21.3989 26.5884C20.7974 26.9699 20.6191 27.7669 21.0006 28.3684L22.2386 30.3203C22.2405 30.3233 22.2426 30.326 22.2445 30.3289Z"
                      fill="#000326" />
                    <path
                      d="M41.7736 33.699C41.5101 33.2781 40.9569 32.96 40.3563 33.12L38.0718 33.6971C37.3812 33.8715 36.9628 34.5728 37.1373 35.2635C37.285 35.8481 37.8101 36.2377 38.3868 36.2377C38.395 36.2377 38.4032 36.2371 38.4114 36.2369C37.0147 38.3152 34.6418 39.6398 32.0408 39.6398C28.6977 39.6398 25.7644 37.5036 24.7416 34.3242C24.5235 33.6461 23.7969 33.273 23.1188 33.4913C22.4407 33.7094 22.0678 34.4359 22.2859 35.1141C23.653 39.3641 27.5732 42.2195 32.0408 42.2195C35.74 42.2195 39.0954 40.2148 40.8992 37.1235C41.3037 37.6354 42.0379 37.7689 42.6011 37.4118C43.2026 37.0301 43.381 36.2332 42.9995 35.6318L41.7736 33.699Z"
                      fill="#000326" />
                  </g>
                  <defs>
                    <linearGradient id="paint0_linear_2482_404" x1="32" y1="0" x2="32" y2="64"
                      gradientUnits="userSpaceOnUse">
                      <stop stop-color="#FFE59E" />
                      <stop offset="1" stop-color="#FFBC01" />
                    </linearGradient>
                    <clipPath id="clip0_2482_404">
                      <rect width="44" height="44" fill="white" transform="translate(10 10)" />
                    </clipPath>
                  </defs>
                </svg>