<svg xmlns="http://www.w3.org/2000/svg" width="88" height="88" viewBox="0 0 88 88" fill="none">
                  <path fill-rule="evenodd" clip-rule="evenodd"
                    d="M59.5834 25.6663C59.5834 27.1843 58.3514 28.4163 56.8334 28.4163C55.3154 28.4163 54.0834 27.1843 54.0834 25.6663V20.1663C54.0834 14.5967 49.5697 10.083 44.0001 10.083C38.4304 10.083 33.9167 14.5967 33.9167 20.1663V25.6663C33.9167 27.1843 32.6847 28.4163 31.1667 28.4163C29.6487 28.4163 28.4167 27.1843 28.4167 25.6663V20.1663C28.4167 11.5607 35.3944 4.58301 44.0001 4.58301C52.6057 4.58301 59.5834 11.5607 59.5834 20.1663V25.6663Z"
                    fill="url(#paint0_linear_3026_2013)" />
                  <path fill-rule="evenodd" clip-rule="evenodd"
                    d="M70.9208 30.616L73.8541 74.616C74.0045 76.8967 73.2051 79.1334 71.6468 80.8017C70.0848 82.47 67.9031 83.416 65.6224 83.416H22.3778C20.0971 83.416 17.9155 82.47 16.3535 80.8017C14.7951 79.1334 13.9958 76.8967 14.1461 74.616L17.0795 30.616C17.3691 26.282 20.9698 22.916 25.3111 22.916H62.6891C67.0305 22.916 70.6311 26.282 70.9208 30.616ZM53.1155 39.152C51.4948 42.5584 48.0225 44.916 44.0001 44.916C39.9778 44.916 36.5055 42.5584 34.8848 39.152C34.2358 37.7807 32.5931 37.1977 31.2218 37.8503C29.8505 38.4993 29.2675 40.142 29.9165 41.5133C32.4171 46.7787 37.7851 50.416 44.0001 50.416C50.2151 50.416 55.5831 46.7787 58.0838 41.5133C58.7328 40.142 58.1498 38.4993 56.7784 37.8503C55.4071 37.1977 53.7645 37.7807 53.1155 39.152Z"
                    fill="url(#paint1_linear_3026_2013)" />
                  <defs>
                    <linearGradient id="paint0_linear_3026_2013" x1="44.0001" y1="4.58301" x2="44.0001" y2="28.4163"
                      gradientUnits="userSpaceOnUse">
                      <stop stop-color="#FFE59E" />
                      <stop offset="1" stop-color="#FFBC01" />
                    </linearGradient>
                    <linearGradient id="paint1_linear_3026_2013" x1="44.0001" y1="22.916" x2="44.0001" y2="83.416"
                      gradientUnits="userSpaceOnUse">
                      <stop stop-color="#FFE59E" />
                      <stop offset="1" stop-color="#FFBC01" />
                    </linearGradient>
                  </defs>
                </svg>