<svg xmlns="http://www.w3.org/2000/svg" width="64" height="64" viewBox="0 0 64 64" fill="none">
                  <rect x="1.06667" y="1.06667" width="61.8667" height="61.8667" rx="13.6"
                    fill="url(#paint0_linear_2686_2908)" />
                  <rect x="1.06667" y="1.06667" width="61.8667" height="61.8667" rx="13.6" stroke="#000326"
                    stroke-width="2.13333" />
                  <g clip-path="url(#clip0_2686_2908)">
                    <path
                      d="M51.0671 18.8008C49.4493 18.8008 48.1338 20.1164 48.1338 21.7341C48.1338 23.3518 49.4494 24.6674 51.0671 24.6674C52.6848 24.6674 54.0004 23.3519 54.0004 21.7341C54.0004 20.1164 52.6848 18.8008 51.0671 18.8008ZM51.0671 23.2008C50.2582 23.2008 49.6004 22.543 49.6004 21.7341C49.6004 20.9252 50.2582 20.2674 51.0671 20.2674C51.876 20.2674 52.5338 20.9252 52.5338 21.7341C52.5337 22.543 51.8759 23.2008 51.0671 23.2008Z"
                      fill="#000326" />
                    <path
                      d="M12.9333 43C11.3156 43 10 44.3156 10 45.9333C10 47.551 11.3156 48.8666 12.9333 48.8666C14.5511 48.8666 15.8666 47.551 15.8666 45.9333C15.8666 44.3156 14.5511 43 12.9333 43ZM12.9333 47.4C12.1245 47.4 11.4666 46.7422 11.4666 45.9333C11.4666 45.1244 12.1244 44.4666 12.9333 44.4666C13.7421 44.4666 14.4 45.1244 14.4 45.9333C14.4 46.7422 13.7422 47.4 12.9333 47.4Z"
                      fill="#000326" />
                    <path
                      d="M49.6451 19.7272L43.3186 16.6729C42.9534 16.4962 42.5156 16.6502 42.3396 17.0147C42.1636 17.3792 42.3168 17.8177 42.6814 17.9937L49.0078 21.048C49.1105 21.0979 49.2191 21.1213 49.3261 21.1213C49.5988 21.1213 49.8607 20.9688 49.9867 20.7062C50.1627 20.3418 50.0095 19.9032 49.6451 19.7272Z"
                      fill="#000326" />
                    <path
                      d="M42.9997 48.1328C41.3819 48.1328 40.0664 49.4484 40.0664 51.0661C40.0664 52.6838 41.3819 53.9995 42.9997 53.9995C44.6175 53.9995 45.933 52.6839 45.933 51.0662C45.933 49.4485 44.6175 48.1328 42.9997 48.1328ZM42.9997 52.5328C42.1909 52.5328 41.533 51.875 41.533 51.0661C41.533 50.2572 42.1909 49.5995 42.9997 49.5995C43.8086 49.5995 44.4664 50.2573 44.4664 51.0662C44.4664 51.8751 43.8086 52.5328 42.9997 52.5328Z"
                      fill="#000326" />
                    <path
                      d="M41.5777 49.0613L35.2512 46.007C34.886 45.8303 34.4482 45.9836 34.2722 46.3488C34.0962 46.7133 34.2494 47.1518 34.614 47.3278L40.9404 50.3821C41.0431 50.432 41.1517 50.4554 41.2587 50.4554C41.5314 50.4554 41.7933 50.3029 41.9194 50.0403C42.0954 49.6758 41.9421 49.2373 41.5777 49.0613Z"
                      fill="#000326" />
                    <path
                      d="M31.9997 29.8008C30.3819 29.8008 29.0664 31.1164 29.0664 32.7341C29.0664 34.3519 30.382 35.6674 31.9997 35.6674C33.6175 35.6674 34.933 34.3518 34.933 32.7341C34.933 31.1164 33.6175 29.8008 31.9997 29.8008ZM31.9997 34.2008C31.1909 34.2008 30.533 33.543 30.533 32.7341C30.533 31.9252 31.1908 31.2674 31.9997 31.2674C32.8086 31.2674 33.4664 31.9252 33.4664 32.7341C33.4664 33.543 32.8086 34.2008 31.9997 34.2008Z"
                      fill="#000326" />
                    <path
                      d="M30.7103 30.8092L25.8505 27.0215C25.5308 26.7743 25.0703 26.8293 24.8209 27.1491C24.5723 27.4689 24.6288 27.9293 24.9485 28.1787L29.8083 31.9664C29.9425 32.0706 30.1009 32.1212 30.2586 32.1212C30.4772 32.1212 30.6928 32.0244 30.8379 31.8389C31.0865 31.519 31.0301 31.0585 30.7103 30.8092Z"
                      fill="#000326" />
                    <path
                      d="M45.2005 29.0664C40.7528 29.0664 37.1338 32.6854 37.1338 37.1331C37.1338 41.5808 40.7528 45.1998 45.2005 45.1998C49.6482 45.1998 53.2672 41.5808 53.2672 37.1331C53.2672 32.6854 49.6482 29.0664 45.2005 29.0664ZM45.2005 43.733C41.5609 43.733 38.6005 40.7726 38.6005 37.133C38.6005 33.4935 41.5609 30.533 45.2005 30.533C48.84 30.533 51.8005 33.4935 51.8005 37.133C51.8005 40.7726 48.84 43.733 45.2005 43.733Z"
                      fill="#000326" />
                    <path
                      d="M45.1999 32C43.5821 32 42.2666 33.3156 42.2666 34.9333C42.2666 36.5511 43.5822 37.8666 45.1999 37.8666C46.8177 37.8666 48.1332 36.551 48.1332 34.9333C48.1332 33.3156 46.8177 32 45.1999 32ZM45.1999 36.4C44.3911 36.4 43.7332 35.7422 43.7332 34.9333C43.7332 34.1245 44.391 33.4666 45.1999 33.4666C46.0087 33.4666 46.6666 34.1244 46.6666 34.9333C46.6666 35.7422 46.0087 36.4 45.1999 36.4Z"
                      fill="#000326" />
                    <path
                      d="M47.3274 39.334H43.0727C41.8194 39.334 40.8 40.3262 40.8 41.545V43.4781C40.8 43.7398 40.9394 43.9818 41.166 44.1131C42.395 44.8244 43.7898 45.2007 45.2 45.2007C46.6103 45.2007 48.005 44.8244 49.2341 44.1131C49.4607 43.9826 49.6 43.7398 49.6 43.4788V41.5458C49.6 40.3262 48.5807 39.334 47.3274 39.334ZM48.1334 43.041C46.3081 43.9503 44.092 43.9503 42.2667 43.041V41.5458C42.2667 41.1351 42.6282 40.8007 43.0726 40.8007H47.3273C47.7717 40.8007 48.1333 41.1351 48.1333 41.5458V43.041H48.1334Z"
                      fill="#000326" />
                    <path
                      d="M27.5999 37.8672C23.1522 37.8672 19.5332 41.4862 19.5332 45.9339C19.5332 50.3816 23.1522 54.0005 27.5999 54.0005C32.0476 54.0005 35.6666 50.3815 35.6666 45.9338C35.6666 41.4861 32.0476 37.8672 27.5999 37.8672ZM27.5999 52.5338C23.9604 52.5338 20.9999 49.5733 20.9999 45.9338C20.9999 42.2943 23.9604 39.3338 27.5999 39.3338C31.2394 39.3338 34.1999 42.2943 34.1999 45.9338C34.1999 49.5733 31.2394 52.5338 27.5999 52.5338Z"
                      fill="#000326" />
                    <path
                      d="M27.6003 40.8008C25.9825 40.8008 24.667 42.1164 24.667 43.7341C24.667 45.3519 25.9826 46.6674 27.6003 46.6674C29.218 46.6674 30.5336 45.3518 30.5336 43.7341C30.5336 42.1164 29.2181 40.8008 27.6003 40.8008ZM27.6003 45.2008C26.7915 45.2008 26.1336 44.543 26.1336 43.7341C26.1336 42.9252 26.7914 42.2674 27.6003 42.2674C28.4091 42.2674 29.067 42.9252 29.067 43.7341C29.067 44.543 28.4091 45.2008 27.6003 45.2008Z"
                      fill="#000326" />
                    <path
                      d="M29.7273 48.1328H25.4726C24.2193 48.1328 23.2 49.125 23.2 50.3438V52.2769C23.2 52.5387 23.3393 52.7807 23.5659 52.912C24.795 53.6233 26.1897 53.9995 27.6 53.9995C29.0102 53.9995 30.405 53.6233 31.634 52.912C31.8606 52.7814 32 52.5387 32 52.2777V50.3446C32 49.125 30.9806 48.1328 29.7273 48.1328ZM30.5333 51.8398C28.7079 52.7491 26.4919 52.7491 24.6666 51.8398V50.3446C24.6666 49.9339 25.0281 49.5995 25.4725 49.5995H29.7272C30.1716 49.5995 30.5332 49.9339 30.5332 50.3446L30.5333 51.8398Z"
                      fill="#000326" />
                    <path
                      d="M18.0667 19.5332C13.619 19.5332 10 23.1522 10 27.5999C10 32.0476 13.619 35.6666 18.0667 35.6666C22.5144 35.6666 26.1334 32.0476 26.1334 27.5999C26.1333 23.1522 22.5143 19.5332 18.0667 19.5332ZM18.0667 34.1999C14.4272 34.1999 11.4667 31.2394 11.4667 27.5999C11.4667 23.9604 14.4272 20.9999 18.0667 20.9999C21.7062 20.9999 24.6667 23.9604 24.6667 27.5999C24.6667 31.2394 21.7062 34.1999 18.0667 34.1999Z"
                      fill="#000326" />
                    <path
                      d="M18.0671 22.4668C16.4493 22.4668 15.1338 23.7824 15.1338 25.4001C15.1338 27.0178 16.4494 28.3334 18.0671 28.3334C19.6849 28.3334 21.0004 27.0178 21.0004 25.4001C21.0004 23.7824 19.6848 22.4668 18.0671 22.4668ZM18.0671 26.8668C17.2582 26.8668 16.6004 26.209 16.6004 25.4001C16.6004 24.5912 17.2582 23.9334 18.0671 23.9334C18.8759 23.9334 19.5338 24.5912 19.5338 25.4001C19.5338 26.209 18.8759 26.8668 18.0671 26.8668Z"
                      fill="#000326" />
                    <path
                      d="M20.1944 29.8008H15.9396C14.6864 29.8008 13.667 30.793 13.667 32.0118V33.9449C13.667 34.2066 13.8063 34.4486 14.0329 34.5799C15.262 35.2912 16.6568 35.6675 18.067 35.6675C19.4772 35.6675 20.872 35.2912 22.1011 34.5799C22.3277 34.4494 22.467 34.2066 22.467 33.9456V32.0126C22.467 30.793 21.4476 29.8008 20.1944 29.8008ZM21.0003 33.5078C19.1751 34.4171 16.9589 34.4171 15.1336 33.5078V32.0126C15.1336 31.6019 15.4951 31.2675 15.9395 31.2675H20.1943C20.6387 31.2675 21.0002 31.6019 21.0002 32.0126L21.0003 33.5078Z"
                      fill="#000326" />
                    <path
                      d="M35.6663 10C31.2186 10 27.5996 13.619 27.5996 18.0667C27.5996 22.5144 31.2186 26.1334 35.6663 26.1334C40.114 26.1334 43.733 22.5144 43.733 18.0667C43.7329 13.619 40.1139 10 35.6663 10ZM35.6663 24.6667C32.0268 24.6667 29.0663 21.7062 29.0663 18.0667C29.0663 14.4272 32.0268 11.4667 35.6663 11.4667C39.3058 11.4667 42.2663 14.4272 42.2663 18.0667C42.2663 21.7062 39.3058 24.6667 35.6663 24.6667Z"
                      fill="#000326" />
                    <path
                      d="M35.6667 12.9336C34.0489 12.9336 32.7334 14.2492 32.7334 15.8669C32.7334 17.4846 34.049 18.8002 35.6667 18.8002C37.2844 18.8002 38.6 17.4847 38.6 15.867C38.6 14.2493 37.2844 12.9336 35.6667 12.9336ZM35.6667 17.3336C34.8579 17.3336 34.2 16.6758 34.2 15.8669C34.2 15.0581 34.8578 14.4002 35.6667 14.4002C36.4756 14.4002 37.1334 15.058 37.1334 15.8669C37.1333 16.6758 36.4755 17.3336 35.6667 17.3336Z"
                      fill="#000326" />
                    <path
                      d="M37.794 20.2676H33.5392C32.286 20.2676 31.2666 21.2598 31.2666 22.4786V24.4117C31.2666 24.6734 31.4059 24.9154 31.6325 25.0467C32.8616 25.758 34.2564 26.1343 35.6666 26.1343C37.0768 26.1343 38.4716 25.758 39.7007 25.0467C39.9273 24.9162 40.0666 24.6734 40.0666 24.4124V22.4794C40.0666 21.2597 39.0472 20.2676 37.794 20.2676ZM38.5999 23.9746C36.7747 24.8839 34.5585 24.8839 32.7332 23.9746V22.4794C32.7332 22.0687 33.0948 21.7343 33.5391 21.7343H37.7939C38.2383 21.7343 38.5998 22.0687 38.5998 22.4794L38.5999 23.9746Z"
                      fill="#000326" />
                    <path
                      d="M28.8913 17.5899C28.6281 17.2833 28.1653 17.2466 27.8573 17.51L22.7753 21.8586C22.4673 22.1219 22.4314 22.5846 22.6946 22.8926C22.8399 23.062 23.0452 23.1493 23.252 23.1493C23.4206 23.1493 23.59 23.0914 23.7286 22.9726L28.8106 18.6239C29.1187 18.3606 29.1547 17.8979 28.8913 17.5899Z"
                      fill="#000326" />
                    <path
                      d="M45.053 29.3611L40.653 23.4944C40.4102 23.1695 39.9505 23.1057 39.6263 23.3477C39.3022 23.5905 39.2369 24.0502 39.4796 24.3736L43.8796 30.2403C44.0241 30.4325 44.2441 30.5336 44.467 30.5336C44.6195 30.5336 44.7743 30.4859 44.9063 30.3869C45.2305 30.1442 45.2958 29.6845 45.053 29.3611Z"
                      fill="#000326" />
                    <path
                      d="M39.0345 39.5589C38.7918 39.2348 38.332 39.1695 38.0078 39.4122L33.9115 42.4842C33.5873 42.7269 33.5221 43.1867 33.7648 43.5101C33.9092 43.7022 34.1292 43.8034 34.3522 43.8034C34.5054 43.8034 34.6594 43.755 34.7915 43.6567L38.8879 40.5848C39.212 40.3422 39.2773 39.8823 39.0345 39.5589Z"
                      fill="#000326" />
                    <path
                      d="M20.2671 45.1992H15.1337C14.7289 45.1992 14.4004 45.527 14.4004 45.9325C14.4004 46.3381 14.7289 46.6658 15.1337 46.6658H20.267C20.6718 46.6658 21.0003 46.3381 21.0003 45.9325C21.0003 45.527 20.6719 45.1992 20.2671 45.1992Z"
                      fill="#000326" />
                    <path
                      d="M18.0672 10C16.4494 10 15.1338 11.3156 15.1338 12.9333C15.1338 14.5511 16.4494 15.8666 18.0671 15.8666C19.6849 15.8666 21.0004 14.551 21.0004 12.9333C21.0005 11.3156 19.6849 10 18.0672 10ZM18.0672 14.4C17.2583 14.4 16.6005 13.7422 16.6005 12.9333C16.6005 12.1245 17.2582 11.4666 18.0672 11.4666C18.876 11.4666 19.5339 12.1244 19.5339 12.9333C19.5338 13.7422 18.876 14.4 18.0672 14.4Z"
                      fill="#000326" />
                    <path
                      d="M18.0663 14.4004C17.6615 14.4004 17.333 14.7282 17.333 15.1337V20.267C17.333 20.6725 17.6615 21.0003 18.0663 21.0003C18.4711 21.0003 18.7996 20.6725 18.7996 20.267V15.1337C18.7996 14.7282 18.4711 14.4004 18.0663 14.4004Z"
                      fill="#000326" />
                  </g>
                  <defs>
                    <linearGradient id="paint0_linear_2686_2908" x1="32" y1="0" x2="32" y2="64"
                      gradientUnits="userSpaceOnUse">
                      <stop stop-color="#FFE59E" />
                      <stop offset="1" stop-color="#FFBC01" />
                    </linearGradient>
                    <clipPath id="clip0_2686_2908">
                      <rect width="44" height="44" fill="white" transform="translate(10 10)" />
                    </clipPath>
                  </defs>
                </svg>