<svg xmlns="http://www.w3.org/2000/svg" width="88" height="88" viewBox="0 0 88 88" fill="none">
                    <circle cx="26" cy="64" r="17" fill="#000326"></circle>
                    <rect x="39.8633" y="23.395" width="12" height="15.5587" transform="rotate(-14.1664 39.8633 23.395)"
                      fill="#000326">
                    </rect>
                    <rect x="58" y="13.7617" width="12" height="22.6142" transform="rotate(-23.3784 58 13.7617)"
                      fill="#000326"></rect>
                    <path
                      d="M24.75 41.25C12.6225 41.25 2.75 51.1225 2.75 63.25C2.75 75.3775 12.6225 85.25 24.75 85.25C36.8775 85.25 46.75 75.3775 46.75 63.25C46.75 51.1225 36.8775 41.25 24.75 41.25ZM22.6875 60.5H26.8125C30.6075 60.5 33.6875 63.58 33.6875 67.375C33.6875 70.9225 30.965 73.8375 27.5 74.1675V75.625C27.5 77.1375 26.2625 78.375 24.75 78.375C23.2375 78.375 22 77.1375 22 75.625V74.25H18.5625C17.05 74.25 15.8125 73.0125 15.8125 71.5C15.8125 69.9875 17.05 68.75 18.5625 68.75H26.8125C27.5825 68.75 28.1875 68.145 28.1875 67.375C28.1875 66.605 27.5825 66 26.8125 66H22.6875C18.8925 66 15.8125 62.92 15.8125 59.125C15.8125 55.5775 18.535 52.6625 22 52.3325V50.875C22 49.3625 23.2375 48.125 24.75 48.125C26.2625 48.125 27.5 49.3625 27.5 50.875V52.25H30.9375C32.45 52.25 33.6875 53.4875 33.6875 55C33.6875 56.5125 32.45 57.75 30.9375 57.75H22.6875C21.9175 57.75 21.3125 58.355 21.3125 59.125C21.3125 59.895 21.9175 60.5 22.6875 60.5Z"
                      fill="url(#paint0_linear_1794_1188)"></path>
                    <path
                      d="M85.1663 35.4755L76.9438 4.78546C76.7238 3.93296 76.1188 3.24546 75.2938 2.94296C74.4963 2.61296 73.5613 2.69546 72.8188 3.16296L65.1463 7.97546L69.5738 24.448C69.9588 25.9055 69.1063 27.418 67.6213 27.803C67.3738 27.858 67.1538 27.8855 66.9063 27.8855C65.6963 27.8855 64.5688 27.088 64.2663 25.8505L60.2788 11.0005L47.8213 18.8105L52.9088 37.7855L56.0988 37.8955L58.0513 45.183C58.9588 48.593 62.0663 50.848 65.4213 50.848C66.0813 50.848 66.7413 50.7655 67.4013 50.6005L72.1313 49.3355C76.2013 48.2355 78.6213 44.0555 77.5213 39.9855L77.1638 38.693L82.3888 38.8855C82.3888 38.8855 82.4713 38.8855 82.4988 38.8855C83.3238 38.8855 84.1213 38.5005 84.6438 37.8405C85.1938 37.153 85.3863 36.2455 85.1388 35.4205L85.1663 35.4755ZM70.7288 44.083L65.9988 45.348C64.8438 45.6505 63.6888 44.9905 63.3863 43.8355L61.8738 38.1705L71.4438 38.528L72.2413 41.4705C72.5438 42.598 71.8563 43.7805 70.7288 44.083Z"
                      fill="url(#paint1_linear_1794_1188)"></path>
                    <path
                      d="M37.7035 18.7823C34.7885 19.5523 33.0285 22.5773 33.826 25.5198L37.456 39.0773C37.841 40.5073 38.7485 41.6898 40.0135 42.4048C40.866 42.8998 41.801 43.1473 42.7635 43.1473C43.231 43.1473 43.726 43.0923 44.1935 42.9548L48.3185 41.8548L41.8285 17.6548L37.7035 18.7548V18.7823Z"
                      fill="url(#paint2_linear_1794_1188)"></path>
                    <defs>
                      <linearGradient id="paint0_linear_1794_1188" x1="24.75" y1="41.25" x2="24.75" y2="85.25"
                        gradientUnits="userSpaceOnUse">
                        <stop stop-color="#FFE59E"></stop>
                        <stop offset="1" stop-color="#FFBC01"></stop>
                      </linearGradient>
                      <linearGradient id="paint1_linear_1794_1188" x1="66.5332" y1="2.74316" x2="66.5332" y2="50.848"
                        gradientUnits="userSpaceOnUse">
                        <stop stop-color="#FFE59E"></stop>
                        <stop offset="1" stop-color="#FFBC01"></stop>
                      </linearGradient>
                      <linearGradient id="paint2_linear_1794_1188" x1="40.9761" y1="17.6548" x2="40.9761" y2="43.1473"
                        gradientUnits="userSpaceOnUse">
                        <stop stop-color="#FFE59E"></stop>
                        <stop offset="1" stop-color="#FFBC01"></stop>
                      </linearGradient>
                    </defs>
                  </svg>