<svg xmlns="http://www.w3.org/2000/svg" width="88" height="88" viewBox="0 0 88 88" fill="none">
                      <rect x="10" y="31" width="56" height="45" fill="#000326" />
                      <rect x="4" y="12" width="65" height="6" fill="#000326" />
                      <path
                        d="M72 21.5V14.75C72 12.9598 71.2888 11.2429 70.023 9.97703C68.7571 8.71116 67.0402 8 65.25 8H6.75C4.95979 8 3.2429 8.71116 1.97703 9.97703C0.711159 11.2429 0 12.9598 0 14.75L0 21.5H72ZM47.25 12.5H65.25C65.8467 12.5 66.419 12.7371 66.841 13.159C67.2629 13.581 67.5 14.1533 67.5 14.75C67.5 15.3467 67.2629 15.919 66.841 16.341C66.419 16.7629 65.8467 17 65.25 17H47.25C46.6533 17 46.081 16.7629 45.659 16.341C45.2371 15.919 45 15.3467 45 14.75C45 14.1533 45.2371 13.581 45.659 13.159C46.081 12.7371 46.6533 12.5 47.25 12.5ZM24.75 12.5H27C27.5967 12.5 28.169 12.7371 28.591 13.159C29.0129 13.581 29.25 14.1533 29.25 14.75C29.25 15.3467 29.0129 15.919 28.591 16.341C28.169 16.7629 27.5967 17 27 17H24.75C24.1533 17 23.581 16.7629 23.159 16.341C22.7371 15.919 22.5 15.3467 22.5 14.75C22.5 14.1533 22.7371 13.581 23.159 13.159C23.581 12.7371 24.1533 12.5 24.75 12.5ZM15.75 12.5H18C18.5967 12.5 19.169 12.7371 19.591 13.159C20.0129 13.581 20.25 14.1533 20.25 14.75C20.25 15.3467 20.0129 15.919 19.591 16.341C19.169 16.7629 18.5967 17 18 17H15.75C15.1533 17 14.581 16.7629 14.159 16.341C13.7371 15.919 13.5 15.3467 13.5 14.75C13.5 14.1533 13.7371 13.581 14.159 13.159C14.581 12.7371 15.1533 12.5 15.75 12.5ZM6.75 12.5H9C9.59674 12.5 10.169 12.7371 10.591 13.159C11.0129 13.581 11.25 14.1533 11.25 14.75C11.25 15.3467 11.0129 15.919 10.591 16.341C10.169 16.7629 9.59674 17 9 17H6.75C6.15326 17 5.58097 16.7629 5.15901 16.341C4.73705 15.919 4.5 15.3467 4.5 14.75C4.5 14.1533 4.73705 13.581 5.15901 13.159C5.58097 12.7371 6.15326 12.5 6.75 12.5Z"
                        fill="url(#paint0_linear_1798_1342)" />
                      <path d="M28.8428 57.5H47.8035L51.0188 46.25H26.5928L28.8428 57.5Z"
                        fill="url(#paint1_linear_1798_1342)" />
                      <path
                        d="M0 26V73.25C0 75.0402 0.711159 76.7571 1.97703 78.023C3.2429 79.2888 4.95979 80 6.75 80H65.25C67.0402 80 68.7571 79.2888 70.023 78.023C71.2888 76.7571 72 75.0402 72 73.25V26H0ZM30.375 71C29.7075 71 29.055 70.8021 28.5 70.4312C27.9449 70.0604 27.5124 69.5333 27.2569 68.9166C27.0015 68.2999 26.9346 67.6213 27.0648 66.9666C27.1951 66.3119 27.5165 65.7105 27.9885 65.2385C28.4605 64.7665 29.0619 64.4451 29.7166 64.3148C30.3713 64.1846 31.0499 64.2515 31.6666 64.5069C32.2833 64.7624 32.8104 65.1949 33.1812 65.75C33.5521 66.305 33.75 66.9575 33.75 67.625C33.75 68.5201 33.3944 69.3785 32.7615 70.0115C32.1286 70.6444 31.2701 71 30.375 71ZM43.875 71C43.2075 71 42.555 70.8021 42 70.4312C41.4449 70.0604 41.0124 69.5333 40.7569 68.9166C40.5015 68.2999 40.4346 67.6213 40.5648 66.9666C40.6951 66.3119 41.0165 65.7105 41.4885 65.2385C41.9605 64.7665 42.5619 64.4451 43.2166 64.3148C43.8713 64.1846 44.5499 64.2515 45.1666 64.5069C45.7833 64.7624 46.3104 65.1949 46.6812 65.75C47.0521 66.305 47.25 66.9575 47.25 67.625C47.25 68.5201 46.8944 69.3785 46.2615 70.0115C45.6285 70.6444 44.7701 71 43.875 71ZM56.1645 44.6187L52.1303 58.7375C51.8588 59.676 51.2904 60.5012 50.5103 61.0894C49.7302 61.6776 48.7805 61.9971 47.8035 62H28.8428C27.8036 61.997 26.7972 61.6357 25.9934 60.977C25.1896 60.3184 24.6376 59.4026 24.4305 58.3843L20.655 39.5H15.75C15.1533 39.5 14.581 39.2629 14.159 38.841C13.7371 38.419 13.5 37.8467 13.5 37.25C13.5 36.6533 13.7371 36.081 14.159 35.659C14.581 35.2371 15.1533 35 15.75 35H22.5C23.0187 34.9999 23.5215 35.179 23.9233 35.507C24.3251 35.835 24.6013 36.2918 24.705 36.8L25.695 41.75H54C54.3484 41.7498 54.6921 41.8305 55.004 41.9858C55.3159 42.1411 55.5875 42.3667 55.7974 42.6448C56.0072 42.923 56.1496 43.246 56.2133 43.5886C56.277 43.9311 56.2603 44.2838 56.1645 44.6187Z"
                        fill="url(#paint2_linear_1798_1342)" />
                      <defs>
                        <linearGradient id="paint0_linear_1798_1342" x1="36" y1="8" x2="36" y2="21.5"
                          gradientUnits="userSpaceOnUse">
                          <stop stop-color="#FFE59E" />
                          <stop offset="1" stop-color="#FFBC01" />
                        </linearGradient>
                        <linearGradient id="paint1_linear_1798_1342" x1="38.8058" y1="46.25" x2="38.8058" y2="57.5"
                          gradientUnits="userSpaceOnUse">
                          <stop stop-color="#FFE59E" />
                          <stop offset="1" stop-color="#FFBC01" />
                        </linearGradient>
                        <linearGradient id="paint2_linear_1798_1342" x1="36" y1="26" x2="36" y2="80"
                          gradientUnits="userSpaceOnUse">
                          <stop stop-color="#FFE59E" />
                          <stop offset="1" stop-color="#FFBC01" />
                        </linearGradient>
                      </defs>
                    </svg>