<svg xmlns="http://www.w3.org/2000/svg" width="88" height="88" viewBox="0 0 88 88" fill="none">
                      <g clip-path="url(#clip0_1798_1322)">
                        <rect x="20" y="8" width="36" height="13" fill="#000326" />
                        <path
                          d="M66.3438 51.9062C60.6574 51.9062 56.0312 47.2801 56.0312 41.5938C56.0312 35.9074 60.6574 31.2812 66.3438 31.2812C72.0301 31.2812 76.6562 35.9074 76.6562 41.5938C76.6562 47.2801 72.0301 51.9062 66.3438 51.9062Z"
                          fill="url(#paint0_linear_1798_1322)" />
                        <path
                          d="M85.4219 88H2.57812C1.15431 88 0 86.8457 0 85.4219V80.2656C0 78.8418 1.15431 77.6875 2.57812 77.6875H85.4219C86.8457 77.6875 88 78.8418 88 80.2656V85.4219C88 86.8457 86.8457 88 85.4219 88Z"
                          fill="url(#paint1_linear_1798_1322)" />
                        <path
                          d="M75.228 54.2495C72.7122 56.0209 69.6475 57.0626 66.3438 57.0626C63.04 57.0626 59.9753 56.0209 57.4595 54.2495C55.2044 55.5303 53.2519 57.2836 51.7344 59.3726V64.797C51.7344 67.4729 50.3681 69.8351 48.2969 71.2244V72.5313H84.3906V69.9532C84.3906 63.23 80.6946 57.3544 75.228 54.2495Z"
                          fill="url(#paint2_linear_1798_1322)" />
                        <path
                          d="M44 36.4375H2.75C1.32619 36.4375 0.171875 37.5918 0.171875 39.0156V64.7969C0.171875 66.2207 1.32619 67.375 2.75 67.375H14.6417L12.9229 72.5312H33.8269L32.1081 67.375H44C45.4238 67.375 46.5781 66.2207 46.5781 64.7969V39.0156C46.5781 37.5918 45.4238 36.4375 44 36.4375Z"
                          fill="#000326" />
                        <path
                          d="M57.75 0H19.9375C16.6205 0 13.9219 2.69861 13.9219 6.01562V19.7656C13.9219 23.0826 16.6205 25.7812 19.9375 25.7812H41.5006L51.1637 32.2233C51.5952 32.5108 52.0938 32.6562 52.5939 32.6562C53.0111 32.6562 53.4291 32.5552 53.8103 32.3512C54.6485 31.9026 55.1719 31.0289 55.1719 30.0781V25.7812H57.75C61.067 25.7812 63.7656 23.0826 63.7656 19.7656V6.01562C63.7656 2.69861 61.067 0 57.75 0ZM50.875 15.4688H26.8125C25.3887 15.4688 24.2344 14.3144 24.2344 12.8906C24.2344 11.4668 25.3887 10.3125 26.8125 10.3125H50.875C52.2988 10.3125 53.4531 11.4668 53.4531 12.8906C53.4531 14.3144 52.2988 15.4688 50.875 15.4688Z"
                          fill="url(#paint3_linear_1798_1322)" />
                      </g>
                      <defs>
                        <linearGradient id="paint0_linear_1798_1322" x1="66.3438" y1="31.2812" x2="66.3438" y2="51.9062"
                          gradientUnits="userSpaceOnUse">
                          <stop stop-color="#FFE59E" />
                          <stop offset="1" stop-color="#FFBC01" />
                        </linearGradient>
                        <linearGradient id="paint1_linear_1798_1322" x1="44" y1="77.6875" x2="44" y2="88"
                          gradientUnits="userSpaceOnUse">
                          <stop stop-color="#FFE59E" />
                          <stop offset="1" stop-color="#FFBC01" />
                        </linearGradient>
                        <linearGradient id="paint2_linear_1798_1322" x1="66.3438" y1="54.2495" x2="66.3438" y2="72.5313"
                          gradientUnits="userSpaceOnUse">
                          <stop stop-color="#FFE59E" />
                          <stop offset="1" stop-color="#FFBC01" />
                        </linearGradient>
                        <linearGradient id="paint3_linear_1798_1322" x1="38.8438" y1="0" x2="38.8438" y2="32.6562"
                          gradientUnits="userSpaceOnUse">
                          <stop stop-color="#FFE59E" />
                          <stop offset="1" stop-color="#FFBC01" />
                        </linearGradient>
                        <clipPath id="clip0_1798_1322">
                          <rect width="88" height="88" fill="white" />
                        </clipPath>
                      </defs>
                    </svg>