<svg xmlns="http://www.w3.org/2000/svg" width="64" height="64" viewBox="0 0 64 64" fill="none">
                  <rect x="1.06667" y="1.06667" width="61.8667" height="61.8667" rx="13.6"
                    fill="url(#paint0_linear_2686_934)" />
                  <rect x="1.06667" y="1.06667" width="61.8667" height="61.8667" rx="13.6" stroke="#000326"
                    stroke-width="2.13333" />
                  <g clip-path="url(#clip0_2686_934)">
                    <path
                      d="M12.2 33.4659C12.7836 33.4669 13.3435 33.2355 13.7561 32.8228C13.8133 32.7656 17.3333 29.2522 17.3333 29.2522L19.1395 31.0599C19.8273 31.7482 20.7603 32.1349 21.7333 32.1349C22.7063 32.1349 23.6394 31.7482 24.3271 31.0599L35.0866 20.2967L38.3587 23.5703C39.7922 25.0014 42.1136 25.0014 43.5471 23.5703L50.0972 17.0114L50.6413 17.5555C51.1259 18.0396 51.8481 18.1972 52.4903 17.959C53.1325 17.7209 53.5772 17.1305 53.6289 16.4475L53.9956 11.7241V11.7167C54.0274 11.2537 53.8573 10.7995 53.5293 10.4711C53.2012 10.1427 52.7471 9.9723 52.284 10.0037L47.5562 10.3703C46.8734 10.4192 46.282 10.8622 46.0431 11.5037C45.8043 12.1452 45.962 12.8672 46.4467 13.3506L46.9908 13.8962L40.9518 19.9381L37.6804 16.6645C36.9927 15.9763 36.0596 15.5895 35.0866 15.5895C34.1136 15.5895 33.1805 15.9763 32.4928 16.6645L21.7333 27.4284L19.9286 25.6193C18.4953 24.1879 16.1735 24.1879 14.7403 25.6193L10.6519 29.7186C10.0236 30.3455 9.83491 31.2892 10.1738 32.1096C10.5127 32.9299 11.3124 33.4653 12.2 33.4659ZM11.6867 30.7526L15.7779 26.6525C16.1906 26.2394 16.7505 26.0073 17.3344 26.0073C17.9183 26.0073 18.4783 26.2394 18.8909 26.6525L21.2149 28.9779C21.3524 29.1157 21.5391 29.193 21.7337 29.193C21.9283 29.193 22.115 29.1157 22.2525 28.9779L33.5297 17.6993C34.4008 16.867 35.7724 16.867 36.6435 17.6993L39.9156 20.9729C40.496 21.5272 41.4098 21.5272 41.9902 20.9729L48.5469 14.4125C48.8327 14.1262 48.8327 13.6626 48.5469 13.3763L47.4814 12.3107C47.4008 12.236 47.3754 12.1189 47.4176 12.0174C47.4546 11.9096 47.5538 11.8354 47.6677 11.8304L52.3925 11.4659C52.4295 11.4643 52.4653 11.4787 52.4908 11.5055C52.5198 11.5334 52.5354 11.5724 52.5333 11.6126L52.1667 16.3353C52.1587 16.4472 52.0861 16.5441 51.9811 16.5834C51.876 16.6226 51.7577 16.5971 51.6783 16.5179L50.6157 15.4538C50.3245 15.1786 49.8692 15.1786 49.578 15.4538L42.5094 22.5327C41.6377 23.3627 40.2681 23.3627 39.3964 22.5327L36.1243 19.2591C35.8498 18.9827 35.4761 18.8277 35.0866 18.8286C34.6978 18.8282 34.3248 18.9828 34.0504 19.2583L23.2909 30.0229C22.4197 30.8549 21.0484 30.8549 20.1772 30.0229L18.371 28.2153C17.7984 27.6432 16.8705 27.6432 16.2979 28.2153L12.717 31.7903C12.4297 32.0714 11.9703 32.0714 11.683 31.7903C11.5443 31.6555 11.466 31.4703 11.466 31.2769C11.466 31.0835 11.5443 30.8984 11.683 30.7636L11.6867 30.7526Z"
                      fill="#070322" />
                    <path
                      d="M39.3333 37.8653C39.3398 34.4122 36.9363 31.4224 33.5624 30.6867C30.1886 29.951 26.7586 31.6687 25.3268 34.811C23.895 37.9533 24.8494 41.6687 27.6183 43.732H27.6C26.7305 43.7282 25.9411 44.2389 25.5883 45.0336C25.2355 45.8282 25.386 46.7563 25.972 47.3987C25.2093 48.2277 25.2093 49.503 25.972 50.332C25.386 50.9744 25.2355 51.9025 25.5883 52.6971C25.9411 53.4918 26.7305 54.0025 27.6 53.9987H36.4C37.2694 54.0025 38.0589 53.4918 38.4117 52.6971C38.7645 51.9025 38.6139 50.9744 38.028 50.332C38.7907 49.503 38.7907 48.2277 38.028 47.3987C38.6139 46.7563 38.7645 45.8282 38.4117 45.0336C38.0589 44.2389 37.2694 43.7282 36.4 43.732H36.3816C38.2368 42.3523 39.3311 40.1773 39.3333 37.8653ZM37.1333 48.8653C37.1333 49.2704 36.805 49.5987 36.4 49.5987H27.6C27.195 49.5987 26.8667 49.2704 26.8667 48.8653C26.8667 48.4603 27.195 48.132 27.6 48.132H36.4C36.805 48.132 37.1333 48.4603 37.1333 48.8653ZM36.4 52.532H27.6C27.195 52.532 26.8667 52.2037 26.8667 51.7987C26.8667 51.3937 27.195 51.0653 27.6 51.0653H36.4C36.805 51.0653 37.1333 51.3937 37.1333 51.7987C37.1333 52.2037 36.805 52.532 36.4 52.532ZM36.4 45.1987C36.805 45.1987 37.1333 45.527 37.1333 45.932C37.1333 46.337 36.805 46.6653 36.4 46.6653H27.6C27.195 46.6653 26.8667 46.337 26.8667 45.932C26.8667 45.527 27.195 45.1987 27.6 45.1987H36.4ZM26.1333 37.8653C26.1333 34.6253 28.7599 31.9987 32 31.9987C35.2401 31.9987 37.8667 34.6253 37.8667 37.8653C37.8667 41.1054 35.2401 43.732 32 43.732C28.7614 43.7284 26.137 41.1039 26.1333 37.8653Z"
                      fill="#070322" />
                    <path fill-rule="evenodd" clip-rule="evenodd"
                      d="M32 37.1335C31.6442 37.1331 31.34 36.8774 31.2785 36.527C31.2169 36.1766 31.4158 35.8325 31.7501 35.7109C32.0845 35.5894 32.4579 35.7253 32.6358 36.0335C32.7625 36.2688 33.0071 36.4166 33.2744 36.4192C33.5417 36.4219 33.7892 36.2789 33.9204 36.046C34.0517 35.8132 34.0458 35.5274 33.9052 35.3001C33.6394 34.854 33.2242 34.5163 32.7333 34.3468V34.2001C32.7333 33.7951 32.405 33.4668 32 33.4668C31.595 33.4668 31.2667 33.7951 31.2667 34.2001V34.3351C30.2572 34.6906 29.6514 35.7224 29.8327 36.7772C30.0141 37.832 30.9298 38.6022 32 38.6001C32.3558 38.6005 32.66 38.8562 32.7216 39.2066C32.7831 39.557 32.5843 39.9011 32.2499 40.0227C31.9155 40.1442 31.5421 40.0083 31.3642 39.7001C31.1557 39.363 30.717 39.2527 30.3737 39.451C30.0305 39.6493 29.907 40.0844 30.0948 40.4335C30.361 40.8799 30.7767 41.2176 31.2681 41.3868V41.5335C31.2681 41.9385 31.5965 42.2668 32.0015 42.2668C32.4065 42.2668 32.7348 41.9385 32.7348 41.5335V41.3985C33.7445 41.0429 34.3504 40.0107 34.1686 38.9557C33.9869 37.9007 33.0705 37.1307 32 37.1335Z"
                      fill="#070322" />
                    <path
                      d="M46.6667 24.666C43.5076 24.6625 40.7022 26.6848 39.707 29.683C38.7117 32.6812 39.7509 35.9797 42.285 37.866H42.2667C41.3972 37.8622 40.6078 38.3729 40.255 39.1676C39.9021 39.9622 40.0527 40.8903 40.6387 41.5327C39.876 42.3617 39.876 43.637 40.6387 44.466C39.876 45.2951 39.876 46.5703 40.6387 47.3994C39.876 48.2284 39.876 49.5036 40.6387 50.3327C40.0527 50.975 39.9021 51.9031 40.255 52.6978C40.6078 53.4925 41.3972 54.0032 42.2667 53.9994H51.0667C51.9361 54.0032 52.7255 53.4925 53.0784 52.6978C53.4312 51.9031 53.2806 50.975 52.6947 50.3327C53.4574 49.5036 53.4574 48.2284 52.6947 47.3994C53.4574 46.5703 53.4574 45.2951 52.6947 44.466C53.4574 43.637 53.4574 42.3617 52.6947 41.5327C53.2806 40.8903 53.4312 39.9622 53.0784 39.1676C52.7255 38.3729 51.9361 37.8622 51.0667 37.866H51.0476C53.5826 35.9803 54.6225 32.6815 53.6273 29.6829C52.6321 26.6843 49.8261 24.6619 46.6667 24.666ZM51.8 42.9994C51.8 43.4044 51.4717 43.7327 51.0667 43.7327H42.2667C41.8617 43.7327 41.5333 43.4044 41.5333 42.9994C41.5333 42.5943 41.8617 42.266 42.2667 42.266H51.0667C51.4717 42.266 51.8 42.5943 51.8 42.9994ZM51.8 45.9327C51.8 46.3377 51.4717 46.666 51.0667 46.666H42.2667C41.8617 46.666 41.5333 46.3377 41.5333 45.9327C41.5333 45.5277 41.8617 45.1994 42.2667 45.1994H51.0667C51.4717 45.1994 51.8 45.5277 51.8 45.9327ZM51.8 48.866C51.8 49.271 51.4717 49.5994 51.0667 49.5994H42.2667C41.8617 49.5994 41.5333 49.271 41.5333 48.866C41.5333 48.461 41.8617 48.1327 42.2667 48.1327H51.0667C51.4717 48.1327 51.8 48.461 51.8 48.866ZM51.0667 52.5327H42.2667C41.8617 52.5327 41.5333 52.2044 41.5333 51.7994C41.5333 51.3943 41.8617 51.066 42.2667 51.066H51.0667C51.4717 51.066 51.8 51.3943 51.8 51.7994C51.8 52.2044 51.4717 52.5327 51.0667 52.5327ZM51.0667 39.3327C51.4717 39.3327 51.8 39.661 51.8 40.066C51.8 40.471 51.4717 40.7994 51.0667 40.7994H42.2667C41.8617 40.7994 41.5333 40.471 41.5333 40.066C41.5333 39.661 41.8617 39.3327 42.2667 39.3327H51.0667ZM46.6667 37.866C43.4266 37.866 40.8 35.2394 40.8 31.9994C40.8 28.7593 43.4266 26.1327 46.6667 26.1327C49.9067 26.1327 52.5333 28.7593 52.5333 31.9994C52.5297 35.2379 49.9052 37.8624 46.6667 37.866Z"
                      fill="#070322" />
                    <path fill-rule="evenodd" clip-rule="evenodd"
                      d="M46.6666 31.2663C46.3108 31.2659 46.0066 31.0102 45.9451 30.6598C45.8835 30.3094 46.0824 29.9653 46.4168 29.8438C46.7511 29.7222 47.1245 29.8582 47.3024 30.1663C47.511 30.5034 47.9497 30.6137 48.2929 30.4154C48.6361 30.2172 48.7597 29.782 48.5718 29.4329C48.3063 28.9865 47.8911 28.6487 47.4 28.4796V28.3329C47.4 27.9279 47.0716 27.5996 46.6666 27.5996C46.2616 27.5996 45.9333 27.9279 45.9333 28.3329V28.4679C44.9238 28.8234 44.318 29.8552 44.4994 30.91C44.6807 31.9648 45.5964 32.735 46.6666 32.7329C47.0224 32.7333 47.3266 32.989 47.3882 33.3394C47.4498 33.6898 47.2509 34.0339 46.9165 34.1555C46.5821 34.277 46.2087 34.1411 46.0308 33.8329C45.8223 33.4958 45.3836 33.3855 45.0404 33.5838C44.6971 33.7821 44.5736 34.2172 44.7614 34.5663C45.0273 35.013 45.4431 35.3508 45.9348 35.5196V35.6663C45.9348 36.0713 46.2631 36.3996 46.6681 36.3996C47.0731 36.3996 47.4014 36.0713 47.4014 35.6663V35.5313C48.4112 35.1757 49.017 34.1435 48.8353 33.0885C48.6535 32.0335 47.7372 31.2635 46.6666 31.2663Z"
                      fill="#070322" />
                    <path
                      d="M12.9517 49.5985H12.9333C11.7183 49.5985 10.7333 50.5834 10.7333 51.7985C10.7333 53.0135 11.7183 53.9985 12.9333 53.9985H21.7333C22.9484 53.9985 23.9333 53.0135 23.9333 51.7985C23.9333 50.5834 22.9484 49.5985 21.7333 49.5985H21.715C24.2495 47.71 25.2888 44.41 24.2939 41.41C23.2991 38.4099 20.494 36.3848 17.3333 36.3848C14.1726 36.3848 11.3675 38.4099 10.3727 41.41C9.37788 44.41 10.4172 47.71 12.9517 49.5985ZM21.7333 51.0651C22.1383 51.0651 22.4667 51.3935 22.4667 51.7985C22.4667 52.2035 22.1383 52.5318 21.7333 52.5318H12.9333C12.5283 52.5318 12.2 52.2035 12.2 51.7985C12.2 51.3935 12.5283 51.0651 12.9333 51.0651H21.7333ZM17.3333 37.8651C20.5734 37.8651 23.2 40.4917 23.2 43.7318C23.2 46.9719 20.5734 49.5985 17.3333 49.5985C14.0933 49.5985 11.4667 46.9719 11.4667 43.7318C11.4703 40.4932 14.0948 37.8688 17.3333 37.8651Z"
                      fill="#070322" />
                    <path fill-rule="evenodd" clip-rule="evenodd"
                      d="M17.3333 44.4654C17.6891 44.4657 17.9933 44.7214 18.0549 45.0718C18.1164 45.4223 17.9176 45.7663 17.5832 45.8879C17.2488 46.0095 16.8754 45.8735 16.6975 45.5654C16.5709 45.33 16.3262 45.1822 16.0589 45.1796C15.7917 45.177 15.5442 45.32 15.4129 45.5528C15.2817 45.7856 15.2875 46.0714 15.4281 46.2987C15.6943 46.7451 16.11 47.0828 16.6015 47.252V47.3987C16.6015 47.8037 16.9298 48.132 17.3348 48.132C17.7398 48.132 18.0681 47.8037 18.0681 47.3987V47.2638C19.0779 46.9081 19.6837 45.8759 19.502 44.8209C19.3202 43.7659 18.4039 42.9959 17.3333 42.9987C16.9775 42.9984 16.6733 42.7427 16.6118 42.3922C16.5502 42.0418 16.7491 41.6978 17.0835 41.5762C17.4178 41.4546 17.7912 41.5906 17.9691 41.8987C18.0958 42.1341 18.3405 42.2819 18.6077 42.2845C18.875 42.2871 19.1225 42.1441 19.2537 41.9113C19.385 41.6784 19.3791 41.3927 19.2385 41.1654C18.9727 40.7192 18.5576 40.3815 18.0667 40.212V40.0654C18.0667 39.6604 17.7383 39.332 17.3333 39.332C16.9283 39.332 16.6 39.6604 16.6 40.0654V40.2003C15.5905 40.5559 14.9847 41.5877 15.166 42.6424C15.3474 43.6972 16.2631 44.4674 17.3333 44.4654Z"
                      fill="#070322" />
                  </g>
                  <defs>
                    <linearGradient id="paint0_linear_2686_934" x1="32" y1="0" x2="32" y2="64"
                      gradientUnits="userSpaceOnUse">
                      <stop stop-color="#FFE59E" />
                      <stop offset="1" stop-color="#FFBC01" />
                    </linearGradient>
                    <clipPath id="clip0_2686_934">
                      <rect width="44" height="44" fill="white" transform="translate(10 10)" />
                    </clipPath>
                  </defs>
                </svg>