<svg xmlns="http://www.w3.org/2000/svg" width="64" height="64" viewBox="0 0 64 64" fill="none">
                  <rect x="1.06667" y="1.06667" width="61.8667" height="61.8667" rx="13.6"
                    fill="url(#paint0_linear_2525_2662)" />
                  <rect x="1.06667" y="1.06667" width="61.8667" height="61.8667" rx="13.6" stroke="#000326"
                    stroke-width="2.13333" />
                  <g clip-path="url(#clip0_2525_2662)">
                    <path
                      d="M53.7482 18.0709L45.9279 10.2517C45.7668 10.0906 45.5482 10 45.3203 10H19.7969C18.3753 10 17.2188 11.1565 17.2188 12.5781V14.2164C12.9971 15.8725 10 19.9872 10 24.7891C10 25.2636 10.3848 25.6484 10.8594 25.6484H21.3516C21.8261 25.6484 22.2109 25.2636 22.2109 24.7891V14.2969C22.2109 13.8223 21.8261 13.4375 21.3516 13.4375C20.5233 13.4375 19.7158 13.5275 18.9375 13.6968V12.5781C18.9375 12.1043 19.323 11.7188 19.7969 11.7188H44.4609V16.9609C44.4609 18.3825 45.6175 19.5391 47.0391 19.5391H52.2812V51.4219C52.2812 51.8957 51.8957 52.2812 51.4219 52.2812H19.7969C19.323 52.2812 18.9375 51.8957 18.9375 51.4219V44.0599C18.9375 43.5853 18.5527 43.2005 18.0781 43.2005C17.6036 43.2005 17.2188 43.5853 17.2188 44.0599V51.4219C17.2188 52.8435 18.3753 54 19.7969 54H51.4219C52.8435 54 54 52.8435 54 51.4219V18.6786C54 18.4507 53.9094 18.232 53.7482 18.0709ZM20.4921 15.1943V23.9297H11.7567C12.1676 19.3021 15.8646 15.6052 20.4921 15.1943ZM47.0391 17.8203C46.5652 17.8203 46.1797 17.4348 46.1797 16.9609V12.9339L51.0668 17.8203H47.0391Z"
                      fill="#000326" />
                    <path
                      d="M18.6856 40.3299C18.5259 40.17 18.3041 40.0781 18.0781 40.0781C17.8521 40.0781 17.6304 40.17 17.4705 40.3299C17.3107 40.4898 17.2188 40.7115 17.2188 40.9375C17.2188 41.1635 17.3106 41.3852 17.4705 41.545C17.6304 41.7049 17.8521 41.7969 18.0781 41.7969C18.3041 41.7969 18.5259 41.7049 18.6856 41.545C18.8455 41.3852 18.9375 41.1635 18.9375 40.9375C18.9375 40.7115 18.8455 40.4898 18.6856 40.3299Z"
                      fill="#000326" />
                    <path
                      d="M24.4296 16.5156C23.9551 16.5156 23.5702 16.9005 23.5702 17.375V27.0077H13.9375C13.463 27.0077 13.0781 27.3926 13.0781 27.8671C13.0781 34.1264 18.1704 39.2187 24.4296 39.2187C30.6889 39.2187 35.7812 34.1264 35.7812 27.8671C35.7812 21.6079 30.6889 16.5156 24.4296 16.5156ZM25.289 18.2724C27.3008 18.451 29.1365 19.2511 30.603 20.4785L25.289 25.7924V18.2724ZM24.4296 37.4999C19.4077 37.4999 15.2709 33.6371 14.8349 28.7265H24.4296C24.6668 28.7265 24.8815 28.6304 25.037 28.475C25.037 28.475 25.0372 28.4749 25.0374 28.4748L31.8186 21.6936C33.2186 23.3666 34.0624 25.5202 34.0624 27.8671C34.0624 33.1786 29.7411 37.4999 24.4296 37.4999Z"
                      fill="#000326" />
                    <path
                      d="M47.647 37.1221C46.2254 37.1221 45.0689 38.2786 45.0689 39.7002C45.0689 40.0565 45.1416 40.396 45.2728 40.705L40.3217 45.6561C39.9815 45.4903 39.5996 45.3971 39.1963 45.3971C38.8027 45.3971 38.4295 45.4861 38.0955 45.6445L34.8077 42.3567C34.9216 42.0659 34.9849 41.7497 34.9849 41.4189C34.9849 39.9973 33.8283 38.8407 32.4068 38.8407C30.9852 38.8407 29.8286 39.9973 29.8286 41.4189C29.8286 41.804 29.9141 42.1694 30.0663 42.498L26.9128 45.6515C26.5768 45.4907 26.201 45.4006 25.8044 45.4006C24.3829 45.4006 23.2263 46.5571 23.2263 47.9787C23.2263 49.4003 24.3829 50.5569 25.8044 50.5569C27.226 50.5569 28.3826 49.4003 28.3826 47.9787C28.3826 47.5802 28.2916 47.2026 28.1296 46.8655L31.2654 43.7296C31.6098 43.9005 31.9972 43.997 32.4069 43.997C32.8697 43.997 33.304 43.8738 33.6798 43.6595L36.8748 46.8546C36.7105 47.1936 36.6182 47.5738 36.6182 47.9752C36.6182 49.3968 37.7748 50.5533 39.1963 50.5533C40.6179 50.5533 41.7745 49.3968 41.7745 47.9752C41.7745 47.5835 41.6863 47.2121 41.5293 46.8793L46.4342 41.9744C46.7959 42.1681 47.2088 42.2783 47.647 42.2783C49.0686 42.2783 50.2251 41.1218 50.2251 39.7002C50.2251 38.2786 49.0686 37.1221 47.647 37.1221ZM25.8044 48.8382C25.3305 48.8382 24.945 48.4527 24.945 47.9788C24.945 47.505 25.3305 47.1194 25.8044 47.1194C26.0351 47.1194 26.2444 47.2113 26.3989 47.3598C26.4023 47.3634 26.4053 47.3673 26.4088 47.3708C26.413 47.3749 26.4174 47.3784 26.4216 47.3823C26.5712 47.537 26.6637 47.7472 26.6637 47.9788C26.6637 48.4526 26.2782 48.8382 25.8044 48.8382ZM32.4068 42.2782C31.9329 42.2782 31.5474 41.8927 31.5474 41.4189C31.5474 40.945 31.9329 40.5595 32.4068 40.5595C32.8806 40.5595 33.2661 40.945 33.2661 41.4189C33.2661 41.8927 32.8806 42.2782 32.4068 42.2782ZM39.1962 48.8346C38.7223 48.8346 38.3368 48.4491 38.3368 47.9752C38.3368 47.5013 38.7223 47.1158 39.1962 47.1158C39.67 47.1158 40.0555 47.5013 40.0555 47.9752C40.0555 48.4491 39.67 48.8346 39.1962 48.8346ZM47.6468 40.5595C47.173 40.5595 46.7875 40.174 46.7875 39.7001C46.7875 39.2262 47.1731 38.8407 47.6468 38.8407C48.1207 38.8407 48.5062 39.2262 48.5062 39.7001C48.5062 40.174 48.1207 40.5595 47.6468 40.5595Z"
                      fill="#000326" />
                    <path
                      d="M43.3514 30.1953H38.8157C38.3411 30.1953 37.9563 30.5801 37.9563 31.0547C37.9563 31.5292 38.341 31.9141 38.8157 31.9141H43.3514C43.8259 31.9141 44.2107 31.5292 44.2107 31.0547C44.2107 30.5801 43.8259 30.1953 43.3514 30.1953Z"
                      fill="#000326" />
                    <path
                      d="M47.8717 30.4471C47.7119 30.2873 47.4902 30.1953 47.2642 30.1953C47.0381 30.1953 46.8164 30.2872 46.6566 30.4471C46.4967 30.607 46.4048 30.8287 46.4048 31.0547C46.4048 31.2807 46.4967 31.5024 46.6566 31.6622C46.8164 31.822 47.0373 31.9141 47.2642 31.9141C47.4902 31.9141 47.7119 31.8221 47.8717 31.6622C48.0315 31.5024 48.1235 31.2807 48.1235 31.0547C48.1235 30.8287 48.0316 30.607 47.8717 30.4471Z"
                      fill="#000326" />
                    <path
                      d="M49.3133 21.9453H38.8157C38.3411 21.9453 37.9563 22.3301 37.9563 22.8047C37.9563 23.2792 38.341 23.6641 38.8157 23.6641H49.3133C49.7878 23.6641 50.1727 23.2792 50.1727 22.8047C50.1727 22.3301 49.7878 21.9453 49.3133 21.9453Z"
                      fill="#000326" />
                    <path
                      d="M49.3133 26.0703H38.8157C38.3411 26.0703 37.9563 26.4551 37.9563 26.9297C37.9563 27.4042 38.341 27.7891 38.8157 27.7891H49.3133C49.7878 27.7891 50.1727 27.4042 50.1727 26.9297C50.1727 26.4551 49.7878 26.0703 49.3133 26.0703Z"
                      fill="#000326" />
                  </g>
                  <defs>
                    <linearGradient id="paint0_linear_2525_2662" x1="32" y1="0" x2="32" y2="64"
                      gradientUnits="userSpaceOnUse">
                      <stop stop-color="#FFE59E" />
                      <stop offset="1" stop-color="#FFBC01" />
                    </linearGradient>
                    <clipPath id="clip0_2525_2662">
                      <rect width="44" height="44" fill="white" transform="translate(10 10)" />
                    </clipPath>
                  </defs>
                </svg>