<svg xmlns="http://www.w3.org/2000/svg" width="136" height="139" viewBox="0 0 136 139"
                        fill="none">
                        <path
                          d="M66.0693 16.8246C70.3197 29.2761 74.5651 41.7208 78.8174 54.1712L78.8818 54.3597C79.6315 54.1486 80.3815 53.9383 81.1416 53.723L81.1445 53.722C81.2975 53.6789 81.4503 53.6358 81.6045 53.5921C81.7586 53.5485 81.9148 53.5044 82.0713 53.4603L84.8457 52.6781C85.7701 52.4172 86.6949 52.1559 87.6211 51.8949L87.7266 51.8646C96.9282 49.263 105.669 46.0389 114.087 44.4613L124.877 42.4388L116.45 49.4749L107.616 56.8499L107.161 57.2308L106.591 57.3988C103.197 58.3994 102.199 58.7077 98.7832 59.7103L98.7822 59.7093C96.9255 60.256 95.0697 60.8045 93.2129 61.3519C91.3552 61.8996 89.4966 62.4472 87.6377 62.9945L87.6367 62.9935C87.3779 63.0705 87.1205 63.1474 86.8691 63.221C86.6132 63.296 86.3636 63.3688 86.1152 63.4427L86.1074 63.4447C84.8585 63.8122 83.6098 64.1797 82.3604 64.5482C83.2309 67.1061 84.1052 69.6653 84.9805 72.224H84.9834L85.6455 74.1634C91.2927 90.7173 96.9446 107.269 102.597 123.824L105.063 131.049L98.4531 127.229C90.9251 122.878 83.3978 118.528 75.8711 114.177C68.3444 109.826 60.8177 105.476 53.29 101.125V101.124C52.0687 100.42 50.8508 99.7144 49.6338 99.0101C49.5428 99.3136 49.4515 99.6174 49.3604 99.9212L49.3594 99.9232C49.269 100.223 49.1724 100.545 49.0732 100.867L49.0742 100.868C48.6398 102.317 48.2029 103.779 47.7646 105.236L47.7627 105.241C47.4495 106.276 47.1396 107.313 46.8262 108.357L46.5791 109.18L45.9189 109.731L30.1152 122.929L22.2754 129.477L25.5684 119.808C28.8607 110.141 32.1531 100.479 35.4453 90.8119C28.0243 86.5201 20.6029 82.232 13.1807 77.9408L7.30762 74.5443L13.8369 72.7044C24.0801 69.8176 34.3204 66.926 44.5645 64.0365C47.1636 56.4054 49.7647 48.7748 52.3643 41.1439C55.1257 33.038 57.8867 24.9314 60.6475 16.8255L63.3555 8.87436L66.0693 16.8246ZM68.9961 68.4837H68.9951C66.0682 69.3457 63.1402 70.2086 60.2119 71.0687L60.2109 71.0677C59.5617 71.2599 58.9128 71.4518 58.2666 71.6419C58.1132 71.6871 57.9598 71.7316 57.8066 71.7767L57.2578 73.6126C56.6434 75.6666 56.028 77.7273 55.4102 79.7826C54.9002 81.488 54.3865 83.1938 53.876 84.8958L53.875 84.8968C53.6637 85.5997 53.457 86.2844 53.249 86.9749L53.832 87.2894C55.131 87.9891 56.4317 88.689 57.7324 89.389C59.0325 90.0887 60.3333 90.7886 61.6328 91.4886C66.0555 93.8693 70.4772 96.2511 74.8984 98.6322C77.1715 99.8563 79.4447 101.08 81.7178 102.304C79.2675 95.1721 76.8184 88.0402 74.3691 80.9085C72.9322 76.7245 71.4928 72.5334 70.0537 68.3451L69.999 68.1878C69.6644 68.2863 69.33 68.3853 68.9961 68.4837ZM39.0381 77.307L39.0293 77.3099L39.0215 77.3119C38.7589 77.3882 38.5086 77.4612 38.2607 77.5355L38.248 77.5394C37.7035 77.6998 37.1588 77.8595 36.6143 78.0199C37.5127 78.5036 38.4112 78.9873 39.3096 79.471C39.5932 78.6396 39.8756 77.808 40.1592 76.9759C39.7855 77.0863 39.4117 77.1959 39.0381 77.307ZM63.3516 53.3236C62.7591 55.2966 62.1658 57.2694 61.5732 59.2425C61.7724 59.1863 61.9717 59.1307 62.1709 59.0746L62.1768 59.0726C62.6077 58.952 63.0391 58.8305 63.4746 58.7074C63.9089 58.5846 64.3481 58.4604 64.7881 58.3372C64.9543 58.2889 65.1156 58.2425 65.2734 58.1986L66.4531 57.8646C65.6575 55.5537 64.8645 53.2405 64.0703 50.9281C63.8306 51.7264 63.5913 52.5252 63.3516 53.3236Z"
                          fill="#FFBC01" />
                        <path
                          d="M66.0693 16.8246C70.3197 29.2761 74.5651 41.7208 78.8174 54.1712L78.8818 54.3597C79.6315 54.1486 80.3815 53.9383 81.1416 53.723L81.1445 53.722C81.2975 53.6789 81.4503 53.6358 81.6045 53.5921C81.7586 53.5485 81.9148 53.5044 82.0713 53.4603L84.8457 52.6781C85.7701 52.4172 86.6949 52.1559 87.6211 51.8949L87.7266 51.8646C96.9282 49.263 105.669 46.0389 114.087 44.4613L124.877 42.4388L116.45 49.4749L107.616 56.8499L107.161 57.2308L106.591 57.3988C103.197 58.3994 102.199 58.7077 98.7832 59.7103L98.7822 59.7093C96.9255 60.256 95.0697 60.8045 93.2129 61.3519C91.3552 61.8996 89.4966 62.4472 87.6377 62.9945L87.6367 62.9935C87.3779 63.0705 87.1205 63.1474 86.8691 63.221C86.6132 63.296 86.3636 63.3688 86.1152 63.4427L86.1074 63.4447C84.8585 63.8122 83.6098 64.1797 82.3604 64.5482C83.2309 67.1061 84.1052 69.6653 84.9805 72.224H84.9834L85.6455 74.1634C91.2927 90.7173 96.9446 107.269 102.597 123.824L105.063 131.049L98.4531 127.229C90.9251 122.878 83.3978 118.528 75.8711 114.177C68.3444 109.826 60.8177 105.476 53.29 101.125V101.124C52.0687 100.42 50.8508 99.7144 49.6338 99.0101C49.5428 99.3136 49.4515 99.6174 49.3604 99.9212L49.3594 99.9232C49.269 100.223 49.1724 100.545 49.0732 100.867L49.0742 100.868C48.6398 102.317 48.2029 103.779 47.7646 105.236L47.7627 105.241C47.4495 106.276 47.1396 107.313 46.8262 108.357L46.5791 109.18L45.9189 109.731L30.1152 122.929L22.2754 129.477L25.5684 119.808C28.8607 110.141 32.1531 100.479 35.4453 90.8119C28.0243 86.5201 20.6029 82.232 13.1807 77.9408L7.30762 74.5443L13.8369 72.7044C24.0801 69.8176 34.3204 66.926 44.5645 64.0365C47.1636 56.4054 49.7647 48.7748 52.3643 41.1439C55.1257 33.038 57.8867 24.9314 60.6475 16.8255L63.3555 8.87436L66.0693 16.8246ZM68.9961 68.4837H68.9951C66.0682 69.3457 63.1402 70.2086 60.2119 71.0687L60.2109 71.0677C59.5617 71.2599 58.9128 71.4518 58.2666 71.6419C58.1132 71.6871 57.9598 71.7316 57.8066 71.7767L57.2578 73.6126C56.6434 75.6666 56.028 77.7273 55.4102 79.7826C54.9002 81.488 54.3865 83.1938 53.876 84.8958L53.875 84.8968C53.6637 85.5997 53.457 86.2844 53.249 86.9749L53.832 87.2894C55.131 87.9891 56.4317 88.689 57.7324 89.389C59.0325 90.0887 60.3333 90.7886 61.6328 91.4886C66.0555 93.8693 70.4772 96.2511 74.8984 98.6322C77.1715 99.8563 79.4447 101.08 81.7178 102.304C79.2675 95.1721 76.8184 88.0402 74.3691 80.9085C72.9322 76.7245 71.4928 72.5334 70.0537 68.3451L69.999 68.1878C69.6644 68.2863 69.33 68.3853 68.9961 68.4837ZM39.0381 77.307L39.0293 77.3099L39.0215 77.3119C38.7589 77.3882 38.5086 77.4612 38.2607 77.5355L38.248 77.5394C37.7035 77.6998 37.1588 77.8595 36.6143 78.0199C37.5127 78.5036 38.4112 78.9873 39.3096 79.471C39.5932 78.6396 39.8756 77.808 40.1592 76.9759C39.7855 77.0863 39.4117 77.1959 39.0381 77.307ZM63.3516 53.3236C62.7591 55.2966 62.1658 57.2694 61.5732 59.2425C61.7724 59.1863 61.9717 59.1307 62.1709 59.0746L62.1768 59.0726C62.6077 58.952 63.0391 58.8305 63.4746 58.7074C63.9089 58.5846 64.3481 58.4604 64.7881 58.3372C64.9543 58.2889 65.1156 58.2425 65.2734 58.1986L66.4531 57.8646C65.6575 55.5537 64.8645 53.2405 64.0703 50.9281C63.8306 51.7264 63.5913 52.5252 63.3516 53.3236Z"
                          fill="url(#paint0_linear_2881_915)" />
                        <path
                          d="M66.0693 16.8246C70.3197 29.2761 74.5651 41.7208 78.8174 54.1712L78.8818 54.3597C79.6315 54.1486 80.3815 53.9383 81.1416 53.723L81.1445 53.722C81.2975 53.6789 81.4503 53.6358 81.6045 53.5921C81.7586 53.5485 81.9148 53.5044 82.0713 53.4603L84.8457 52.6781C85.7701 52.4172 86.6949 52.1559 87.6211 51.8949L87.7266 51.8646C96.9282 49.263 105.669 46.0389 114.087 44.4613L124.877 42.4388L116.45 49.4749L107.616 56.8499L107.161 57.2308L106.591 57.3988C103.197 58.3994 102.199 58.7077 98.7832 59.7103L98.7822 59.7093C96.9255 60.256 95.0697 60.8045 93.2129 61.3519C91.3552 61.8996 89.4966 62.4472 87.6377 62.9945L87.6367 62.9935C87.3779 63.0705 87.1205 63.1474 86.8691 63.221C86.6132 63.296 86.3636 63.3688 86.1152 63.4427L86.1074 63.4447C84.8585 63.8122 83.6098 64.1797 82.3604 64.5482C83.2309 67.1061 84.1052 69.6653 84.9805 72.224H84.9834L85.6455 74.1634C91.2927 90.7173 96.9446 107.269 102.597 123.824L105.063 131.049L98.4531 127.229C90.9251 122.878 83.3978 118.528 75.8711 114.177C68.3444 109.826 60.8177 105.476 53.29 101.125V101.124C52.0687 100.42 50.8508 99.7144 49.6338 99.0101C49.5428 99.3136 49.4515 99.6174 49.3604 99.9212L49.3594 99.9232C49.269 100.223 49.1724 100.545 49.0732 100.867L49.0742 100.868C48.6398 102.317 48.2029 103.779 47.7646 105.236L47.7627 105.241C47.4495 106.276 47.1396 107.313 46.8262 108.357L46.5791 109.18L45.9189 109.731L30.1152 122.929L22.2754 129.477L25.5684 119.808C28.8607 110.141 32.1531 100.479 35.4453 90.8119C28.0243 86.5201 20.6029 82.232 13.1807 77.9408L7.30762 74.5443L13.8369 72.7044C24.0801 69.8176 34.3204 66.926 44.5645 64.0365C47.1636 56.4054 49.7647 48.7748 52.3643 41.1439C55.1257 33.038 57.8867 24.9314 60.6475 16.8255L63.3555 8.87436L66.0693 16.8246ZM68.9961 68.4837H68.9951C66.0682 69.3457 63.1402 70.2086 60.2119 71.0687L60.2109 71.0677C59.5617 71.2599 58.9128 71.4518 58.2666 71.6419C58.1132 71.6871 57.9598 71.7316 57.8066 71.7767L57.2578 73.6126C56.6434 75.6666 56.028 77.7273 55.4102 79.7826C54.9002 81.488 54.3865 83.1938 53.876 84.8958L53.875 84.8968C53.6637 85.5997 53.457 86.2844 53.249 86.9749L53.832 87.2894C55.131 87.9891 56.4317 88.689 57.7324 89.389C59.0325 90.0887 60.3333 90.7886 61.6328 91.4886C66.0555 93.8693 70.4772 96.2511 74.8984 98.6322C77.1715 99.8563 79.4447 101.08 81.7178 102.304C79.2675 95.1721 76.8184 88.0402 74.3691 80.9085C72.9322 76.7245 71.4928 72.5334 70.0537 68.3451L69.999 68.1878C69.6644 68.2863 69.33 68.3853 68.9961 68.4837ZM39.0381 77.307L39.0293 77.3099L39.0215 77.3119C38.7589 77.3882 38.5086 77.4612 38.2607 77.5355L38.248 77.5394C37.7035 77.6998 37.1588 77.8595 36.6143 78.0199C37.5127 78.5036 38.4112 78.9873 39.3096 79.471C39.5932 78.6396 39.8756 77.808 40.1592 76.9759C39.7855 77.0863 39.4117 77.1959 39.0381 77.307ZM63.3516 53.3236C62.7591 55.2966 62.1658 57.2694 61.5732 59.2425C61.7724 59.1863 61.9717 59.1307 62.1709 59.0746L62.1768 59.0726C62.6077 58.952 63.0391 58.8305 63.4746 58.7074C63.9089 58.5846 64.3481 58.4604 64.7881 58.3372C64.9543 58.2889 65.1156 58.2425 65.2734 58.1986L66.4531 57.8646C65.6575 55.5537 64.8645 53.2405 64.0703 50.9281C63.8306 51.7264 63.5913 52.5252 63.3516 53.3236Z"
                          stroke="#000326" stroke-width="5.72818" />
                        <defs>
                          <linearGradient id="paint0_linear_2881_915" x1="66.2307" y1="17.7494" x2="66.2307"
                            y2="124.749" gradientUnits="userSpaceOnUse">
                            <stop stop-color="#FFE59E" />
                            <stop offset="1" stop-color="#FFBC01" />
                          </linearGradient>
                        </defs>
                      </svg>