<svg xmlns="http://www.w3.org/2000/svg" width="88" height="88" viewBox="0 0 88 88" fill="none">
                  <path
                    d="M28.0649 17.0843L30.5885 24.0926C33.3918 31.8709 39.517 37.9961 47.2953 40.7994L54.3036 43.323C54.9353 43.5525 54.9353 44.4481 54.3036 44.6744L47.2953 47.198C39.517 50.0014 33.3918 56.1266 30.5885 63.9049L28.0649 70.9132C27.8355 71.5449 26.9398 71.5449 26.7135 70.9132L24.1899 63.9049C21.3866 56.1266 15.2613 50.0014 7.48306 47.198L0.474745 44.6744C-0.156946 44.445 -0.156946 43.5493 0.474745 43.323L7.48306 40.7994C15.2613 37.9961 21.3866 31.8709 24.1899 24.0926L26.7135 17.0843C26.9398 16.4494 27.8355 16.4494 28.0649 17.0843Z"
                    fill="url(#paint0_linear_3047_2207)" />
                  <path
                    d="M59.6125 0.242777L60.8916 3.79093C62.3121 7.72879 65.414 10.8307 69.3518 12.2512L72.9 13.5303C73.2205 13.6466 73.2205 14.0991 72.9 14.2154L69.3518 15.4945C65.414 16.915 62.3121 20.0169 60.8916 23.9548L59.6125 27.5029C59.4962 27.8235 59.0436 27.8235 58.9273 27.5029L57.6483 23.9548C56.2277 20.0169 53.1258 16.915 49.188 15.4945L45.6398 14.2154C45.3193 14.0991 45.3193 13.6466 45.6398 13.5303L49.188 12.2512C53.1258 10.8307 56.2277 7.72879 57.6483 3.79093L58.9273 0.242777C59.0436 -0.0809256 59.4993 -0.0809256 59.6125 0.242777Z"
                    fill="url(#paint1_linear_3047_2207)" />
                  <path
                    d="M59.6125 60.4987L60.8916 64.0469C62.3121 67.9847 65.414 71.0866 69.3518 72.5071L72.9 73.7862C73.2205 73.9025 73.2205 74.3551 72.9 74.4713L69.3518 75.7505C65.414 77.171 62.3121 80.2729 60.8916 84.2107L59.6125 87.7589C59.4962 88.0794 59.0436 88.0794 58.9273 87.7589L57.6483 84.2107C56.2277 80.2729 53.1258 77.171 49.188 75.7505L45.6398 74.4713C45.3193 74.3551 45.3193 73.9025 45.6398 73.7862L49.188 72.5071C53.1258 71.0866 56.2277 67.9847 57.6483 64.0469L58.9273 60.4987C59.0436 60.1782 59.4993 60.1782 59.6125 60.4987Z"
                    fill="url(#paint2_linear_3047_2207)" />
                  <defs>
                    <linearGradient id="paint0_linear_3047_2207" x1="27.3892" y1="16.6082" x2="27.3892" y2="71.3869"
                      gradientUnits="userSpaceOnUse">
                      <stop stop-color="#FFE59E" />
                      <stop offset="1" stop-color="#FFBC01" />
                    </linearGradient>
                    <linearGradient id="paint1_linear_3047_2207" x1="59.2699" y1="0" x2="59.2699" y2="27.7433"
                      gradientUnits="userSpaceOnUse">
                      <stop stop-color="#FFE59E" />
                      <stop offset="1" stop-color="#FFBC01" />
                    </linearGradient>
                    <linearGradient id="paint2_linear_3047_2207" x1="59.2699" y1="60.2583" x2="59.2699" y2="87.9993"
                      gradientUnits="userSpaceOnUse">
                      <stop stop-color="#FFE59E" />
                      <stop offset="1" stop-color="#FFBC01" />
                    </linearGradient>
                  </defs>
                </svg>