<svg xmlns="http://www.w3.org/2000/svg" width="88" height="88" viewBox="0 0 88 88" fill="none">
                  <path d="M73.333 4.58789V11.9221" stroke="url(#paint0_linear_3034_2044)" stroke-width="3.98779"
                    stroke-miterlimit="1.5" stroke-linecap="round" stroke-linejoin="round" />
                  <path d="M69.6729 8.25H77.0071" stroke="url(#paint1_linear_3034_2044)" stroke-width="3.98779"
                    stroke-miterlimit="1.5" stroke-linecap="round" stroke-linejoin="round" />
                  <path fill-rule="evenodd" clip-rule="evenodd"
                    d="M53.5239 5.5H9.1665C7.709 5.5 6.30651 6.07934 5.27985 7.11059C4.24401 8.14275 3.6665 9.54158 3.6665 11V82.5C3.6665 85.5378 6.13234 88 9.1665 88H64.1665C67.2007 88 69.6665 85.5378 69.6665 82.5V39.4552L71.5824 44.6362C71.8482 45.3558 72.5356 45.8333 73.3056 45.8333C74.0665 45.8333 74.7541 45.3558 75.0199 44.6362L77.2015 38.7356L83.1048 36.553C83.8289 36.2863 84.3056 35.6006 84.3056 34.8333C84.3056 34.0661 83.8289 33.3804 83.1048 33.1137L77.2015 30.9311L75.0199 25.0305C74.7541 24.3109 74.0665 23.8333 73.3056 23.8333C72.5356 23.8333 71.8482 24.3109 71.5824 25.0305L69.6665 30.2115V22.9011L74.8823 20.9697C75.6064 20.7029 76.0832 20.0173 76.0832 19.25C76.0832 18.4828 75.6064 17.7971 74.8823 17.5303L62.9656 13.1193L58.5564 1.19717C58.2906 0.477583 57.6032 0 56.8332 0C56.0632 0 55.3758 0.477583 55.1099 1.19717L53.5239 5.5ZM17.8748 67.8333H55.4582C56.4665 67.8333 57.2915 67.012 57.2915 66C57.2915 64.988 56.4665 64.1667 55.4582 64.1667H17.8748C16.8665 64.1667 16.0415 64.988 16.0415 66C16.0415 67.012 16.8665 67.8333 17.8748 67.8333ZM17.8748 57.75H55.4582C56.4665 57.75 57.2915 56.9287 57.2915 55.9167C57.2915 54.9047 56.4665 54.0833 55.4582 54.0833H17.8748C16.8665 54.0833 16.0415 54.9047 16.0415 55.9167C16.0415 56.9287 16.8665 57.75 17.8748 57.75ZM34.8332 26.5833H18.3332C17.3248 26.5833 16.4998 27.4047 16.4998 28.4167C16.4998 29.4287 17.3248 30.25 18.3332 30.25H24.7498V48.5833C24.7498 49.5953 25.5748 50.4167 26.5832 50.4167C27.5915 50.4167 28.4165 49.5953 28.4165 48.5833V30.25H34.8332C35.8415 30.25 36.6665 29.4287 36.6665 28.4167C36.6665 27.4047 35.8415 26.5833 34.8332 26.5833ZM37.1248 48.5833H55.4582C56.4665 48.5833 57.2915 47.762 57.2915 46.75C57.2915 45.738 56.4665 44.9167 55.4582 44.9167H37.1248C36.1165 44.9167 35.2915 45.738 35.2915 46.75C35.2915 47.762 36.1165 48.5833 37.1248 48.5833ZM42.1665 39.4167H49.4998C50.5082 39.4167 51.3332 38.5953 51.3332 37.5833C51.3332 36.5713 50.5082 35.75 49.4998 35.75H42.1665C41.1582 35.75 40.3332 36.5713 40.3332 37.5833C40.3332 38.5953 41.1582 39.4167 42.1665 39.4167ZM73.3056 30.9494L74.0574 32.9936C74.2407 33.4959 74.644 33.891 75.139 34.0771L77.1831 34.8333L75.139 35.5896C74.644 35.7757 74.2407 36.1708 74.0574 36.6731L73.3056 38.7173L72.5447 36.6731C72.3614 36.1708 71.9673 35.7757 71.4631 35.5896L69.419 34.8333L71.4631 34.0771C71.9673 33.891 72.3614 33.4959 72.5447 32.9936L73.3056 30.9494ZM56.8332 7.11608L59.8215 15.1818C60.0048 15.6842 60.3989 16.0793 60.9031 16.2653L68.9698 19.25L60.9031 22.2347C60.3989 22.4207 60.0048 22.8158 59.8215 23.3182L56.8332 31.3839L53.8448 23.3182C53.6615 22.8158 53.2674 22.4207 52.7632 22.2347L44.6965 19.25L52.7632 16.2653C53.2674 16.0793 53.6615 15.6842 53.8448 15.1818L56.8332 7.11608ZM42.1665 30.25H45.8332C46.8415 30.25 47.6665 29.4287 47.6665 28.4167C47.6665 27.4047 46.8415 26.5833 45.8332 26.5833H42.1665C41.1582 26.5833 40.3332 27.4047 40.3332 28.4167C40.3332 29.4287 41.1582 30.25 42.1665 30.25Z"
                    fill="url(#paint2_linear_3034_2044)" />
                  <defs>
                    <linearGradient id="paint0_linear_3034_2044" x1="73.833" y1="4.58789" x2="73.833" y2="11.9221"
                      gradientUnits="userSpaceOnUse">
                      <stop stop-color="#FFE59E" />
                      <stop offset="1" stop-color="#FFBC01" />
                    </linearGradient>
                    <linearGradient id="paint1_linear_3034_2044" x1="69.6729" y1="7.75" x2="77.0071" y2="7.75"
                      gradientUnits="userSpaceOnUse">
                      <stop stop-color="#FFE59E" />
                      <stop offset="1" stop-color="#FFBC01" />
                    </linearGradient>
                    <linearGradient id="paint2_linear_3034_2044" x1="43.9861" y1="0" x2="43.9861" y2="88"
                      gradientUnits="userSpaceOnUse">
                      <stop stop-color="#FFE59E" />
                      <stop offset="1" stop-color="#FFBC01" />
                    </linearGradient>
                  </defs>
                </svg>