<svg xmlns="http://www.w3.org/2000/svg" width="88" height="88" viewBox="0 0 88 88" fill="none">
                  <g clip-path="url(#clip0_3047_2223)">
                    <path fill-rule="evenodd" clip-rule="evenodd"
                      d="M41.5097 33.9259C39.6282 33.9264 37.8046 33.2745 36.3498 32.0812C34.8951 30.8878 33.8991 29.227 33.5317 27.3816C33.1642 25.5363 33.448 23.6206 34.3347 21.9611C35.2214 20.3015 36.6561 19.0008 38.3944 18.2805C40.1327 17.5602 42.0669 17.465 43.8675 18.011C45.6681 18.557 47.2237 19.7105 48.2691 21.275C49.3146 22.8394 49.7852 24.7179 49.6008 26.5904C49.4164 28.463 48.5884 30.2136 47.2579 31.5441C46.5045 32.301 45.6087 32.9012 44.6221 33.31C43.6355 33.7188 42.5777 33.9281 41.5097 33.9259ZM55.4988 44.0274C55.7767 44.3089 56.1076 44.5327 56.4724 44.6859C56.8372 44.8391 57.2286 44.9186 57.6242 44.9199C58.0199 44.9212 58.4118 44.8442 58.7776 44.6934C59.1433 44.5426 59.4757 44.321 59.7554 44.0412C60.0352 43.7615 60.2569 43.4292 60.4077 43.0634C60.5585 42.6977 60.6355 42.3057 60.6343 41.9101C60.633 41.5145 60.5535 41.123 60.4004 40.7582C60.2472 40.3935 60.0234 40.0626 59.7419 39.7846L53.4159 33.4596L53.8586 32.6673C55.5149 29.6896 56.0389 26.2136 55.3341 22.88C54.6293 19.5464 52.7432 16.5799 50.0235 14.5274C47.3038 12.4748 43.9338 11.4746 40.5347 11.7111C37.1357 11.9476 33.9366 13.4048 31.5273 15.8142C29.1181 18.2235 27.6609 21.4226 27.4246 24.8217C27.1882 28.2208 28.1885 31.5908 30.2411 34.3104C32.2937 37.03 35.2602 38.916 38.5939 39.6207C41.9275 40.3254 45.4035 39.8013 48.3811 38.1449L49.1731 37.7027L55.4981 44.0268L55.4988 44.0274ZM62.7929 69.1163L68.8229 88H19.1765L25.2069 69.1163H30.9379L31.2962 69.5233C34.687 73.3745 38.2441 77.075 41.8861 80.6885C42.4481 81.2462 43.2078 81.5592 43.9995 81.5592C44.7913 81.5592 45.5509 81.2462 46.1129 80.6885C49.7548 77.075 53.3119 73.3745 56.7028 69.5233L57.0612 69.1163H62.7929ZM43.9994 0.00105761C43.9591 0.00105761 43.9191 2.63564e-05 43.879 2.63564e-05C40.1757 -0.0159861 36.5059 0.702696 33.0822 2.11447C29.6584 3.52625 26.5487 5.60308 23.9329 8.22476C18.8195 13.3391 15.9249 19.3016 15.9385 26.5753C15.9696 43.3973 31.9466 62.0809 43.1438 73.4556L43.9988 74.3243L44.8541 73.4558C56.0523 62.0813 72.0311 43.3974 72.0622 26.5753C72.0758 19.3016 69.1804 13.3391 64.0678 8.22493C61.4517 5.60296 58.3416 3.52594 54.9173 2.11413C51.4931 0.702315 47.8228 -0.0162517 44.119 2.63564e-05C44.0789 2.63564e-05 44.0392 2.63564e-05 43.9994 0.00105761Z"
                      fill="url(#paint0_linear_3047_2223)" />
                  </g>
                  <defs>
                    <linearGradient id="paint0_linear_3047_2223" x1="44.0004" y1="-0.000244141" x2="44.0004" y2="88"
                      gradientUnits="userSpaceOnUse">
                      <stop stop-color="#FFE59E" />
                      <stop offset="1" stop-color="#FFBC01" />
                    </linearGradient>
                    <clipPath id="clip0_3047_2223">
                      <rect width="88" height="88" fill="white" />
                    </clipPath>
                  </defs>
                </svg>