<svg xmlns="http://www.w3.org/2000/svg" width="64" height="64" viewBox="0 0 64 64" fill="none">
                  <rect x="1.06667" y="1.06667" width="61.8667" height="61.8667" rx="13.6"
                    fill="url(#paint0_linear_2520_907)" />
                  <rect x="1.06667" y="1.06667" width="61.8667" height="61.8667" rx="13.6" stroke="#000326"
                    stroke-width="2.13333" />
                  <g clip-path="url(#clip0_2520_907)">
                    <path
                      d="M54 28.4516H52.4053L50.0285 29.7022C49.761 29.5546 49.4827 29.4295 49.1827 29.3543L46.1929 28.6062V28.2662C47.5155 27.3431 48.3226 25.818 48.3226 24.1935V22.953C48.3226 20.1961 46.1624 17.8889 43.5073 17.8085C43.3725 17.8051 43.2398 17.8099 43.1064 17.8165L43.8816 16.0018L40.1235 12.2448L37.9082 13.6866C37.0665 13.2126 36.1763 12.8436 35.2518 12.5847L34.7046 10H29.2961L28.7489 12.5854C27.8244 12.8443 26.9335 13.2133 26.0925 13.6873L23.8772 12.2455L20.1223 16.0004L20.8843 17.8165C20.8552 17.8151 20.8274 17.8099 20.7983 17.8092C19.4393 17.7697 18.1592 18.2656 17.1869 19.2095C16.2131 20.1528 15.6774 21.4186 15.6774 22.7742V24.1935C15.6774 25.818 16.4838 27.3424 17.8065 28.2655V28.6062L15.8562 29.0937L12.3214 27.0323H10V41.7376L16.9817 44.0645H18.3415L18.5113 43.4699L20.6514 44.7544C20.6864 45.9181 21.6196 46.8544 22.7822 46.8953C22.8231 48.053 23.7535 48.9834 24.9112 49.0243C24.9521 50.182 25.8825 51.1124 27.0402 51.1533C27.0825 52.3381 28.0528 53.2903 29.2472 53.2903C29.6908 53.2903 30.1257 53.1521 30.4912 52.9057L31.1198 53.4608C31.5138 53.8077 32.0211 54 32.5479 54H32.6792C33.8601 54 34.821 53.0453 34.8359 51.8682C36.0041 51.8533 36.9501 50.9073 36.965 49.7392C38.1338 49.7243 39.0805 48.7769 39.094 47.6081C40.2736 47.5803 41.2258 46.6167 41.2258 45.4305C41.2258 45.3591 41.2223 45.2888 41.2151 45.2177L54 38.8258V28.4516ZM46.9032 22.953V24.1935C46.9032 25.4532 46.2227 26.6299 45.127 27.2644L44.7721 27.4696L44.7749 29.7154L48.3205 30.6011L40.5161 34.7088V32.797C40.5161 31.843 40.1308 30.9694 39.4998 30.3239L41.9355 29.7154V27.4678L41.5813 27.263C40.4863 26.6299 39.8065 25.4532 39.8065 24.1935V22.7742C39.8065 21.8064 40.189 20.9012 40.8845 20.2273C41.5793 19.5536 42.501 19.1905 43.4647 19.2279C45.3605 19.2847 46.9032 20.956 46.9032 22.953ZM33.0701 34.1509L29.8575 33.1241C28.3934 32.6549 26.8088 32.5849 25.31 32.9169L24.9032 33.007V32.797C24.9032 31.8184 25.5668 30.9688 26.5156 30.731L30.5806 29.7154V27.4678L30.2265 27.263C29.1315 26.6299 28.4516 25.4532 28.4516 24.1935V22.7742C28.4516 21.8064 28.8342 20.9012 29.5296 20.2273C30.2244 19.5536 31.1521 19.1905 32.1098 19.2279C34.0057 19.2847 35.5484 20.956 35.5484 22.953V24.1935C35.5484 25.4532 34.8678 26.6299 33.7721 27.2644L33.4173 27.4696L33.42 29.7154L37.4844 30.731C38.4332 30.9688 39.0968 31.8184 39.0968 32.797V35.4562L38.9214 35.5484H38.4865L34.1235 34.3016C33.7797 34.2042 33.4256 34.1644 33.0701 34.1509ZM25.0623 20.6216C26.395 18.0393 29.0774 16.3871 32 16.3871C34.8948 16.3871 37.5658 18.0171 38.9086 20.5644C38.5708 21.2419 38.3871 21.9921 38.3871 22.7742V24.1935C38.3871 25.818 39.1935 27.3424 40.5161 28.2655V28.6062L37.6774 29.3169L34.838 28.6062V28.2662C36.1607 27.3431 36.9677 25.818 36.9677 24.1935V22.953C36.9677 20.1961 34.8075 17.8889 32.1525 17.8085C30.7941 17.7687 29.5134 18.2649 28.541 19.2088C27.568 20.1528 27.0323 21.4186 27.0323 22.7742V24.1935C27.0323 25.818 27.8386 27.3424 29.1613 28.2655V28.6062L26.3226 29.3169L23.4832 28.6062V28.2662C24.8059 27.3431 25.6129 25.818 25.6129 24.1935V22.953C25.6129 22.1179 25.4119 21.325 25.0623 20.6216ZM21.7984 16.3296L24.0657 14.0623L26.0613 15.361L26.4432 15.1268C27.3999 14.5405 28.4339 14.1111 29.5161 13.8523L29.9527 13.7476L30.4465 11.4194H33.5542L34.0466 13.7469L34.4832 13.8512C35.5654 14.1104 36.5994 14.5398 37.5561 15.1261L37.938 15.3604L39.9336 14.0616L42.1982 16.3268L41.3932 18.2115C40.8453 18.4472 40.3373 18.7788 39.8952 19.2074C39.8661 19.2359 39.8411 19.2663 39.8127 19.2955C38.1407 16.6376 35.1849 14.9677 32 14.9677C28.7922 14.9677 25.8281 16.6532 24.1603 19.3381C23.714 18.871 23.1831 18.4926 22.5947 18.2282L21.7984 16.3296ZM19.2258 29.7154V27.4678L18.8717 27.263C17.7767 26.6299 17.0968 25.4532 17.0968 24.1935V22.7742C17.0968 21.8064 17.4793 20.9012 18.1748 20.2273C18.8696 19.5536 19.7934 19.1905 20.755 19.2279C22.6508 19.2847 24.1935 20.956 24.1935 22.953V24.1935C24.1935 25.4532 23.513 26.6299 22.4173 27.2644L22.0624 27.4696L22.0652 29.7154L24.5002 30.3239C23.8692 30.9694 23.4839 31.843 23.4839 32.797V33.3227L21.2703 33.8147L21.3278 33.6138L21.3548 32.3022L17.6121 30.1187L19.2258 29.7154ZM11.4194 28.4516H11.9367L17.0406 31.4286L14.4653 41.7297L11.4194 40.714V28.4516ZM17.2118 42.6452L15.815 42.1798L18.3169 32.1733L19.9355 33.1172V33.3199L17.2714 42.6452H17.2118ZM22.0645 44.6883C22.0645 44.479 22.1491 44.2738 22.2974 44.1255L23.5449 42.878C23.6932 42.7297 23.8983 42.6452 24.1076 42.6452C24.5463 42.6452 24.9032 43.0021 24.9032 43.4408C24.9032 43.6501 24.8187 43.8552 24.6704 44.0035L23.4229 45.251C23.2746 45.3993 23.0694 45.4839 22.8601 45.4839C22.4214 45.4839 22.0645 45.127 22.0645 44.6883ZM24.1935 46.8173C24.1935 46.608 24.2781 46.4029 24.4264 46.2545L25.6739 45.0071C25.8222 44.8587 26.0273 44.7742 26.2366 44.7742C26.6753 44.7742 27.0323 45.1311 27.0323 45.5698C27.0323 45.7791 26.9477 45.9842 26.7994 46.1326L25.5519 47.38C25.4036 47.5284 25.1985 47.6129 24.9892 47.6129C24.5505 47.6129 24.1935 47.256 24.1935 46.8173ZM26.3226 48.9463C26.3226 48.737 26.4071 48.5319 26.5554 48.3836L27.8029 47.1361C27.9512 46.9878 28.1564 46.9032 28.3657 46.9032C28.8044 46.9032 29.1613 47.2601 29.1613 47.6988C29.1613 47.9081 29.0767 48.1133 28.9284 48.2616L27.6809 49.5091C27.5326 49.6574 27.3275 49.7419 27.1182 49.7419C26.6795 49.7419 26.3226 49.385 26.3226 48.9463ZM29.2472 51.871C28.8085 51.871 28.4516 51.5141 28.4516 51.0754C28.4516 50.8661 28.5362 50.6609 28.6845 50.5126L29.932 49.2651C30.0803 49.1168 30.2854 49.0323 30.4947 49.0323C30.9334 49.0323 31.2903 49.3892 31.2903 49.8279C31.2903 50.0372 31.2058 50.2423 31.0575 50.3906L29.81 51.6381C29.6617 51.7864 29.4565 51.871 29.2472 51.871ZM32.6792 52.5806H32.5479C32.367 52.5806 32.1937 52.5148 32.0589 52.3953L31.528 51.9271L32.061 51.3942C32.2512 51.2039 32.3988 50.9776 32.508 50.7347L33.1532 51.2718C33.322 51.4125 33.4194 51.6197 33.4194 51.8405C33.4194 52.2487 33.0874 52.5806 32.6792 52.5806ZM39.0434 46.1936H38.9207C38.7426 46.1936 38.5687 46.1305 38.4325 46.0161L34.584 42.8091L33.6747 43.8999L37.412 47.0138C37.58 47.1545 37.6774 47.3617 37.6774 47.5824C37.6774 47.9906 37.3455 48.3226 36.9373 48.3226H36.7824C36.6101 48.3226 36.4417 48.2616 36.309 48.1507L32.4543 44.9388L31.545 46.0296L35.2823 49.1438C35.451 49.2835 35.5484 49.4907 35.5484 49.7114C35.5484 50.1196 35.2164 50.4516 34.8082 50.4516C34.5359 50.4516 34.2704 50.3549 34.0615 50.1813L32.4775 48.8611C32.1286 48.1479 31.4116 47.6507 30.572 47.6209C30.5311 46.4631 29.6007 45.5327 28.443 45.4918C28.4021 44.3341 27.4716 43.4037 26.3139 43.3628C26.2723 42.1781 25.3021 41.2258 24.1076 41.2258C23.5244 41.2258 22.9537 41.4621 22.5413 41.8745L21.2939 43.122C21.2193 43.1965 21.1577 43.281 21.0949 43.3649L18.915 42.0568L20.826 35.3682L25.6171 34.303C26.8739 34.022 28.199 34.0829 29.4246 34.4752L30.4701 34.8096L26.9259 36.5817C26.1161 36.9875 25.6129 37.8022 25.6129 38.708V38.8483C25.6129 40.1592 26.6795 41.2258 27.9904 41.2258C28.4211 41.2258 28.8449 41.1087 29.2133 40.8866L31.8558 39.3019C32.3867 38.9838 33.0992 39.0535 33.5576 39.4658L39.5538 44.8622C39.7143 45.0078 39.8065 45.2143 39.8065 45.4305C39.8065 45.8515 39.4644 46.1936 39.0434 46.1936ZM52.5806 37.9484L40.6246 43.9269C40.5858 43.8857 40.5452 43.8466 40.5026 43.8084L34.5074 38.412C33.9821 37.938 33.3029 37.6774 32.5953 37.6774C32.078 37.6774 31.57 37.8181 31.125 38.0849L28.4814 39.6703C28.3331 39.7597 28.1637 39.8065 27.9904 39.8065C27.4616 39.8065 27.0323 39.3771 27.0323 38.8483V38.708C27.0323 38.3424 27.2353 38.0146 27.5617 37.8514L31.5204 35.872C32.1979 35.5328 33.0021 35.4569 33.7323 35.6669L38.192 36.9407L39.2721 36.9677L52.5806 29.9631V37.9484Z"
                      fill="#000326" />
                  </g>
                  <defs>
                    <linearGradient id="paint0_linear_2520_907" x1="32" y1="0" x2="32" y2="64"
                      gradientUnits="userSpaceOnUse">
                      <stop stop-color="#FFE59E" />
                      <stop offset="1" stop-color="#FFBC01" />
                    </linearGradient>
                    <clipPath id="clip0_2520_907">
                      <rect width="44" height="44" fill="white" transform="translate(10 10)" />
                    </clipPath>
                  </defs>
                </svg>