<svg xmlns="http://www.w3.org/2000/svg" width="64" height="64" viewBox="0 0 64 64" fill="none">
                  <rect x="1.06667" y="1.06667" width="61.8667" height="61.8667" rx="13.6"
                    fill="url(#paint0_linear_2527_3672)" />
                  <rect x="1.06667" y="1.06667" width="61.8667" height="61.8667" rx="13.6" stroke="#000326"
                    stroke-width="2.13333" />
                  <g clip-path="url(#clip0_2527_3672)">
                    <path
                      d="M53.667 28.4516H52.0723L49.6955 29.7022C49.428 29.5546 49.1497 29.4295 48.8496 29.3543L45.8598 28.6062V28.2662C47.1825 27.3431 47.9896 25.818 47.9896 24.1935V22.953C47.9896 20.1961 45.8294 17.8889 43.1743 17.8085C43.0395 17.8051 42.9068 17.8099 42.7734 17.8165L43.5485 16.0018L39.7905 12.2448L37.5752 13.6866C36.7335 13.2126 35.8433 12.8436 34.9188 12.5847L34.3716 10H28.9631L28.4159 12.5854C27.4914 12.8443 26.6005 13.2133 25.7595 13.6873L23.5442 12.2455L19.7893 16.0004L20.5513 17.8165C20.5221 17.8151 20.4944 17.8099 20.4653 17.8092C19.1063 17.7697 17.8262 18.2656 16.8539 19.2095C15.8801 20.1528 15.3444 21.4186 15.3444 22.7742V24.1935C15.3444 25.818 16.1508 27.3424 17.4734 28.2655V28.6062L15.5232 29.0937L11.9883 27.0323H9.66699V41.7376L16.6487 44.0645H18.0085L18.1783 43.4699L20.3184 44.7544C20.3534 45.9181 21.2866 46.8544 22.4492 46.8953C22.49 48.053 23.4205 48.9834 24.5782 49.0243C24.6191 50.182 25.5495 51.1124 26.7072 51.1533C26.7495 52.3381 27.7198 53.2903 28.9142 53.2903C29.3578 53.2903 29.7927 53.1521 30.1582 52.9057L30.7868 53.4608C31.1808 53.8077 31.6881 54 32.2148 54H32.3462C33.5271 54 34.488 53.0453 34.5029 51.8682C35.6711 51.8533 36.6171 50.9073 36.632 49.7392C37.8008 49.7243 38.7475 48.7769 38.761 47.6081C39.9406 47.5803 40.8928 46.6167 40.8928 45.4305C40.8928 45.3591 40.8893 45.2888 40.8821 45.2177L53.667 38.8258V28.4516ZM46.5702 22.953V24.1935C46.5702 25.4532 45.8897 26.6299 44.7939 27.2644L44.4391 27.4696L44.4419 29.7154L47.9875 30.6011L40.1831 34.7088V32.797C40.1831 31.843 39.7978 30.9694 39.1668 30.3239L41.6025 29.7154V27.4678L41.2483 27.263C40.1533 26.6299 39.4734 25.4532 39.4734 24.1935V22.7742C39.4734 21.8064 39.856 20.9012 40.5515 20.2273C41.2463 19.5536 42.168 19.1905 43.1317 19.2279C45.0275 19.2847 46.5702 20.956 46.5702 22.953ZM32.7371 34.1509L29.5244 33.1241C28.0604 32.6549 26.4757 32.5849 24.977 32.9169L24.5702 33.007V32.797C24.5702 31.8184 25.2338 30.9688 26.1826 30.731L30.2476 29.7154V27.4678L29.8935 27.263C28.7985 26.6299 28.1186 25.4532 28.1186 24.1935V22.7742C28.1186 21.8064 28.5012 20.9012 29.1966 20.2273C29.8914 19.5536 30.8191 19.1905 31.7768 19.2279C33.6727 19.2847 35.2154 20.956 35.2154 22.953V24.1935C35.2154 25.4532 34.5348 26.6299 33.4391 27.2644L33.0843 27.4696L33.087 29.7154L37.1514 30.731C38.1002 30.9688 38.7638 31.8184 38.7638 32.797V35.4562L38.5884 35.5484H38.1535L33.7905 34.3016C33.4467 34.2042 33.0926 34.1644 32.7371 34.1509ZM24.7293 20.6216C26.062 18.0393 28.7444 16.3871 31.667 16.3871C34.5618 16.3871 37.2328 18.0171 38.5756 20.5644C38.2377 21.2419 38.0541 21.9921 38.0541 22.7742V24.1935C38.0541 25.818 38.8604 27.3424 40.1831 28.2655V28.6062L37.3444 29.3169L34.505 28.6062V28.2662C35.8277 27.3431 36.6347 25.818 36.6347 24.1935V22.953C36.6347 20.1961 34.4745 17.8889 31.8195 17.8085C30.4611 17.7687 29.1803 18.2649 28.208 19.2088C27.235 20.1528 26.6993 21.4186 26.6993 22.7742V24.1935C26.6993 25.818 27.5056 27.3424 28.8283 28.2655V28.6062L25.9896 29.3169L23.1502 28.6062V28.2662C24.4728 27.3431 25.2799 25.818 25.2799 24.1935V22.953C25.2799 22.1179 25.0789 21.325 24.7293 20.6216ZM21.4654 16.3296L23.7327 14.0623L25.7283 15.361L26.1102 15.1268C27.0669 14.5405 28.1009 14.1111 29.1831 13.8523L29.6197 13.7476L30.1135 11.4194H33.2211L33.7136 13.7469L34.1502 13.8512C35.2324 14.1104 36.2664 14.5398 37.2231 15.1261L37.605 15.3604L39.6006 14.0616L41.8651 16.3268L41.0602 18.2115C40.5123 18.4472 40.0043 18.7788 39.5622 19.2074C39.533 19.2359 39.5081 19.2663 39.4797 19.2955C37.8077 16.6376 34.8519 14.9677 31.667 14.9677C28.4592 14.9677 25.4951 16.6532 23.8273 19.3381C23.381 18.871 22.8501 18.4926 22.2617 18.2282L21.4654 16.3296ZM18.8928 29.7154V27.4678L18.5387 27.263C17.4436 26.6299 16.7638 25.4532 16.7638 24.1935V22.7742C16.7638 21.8064 17.1463 20.9012 17.8418 20.2273C18.5366 19.5536 19.4604 19.1905 20.422 19.2279C22.3178 19.2847 23.8605 20.956 23.8605 22.953V24.1935C23.8605 25.4532 23.18 26.6299 22.0843 27.2644L21.7294 27.4696L21.7322 29.7154L24.1672 30.3239C23.5362 30.9694 23.1509 31.843 23.1509 32.797V33.3227L20.9373 33.8147L20.9948 33.6138L21.0218 32.3022L17.279 30.1187L18.8928 29.7154ZM11.0863 28.4516H11.6037L16.7076 31.4286L14.1323 41.7297L11.0863 40.714V28.4516ZM16.8788 42.6452L15.482 42.1798L17.9839 32.1733L19.6025 33.1172V33.3199L16.9384 42.6452H16.8788ZM21.7315 44.6883C21.7315 44.479 21.8161 44.2738 21.9644 44.1255L23.2119 42.878C23.3602 42.7297 23.5653 42.6452 23.7746 42.6452C24.2133 42.6452 24.5702 43.0021 24.5702 43.4408C24.5702 43.6501 24.4857 43.8552 24.3374 44.0035L23.0899 45.251C22.9416 45.3993 22.7364 45.4839 22.5271 45.4839C22.0884 45.4839 21.7315 45.127 21.7315 44.6883ZM23.8605 46.8173C23.8605 46.608 23.9451 46.4029 24.0934 46.2545L25.3409 45.0071C25.4892 44.8587 25.6943 44.7742 25.9036 44.7742C26.3423 44.7742 26.6993 45.1311 26.6993 45.5698C26.6993 45.7791 26.6147 45.9842 26.4664 46.1326L25.2189 47.38C25.0706 47.5284 24.8655 47.6129 24.6562 47.6129C24.2175 47.6129 23.8605 47.256 23.8605 46.8173ZM25.9896 48.9463C25.9896 48.737 26.0741 48.5319 26.2224 48.3836L27.4699 47.1361C27.6182 46.9878 27.8234 46.9032 28.0327 46.9032C28.4714 46.9032 28.8283 47.2601 28.8283 47.6988C28.8283 47.9081 28.7437 48.1133 28.5954 48.2616L27.3479 49.5091C27.1996 49.6574 26.9945 49.7419 26.7852 49.7419C26.3465 49.7419 25.9896 49.385 25.9896 48.9463ZM28.9142 51.871C28.4755 51.871 28.1186 51.5141 28.1186 51.0754C28.1186 50.8661 28.2032 50.6609 28.3515 50.5126L29.5989 49.2651C29.7473 49.1168 29.9524 49.0323 30.1617 49.0323C30.6004 49.0323 30.9573 49.3892 30.9573 49.8279C30.9573 50.0372 30.8728 50.2423 30.7245 50.3906L29.477 51.6381C29.3287 51.7864 29.1235 51.871 28.9142 51.871ZM32.3462 52.5806H32.2148C32.034 52.5806 31.8607 52.5148 31.7259 52.3953L31.195 51.9271L31.728 51.3942C31.9182 51.2039 32.0658 50.9776 32.175 50.7347L32.8202 51.2718C32.989 51.4125 33.0863 51.6197 33.0863 51.8405C33.0863 52.2487 32.7544 52.5806 32.3462 52.5806ZM38.7104 46.1936H38.5877C38.4096 46.1936 38.2357 46.1305 38.0995 46.0161L34.251 42.8091L33.3417 43.8999L37.079 47.0138C37.247 47.1545 37.3444 47.3617 37.3444 47.5824C37.3444 47.9906 37.0124 48.3226 36.6042 48.3226H36.4493C36.2771 48.3226 36.1087 48.2616 35.976 48.1507L32.1213 44.9388L31.212 46.0296L34.9493 49.1438C35.118 49.2835 35.2154 49.4907 35.2154 49.7114C35.2154 50.1196 34.8834 50.4516 34.4752 50.4516C34.2028 50.4516 33.9374 50.3549 33.7285 50.1813L32.1445 48.8611C31.7956 48.1479 31.0786 47.6507 30.239 47.6209C30.1981 46.4631 29.2677 45.5327 28.1099 45.4918C28.0691 44.3341 27.1386 43.4037 25.9809 43.3628C25.9393 42.1781 24.9691 41.2258 23.7746 41.2258C23.1914 41.2258 22.6207 41.4621 22.2083 41.8745L20.9608 43.122C20.8863 43.1965 20.8247 43.281 20.7619 43.3649L18.582 42.0568L20.493 35.3682L25.2841 34.303C26.5409 34.022 27.866 34.0829 29.0916 34.4752L30.1371 34.8096L26.5929 36.5817C25.783 36.9875 25.2799 37.8022 25.2799 38.708V38.8483C25.2799 40.1592 26.3465 41.2258 27.6574 41.2258C28.0881 41.2258 28.5119 41.1087 28.8803 40.8866L31.5228 39.3019C32.0537 38.9838 32.7662 39.0535 33.2246 39.4658L39.2208 44.8622C39.3813 45.0078 39.4734 45.2143 39.4734 45.4305C39.4734 45.8515 39.1314 46.1936 38.7104 46.1936ZM52.2476 37.9484L40.2916 43.9269C40.2528 43.8857 40.2122 43.8466 40.1696 43.8084L34.1744 38.412C33.6491 37.938 32.9699 37.6774 32.2623 37.6774C31.745 37.6774 31.237 37.8181 30.792 38.0849L28.1484 39.6703C28.0001 39.7597 27.8306 39.8065 27.6574 39.8065C27.1286 39.8065 26.6993 39.3771 26.6993 38.8483V38.708C26.6993 38.3424 26.9023 38.0146 27.2287 37.8514L31.1874 35.872C31.8649 35.5328 32.6691 35.4569 33.3993 35.6669L37.859 36.9407L38.9391 36.9677L52.2476 29.9631V37.9484Z"
                      fill="#000326" />
                  </g>
                  <defs>
                    <linearGradient id="paint0_linear_2527_3672" x1="32" y1="0" x2="32" y2="64"
                      gradientUnits="userSpaceOnUse">
                      <stop stop-color="#FFE59E" />
                      <stop offset="1" stop-color="#FFBC01" />
                    </linearGradient>
                    <clipPath id="clip0_2527_3672">
                      <rect width="44" height="44" fill="white" transform="translate(9.66699 10)" />
                    </clipPath>
                  </defs>
                </svg>