<svg xmlns="http://www.w3.org/2000/svg" width="88" height="88" viewBox="0 0 88 88" fill="none">
                    <rect x="9" y="9" width="18" height="65" fill="#000326"></rect>
                    <path d="M44 9H67C72.5228 9 77 13.4772 77 19V64C77 70.0751 72.0751 75 66 75H44V9Z" fill="#000326">
                    </path>
                    <path d="M59.5 76.5L56.5 77L52 74.5L50 69L52 58L68.5 40L71.5 35L81 40L62 73L59.5 76.5Z"
                      fill="#000326"></path>
                    <rect x="28" y="25" width="27" height="30" fill="#000326"></rect>
                    <path
                      d="M46.8508 73.3207C46.815 71.3282 47.322 69.3636 48.3175 67.6373L60.5 46.543V44.0002H61.9667L65.142 38.5002H60.5V27.5002H71.5V28.9375C72.2873 28.3752 73.1818 27.9808 74.1279 27.7786C75.0741 27.5765 76.0516 27.5709 77 27.7623V16.5002C77 14.069 76.0342 11.7374 74.3151 10.0184C72.5961 8.29927 70.2645 7.3335 67.8333 7.3335H14.6667C12.2355 7.3335 9.90394 8.29927 8.18485 10.0184C6.46577 11.7374 5.5 14.069 5.5 16.5002V66.0002C5.5 67.2039 5.7371 68.3959 6.19777 69.5081C6.65844 70.6202 7.33365 71.6308 8.18485 72.482C9.03606 73.3332 10.0466 74.0084 11.1587 74.4691C12.2709 74.9297 13.4629 75.1668 14.6667 75.1668H46.882L46.8508 73.3207ZM60.5 12.8335H67.8333C68.8058 12.8335 69.7384 13.2198 70.4261 13.9074C71.1137 14.5951 71.5 15.5277 71.5 16.5002V22.0002H60.5V12.8335ZM22 69.6668H14.6667C13.6942 69.6668 12.7616 69.2805 12.0739 68.5929C11.3863 67.9053 11 66.9726 11 66.0002V60.5002H22V69.6668ZM22 55.0002H11V44.0002H22V55.0002ZM22 38.5002H11V27.5002H22V38.5002ZM22 22.0002H11V16.5002C11 15.5277 11.3863 14.5951 12.0739 13.9074C12.7616 13.2198 13.6942 12.8335 14.6667 12.8335H22V22.0002ZM31.1557 50.6478V33.6858C31.1557 33.0422 31.3251 32.4099 31.6469 31.8525C31.9688 31.2951 32.4316 30.8323 32.989 30.5105C33.5464 30.1887 34.1787 30.0193 34.8224 30.0193C35.466 30.0193 36.0983 30.1887 36.6557 30.5105L51.3443 38.9915C51.9017 39.3133 52.3645 39.7762 52.6863 40.3336C53.0081 40.891 53.1775 41.5232 53.1775 42.1668C53.1775 42.8104 53.0081 43.4427 52.6863 44.0001C52.3645 44.5575 51.9017 45.0203 51.3443 45.3422L36.6557 53.8232C36.0983 54.145 35.466 54.3144 34.8224 54.3144C34.1787 54.3144 33.5464 54.145 32.989 53.8232C32.4316 53.5014 31.9688 53.0385 31.6469 52.4811C31.3251 51.9237 31.1557 51.2915 31.1557 50.6478Z"
                      fill="url(#paint0_linear_1798_1377)"></path>
                    <path
                      d="M71.4997 64.1575V66C71.4961 66.8806 71.1757 67.7305 70.597 68.3944C70.0184 69.0582 69.2201 69.4916 68.3482 69.6153L65.1436 75.1666H67.8331C69.0368 75.1666 70.2288 74.9295 71.341 74.4689C72.4531 74.0082 73.4637 73.333 74.3149 72.4818C75.1661 71.6306 75.8413 70.6201 76.3019 69.5079C76.7626 68.3958 76.9997 67.2038 76.9997 66V54.6333L71.4997 64.1575Z"
                      fill="url(#paint1_linear_1798_1377)"></path>
                    <path
                      d="M69.1171 38.9565L52.3164 68.0534L61.8497 73.5534L78.6504 44.4565L69.1171 38.9565ZM69.6432 52.7065C69.3984 53.1242 68.9983 53.428 68.5303 53.5518C68.0622 53.6755 67.5642 53.6091 67.145 53.367C66.7257 53.125 66.4192 52.7269 66.2924 52.2597C66.1655 51.7925 66.2286 51.2941 66.4679 50.8732L69.2179 46.1065C69.3374 45.8964 69.4973 45.7119 69.6884 45.5638C69.8795 45.4156 70.098 45.3067 70.3313 45.2434C70.5646 45.18 70.8082 45.1635 71.048 45.1946C71.2877 45.2258 71.519 45.3041 71.7283 45.425C71.9377 45.5459 72.1211 45.707 72.268 45.899C72.4149 46.0911 72.5223 46.3103 72.5841 46.5441C72.6459 46.7778 72.6608 47.0215 72.6281 47.261C72.5953 47.5006 72.5155 47.7313 72.3932 47.9399L69.6432 52.7065Z"
                      fill="url(#paint2_linear_1798_1377)"></path>
                    <path
                      d="M80.4834 41.2793L82.0179 38.6228C82.2583 38.2052 82.414 37.7444 82.4762 37.2667C82.5384 36.7889 82.5058 36.3036 82.3803 35.8384C82.2548 35.3733 82.0389 34.9374 81.7449 34.5558C81.4508 34.1741 81.0845 33.8541 80.6667 33.6141L77.4914 31.7808C76.6493 31.2946 75.6484 31.1628 74.7091 31.4145C73.7698 31.6662 72.969 32.2806 72.4827 33.1228L70.9482 35.7811L80.4834 41.2793Z"
                      fill="url(#paint3_linear_1798_1377)"></path>
                    <path
                      d="M50.7354 71.3755C50.5804 71.9915 50.5064 72.625 50.5154 73.2602L50.6107 78.861C50.6159 79.1776 50.703 79.4874 50.8635 79.7603C51.024 80.0332 51.2525 80.2599 51.5266 80.4183C51.8008 80.5767 52.1112 80.6614 52.4278 80.6641C52.7444 80.6669 53.0563 80.5876 53.3332 80.434L58.2319 77.7152C58.7866 77.405 59.2987 77.0241 59.7554 76.5822L50.7354 71.3755Z"
                      fill="url(#paint4_linear_1798_1377)"></path>
                    <defs>
                      <linearGradient id="paint0_linear_1798_1377" x1="41.25" y1="7.3335" x2="41.25" y2="75.1668"
                        gradientUnits="userSpaceOnUse">
                        <stop stop-color="#FFE59E"></stop>
                        <stop offset="1" stop-color="#FFBC01"></stop>
                      </linearGradient>
                      <linearGradient id="paint1_linear_1798_1377" x1="71.0716" y1="54.6333" x2="71.0716" y2="75.1666"
                        gradientUnits="userSpaceOnUse">
                        <stop stop-color="#FFE59E"></stop>
                        <stop offset="1" stop-color="#FFBC01"></stop>
                      </linearGradient>
                      <linearGradient id="paint2_linear_1798_1377" x1="65.4834" y1="38.9565" x2="65.4834" y2="73.5534"
                        gradientUnits="userSpaceOnUse">
                        <stop stop-color="#FFE59E"></stop>
                        <stop offset="1" stop-color="#FFBC01"></stop>
                      </linearGradient>
                      <linearGradient id="paint3_linear_1798_1377" x1="76.7275" y1="31.2896" x2="76.7275" y2="41.2793"
                        gradientUnits="userSpaceOnUse">
                        <stop stop-color="#FFE59E"></stop>
                        <stop offset="1" stop-color="#FFBC01"></stop>
                      </linearGradient>
                      <linearGradient id="paint4_linear_1798_1377" x1="55.135" y1="71.3755" x2="55.135" y2="80.6642"
                        gradientUnits="userSpaceOnUse">
                        <stop stop-color="#FFE59E"></stop>
                        <stop offset="1" stop-color="#FFBC01"></stop>
                      </linearGradient>
                    </defs>
                  </svg>