<svg xmlns="http://www.w3.org/2000/svg" width="88" height="88" viewBox="0 0 88 88" fill="none">
                      <circle cx="41" cy="38" r="28" fill="#000326" />
                      <path
                        d="M38.572 2.76514C18.8293 2.76514 2.74414 18.8288 2.74414 38.5714C2.74414 58.3141 18.8293 74.3724 38.572 74.3724C47.4513 74.3724 55.5689 71.1089 61.8331 65.7382L64.9587 68.8637L63.0113 70.8111C62.4949 71.3276 62.2049 72.0281 62.2049 72.7585C62.2049 73.4889 62.4949 74.1893 63.0113 74.7059L71.2689 82.9689C73.0755 84.7766 75.3995 85.6542 77.5576 85.5564C79.7156 85.4628 81.6406 84.4928 83.0609 83.0765C84.4811 81.6602 85.4499 79.7419 85.5516 77.5839C85.6533 75.4259 84.776 73.0977 82.9694 71.2899L74.701 63.0161C74.4408 62.7558 74.1311 62.5503 73.7902 62.4117C73.4492 62.2731 73.084 62.2043 72.716 62.2092C71.9986 62.2192 71.3134 62.5087 70.8062 63.0161L68.8535 64.9689L65.7279 61.8434C71.1058 55.5788 74.3783 47.4562 74.3783 38.5714C74.3783 18.8288 58.3146 2.76514 38.572 2.76514ZM44.0591 24.7836H55.0818C55.4453 24.7823 55.8055 24.8528 56.1416 24.9913C56.4777 25.1298 56.7831 25.3334 57.0401 25.5904C57.2971 25.8475 57.5008 26.1528 57.6392 26.4889C57.7777 26.825 57.8483 27.1852 57.8469 27.5487V38.5714C57.855 38.9383 57.7898 39.3031 57.655 39.6443C57.5203 39.9856 57.3187 40.2966 57.0621 40.5589C56.8056 40.8212 56.4992 41.0296 56.1609 41.1719C55.8227 41.3142 55.4595 41.3875 55.0926 41.3875C54.7256 41.3875 54.3624 41.3142 54.0242 41.1719C53.686 41.0296 53.3796 40.8212 53.123 40.5589C52.8664 40.2966 52.6648 39.9856 52.5301 39.6443C52.3953 39.3031 52.3301 38.9383 52.3382 38.5714V34.1925L40.5032 46.0114C39.4289 47.079 37.6935 47.079 36.6192 46.0114L33.0633 42.4501L23.9934 51.52C21.4063 54.2936 17.3278 50.2376 20.0878 47.636L31.1105 36.6187C32.1849 35.551 33.9202 35.551 34.9946 36.6187L38.5504 40.1961L48.4542 30.2923H44.0591C43.6922 30.3005 43.3273 30.2354 42.986 30.1007C42.6446 29.966 42.3336 29.7644 42.0712 29.5078C41.8088 29.2512 41.6003 28.9448 41.4579 28.6065C41.3156 28.2683 41.2422 27.905 41.2422 27.538C41.2422 27.171 41.3156 26.8077 41.4579 26.4694C41.6003 26.1311 41.8088 25.8247 42.0712 25.5681C42.3336 25.3116 42.6446 25.11 42.986 24.9753C43.3273 24.8406 43.6922 24.7754 44.0591 24.7836Z"
                        fill="url(#paint0_linear_1798_1312)" />
                      <defs>
                        <linearGradient id="paint0_linear_1798_1312" x1="44.1518" y1="2.76514" x2="44.1518" y2="85.5638"
                          gradientUnits="userSpaceOnUse">
                          <stop stop-color="#FFE59E" />
                          <stop offset="1" stop-color="#FFBC01" />
                        </linearGradient>
                      </defs>
                    </svg>