<svg xmlns="http://www.w3.org/2000/svg" width="88" height="88" viewBox="0 0 88 88" fill="none">
                  <path fill-rule="evenodd" clip-rule="evenodd"
                    d="M45.4025 70.6707C49.5275 72.724 54.285 73.9001 59.3542 73.9001C60.17 73.9001 60.9858 73.868 61.7924 73.78C64.2491 73.6132 66.7058 74.2723 68.7592 75.6555L77.1009 81.2701C77.6784 81.6597 78.43 81.6872 79.035 81.3416C79.64 80.9951 79.9975 80.336 79.9516 79.6394L79.1816 66.8051C84.8191 61.9917 88 55.3412 88 48.3902C88 37.5322 80.3551 28.1987 69.5201 24.533C63.5251 13.8199 51.0858 6.41602 36.6667 6.41602C16.3717 6.41602 0 21.0864 0 39.009C0 47.9685 4.14334 56.533 11.4675 62.692C11.4675 62.6911 10.4499 79.6394 10.4499 79.6394C10.4132 80.336 10.7708 80.9951 11.3758 81.3416C11.9808 81.6872 12.7325 81.6597 13.31 81.2701L23.6959 74.2787C26.7118 72.2501 30.305 71.2656 33.9258 71.4755C34.8517 71.5708 35.7592 71.6011 36.6667 71.6011C39.6733 71.6011 42.5975 71.2784 45.4025 70.6707ZM71.7108 29.4078C72.765 32.4475 73.3333 35.6715 73.3333 39.009C73.3333 52.418 64.1666 64.0075 51.0491 68.9941C53.6524 69.7971 56.4483 70.2335 59.3542 70.2335C60.0417 70.2335 60.7292 70.2087 61.4075 70.1335C61.435 70.1308 61.4534 70.128 61.4809 70.1271C64.7809 69.8915 68.0625 70.7669 70.8033 72.614L76.0742 76.1578L75.4692 66.0928C75.4326 65.497 75.6892 64.9204 76.1567 64.5483C81.3451 60.4214 84.3333 54.5566 84.3333 48.3902C84.3333 40.2364 79.2183 33.1597 71.7108 29.4078ZM26.6109 42.166L29.0858 48.8568L35.7775 51.3327L29.0858 53.8086L26.6109 60.4994L24.1359 53.8086L17.4442 51.3327L24.1359 48.8568L26.6109 42.166ZM43.0833 18.3327L47.7857 31.045L60.5 35.7493L47.7857 40.4537L43.0833 53.166L38.3809 40.4537L25.6667 35.7493L38.3809 31.045L43.0833 18.3327ZM28.4167 22.916V21.0827C28.4167 20.0707 27.5917 19.2493 26.5833 19.2493C25.575 19.2493 24.75 20.0707 24.75 21.0827V22.916H22.9167C21.9083 22.916 21.0833 23.7373 21.0833 24.7493C21.0833 25.7613 21.9083 26.5827 22.9167 26.5827H24.75V28.416C24.75 29.428 25.575 30.2493 26.5833 30.2493C27.5917 30.2493 28.4167 29.428 28.4167 28.416V26.5827H30.25C31.2583 26.5827 32.0833 25.7613 32.0833 24.7493C32.0833 23.7373 31.2583 22.916 30.25 22.916H28.4167Z"
                    fill="url(#paint0_linear_3034_2080)" />
                  <defs>
                    <linearGradient id="paint0_linear_3034_2080" x1="44" y1="6.41602" x2="44" y2="81.5828"
                      gradientUnits="userSpaceOnUse">
                      <stop stop-color="#FFE59E" />
                      <stop offset="1" stop-color="#FFBC01" />
                    </linearGradient>
                  </defs>
                </svg>