<svg xmlns="http://www.w3.org/2000/svg" width="88" height="88" viewBox="0 0 88 88" fill="none">
                  <g clip-path="url(#clip0_3047_2262)">
                    <path
                      d="M44.0004 22.5044C32.1478 22.5044 22.5049 32.1473 22.5049 43.9999C22.5049 55.8526 32.1478 65.4955 44.0004 65.4955C55.8531 65.4955 65.496 55.8526 65.496 43.9999C65.496 32.1473 55.8531 22.5044 44.0004 22.5044ZM40.9691 54.0232L32.6577 45.7116L36.3037 42.0657L40.9692 46.7312L51.9007 35.8L55.5467 39.4459L40.9691 54.0232Z"
                      fill="url(#paint0_linear_3047_2262)" />
                    <path
                      d="M88 51.1156V36.8844L79.2108 34.3315C78.4068 31.4052 77.2398 28.5971 75.7278 25.9509L80.1439 17.9188L70.081 7.85589L62.0491 12.2722C59.4029 10.7602 56.595 9.59338 53.6683 8.78917L51.1155 0H36.8844L34.3313 8.78917C31.4048 9.5932 28.5967 10.7602 25.9505 12.2722L17.9187 7.85589L7.85572 17.9188L12.2719 25.9509C10.7599 28.5971 9.59286 31.4052 8.78883 34.3315L0 36.8844V51.1156L8.78917 53.6685C9.5932 56.5948 10.7602 59.4029 12.2722 62.0491L7.85606 70.0812L17.919 80.1441L25.9509 75.7278C28.5971 77.2398 31.405 78.4066 34.3317 79.2108L36.8845 88H51.1156L53.6687 79.2108C56.5952 78.4068 59.4033 77.2398 62.0495 75.7278L70.0813 80.1441L80.1443 70.0812L75.7281 62.0491C77.2401 59.4029 78.4071 56.5948 79.2112 53.6685L88 51.1156ZM44 70.6518C29.3042 70.6518 17.3482 58.6958 17.3482 44C17.3482 29.3042 29.3042 17.3482 44 17.3482C58.6958 17.3482 70.6518 29.3042 70.6518 44C70.6518 58.6958 58.6958 70.6518 44 70.6518Z"
                      fill="url(#paint1_linear_3047_2262)" />
                  </g>
                  <defs>
                    <linearGradient id="paint0_linear_3047_2262" x1="44.0004" y1="22.5044" x2="44.0004" y2="65.4955"
                      gradientUnits="userSpaceOnUse">
                      <stop stop-color="#FFE59E" />
                      <stop offset="1" stop-color="#FFBC01" />
                    </linearGradient>
                    <linearGradient id="paint1_linear_3047_2262" x1="44" y1="0" x2="44" y2="88"
                      gradientUnits="userSpaceOnUse">
                      <stop stop-color="#FFE59E" />
                      <stop offset="1" stop-color="#FFBC01" />
                    </linearGradient>
                    <clipPath id="clip0_3047_2262">
                      <rect width="88" height="88" fill="white" />
                    </clipPath>
                  </defs>
                </svg>