<svg xmlns="http://www.w3.org/2000/svg" width="88" height="88" viewBox="0 0 88 88" fill="none">
                  <g clip-path="url(#clip0_3047_2249)">
                    <path fill-rule="evenodd" clip-rule="evenodd"
                      d="M85.8969 44.5685H76.9922C76.4694 44.569 75.9662 44.7678 75.5843 45.1248C75.2024 45.4819 74.9701 45.9705 74.9345 46.4922C73.8261 62.8651 60.0881 75.6905 43.6595 75.6905C26.3738 75.6905 12.311 61.6276 12.311 44.342C12.311 28.0177 24.5535 14.5958 40.7881 13.1228C41.3009 13.0765 41.7777 12.8401 42.1249 12.4599C42.4721 12.0798 42.6645 11.5835 42.6643 11.0687V2.15975C42.6644 1.87475 42.6055 1.59283 42.4912 1.33175C42.3769 1.07067 42.2098 0.836117 42.0003 0.642874C41.7908 0.449632 41.5436 0.301898 41.2742 0.208994C41.0047 0.116089 40.719 0.0800298 40.4349 0.103091C32.0338 0.794187 24.008 3.88389 17.3122 9.00468C10.6164 14.1255 5.53243 21.0618 2.66501 28.9886C-0.202404 36.9154 -0.732564 45.499 1.13759 53.7184C3.00775 61.9379 7.19952 69.4471 13.2143 75.3529C19.229 81.2588 26.8136 85.3127 35.0658 87.0323C43.318 88.752 51.8905 88.0651 59.7636 85.0533C67.6367 82.0416 74.479 76.8317 79.4766 70.0435C84.4742 63.2552 87.4167 55.1743 87.9542 46.762C87.9718 46.4809 87.9317 46.1991 87.8363 45.9341C87.7409 45.669 87.5923 45.4263 87.3995 45.2209C87.2068 45.0154 86.9741 44.8516 86.7156 44.7395C86.4572 44.6274 86.1786 44.5694 85.8969 44.569V44.5685ZM59.5366 25.1014C59.93 24.8726 60.388 24.7802 60.8393 24.8388C61.2906 24.8974 61.7098 25.1036 62.0318 25.4253C62.3537 25.747 62.5601 26.1661 62.619 26.6173C62.6779 27.0686 62.5858 27.5267 62.3572 27.9202L48.2087 52.3041C47.4863 53.5789 46.4745 54.6661 45.2549 55.4781C44.0353 56.2901 42.642 56.8043 41.1872 56.9791C40.7547 57.0357 40.3189 57.0644 39.8827 57.065C38.6401 57.0673 37.4095 56.8212 36.2633 56.3413C35.1172 55.8614 34.0784 55.1573 33.2081 54.2704C33.2041 54.2669 33.2007 54.2618 33.198 54.2599C32.1629 53.2259 31.3794 51.9678 30.9079 50.5829C30.4364 49.198 30.2894 47.7232 30.4785 46.2724C30.6675 44.8217 31.1875 43.4338 31.9982 42.216C32.8089 40.9981 33.8886 39.9829 35.1541 39.2487L59.5366 25.1011V25.1014ZM74.8039 40.7515C74.1037 34.573 71.5704 28.7455 67.5302 24.019C67.1936 23.6246 67.0182 23.1179 67.0389 22.5998C67.0596 22.0818 67.2749 21.5907 67.6419 21.2245L74.0685 14.7963C74.2678 14.5969 74.5059 14.4405 74.7681 14.3367C75.0303 14.2328 75.311 14.1839 75.5928 14.1927C75.8747 14.2016 76.1517 14.2681 76.4068 14.3882C76.662 14.5082 76.8898 14.6793 77.0763 14.8909C83.3514 21.9777 87.1497 30.9142 87.8973 40.3504C87.9201 40.6344 87.8838 40.9201 87.7907 41.1894C87.6977 41.4588 87.5499 41.7059 87.3566 41.9153C87.1634 42.1248 86.9288 42.2919 86.6678 42.4063C86.4068 42.5206 86.125 42.5797 85.84 42.5798H76.8544C76.3477 42.5801 75.8586 42.3939 75.4805 42.0567C75.1023 41.7195 74.8615 41.2549 74.8039 40.7515ZM64.7255 20.4703C64.2519 20.4706 63.7928 20.3072 63.426 20.0078C58.6073 16.0784 52.7232 13.6805 46.5306 13.1226C46.0179 13.0763 45.5409 12.8399 45.1936 12.4599C44.8463 12.0798 44.6537 11.5836 44.6536 11.0687V2.10303C44.6538 1.82132 44.7116 1.54263 44.8236 1.28415C44.9357 1.02567 45.0994 0.792877 45.3049 0.600126C45.5103 0.407374 45.7531 0.258752 46.0182 0.163425C46.2832 0.068097 46.5651 0.0280851 46.8462 0.0458562C56.2944 0.620356 65.2989 4.25421 72.4994 10.3984C72.7166 10.5829 72.8931 10.8103 73.018 11.0664C73.1429 11.3225 73.2134 11.6016 73.225 11.8863C73.2366 12.171 73.1891 12.455 73.0855 12.7204C72.9819 12.9858 72.8244 13.2269 72.623 13.4284L66.1847 19.8672C65.9932 20.0588 65.7656 20.2107 65.5152 20.3142C65.2648 20.4177 64.9965 20.4707 64.7255 20.4703Z"
                      fill="url(#paint0_linear_3047_2249)" />
                  </g>
                  <defs>
                    <linearGradient id="paint0_linear_3047_2249" x1="43.9996" y1="0.041748" x2="43.9996" y2="87.9577"
                      gradientUnits="userSpaceOnUse">
                      <stop stop-color="#FFE59E" />
                      <stop offset="1" stop-color="#FFBC01" />
                    </linearGradient>
                    <clipPath id="clip0_3047_2249">
                      <rect width="88" height="88" fill="white" />
                    </clipPath>
                  </defs>
                </svg>