<svg xmlns="http://www.w3.org/2000/svg" width="70" height="70" viewBox="0 0 88 88" fill="none">
                  <g clip-path="url(#clip0_2853_1489)">
                    <path
                      d="M79.222 19.967H60.2692V12.33C60.2692 8.69358 57.3108 5.73535 53.6745 5.73535H34.324C30.6876 5.73535 27.7292 8.69358 27.7292 12.33V19.967H8.77644C3.94835 19.967 0.0202731 23.8951 0.0202731 28.7232C0.0202731 33.1088 -0.428864 37.0474 2.89454 41.4766C4.77488 43.9825 7.35886 45.7702 10.367 46.6459L39.5782 55.1509C42.4701 55.9928 45.5275 55.9932 48.4199 55.1509L77.6311 46.6459C80.6393 45.77 83.2233 43.9825 85.1036 41.4766C88.442 37.0275 87.9779 33.0484 87.9779 28.7232C87.978 23.8951 84.0501 19.967 79.222 19.967ZM33.3151 12.33C33.3151 11.7737 33.7677 11.3212 34.324 11.3212H53.6745C54.2308 11.3212 54.6834 11.7738 54.6834 12.33V19.967H33.3151V12.33Z"
                      fill="url(#paint0_linear_2853_1489)" />
                    <path
                      d="M79.1929 52.0091C47.685 61.1828 48.093 61.3684 43.9992 61.3684C39.9348 61.3684 40.8991 61.3533 8.80577 52.0093C5.42196 51.0239 2.42516 49.2078 0.0204468 46.7041V73.5085C0.0204468 78.3366 3.94835 82.2645 8.77662 82.2645H79.222C84.0501 82.2645 87.9782 78.3366 87.9782 73.5085V46.7041C85.5733 49.2076 82.5765 51.0239 79.1929 52.0091Z"
                      fill="url(#paint1_linear_2853_1489)" />
                  </g>
                  <defs>
                    <linearGradient id="paint0_linear_2853_1489" x1="43.9999" y1="5.73535" x2="43.9999" y2="55.7825"
                      gradientUnits="userSpaceOnUse">
                      <stop stop-color="#FFE59E" />
                      <stop offset="1" stop-color="#FFBC01" />
                    </linearGradient>
                    <linearGradient id="paint1_linear_2853_1489" x1="43.9993" y1="46.7041" x2="43.9993" y2="82.2645"
                      gradientUnits="userSpaceOnUse">
                      <stop stop-color="#FFE59E" />
                      <stop offset="1" stop-color="#FFBC01" />
                    </linearGradient>
                    <clipPath id="clip0_2853_1489">
                      <rect width="88" height="88" fill="white" />
                    </clipPath>
                  </defs>
                </svg>