<svg xmlns="http://www.w3.org/2000/svg" width="70" height="70" viewBox="0 0 88 88" fill="none">
                  <path
                    d="M61.6385 35.5493C62.9282 32.912 65.164 30.9293 67.9443 29.9723C69.1075 29.5708 70.3065 29.4167 71.5 29.4112V13.75C71.5 9.2015 67.7985 5.5 63.25 5.5H19.25C14.7015 5.5 11 9.2015 11 13.75V68.75C11 73.2985 14.7015 77 19.25 77H46.6097L46.3127 76.1365C45.1165 72.6468 45.3502 68.9177 46.9645 65.6205L61.6385 35.5493ZM22 22H55C56.5207 22 57.75 23.232 57.75 24.75C57.75 26.268 56.5207 27.5 55 27.5H22C20.4793 27.5 19.25 26.268 19.25 24.75C19.25 23.232 20.4793 22 22 22ZM22 33H52.25C53.7707 33 55 34.232 55 35.75C55 37.268 53.7707 38.5 52.25 38.5H22C20.4793 38.5 19.25 37.268 19.25 35.75C19.25 34.232 20.4793 33 22 33ZM41.25 60.5H22C20.4793 60.5 19.25 59.268 19.25 57.75C19.25 56.232 20.4793 55 22 55H41.25C42.7707 55 44 56.232 44 57.75C44 59.268 42.7707 60.5 41.25 60.5ZM22 49.5C20.4793 49.5 19.25 48.268 19.25 46.75C19.25 45.232 20.4793 44 22 44H46.75C48.2707 44 49.5 45.232 49.5 46.75C49.5 48.268 48.2707 49.5 46.75 49.5H22ZM81.411 45.1962L66.7315 75.2785C65.7608 77.2613 64.0805 78.7463 61.9988 79.4613L56.7985 81.2488C56.5042 81.3505 56.199 81.4 55.9048 81.4C54.7635 81.4 53.6965 80.685 53.306 79.5437L51.5157 74.3435C50.798 72.2535 50.9383 70.015 51.9062 68.0377L66.5857 37.961C67.2265 36.641 68.3485 35.651 69.7372 35.1725C71.1232 34.694 72.6165 34.782 73.9365 35.431L78.881 37.8427C80.201 38.4862 81.191 39.6082 81.6695 40.997C82.148 42.3857 82.0573 43.8762 81.411 45.1962Z"
                    fill="url(#paint0_linear_3013_2254)" />
                  <defs>
                    <linearGradient id="paint0_linear_3013_2254" x1="46.4861" y1="5.5" x2="46.4861" y2="81.4"
                      gradientUnits="userSpaceOnUse">
                      <stop stop-color="#FFE59E" />
                      <stop offset="1" stop-color="#FFBC01" />
                    </linearGradient>
                  </defs>
                </svg>