<svg xmlns="http://www.w3.org/2000/svg" width="64" height="64" viewBox="0 0 64 64" fill="none">
                  <rect x="1.06667" y="1.06667" width="61.8667" height="61.8667" rx="13.6"
                    fill="url(#paint0_linear_2527_3612)" />
                  <rect x="1.06667" y="1.06667" width="61.8667" height="61.8667" rx="13.6" stroke="#000326"
                    stroke-width="2.13333" />
                  <path
                    d="M32.8594 44.8906C32.8594 45.3653 32.4747 45.75 32 45.75C31.5253 45.75 31.1406 45.3653 31.1406 44.8906C31.1406 44.416 31.5253 44.0312 32 44.0312C32.4747 44.0312 32.8594 44.416 32.8594 44.8906Z"
                    fill="#000326" />
                  <path
                    d="M51.1641 37.1562C51.1641 34.3129 48.8511 32 46.0078 32C43.1645 32 40.8516 34.3129 40.8516 37.1562C40.8516 39.9996 43.1645 42.3125 46.0078 42.3125C48.8511 42.3125 51.1641 39.9996 51.1641 37.1562ZM46.0078 40.5938C44.1125 40.5938 42.5703 39.0516 42.5703 37.1562C42.5703 35.2609 44.1125 33.7188 46.0078 33.7188C47.9031 33.7188 49.4453 35.2609 49.4453 37.1562C49.4453 39.0516 47.9031 40.5938 46.0078 40.5938Z"
                    fill="#000326" />
                  <path
                    d="M46.0078 42.3125C43.8423 42.3125 41.6827 43.2115 40.2117 44.6691C38.2755 42.1245 35.2898 40.5938 32 40.5938C28.8495 40.5938 25.7967 42.0312 23.7886 44.6691C22.3173 43.2118 20.1581 42.3125 17.9922 42.3125C13.6601 42.3125 10 45.8544 10 50.0469V51.7656C10 52.2403 10.3847 52.625 10.8594 52.625H53.1406C53.6153 52.625 54 52.2403 54 51.7656V50.0469C54 45.8544 50.3399 42.3125 46.0078 42.3125ZM11.7188 50.0469C11.7188 46.7859 14.5916 44.0312 17.9922 44.0312C19.8529 44.0312 21.6982 44.8557 22.8406 46.1663C22.0853 47.6252 21.6875 49.2513 21.6875 50.9062H11.7188V50.0469ZM32 42.3125C36.782 42.3125 40.5938 46.1924 40.5938 50.9062H23.4062C23.4062 46.1297 27.2959 42.3125 32 42.3125ZM52.2812 50.9062H42.3125C42.3125 49.2513 41.9147 47.6252 41.1594 46.1663C42.3018 44.8557 44.1471 44.0312 46.0078 44.0312C49.4084 44.0312 52.2812 46.7859 52.2812 50.0469V50.9062Z"
                    fill="#000326" />
                  <path
                    d="M23.1484 37.1562C23.1484 34.3129 20.8355 32 17.9922 32C15.1489 32 12.8359 34.3129 12.8359 37.1562C12.8359 39.9996 15.1489 42.3125 17.9922 42.3125C20.8355 42.3125 23.1484 39.9996 23.1484 37.1562ZM17.9922 40.5938C16.0969 40.5938 14.5547 39.0516 14.5547 37.1562C14.5547 35.2609 16.0969 33.7188 17.9922 33.7188C19.8875 33.7188 21.4297 35.2609 21.4297 37.1562C21.4297 39.0516 19.8875 40.5938 17.9922 40.5938Z"
                    fill="#000326" />
                  <path
                    d="M38.875 33.7188C38.875 29.9278 35.791 26.8438 32 26.8438C28.209 26.8438 25.125 29.9278 25.125 33.7188C25.125 37.5097 28.209 40.5938 32 40.5938C35.791 40.5938 38.875 37.5097 38.875 33.7188ZM32 38.875C29.1567 38.875 26.8438 36.5621 26.8438 33.7188C26.8438 30.8754 29.1567 28.5625 32 28.5625C34.8433 28.5625 37.1562 30.8754 37.1562 33.7188C37.1562 36.5621 34.8433 38.875 32 38.875Z"
                    fill="#000326" />
                  <path
                    d="M38.8012 16.3731C38.7001 16.062 38.4312 15.8354 38.1073 15.7884L34.4006 15.2502L32.7409 11.8571C32.5969 11.562 32.2974 11.375 31.9691 11.375C31.6408 11.375 31.3414 11.562 31.197 11.8567L29.5377 15.2502L25.831 15.788C25.507 15.835 25.2381 16.062 25.1371 16.3731C25.0361 16.6843 25.1203 17.0257 25.3546 17.254L28.0388 19.8701L27.4054 23.5644C27.35 23.8866 27.4826 24.2126 27.7475 24.4046C28.0106 24.5959 28.3611 24.6231 28.6525 24.4701L31.9691 22.7261L35.2871 24.4701C35.5765 24.6225 35.9273 24.597 36.1922 24.4046C36.4567 24.2122 36.5893 23.8866 36.5339 23.564L35.8998 19.8701L38.5836 17.254C38.8179 17.0257 38.9022 16.6843 38.8012 16.3731ZM34.3761 18.9546C34.1736 19.152 34.081 19.4367 34.129 19.7153L34.5449 22.1387L32.3689 20.9946C32.1185 20.863 31.8194 20.863 31.569 20.9946L29.3937 22.1387L29.8093 19.7153C29.8569 19.4363 29.7643 19.152 29.5619 18.9546L27.8015 17.2389L30.2336 16.8857C30.5149 16.8451 30.7576 16.6679 30.8822 16.4128L31.9691 14.1905L33.0558 16.4128C33.1806 16.6682 33.4234 16.8451 33.7043 16.8857L36.1368 17.2389L34.3761 18.9546Z"
                    fill="#000326" />
                  <path
                    d="M51.6461 22.8141C51.5451 22.5029 51.2762 22.2763 50.9523 22.2293L48.4409 21.8644L47.318 19.5884C47.1734 19.295 46.8749 19.1094 46.5476 19.1094C46.5476 19.1094 46.5476 19.1094 46.5473 19.1094C46.2203 19.1094 45.9216 19.295 45.7769 19.5884L44.6533 21.8644L42.1416 22.2293C41.818 22.2763 41.5491 22.5029 41.4481 22.8141C41.3467 23.1253 41.431 23.4667 41.6653 23.6949L43.4824 25.4671L43.0534 27.968C42.9983 28.2903 43.1306 28.6159 43.3955 28.8082C43.66 29.0006 44.0108 29.0261 44.3002 28.874L46.5473 27.6934L48.7937 28.874C49.0831 29.0261 49.4342 29.0006 49.6988 28.8082C49.9633 28.6162 50.0956 28.2903 50.0405 27.968L49.6115 25.4671L51.4289 23.6949C51.6632 23.4667 51.7472 23.1253 51.6461 22.8141ZM48.0885 24.552C47.8857 24.7494 47.7934 25.0337 47.8414 25.3123L48.0522 26.5423L46.9474 25.9619C46.697 25.8303 46.3979 25.8303 46.1478 25.9619L45.042 26.5426L45.2532 25.3123C45.3009 25.0337 45.2085 24.7494 45.0061 24.552L44.1118 23.6798L45.3475 23.5006C45.6275 23.46 45.8695 23.2841 45.9947 23.0306L46.5473 21.9111L47.0995 23.0303C47.2247 23.2841 47.4667 23.46 47.7467 23.5006L48.9824 23.6798L48.0885 24.552Z"
                    fill="#000326" />
                  <path
                    d="M22.4274 22.8141C22.3263 22.5029 22.0574 22.2763 21.7335 22.2293L19.2222 21.8644L18.0993 19.5884C17.9546 19.295 17.6562 19.1094 17.3289 19.1094C17.0016 19.1094 16.7028 19.295 16.5581 19.5884L15.4346 21.8644L12.9229 22.2293C12.5993 22.2763 12.3304 22.5029 12.2294 22.8141C12.128 23.1253 12.2122 23.4667 12.4465 23.6949L14.2637 25.4671L13.835 27.968C13.7796 28.2903 13.9122 28.6159 14.1767 28.8082C14.4412 29.0006 14.792 29.0261 15.0817 28.874L17.3285 27.6934L19.575 28.874C19.8664 29.0271 20.2168 28.9996 20.48 28.8082C20.7445 28.6162 20.8771 28.2903 20.8218 27.968L20.3927 25.4671L22.2102 23.6949C22.4445 23.4667 22.5284 23.1253 22.4274 22.8141ZM18.8694 24.552C18.6669 24.7494 18.5746 25.0337 18.6223 25.3123L18.8334 26.5423L17.7283 25.9619C17.4783 25.8303 17.1791 25.8303 16.9291 25.9619L15.8229 26.5426L16.0341 25.3123C16.0821 25.0337 15.9895 24.7494 15.787 24.552L14.8927 23.6798L16.1288 23.5006C16.4084 23.46 16.6504 23.2841 16.7756 23.0306L17.3282 21.9111L17.8804 23.0303C18.0056 23.2841 18.2477 23.46 18.5276 23.5006L19.7633 23.6798L18.8694 24.552Z"
                    fill="#000326" />
                  <path
                    d="M35.7658 45.157C35.369 44.8961 34.8363 45.0066 34.5758 45.4034C34.315 45.7998 34.4254 46.3326 34.8222 46.5934C35.6168 47.1154 36.2519 47.8432 36.6588 48.6979C36.8622 49.1259 37.3745 49.3088 37.8038 49.1044C38.2325 48.9006 38.4145 48.3877 38.2107 47.9593C37.6689 46.8207 36.8233 45.8515 35.7658 45.157Z"
                    fill="#000326" />
                  <defs>
                    <linearGradient id="paint0_linear_2527_3612" x1="32" y1="0" x2="32" y2="64"
                      gradientUnits="userSpaceOnUse">
                      <stop stop-color="#FFE59E" />
                      <stop offset="1" stop-color="#FFBC01" />
                    </linearGradient>
                  </defs>
                </svg>