<svg xmlns="http://www.w3.org/2000/svg" width="64" height="64" viewBox="0 0 64 64" fill="none">
                <rect x="1.06667" y="1.06667" width="61.8667" height="61.8667" rx="13.6"
                  fill="url(#paint0_linear_2524_2045)" />
                <rect x="1.06667" y="1.06667" width="61.8667" height="61.8667" rx="13.6" stroke="#000326"
                  stroke-width="2.13333" />
                <path
                  d="M49.2601 48.5832L43.694 38.9423C44.6171 38.1649 45.2552 37.0592 45.4256 35.8063C45.5414 34.9544 45.9796 34.1953 46.6594 33.6691C48.4218 32.3049 49.0632 29.9114 48.2191 27.8486C47.8934 27.0528 47.8934 26.1764 48.2191 25.3808C49.0632 23.318 48.4218 20.9246 46.6594 19.5603C45.9796 19.034 45.5413 18.275 45.4256 17.423C45.1252 15.2146 43.373 13.4624 41.1646 13.1622C40.3127 13.0463 39.5537 12.6082 39.0275 11.9283C37.6631 10.1658 35.2699 9.52451 33.2069 10.3686C32.4112 10.6943 31.5348 10.6943 30.7391 10.3686C28.6765 9.52443 26.2829 10.1658 24.9186 11.9283C24.3924 12.6082 23.6333 13.0463 22.7814 13.1622C20.5729 13.4625 18.8208 15.2146 18.5206 17.4231C18.4047 18.2751 17.9665 19.0341 17.2867 19.5604C15.5242 20.9247 14.8829 23.3181 15.727 25.3809C16.0527 26.1765 16.0527 27.053 15.727 27.8487C14.8828 29.9114 15.5242 32.3049 17.2867 33.6692C17.9665 34.1954 18.4047 34.9545 18.5206 35.8063C18.6932 37.0757 19.346 38.1937 20.2888 38.9725L14.74 48.5832C14.5662 48.8843 14.5908 49.2604 14.8025 49.5361C15.0141 49.8119 15.3709 49.9332 15.7069 49.8432L20.5434 48.5472L21.8338 53.3629C21.9238 53.6987 22.2072 53.9472 22.5518 53.9926C22.5895 53.9976 22.627 54 22.6642 54C22.9683 54 23.2535 53.8384 23.4083 53.5702L29.3958 43.1997C29.8498 43.1508 30.3019 43.0397 30.739 42.8607C31.5348 42.535 32.4113 42.535 33.2069 42.8607C33.6627 43.0473 34.1347 43.161 34.6082 43.2064L40.5917 53.5702C40.7466 53.8385 41.0317 54 41.3358 54C41.3731 54 41.4106 53.9976 41.4483 53.9926C41.793 53.9472 42.0764 53.6987 42.1664 53.3629L43.4568 48.5472L48.2933 49.8432C48.6289 49.9332 48.986 49.812 49.1976 49.5361C49.4092 49.2604 49.4339 48.8843 49.2601 48.5832ZM22.9571 50.9138L21.9813 47.2721C21.9222 47.0519 21.7783 46.8642 21.5808 46.7502C21.3834 46.6363 21.1489 46.6054 20.9286 46.6644L17.2662 47.6457L21.7823 39.8236C22.1016 39.9378 22.4359 40.0202 22.7813 40.0672C23.6333 40.1831 24.3923 40.6213 24.9186 41.3011C25.5865 42.164 26.5013 42.7575 27.503 43.0401L22.9571 50.9138ZM30.0879 41.2699C28.7377 41.8225 27.171 41.4026 26.2779 40.249C25.4739 39.2104 24.3143 38.5408 23.0129 38.3639C21.5673 38.1674 20.4203 37.0205 20.2238 35.5748C20.0468 34.2733 19.3773 33.1138 18.3387 32.3098C17.185 31.4167 16.7652 29.8499 17.3178 28.4997C17.8153 27.2841 17.8153 25.9453 17.3178 24.7297C16.7652 23.3795 17.185 21.8127 18.3387 20.9197C19.3773 20.1157 20.0468 18.9562 20.2238 17.6547C20.4203 16.2091 21.5673 15.0621 23.0129 14.8655C24.3143 14.6886 25.4739 14.0191 26.2779 12.9805C26.9077 12.1668 27.8723 11.7182 28.8601 11.7182C29.2729 11.7182 29.6899 11.7967 30.0878 11.9596C31.3035 12.4571 32.6424 12.4571 33.8579 11.9596C35.208 11.4069 36.7749 11.8268 37.668 12.9805C38.4719 14.0191 39.6314 14.6886 40.9328 14.8655C42.3784 15.0621 43.5254 16.209 43.722 17.6547C43.8989 18.9562 44.5684 20.1157 45.607 20.9197C46.7608 21.8127 47.1805 23.3794 46.628 24.7297C46.1305 25.9453 46.1305 27.2841 46.628 28.4997C47.1805 29.8499 46.7607 31.4167 45.607 32.3098C44.5684 33.1137 43.8989 34.2732 43.722 35.5747C43.5254 37.0204 42.3784 38.1674 40.9329 38.3639C39.6313 38.5407 38.4719 39.2102 37.6679 40.2489C36.7748 41.4027 35.208 41.8224 33.8579 41.2698C32.6423 40.7724 31.3036 40.7724 30.0879 41.2699ZM43.0714 46.6644C42.6127 46.5414 42.1417 46.8137 42.0188 47.2721L41.0429 50.9138L36.4892 43.0265C37.4728 42.7387 38.3697 42.1507 39.0274 41.3011C39.5536 40.6212 40.3127 40.183 41.1645 40.0672C41.5261 40.0181 41.8752 39.9293 42.208 39.8066L46.7338 47.6457L43.0714 46.6644Z"
                  fill="#000326" />
                <path
                  d="M28.067 23.4356L25.3929 26.1097C25.2317 26.2708 25.1411 26.4895 25.1411 26.7174C25.1411 26.9454 25.2317 27.164 25.3929 27.3252L30.4083 32.3407C30.5695 32.5019 30.7882 32.5925 31.0161 32.5925C31.244 32.5925 31.4627 32.5019 31.6239 32.3407L38.6073 25.3573C38.943 25.0216 38.943 24.4774 38.6073 24.1417L35.9332 21.4676C35.772 21.3064 35.5534 21.2158 35.3255 21.2158C35.0975 21.2158 34.8789 21.3064 34.7177 21.4676L31.0162 25.1692L29.2827 23.4357C29.1216 23.2745 28.9029 23.1839 28.675 23.1839C28.4469 23.1838 28.2282 23.2744 28.067 23.4356ZM30.4083 26.9925C30.5694 27.1536 30.7881 27.2442 31.016 27.2442C31.2439 27.2442 31.4626 27.1536 31.6238 26.9925L35.3253 23.2908L36.784 24.7495L31.016 30.5175L27.2161 26.7175L28.6748 25.2589L30.4083 26.9925Z"
                  fill="#000326" />
                <path
                  d="M43.1736 26.9039C43.1736 24.6207 42.4894 22.4248 41.1949 20.5537C39.9309 18.7266 38.175 17.3295 36.1171 16.5135C35.6757 16.3386 35.1763 16.5544 35.0013 16.9957C34.8263 17.4369 35.0423 17.9365 35.4834 18.1115C39.1108 19.5499 41.4547 23.0011 41.4547 26.9039C41.4547 32.1171 37.2134 36.3584 32.0001 36.3584C26.7869 36.3584 22.5456 32.1171 22.5456 26.9039C22.5456 23.001 24.8894 19.5498 28.5168 18.1114C28.9581 17.9364 29.174 17.4368 28.999 16.9956C28.824 16.5543 28.3244 16.3384 27.8832 16.5134C25.8253 17.3295 24.0694 18.7265 22.8053 20.5536C21.5108 22.4247 20.8265 24.6206 20.8265 26.9038C20.8265 33.0649 25.839 38.0774 32.0001 38.0774C38.1612 38.0775 43.1736 33.065 43.1736 26.9039Z"
                  fill="#000326" />
                <path
                  d="M32 17.449C32.2261 17.449 32.4478 17.3579 32.6076 17.1972C32.7675 17.0373 32.8595 16.8164 32.8595 16.5895C32.8595 16.3634 32.7675 16.1417 32.6076 15.9818C32.4478 15.8219 32.2261 15.73 32 15.73C31.774 15.73 31.5522 15.8219 31.3923 15.9818C31.2325 16.1417 31.1405 16.3634 31.1405 16.5895C31.1405 16.8164 31.2325 17.0373 31.3923 17.1972C31.5522 17.3579 31.774 17.449 32 17.449Z"
                  fill="#000326" />
                <defs>
                  <linearGradient id="paint0_linear_2524_2045" x1="32" y1="0" x2="32" y2="64"
                    gradientUnits="userSpaceOnUse">
                    <stop stop-color="#FFE59E" />
                    <stop offset="1" stop-color="#FFBC01" />
                  </linearGradient>
                </defs>
              </svg>