<svg xmlns="http://www.w3.org/2000/svg" width="88" height="88" viewBox="0 0 88 88" fill="none">
                  <path
                    d="M36.5585 20.4498L38.7668 26.5823C41.2198 33.3886 46.5795 38.7483 53.3858 41.2013L59.5183 43.4096C60.071 43.6103 60.071 44.3941 59.5183 44.5921L53.3858 46.8003C46.5795 49.2533 41.2198 54.6131 38.7668 61.4193L36.5585 67.5518C36.3578 68.1046 35.574 68.1046 35.376 67.5518L33.1678 61.4193C30.7148 54.6131 25.355 49.2533 18.5488 46.8003L12.4163 44.5921C11.8635 44.3913 11.8635 43.6076 12.4163 43.4096L18.5488 41.2013C25.355 38.7483 30.7148 33.3886 33.1678 26.5823L35.376 20.4498C35.574 19.8943 36.3578 19.8943 36.5585 20.4498Z"
                    fill="url(#paint0_linear_3034_2013)" />
                  <path
                    d="M64.163 5.71244L65.2822 8.81719C66.5252 12.2629 69.2394 14.9772 72.6852 16.2202L75.7899 17.3394C76.0704 17.4412 76.0704 17.8372 75.7899 17.9389L72.6852 19.0582C69.2394 20.3012 66.5252 23.0154 65.2822 26.4612L64.163 29.5659C64.0612 29.8464 63.6652 29.8464 63.5635 29.5659L62.4442 26.4612C61.2012 23.0154 58.4869 20.3012 55.0412 19.0582L51.9364 17.9389C51.6559 17.8372 51.6559 17.4412 51.9364 17.3394L55.0412 16.2202C58.4869 14.9772 61.2012 12.2629 62.4442 8.81719L63.5635 5.71244C63.6652 5.42919 64.064 5.42919 64.163 5.71244Z"
                    fill="url(#paint1_linear_3034_2013)" />
                  <path
                    d="M64.163 58.4389L65.2822 61.5436C66.5252 64.9894 69.2394 67.7036 72.6852 68.9466L75.7899 70.0659C76.0704 70.1676 76.0704 70.5636 75.7899 70.6654L72.6852 71.7846C69.2394 73.0276 66.5252 75.7419 65.2822 79.1876L64.163 82.2924C64.0612 82.5729 63.6652 82.5729 63.5635 82.2924L62.4442 79.1876C61.2012 75.7419 58.4869 73.0276 55.0412 71.7846L51.9364 70.6654C51.6559 70.5636 51.6559 70.1676 51.9364 70.0659L55.0412 68.9466C58.4869 67.7036 61.2012 64.9894 62.4442 61.5436L63.5635 58.4389C63.6652 58.1584 64.064 58.1584 64.163 58.4389Z"
                    fill="url(#paint2_linear_3034_2013)" />
                  <defs>
                    <linearGradient id="paint0_linear_3034_2013" x1="35.9673" y1="20.0332" x2="35.9673" y2="67.9664"
                      gradientUnits="userSpaceOnUse">
                      <stop stop-color="#FFE59E" />
                      <stop offset="1" stop-color="#FFBC01" />
                    </linearGradient>
                    <linearGradient id="paint1_linear_3034_2013" x1="63.8632" y1="5.5" x2="63.8632" y2="29.7763"
                      gradientUnits="userSpaceOnUse">
                      <stop stop-color="#FFE59E" />
                      <stop offset="1" stop-color="#FFBC01" />
                    </linearGradient>
                    <linearGradient id="paint2_linear_3034_2013" x1="63.8632" y1="58.2285" x2="63.8632" y2="82.5028"
                      gradientUnits="userSpaceOnUse">
                      <stop stop-color="#FFE59E" />
                      <stop offset="1" stop-color="#FFBC01" />
                    </linearGradient>
                  </defs>
                </svg>