<svg xmlns="http://www.w3.org/2000/svg" width="64" height="64" viewBox="0 0 64 64" fill="none">
                  <rect x="1.06667" y="1.06667" width="61.8667" height="61.8667" rx="13.6"
                    fill="url(#paint0_linear_2527_3636)" />
                  <rect x="1.06667" y="1.06667" width="61.8667" height="61.8667" rx="13.6" stroke="#000326"
                    stroke-width="2.13333" />
                  <path
                    d="M18.8163 47.0015C18.3918 47.0013 17.9847 46.8327 17.6845 46.5325C17.3844 46.2323 17.2157 45.8252 17.2156 45.4007V40.5995C17.2156 40.3115 17.2934 40.0289 17.4406 39.7814C17.5878 39.5339 17.799 39.3307 18.0521 39.1932C18.3051 39.0558 18.5905 38.9891 18.8783 39.0002C19.166 39.0114 19.4454 39.0999 19.6871 39.2566L23.3888 41.6572C23.6123 41.8026 23.796 42.0014 23.9232 42.2358C24.0503 42.4702 24.1169 42.7326 24.1169 42.9992C24.1169 43.2659 24.0503 43.5283 23.9232 43.7626C23.796 43.997 23.6123 44.1959 23.3888 44.3412L19.6871 46.7419C19.428 46.9106 19.1255 47.0008 18.8163 47.0015ZM18.8189 40.4041C18.7864 40.4044 18.7544 40.4131 18.7261 40.4292C18.6949 40.4448 18.6689 40.469 18.651 40.4989C18.6332 40.5289 18.6243 40.5633 18.6253 40.5981V45.4007C18.6254 45.4354 18.6348 45.4694 18.6525 45.4991C18.6702 45.5289 18.6957 45.5533 18.7261 45.5698C18.7565 45.5863 18.7909 45.5943 18.8255 45.593C18.8601 45.5917 18.8937 45.581 18.9228 45.5622L22.6245 43.1616C22.6514 43.1441 22.6735 43.1201 22.6887 43.0919C22.704 43.0637 22.712 43.0322 22.712 43.0001C22.712 42.968 22.704 42.9365 22.6887 42.9083C22.6735 42.8801 22.6514 42.8561 22.6245 42.8386L18.9228 40.438C18.8922 40.4168 18.8561 40.405 18.8189 40.4041Z"
                    fill="#000326" />
                  <path
                    d="M20.667 50.3043C16.6397 50.3043 13.363 47.0276 13.363 43.0003C13.363 38.973 16.6397 35.6963 20.667 35.6963C24.6944 35.6963 27.971 38.973 27.971 43.0003C27.971 47.0276 24.6944 50.3043 20.667 50.3043ZM20.667 37.1043C17.4159 37.1043 14.771 39.7491 14.771 43.0003C14.771 46.2514 17.4159 48.8963 20.667 48.8963C23.9182 48.8963 26.563 46.2514 26.563 43.0003C26.563 39.7491 23.9182 37.1043 20.667 37.1043Z"
                    fill="#000326" />
                  <path
                    d="M45.6085 50.3016C44.8547 50.3018 44.1139 50.1056 43.4591 49.7323C43.1267 49.7815 42.7911 49.8062 42.455 49.8062C41.5878 49.81 40.7283 49.6428 39.9258 49.3141C39.1233 48.9853 38.3935 48.5016 37.7782 47.8904C36.3034 46.4156 35.6253 44.3097 35.9364 42.2096C35.4639 41.3802 35.2768 40.4185 35.4041 39.4724C35.5314 38.5263 35.966 37.6483 36.641 36.9732C37.3159 36.2982 38.194 35.8636 39.14 35.7362C40.0861 35.6089 41.0478 35.7958 41.8773 36.2683C43.9774 35.9572 46.0832 36.6352 47.5581 38.1101C49.033 39.585 49.711 41.6895 49.3991 43.7923C49.7767 44.4553 49.9736 45.2059 49.97 45.9689C49.9664 46.7319 49.7624 47.4806 49.3785 48.14C48.9946 48.7994 48.4442 49.3464 47.7824 49.7263C47.1206 50.1061 46.3706 50.3054 45.6076 50.3043L45.6085 50.3016ZM43.6003 48.2913C43.7385 48.2912 43.8737 48.3319 43.9888 48.4083C44.5559 48.7852 45.236 48.9542 45.9135 48.8865C46.591 48.8189 47.2243 48.5188 47.7056 48.0372C48.187 47.5557 48.4868 46.9223 48.5542 46.2447C48.6215 45.5672 48.4523 44.8872 48.0751 44.3203C47.9735 44.1674 47.9359 43.9809 47.9704 43.8006C48.2982 42.0684 47.772 40.3123 46.5624 39.1028C45.3528 37.8932 43.5968 37.3674 41.865 37.6948C41.6856 37.729 41.4999 37.6923 41.3471 37.5922C40.78 37.2143 40.0996 37.0445 39.4215 37.1117C38.7433 37.1789 38.1094 37.4789 37.6276 37.9608C37.1457 38.4426 36.8457 39.0765 36.7785 39.7546C36.7113 40.4328 36.8811 41.1132 37.259 41.6803C37.3604 41.8333 37.398 42.02 37.3638 42.2004C37.036 43.9322 37.5618 45.6882 38.7718 46.8978C39.9818 48.1074 41.7374 48.6336 43.4696 48.3058C43.5126 48.2968 43.5564 48.292 43.6003 48.2913Z"
                    fill="#000326" />
                  <path
                    d="M42.667 47.0041C42.0429 47.0034 41.4445 46.7552 41.0032 46.3139C40.5619 45.8725 40.3137 45.2742 40.313 44.6501C40.313 44.4634 40.3872 44.2843 40.5192 44.1523C40.6512 44.0203 40.8303 43.9461 41.017 43.9461C41.2037 43.9461 41.3828 44.0203 41.5148 44.1523C41.6468 44.2843 41.721 44.4634 41.721 44.6501C41.721 44.8372 41.7765 45.0201 41.8804 45.1757C41.9844 45.3312 42.1321 45.4525 42.305 45.5241C42.4778 45.5957 42.668 45.6144 42.8515 45.5779C43.0351 45.5414 43.2036 45.4513 43.3359 45.319C43.4682 45.1867 43.5583 45.0182 43.5948 44.8347C43.6313 44.6511 43.6126 44.4609 43.541 44.2881C43.4694 44.1152 43.3481 43.9675 43.1926 43.8635C43.037 43.7596 42.8541 43.7041 42.667 43.7041C42.2014 43.7041 41.7463 43.566 41.3592 43.3074C40.9721 43.0487 40.6703 42.6811 40.4922 42.2509C40.314 41.8208 40.2674 41.3475 40.3582 40.8909C40.4491 40.4342 40.6732 40.0148 41.0025 39.6856C41.3317 39.3564 41.7511 39.1322 42.2077 39.0413C42.6644 38.9505 43.1377 38.9971 43.5678 39.1753C43.998 39.3535 44.3656 39.6552 44.6243 40.0423C44.8829 40.4294 45.021 40.8845 45.021 41.3501C45.021 41.5368 44.9468 41.7159 44.8148 41.8479C44.6828 41.9799 44.5037 42.0541 44.317 42.0541C44.1303 42.0541 43.9512 41.9799 43.8192 41.8479C43.6872 41.7159 43.613 41.5368 43.613 41.3501C43.613 41.163 43.5575 40.9801 43.4536 40.8245C43.3496 40.669 43.2019 40.5477 43.029 40.4761C42.8561 40.4045 42.6659 40.3858 42.4824 40.4223C42.2989 40.4588 42.1304 40.5489 41.9981 40.6812C41.8658 40.8135 41.7757 40.982 41.7392 41.1655C41.7027 41.349 41.7214 41.5393 41.793 41.7121C41.8646 41.885 41.9859 42.0327 42.1414 42.1367C42.297 42.2406 42.4799 42.2961 42.667 42.2961C43.2913 42.2961 43.8901 42.5441 44.3315 42.9856C44.773 43.427 45.021 44.0258 45.021 44.6501C45.021 45.2744 44.773 45.8732 44.3315 46.3146C43.8901 46.7561 43.2913 47.0041 42.667 47.0041Z"
                    fill="#000326" />
                  <path
                    d="M23.48 28.3043H17.8541C16.6634 28.3029 15.5219 27.8293 14.68 26.9873C13.838 26.1454 13.3644 25.0039 13.363 23.8132V18.1874C13.3644 16.9967 13.838 15.8552 14.68 15.0132C15.5219 14.1713 16.6634 13.6977 17.8541 13.6963H23.48C24.6706 13.6977 25.8121 14.1713 26.6541 15.0132C27.496 15.8552 27.9696 16.9967 27.971 18.1874V23.8132C27.9696 25.0039 27.496 26.1454 26.6541 26.9873C25.8121 27.8293 24.6706 28.3029 23.48 28.3043ZM17.8541 15.1043C17.0367 15.1052 16.2531 15.4303 15.6751 16.0083C15.0971 16.5863 14.772 17.37 14.771 18.1874V23.8132C14.772 24.6306 15.0971 25.4143 15.6751 25.9922C16.2531 26.5702 17.0367 26.8954 17.8541 26.8963H23.48C24.2974 26.8954 25.081 26.5702 25.659 25.9922C26.237 25.4143 26.5621 24.6306 26.563 23.8132V18.1874C26.5621 17.37 26.237 16.5863 25.659 16.0083C25.081 15.4303 24.2974 15.1052 23.48 15.1043H17.8541Z"
                    fill="#000326" />
                  <path
                    d="M20.6669 23.9037C20.0926 23.9037 19.5311 23.7334 19.0536 23.4143C18.576 23.0952 18.2038 22.6417 17.984 22.111C17.7642 21.5804 17.7067 20.9965 17.8187 20.4332C17.9308 19.8698 18.2074 19.3524 18.6135 18.9463C19.0196 18.5401 19.5371 18.2636 20.1004 18.1515C20.6637 18.0395 21.2476 18.097 21.7783 18.3168C22.3089 18.5366 22.7624 18.9088 23.0815 19.3863C23.4006 19.8639 23.5709 20.4253 23.5709 20.9997C23.57 21.7696 23.2638 22.5077 22.7193 23.0521C22.1749 23.5965 21.4368 23.9028 20.6669 23.9037ZM20.6669 19.5037C20.3711 19.5037 20.0818 19.5914 19.8358 19.7558C19.5898 19.9202 19.398 20.1539 19.2848 20.4272C19.1716 20.7006 19.142 21.0014 19.1997 21.2916C19.2574 21.5818 19.3999 21.8483 19.6091 22.0575C19.8183 22.2668 20.0849 22.4092 20.3751 22.467C20.6653 22.5247 20.9661 22.4951 21.2394 22.3818C21.5128 22.2686 21.7464 22.0769 21.9108 21.8308C22.0752 21.5848 22.1629 21.2956 22.1629 20.9997C22.1629 20.8032 22.1242 20.6087 22.0491 20.4272C21.9739 20.2457 21.8637 20.0808 21.7248 19.9419C21.5859 19.803 21.4209 19.6928 21.2394 19.6176C21.0579 19.5424 20.8634 19.5037 20.6669 19.5037Z"
                    fill="#000326" />
                  <path
                    d="M24.3085 18.1424H24.0885C23.9018 18.1424 23.7227 18.0682 23.5907 17.9362C23.4587 17.8042 23.3845 17.6251 23.3845 17.4384C23.3845 17.2517 23.4587 17.0726 23.5907 16.9406C23.7227 16.8085 23.9018 16.7344 24.0885 16.7344H24.3085C24.4952 16.7344 24.6743 16.8085 24.8063 16.9406C24.9383 17.0726 25.0125 17.2517 25.0125 17.4384C25.0125 17.6251 24.9383 17.8042 24.8063 17.9362C24.6743 18.0682 24.4952 18.1424 24.3085 18.1424Z"
                    fill="#000326" />
                  <path
                    d="M49.267 28.3043H36.067C35.8803 28.3043 35.7013 28.2301 35.5692 28.0981C35.4372 27.9661 35.363 27.787 35.363 27.6003V14.4003C35.363 14.2136 35.4372 14.0345 35.5692 13.9025C35.7013 13.7705 35.8803 13.6963 36.067 13.6963H49.267C49.4537 13.6963 49.6328 13.7705 49.7648 13.9025C49.8969 14.0345 49.971 14.2136 49.971 14.4003V27.6003C49.971 27.787 49.8969 27.9661 49.7648 28.0981C49.6328 28.2301 49.4537 28.3043 49.267 28.3043ZM36.771 26.8963H48.563V15.1043H36.771V26.8963Z"
                    fill="#000326" />
                  <path
                    d="M42.2533 25.5543C42.0666 25.5543 41.8875 25.4801 41.7555 25.3481C41.6235 25.2161 41.5493 25.037 41.5493 24.8503V18.1451C41.5499 17.6947 41.7291 17.2628 42.0477 16.9444C42.3663 16.6259 42.7981 16.4468 43.2486 16.4463H45.0966C45.2833 16.4463 45.4624 16.5205 45.5944 16.6525C45.7264 16.7845 45.8006 16.9636 45.8006 17.1503C45.8006 17.337 45.7264 17.5161 45.5944 17.6481C45.4624 17.7801 45.2833 17.8543 45.0966 17.8543H43.2486C43.1715 17.8544 43.0975 17.8851 43.0429 17.9396C42.9883 17.9941 42.9575 18.068 42.9573 18.1451V24.8503C42.9573 25.037 42.8831 25.2161 42.7511 25.3481C42.6191 25.4801 42.44 25.5543 42.2533 25.5543Z"
                    fill="#000326" />
                  <path
                    d="M44.2716 21.8719H40.2355C40.0488 21.8719 39.8697 21.7977 39.7377 21.6657C39.6057 21.5336 39.5315 21.3546 39.5315 21.1679C39.5315 20.9812 39.6057 20.8021 39.7377 20.6701C39.8697 20.538 40.0488 20.4639 40.2355 20.4639H44.2716C44.4583 20.4639 44.6374 20.538 44.7694 20.6701C44.9014 20.8021 44.9756 20.9812 44.9756 21.1679C44.9756 21.3546 44.9014 21.5336 44.7694 21.6657C44.6374 21.7977 44.4583 21.8719 44.2716 21.8719Z"
                    fill="#000326" />
                  <path
                    d="M20.0014 37.1375C19.8147 37.1375 19.6356 37.0633 19.5036 36.9313C19.3715 36.7993 19.2974 36.6202 19.2974 36.4335V27.6005C19.2974 27.4138 19.3715 27.2347 19.5036 27.1027C19.6356 26.9707 19.8147 26.8965 20.0014 26.8965C20.1881 26.8965 20.3671 26.9707 20.4992 27.1027C20.6312 27.2347 20.7054 27.4138 20.7054 27.6005V36.4335C20.7054 36.6202 20.6312 36.7993 20.4992 36.9313C20.3671 37.0633 20.1881 37.1375 20.0014 37.1375Z"
                    fill="#000326" />
                  <path
                    d="M36.5677 43.7039H27.267C27.0803 43.7039 26.9012 43.6297 26.7692 43.4977C26.6372 43.3657 26.563 43.1866 26.563 42.9999C26.563 42.8132 26.6372 42.6341 26.7692 42.5021C26.9012 42.3701 27.0803 42.2959 27.267 42.2959H36.5677C36.7544 42.2959 36.9335 42.3701 37.0655 42.5021C37.1975 42.6341 37.2717 42.8132 37.2717 42.9999C37.2717 43.1866 37.1975 43.3657 37.0655 43.4977C36.9335 43.6297 36.7544 43.7039 36.5677 43.7039Z"
                    fill="#000326" />
                  <path
                    d="M42.2533 37.6325C42.0666 37.6325 41.8875 37.5583 41.7555 37.4263C41.6235 37.2943 41.5493 37.1152 41.5493 36.9285V27.6005C41.5493 27.4138 41.6235 27.2347 41.7555 27.1027C41.8875 26.9707 42.0666 26.8965 42.2533 26.8965C42.44 26.8965 42.6191 26.9707 42.7511 27.1027C42.8831 27.2347 42.9573 27.4138 42.9573 27.6005V36.9285C42.9573 37.1152 42.8831 37.2943 42.7511 37.4263C42.6191 37.5583 42.44 37.6325 42.2533 37.6325Z"
                    fill="#000326" />
                  <path
                    d="M36.067 21.7039H27.267C27.0803 21.7039 26.9012 21.6297 26.7692 21.4977C26.6372 21.3657 26.563 21.1866 26.563 20.9999C26.563 20.8132 26.6372 20.6341 26.7692 20.5021C26.9012 20.3701 27.0803 20.2959 27.267 20.2959H36.067C36.2537 20.2959 36.4328 20.3701 36.5648 20.5021C36.6968 20.6341 36.771 20.8132 36.771 20.9999C36.771 21.1866 36.6968 21.3657 36.5648 21.4977C36.4328 21.6297 36.2537 21.7039 36.067 21.7039Z"
                    fill="#000326" />
                  <defs>
                    <linearGradient id="paint0_linear_2527_3636" x1="32" y1="0" x2="32" y2="64"
                      gradientUnits="userSpaceOnUse">
                      <stop stop-color="#FFE59E" />
                      <stop offset="1" stop-color="#FFBC01" />
                    </linearGradient>
                  </defs>
                </svg>