<svg xmlns="http://www.w3.org/2000/svg" width="64" height="64" viewBox="0 0 64 64" fill="none">
                  <rect x="1.06667" y="1.06667" width="61.8667" height="61.8667" rx="13.6"
                    fill="url(#paint0_linear_2686_888)" />
                  <rect x="1.06667" y="1.06667" width="61.8667" height="61.8667" rx="13.6" stroke="#000326"
                    stroke-width="2.13333" />
                  <path
                    d="M28.7672 42.1121L15.0172 35.8621C14.5535 35.6509 14.0047 35.7434 13.6372 36.0959C13.2672 36.4484 13.1497 36.9909 13.3397 37.4646L15.6547 43.2509L13.3397 49.0371C13.151 49.5108 13.2672 50.0521 13.6372 50.4059C13.8735 50.6321 14.1847 50.7508 14.4997 50.7508C14.6747 50.7508 14.851 50.7146 15.0172 50.6383L28.7672 44.3884C29.2122 44.1859 29.4997 43.7409 29.4997 43.2509C29.4997 42.7609 29.2135 42.3146 28.7672 42.1121ZM16.816 47.0746L18.1597 43.7146C18.2785 43.4171 18.2785 43.0846 18.1597 42.7871L16.816 39.4271L25.2272 43.2521L16.816 47.0771V47.0746Z"
                    fill="#000326" />
                  <path
                    d="M43.25 28.25C47.3862 28.25 50.75 24.8862 50.75 20.75C50.75 16.6137 47.3862 13.25 43.25 13.25C39.1137 13.25 35.75 16.6137 35.75 20.75C35.75 24.8862 39.1137 28.25 43.25 28.25ZM43.25 15.75C46.0075 15.75 48.25 17.9925 48.25 20.75C48.25 23.5075 46.0075 25.75 43.25 25.75C40.4925 25.75 38.25 23.5075 38.25 20.75C38.25 17.9925 40.4925 15.75 43.25 15.75Z"
                    fill="#000326" />
                  <path
                    d="M43.875 30.7503H20.125C17.7125 30.7503 15.75 28.7878 15.75 26.3753C15.75 23.9628 17.7125 22.0003 20.125 22.0003H30.2325L29.8663 22.3666C29.3775 22.8553 29.3775 23.6453 29.8663 24.1341C30.11 24.3778 30.43 24.5003 30.75 24.5003C31.07 24.5003 31.39 24.3778 31.6337 24.1341L34.1338 21.6341C34.6225 21.1453 34.6225 20.3553 34.1338 19.8666L31.6337 17.3666C31.145 16.8778 30.355 16.8778 29.8663 17.3666C29.3775 17.8553 29.3775 18.6453 29.8663 19.1341L30.2325 19.5003H20.125C16.335 19.5003 13.25 22.5841 13.25 26.3753C13.25 30.1666 16.335 33.2503 20.125 33.2503H43.875C46.2875 33.2503 48.25 35.2128 48.25 37.6253C48.25 40.0378 46.2875 42.0003 43.875 42.0003H32C31.3088 42.0003 30.75 42.5591 30.75 43.2503C30.75 43.9416 31.3088 44.5003 32 44.5003H43.875C47.665 44.5003 50.75 41.4153 50.75 37.6253C50.75 33.8353 47.665 30.7503 43.875 30.7503Z"
                    fill="#000326" />
                  <path
                    d="M43.25 24.5C45.3175 24.5 47 22.8175 47 20.75C47 18.6825 45.3175 17 43.25 17C41.1825 17 39.5 18.6825 39.5 20.75C39.5 22.8175 41.1825 24.5 43.25 24.5ZM43.25 19.5C43.94 19.5 44.5 20.0612 44.5 20.75C44.5 21.4387 43.94 22 43.25 22C42.56 22 42 21.4387 42 20.75C42 20.0612 42.56 19.5 43.25 19.5Z"
                    fill="#000326" />
                  <defs>
                    <linearGradient id="paint0_linear_2686_888" x1="32" y1="0" x2="32" y2="64"
                      gradientUnits="userSpaceOnUse">
                      <stop stop-color="#FFE59E" />
                      <stop offset="1" stop-color="#FFBC01" />
                    </linearGradient>
                  </defs>
                </svg>