<svg xmlns="http://www.w3.org/2000/svg" width="64" height="64" viewBox="0 0 64 64" fill="none">
                  <rect x="1.06667" y="1.06667" width="61.8667" height="61.8667" rx="13.6"
                    fill="url(#paint0_linear_2520_988)" />
                  <rect x="1.06667" y="1.06667" width="61.8667" height="61.8667" rx="13.6" stroke="#000326"
                    stroke-width="2.13333" />
                  <g clip-path="url(#clip0_2520_988)">
                    <path
                      d="M53.7684 39.5755L47.156 32.962C48.7535 30.8569 49.7509 28.3335 50.0067 25.6879C50.3199 22.4411 49.5112 19.1607 47.7293 16.4506C47.5336 16.1532 47.1338 16.0706 46.8367 16.2664C46.5393 16.4621 46.4567 16.8619 46.6524 17.1593C50.0245 22.2873 49.3172 29.1647 44.9706 33.5116C39.8939 38.5886 31.6342 38.5886 26.5579 33.5116C21.4812 28.4345 21.4812 20.1735 26.5579 15.0965C31.6342 10.0194 39.8943 10.0194 44.9689 15.0948L45.0042 15.1304C45.2553 15.3828 45.6631 15.3845 45.9156 15.1334C46.1684 14.8826 46.1697 14.4744 45.9189 14.222L45.882 14.1847C40.3028 8.60517 31.2253 8.60517 25.6461 14.1847C25.4709 14.36 25.3014 14.5385 25.1372 14.7205H10.978C10.6222 14.7205 10.3335 15.0092 10.3335 15.365V18.2157C10.3335 18.5719 10.6222 18.8606 10.978 18.8606C11.3342 18.8606 11.6226 18.5719 11.6226 18.2157V16.0099H24.1033C23.6108 16.7017 23.1872 17.4275 22.8323 18.1785H14.8022C14.4464 18.1785 14.1577 18.4668 14.1577 18.823C14.1577 19.1792 14.4464 19.4675 14.8022 19.4675H22.2989C22.114 19.9852 21.9599 20.5112 21.8363 21.0433H14.8022C14.4464 21.0433 14.1577 21.3316 14.1577 21.6878C14.1577 22.0436 14.4464 22.3323 14.8022 22.3323H21.598C21.5258 22.855 21.4825 23.381 21.4681 23.9077H14.8022C14.4464 23.9077 14.1577 24.1964 14.1577 24.5526C14.1577 24.9084 14.4464 25.1971 14.8022 25.1971H21.4906C21.6067 27.0696 22.0871 28.9233 22.9334 30.641H21.8494C21.4933 30.641 21.2049 30.9297 21.2049 31.2859V50.3667C21.2049 50.7229 21.4933 51.0116 21.8494 51.0116H27.0057C27.3618 51.0116 27.6502 50.7229 27.6502 50.3667V36.0927C28.2306 36.4925 28.8339 36.845 29.4549 37.1495V50.3667C29.4549 50.7229 29.7436 51.0116 30.0994 51.0116H35.2557C35.6118 51.0116 35.9002 50.7229 35.9002 50.3667V38.6067C36.4027 38.6017 36.9046 38.5711 37.4044 38.514V48.4704C37.4044 48.8265 37.6928 49.1152 38.049 49.1152C38.4048 49.1152 38.6935 48.8265 38.6935 48.4704V38.3066C40.7308 37.8836 42.6929 37.0142 44.4217 35.6979L51.0329 42.3101C51.3984 42.6753 51.8842 42.8767 52.4005 42.8767C52.9171 42.8767 53.4029 42.6753 53.7681 42.3101C54.5217 41.5568 54.5221 40.3301 53.7684 39.5755ZM26.3611 49.7222H22.494V31.9304H23.6551C24.2127 32.8157 24.876 33.6529 25.6461 34.4233C25.8784 34.6556 26.1174 34.8775 26.3611 35.0903V49.7222ZM30.7443 49.7222V37.704C31.9944 38.1703 33.2969 38.4556 34.6115 38.561V49.7222H30.7443ZM52.857 41.3983C52.7352 41.5202 52.573 41.5873 52.4008 41.5873C52.2286 41.5873 52.0665 41.5202 51.945 41.3983L45.4154 34.8684C45.5735 34.7237 45.7293 34.576 45.882 34.4233C46.0344 34.2709 46.1828 34.1155 46.3275 33.9567L52.8564 40.4869C53.1078 40.7383 53.1081 41.1476 52.857 41.3983Z"
                      fill="#000326" />
                    <path
                      d="M38.049 50.6051C37.6931 50.6051 37.4044 50.8934 37.4044 51.2496V52.7109H11.6226V21.0094C11.6226 20.6532 11.3342 20.3649 10.978 20.3649C10.6222 20.3649 10.3335 20.6532 10.3335 21.0094V53.3554C10.3335 53.7116 10.6222 53.9999 10.978 53.9999H38.049C38.4051 53.9999 38.6935 53.7116 38.6935 53.3554V51.2496C38.6935 50.8934 38.4051 50.6051 38.049 50.6051Z"
                      fill="#000326" />
                    <path
                      d="M13.1265 36.4425V50.3667C13.1265 50.7225 13.4152 51.0112 13.771 51.0112H18.9276C19.2834 51.0112 19.5721 50.7225 19.5721 50.3667V36.4425C19.5721 36.0867 19.2834 35.798 18.9276 35.798H13.771C13.4152 35.798 13.1265 36.0867 13.1265 36.4425ZM14.4155 37.0874H18.283V49.7218H14.4155V37.0874Z"
                      fill="#000326" />
                    <path
                      d="M19.6218 28.0626C19.978 28.0626 20.2663 27.7739 20.2663 27.4177C20.2663 27.0619 19.978 26.7732 19.6218 26.7732H14.8022C14.4464 26.7732 14.1577 27.0619 14.1577 27.4177C14.1577 27.7739 14.4464 28.0626 14.8022 28.0626H19.6218Z"
                      fill="#000326" />
                    <path
                      d="M35.7643 12.5771C32.6276 12.5771 29.6816 13.7957 27.4694 16.0082C25.2571 18.2208 24.0386 21.1671 24.0386 24.3042C24.0386 27.4412 25.2571 30.3876 27.4694 32.6001C29.6819 34.8127 32.6276 36.0313 35.7643 36.0313C38.901 36.0313 41.8467 34.8127 44.0593 32.6001C46.2715 30.3876 47.4897 27.4412 47.4897 24.3042C47.4897 21.1671 46.2715 18.2208 44.0593 16.0082C41.8467 13.7957 38.901 12.5771 35.7643 12.5771ZM43.1475 31.6884C41.1787 33.6576 38.5566 34.7419 35.7643 34.7419C32.9717 34.7419 30.3499 33.6576 28.3811 31.6884C26.4119 29.7192 25.3276 27.0968 25.3276 24.3042C25.3276 21.5112 26.4119 18.8888 28.3811 16.9196C30.4164 14.884 33.0905 13.8658 35.7643 13.8658C38.4381 13.8658 41.1122 14.884 43.1475 16.9196C45.1164 18.8888 46.2007 21.5112 46.2007 24.3042C46.2007 27.0968 45.1164 29.7192 43.1475 31.6884Z"
                      fill="#000326" />
                  </g>
                  <defs>
                    <linearGradient id="paint0_linear_2520_988" x1="32" y1="0" x2="32" y2="64"
                      gradientUnits="userSpaceOnUse">
                      <stop stop-color="#FFE59E" />
                      <stop offset="1" stop-color="#FFBC01" />
                    </linearGradient>
                    <clipPath id="clip0_2520_988">
                      <rect width="44" height="44" fill="white" transform="translate(10.3335 10)" />
                    </clipPath>
                  </defs>
                </svg>