<svg xmlns="http://www.w3.org/2000/svg" width="88" height="88" viewBox="0 0 88 88" fill="none">
                  <g clip-path="url(#clip0_3026_2049)">
                    <path
                      d="M71.7615 44.1353C71.7615 29.214 59.307 17.0752 44.0001 17.0752C28.6913 17.0752 16.2368 29.214 16.2368 44.1353C16.2368 59.0566 28.6911 71.1973 44.0001 71.1973C59.307 71.1973 71.7615 59.0566 71.7615 44.1353ZM41.4158 60.0338V57.4248C39.5622 57.4248 37.724 57.2704 35.5186 55.7377C34.3453 54.9227 34.0559 53.3114 34.8709 52.1397C35.6858 50.9678 37.295 50.6766 38.4682 51.4916C39.1659 51.9775 39.9654 52.2482 40.7183 52.2551H46.9342C46.948 52.2551 46.9601 52.2568 46.9739 52.2568C48.4778 52.2568 49.7303 51.0346 49.7303 49.4876C49.7303 47.9625 48.4933 46.7201 46.9739 46.7201H41.0267C36.6559 46.7201 33.1 43.1598 33.1 38.783C33.1 34.7659 36.1426 30.8458 41.4161 30.8458V28.2385C41.4161 26.8116 42.5722 25.6537 44.0005 25.6537C45.427 25.6537 46.5848 26.8116 46.5848 28.2385V30.8458C49.3685 30.8458 51.7414 31.9954 53.4278 33.7994C54.4029 34.8419 54.3477 36.4773 53.3054 37.4525C52.2631 38.428 50.6282 38.3727 49.6531 37.3302C48.8813 36.5047 47.8287 36.0258 46.7623 36.0155H41.0253C39.5066 36.0155 38.2689 37.2527 38.2689 38.783C38.2689 40.3096 39.5059 41.5504 41.0271 41.5504H46.9742C51.3433 41.5504 54.8991 45.1123 54.8991 49.4876C54.8991 53.5492 51.8127 57.4248 46.5848 57.4248V60.0338C46.5848 61.4605 45.427 62.6184 44.0005 62.6184C42.5718 62.6184 41.4158 61.4605 41.4158 60.0338Z"
                      fill="url(#paint0_linear_3026_2049)" />
                    <path
                      d="M20.1116 75.4236L18.7064 65.4941C18.5064 64.0808 17.1972 63.0944 15.7852 63.2972C14.3718 63.4971 13.3882 64.8051 13.5883 66.2184L13.9029 68.442C11.2195 65.1304 9.08285 61.3752 7.6027 57.328C-2.87485 28.6814 22.4287 -0.209834 51.9303 6.08331C53.326 6.38038 54.6993 5.49091 54.9974 4.09484C55.2953 2.69878 54.405 1.32563 53.0089 1.0277C19.6957 -6.07979 -9.19936 26.4391 2.748 59.1036C4.42183 63.6804 6.83695 67.9292 9.871 71.678L7.37352 71.1983C5.97126 70.9294 4.61689 71.8471 4.34757 73.2488C4.07825 74.6508 4.99632 76.0055 6.39807 76.2748L16.8443 78.2815C18.6911 78.8029 20.3666 77.2223 20.1116 75.4236Z"
                      fill="url(#paint1_linear_3026_2049)" />
                    <path
                      d="M85.252 28.8964C83.5782 24.3197 81.163 20.0708 78.129 16.322L80.6266 16.8017C82.0277 17.0705 83.3833 16.153 83.6526 14.7512C83.9219 13.3493 83.0038 11.9946 81.6021 11.7253L71.1538 9.718C69.2965 9.19521 67.6352 10.7889 67.8885 12.5763L69.2937 22.5059C69.4943 23.9235 70.8075 24.9036 72.2149 24.7029C73.6284 24.503 74.6119 23.195 74.4119 21.7817L74.0972 19.558C76.7807 22.8697 78.9173 26.6248 80.3975 30.6719C90.8743 59.3169 65.5744 88.2116 36.0699 81.9167C34.6743 81.619 33.3007 82.5091 33.0028 83.9052C32.7048 85.3013 33.5952 86.6744 34.9912 86.9723C68.304 94.0802 97.1993 61.5613 85.252 28.8964Z"
                      fill="url(#paint2_linear_3026_2049)" />
                  </g>
                  <defs>
                    <linearGradient id="paint0_linear_3026_2049" x1="43.9992" y1="17.0752" x2="43.9992" y2="71.1973"
                      gradientUnits="userSpaceOnUse">
                      <stop stop-color="#FFE59E" />
                      <stop offset="1" stop-color="#FFBC01" />
                    </linearGradient>
                    <linearGradient id="paint1_linear_3026_2049" x1="27.5274" y1="0.0410156" x2="27.5274" y2="78.3825"
                      gradientUnits="userSpaceOnUse">
                      <stop stop-color="#FFE59E" />
                      <stop offset="1" stop-color="#FFBC01" />
                    </linearGradient>
                    <linearGradient id="paint2_linear_3026_2049" x1="60.4726" y1="9.61719" x2="60.4726" y2="87.9591"
                      gradientUnits="userSpaceOnUse">
                      <stop stop-color="#FFE59E" />
                      <stop offset="1" stop-color="#FFBC01" />
                    </linearGradient>
                    <clipPath id="clip0_3026_2049">
                      <rect width="88" height="88" fill="white" />
                    </clipPath>
                  </defs>
                </svg>