<svg xmlns="http://www.w3.org/2000/svg" width="64" height="64" viewBox="0 0 64 64" fill="none">
                <rect x="1.06667" y="1.06667" width="61.8667" height="61.8667" rx="13.6"
                  fill="url(#paint0_linear_2524_2126)" />
                <rect x="1.06667" y="1.06667" width="61.8667" height="61.8667" rx="13.6" stroke="#000326"
                  stroke-width="2.13333" />
                <path
                  d="M44.0208 43C45.1579 43 46.0833 42.0746 46.0833 40.9375C46.0833 39.8004 45.1579 38.875 44.0208 38.875C42.8836 38.875 41.9583 39.8004 41.9583 40.9375C41.9583 42.0746 42.8836 43 44.0208 43ZM44.0208 40.25C44.3996 40.25 44.7083 40.558 44.7083 40.9375C44.7083 41.317 44.3996 41.625 44.0208 41.625C43.6419 41.625 43.3333 41.317 43.3333 40.9375C43.3333 40.558 43.6419 40.25 44.0208 40.25Z"
                  fill="#070322" />
                <path
                  d="M51.0058 38.0349C50.7974 37.5357 50.9081 36.9686 51.2869 36.5891L52.2873 35.5881L49.3695 32.6703L48.3678 33.6713C47.989 34.0508 47.4211 34.1608 46.8959 33.9408C46.4023 33.7373 46.0833 33.2602 46.0833 32.7253V31.3125H44.6732C44.6106 30.2036 44.4051 29.1318 44.0641 28.1163L52.0198 20.1606C53.0683 19.1121 53.6458 17.7186 53.6458 16.2363C53.6458 13.1769 51.1563 10.6875 48.0969 10.6875C46.6147 10.6875 45.2211 11.265 44.1734 12.3128L36.2259 20.2609C35.1981 19.9158 34.1084 19.7151 32.9829 19.6552C32.0342 17.9977 30.2515 16.875 28.2083 16.875C27.6851 16.875 27.1804 16.9534 26.6999 17.0902C25.5133 14.8593 23.2081 13.4375 20.6458 13.4375C16.8549 13.4375 13.7708 16.5216 13.7708 20.3125C13.7708 20.8391 13.8354 21.3575 13.9529 21.8649C12.2583 22.3777 11.0208 23.9528 11.0208 25.8125C11.0208 28.0874 12.8708 29.9375 15.1458 29.9375H20.1329C20.0188 30.6174 19.9583 31.3077 19.9583 32C19.9583 33.5132 20.2381 34.7445 20.6898 35.7964L14.5566 41.9303L11.1438 50.8031C11.062 51.0149 11.0208 51.2376 11.0208 51.4652C11.0208 52.4841 11.8499 53.3125 12.8681 53.3125C13.0956 53.3125 13.3184 53.2706 13.5308 53.1894L22.4037 49.7767L26.8883 45.2914C26.8546 45.4393 26.8333 45.5919 26.8333 45.75C26.8333 46.2801 27.0402 46.7593 27.3695 47.125C27.0395 47.4907 26.8333 47.9699 26.8333 48.5C26.8333 49.4556 27.4898 50.2545 28.3733 50.4869C28.959 52.1644 30.5279 53.3125 32.3333 53.3125C34.1386 53.3125 35.7075 52.1644 36.2933 50.4869C37.1767 50.2545 37.8333 49.4556 37.8333 48.5C37.8333 48.4484 37.8216 48.4003 37.8181 48.3501L38.672 49.204L39.6737 48.203C40.0525 47.8235 40.6183 47.7128 41.1449 47.9321C41.6386 48.1377 41.9583 48.6148 41.9583 49.1497V50.5625H46.0833V49.1497C46.0833 48.6148 46.4029 48.137 46.9234 47.9218C47.4225 47.7142 47.9897 47.8235 48.3685 48.203L49.3695 49.204L52.2873 46.2862L51.2869 45.2853C50.9081 44.9058 50.7974 44.3386 51.0168 43.8133C51.2209 43.3197 51.6981 43 52.2329 43H53.6458V38.875H52.2329C51.6981 38.875 51.2209 38.5553 51.0058 38.0349ZM40.7043 40.0616C41.4543 39.3294 42.2058 38.5814 42.8541 37.7166C43.2281 37.5804 43.6172 37.5 44.0208 37.5C45.9162 37.5 47.4583 39.0421 47.4583 40.9375C47.4583 42.8329 45.9162 44.375 44.0208 44.375C42.1253 44.375 40.5833 42.8329 40.5833 40.9375C40.5833 40.6398 40.6293 40.3469 40.7043 40.0616ZM41.5299 23.7761L44.7083 20.5971L47.1736 23.0625L43.5017 26.7344C42.9868 25.6537 42.3213 24.6596 41.5299 23.7761ZM42.2429 16.1875L43.3333 15.0971L49.2361 21L48.1458 22.0904L42.2429 16.1875ZM48.0969 12.0625C50.398 12.0625 52.2708 13.9353 52.2708 16.2363C52.2708 17.3507 51.8369 18.3992 51.0484 19.1877L50.2083 20.0279L44.3054 14.125L45.1455 13.2849C45.9341 12.497 46.9818 12.0625 48.0969 12.0625ZM41.2708 17.1596L43.7361 19.625L40.5592 22.8019C39.6764 22.0099 38.683 21.3438 37.6023 20.8281L41.2708 17.1596ZM43.3333 32C43.3333 35.5771 41.532 37.3343 39.6249 39.194C38.3118 40.4748 36.9629 41.7989 36.1778 43.7288C36.0464 43.7019 35.9103 43.6875 35.7708 43.6875H33.0208V40.25C33.0208 39.1129 32.0954 38.1875 30.9583 38.1875H29.5833C29.2044 38.1875 28.8958 37.8795 28.8958 37.5C28.8958 37.1205 29.2044 36.8125 29.5833 36.8125H36.4583C37.5954 36.8125 38.5208 35.8871 38.5208 34.75C38.5208 33.6129 37.5954 32.6875 36.4583 32.6875H30.9583C30.5794 32.6875 30.2708 32.3795 30.2708 32V29.9375H33.7083C35.6037 29.9375 37.1458 28.3954 37.1458 26.5C37.1458 24.6046 35.6037 23.0625 33.7083 23.0625C33.689 23.0625 33.6711 23.068 33.6519 23.068C33.6814 22.8384 33.7083 22.6088 33.7083 22.375C33.7083 21.9254 33.6478 21.4902 33.546 21.0715C39.0268 21.682 43.3333 26.3859 43.3333 32ZM28.2083 45.75C28.2083 45.3705 28.5169 45.0625 28.8958 45.0625H35.7708C36.1496 45.0625 36.4583 45.3705 36.4583 45.75C36.4583 46.1295 36.1496 46.4375 35.7708 46.4375H28.8958C28.5169 46.4375 28.2083 46.1295 28.2083 45.75ZM19.5554 45.75L24.6092 40.6962C25.4548 41.5349 26.2399 42.3833 26.8188 43.4166L22.0208 48.2154L19.5554 45.75ZM12.3958 25.8125C12.3958 24.2959 13.6291 23.0625 15.1458 23.0625C16.6624 23.0625 17.8958 24.2959 17.8958 25.8125H19.2708C19.2708 23.5974 17.5142 21.7893 15.3218 21.6964C15.2049 21.2468 15.1458 20.7828 15.1458 20.3125C15.1458 17.2799 17.6132 14.8125 20.6458 14.8125C22.6567 14.8125 24.4717 15.9056 25.4369 17.6319C23.9712 18.492 22.9358 20.0066 22.7426 21.7741C21.5423 22.0697 20.6458 23.1471 20.6458 24.4375H22.0208C22.0208 23.6792 22.6374 23.0625 23.3958 23.0625C24.1541 23.0625 24.7708 23.6792 24.7708 24.4375H26.1458C26.1458 23.1759 25.2878 22.122 24.1279 21.7989C24.4098 19.7969 26.1293 18.25 28.2083 18.25C30.4832 18.25 32.3333 20.1001 32.3333 22.375C32.3333 22.7366 32.2741 23.0907 32.182 23.4358C31.0545 24.0002 30.2708 25.1552 30.2708 26.5H31.6458C31.6458 25.3629 32.5711 24.4375 33.7083 24.4375C34.8454 24.4375 35.7708 25.3629 35.7708 26.5C35.7708 27.6371 34.8454 28.5625 33.7083 28.5625H15.1458C13.6291 28.5625 12.3958 27.3291 12.3958 25.8125ZM28.8958 29.9375V32C28.8958 33.1371 29.8211 34.0625 30.9583 34.0625H36.4583C36.8371 34.0625 37.1458 34.3705 37.1458 34.75C37.1458 35.1295 36.8371 35.4375 36.4583 35.4375H29.5833C28.4461 35.4375 27.5208 36.3629 27.5208 37.5C27.5208 38.6371 28.4461 39.5625 29.5833 39.5625H30.9583C31.3371 39.5625 31.6458 39.8705 31.6458 40.25V43.6875H28.8958C28.7562 43.6875 28.6201 43.7019 28.4888 43.7288C27.7036 41.7989 26.3548 40.4748 25.0416 39.194C23.1345 37.3343 21.3333 35.5771 21.3333 32C21.3333 31.3049 21.4164 30.6161 21.545 29.9375H28.8958ZM23.6274 39.7337L18.5833 44.7779L16.1179 42.3125L21.3635 37.0669C22.0091 38.0802 22.8093 38.9259 23.6274 39.7337ZM15.4077 43.5466L20.7867 48.9256L16.2327 50.6773L13.6559 48.1006L15.4077 43.5466ZM13.0379 51.9059C12.7402 52.0214 12.3958 51.7842 12.3958 51.4652C12.3958 51.4067 12.4068 51.3497 12.4267 51.2961L13.1156 49.5044L14.8281 51.217L13.0379 51.9059ZM32.3333 51.9375C31.3178 51.9375 30.4124 51.3971 29.9105 50.5625H34.756C34.2541 51.3971 33.3487 51.9375 32.3333 51.9375ZM35.7708 49.1875H28.8958C28.5169 49.1875 28.2083 48.8795 28.2083 48.5C28.2083 48.1205 28.5169 47.8125 28.8958 47.8125H35.7708C36.1496 47.8125 36.4583 48.1205 36.4583 48.5C36.4583 48.8795 36.1496 49.1875 35.7708 49.1875ZM52.2708 41.625H52.2329C51.1391 41.625 50.1629 42.2781 49.7366 43.3107C49.3131 44.3262 49.54 45.4826 50.3141 46.2574L50.343 46.2862L49.3695 47.2598L49.3406 47.2309C48.5651 46.4554 47.4074 46.2278 46.3713 46.6623C45.3614 47.0803 44.7083 48.0559 44.7083 49.1497V49.1875H43.3333V49.1497C43.3333 48.0559 42.6801 47.0796 41.6475 46.6527C40.6307 46.2285 39.4743 46.4561 38.7002 47.2309L38.6713 47.2598L37.7397 46.3282C37.7948 46.1432 37.8333 45.9521 37.8333 45.75C37.8333 45.2619 37.6559 44.8191 37.3713 44.4651C37.7989 43.3107 38.4692 42.3874 39.2495 41.5349C39.5451 43.9068 41.5698 45.75 44.0208 45.75C46.6745 45.75 48.8333 43.5906 48.8333 40.9375C48.8333 38.2844 46.6745 36.125 44.0208 36.125C43.9534 36.125 43.8881 36.1319 43.8214 36.1346C44.2868 35.1687 44.6065 34.0487 44.6869 32.6875H44.7083V32.7253C44.7083 33.8191 45.3614 34.7961 46.3933 35.2216C47.4081 35.6465 48.5658 35.4196 49.3406 34.6441L49.3695 34.6152L50.343 35.5888L50.3141 35.6176C49.54 36.3924 49.3131 37.5495 49.7456 38.5863C50.1629 39.5969 51.1391 40.25 52.2329 40.25H52.2708V41.625Z"
                  fill="#070322" />
                <defs>
                  <linearGradient id="paint0_linear_2524_2126" x1="32" y1="0" x2="32" y2="64"
                    gradientUnits="userSpaceOnUse">
                    <stop stop-color="#FFE59E" />
                    <stop offset="1" stop-color="#FFBC01" />
                  </linearGradient>
                </defs>
              </svg>