<svg xmlns="http://www.w3.org/2000/svg" width="64" height="64" viewBox="0 0 64 64" fill="none">
                  <rect x="1.06667" y="1.06667" width="61.8667" height="61.8667" rx="13.6"
                    fill="url(#paint0_linear_2115_1149)" />
                  <rect x="1.06667" y="1.06667" width="61.8667" height="61.8667" rx="13.6" stroke="#000326"
                    stroke-width="2.13333" />
                  <path
                    d="M39.1267 30.4918L33.6258 32.7843C33.0735 32.2552 32.3285 31.9272 31.5028 31.9272C29.8036 31.9272 28.427 33.3037 28.427 35.0029C28.427 36.7022 29.8036 38.0787 31.5028 38.0787C33.1829 38.0787 34.5444 36.7295 34.5731 35.0563L40.0726 32.7651C40.7001 32.504 40.9967 31.7823 40.7343 31.1562C40.4732 30.5287 39.7528 30.2293 39.1267 30.4918Z"
                    fill="#000326" />
                  <path
                    d="M31.5018 16C21.0236 16 12.5002 24.5247 12.5002 35.0016C12.5002 40.0746 14.4783 44.8441 18.0695 48.4353C18.5425 48.9083 19.3012 48.9096 19.7824 48.453C19.7906 48.4462 19.7988 48.4462 19.807 48.4394L21.8001 46.4449C22.2799 45.9637 22.2799 45.1845 21.8001 44.7047C21.3203 44.2249 20.5411 44.2235 20.0599 44.7047L18.9813 45.7833C16.656 43.093 15.2808 39.7752 15.021 36.2333H16.5507C17.2301 36.2333 17.781 35.6823 17.781 35.0029C17.781 34.3235 17.2301 33.7726 16.5507 33.7726H15.0224C15.2917 30.1377 16.7353 26.8309 18.9813 24.2254L20.0585 25.3026C20.2991 25.5432 20.6135 25.6635 20.9293 25.6635C21.2451 25.6635 21.5581 25.5432 21.7987 25.3026C22.2799 24.8214 22.2799 24.0422 21.7987 23.5624L20.7229 22.4824C23.3284 20.235 26.6366 18.7928 30.2715 18.5235V20.0505C30.2715 20.7299 30.8224 21.2808 31.5018 21.2808C32.1812 21.2808 32.7321 20.7299 32.7321 20.0505V18.5235C36.367 18.7928 39.6752 20.235 42.2808 22.4824L41.2036 23.5596C40.7237 24.0408 40.7237 24.82 41.2036 25.2998C41.4442 25.5404 41.7586 25.6607 42.073 25.6607C42.3874 25.6607 42.7032 25.5404 42.9438 25.2998L44.021 24.2226C46.2684 26.8282 47.7106 30.135 47.9799 33.7699H46.4529C45.7735 33.7699 45.2226 34.3208 45.2226 35.0002C45.2226 35.6796 45.7735 36.2305 46.4529 36.2305H47.9826C47.7229 39.7725 46.3477 43.0902 44.0224 45.7805L42.9438 44.7019C42.4626 44.2208 41.6847 44.2208 41.2036 44.7019C40.7224 45.1831 40.7224 45.9623 41.2036 46.4422L43.1967 48.4366C43.198 48.438 43.2008 48.4366 43.2021 48.438C43.4414 48.6731 43.7517 48.7921 44.0634 48.7921C44.3778 48.7921 44.6922 48.6718 44.9328 48.4312C48.5239 44.84 50.502 40.0705 50.502 34.9975C50.5034 24.5247 41.98 16 31.5018 16Z"
                    fill="#000326" />
                  <defs>
                    <linearGradient id="paint0_linear_2115_1149" x1="32" y1="0" x2="32" y2="64"
                      gradientUnits="userSpaceOnUse">
                      <stop stop-color="#FFE59E" />
                      <stop offset="1" stop-color="#FFBC01" />
                    </linearGradient>
                  </defs>
                </svg>