<svg xmlns="http://www.w3.org/2000/svg" width="88" height="88" viewBox="0 0 88 88" fill="none">
                  <path
                    d="M38.5715 2.76465C18.8288 2.76465 2.74365 18.8284 2.74365 38.5709C2.74365 58.3136 18.8288 74.3719 38.5715 74.3719C47.4508 74.3719 55.5684 71.1084 61.8327 65.7377L64.9582 68.8632L63.0108 70.8106C62.4944 71.3272 62.2044 72.0276 62.2044 72.758C62.2044 73.4884 62.4944 74.1888 63.0108 74.7054L71.2684 82.9684C73.075 84.7761 75.3991 85.6537 77.5571 85.556C79.7151 85.4623 81.6402 84.4923 83.0604 83.076C84.4806 81.6597 85.4494 79.7414 85.5511 77.5835C85.6528 75.4255 84.7755 73.0972 82.9689 71.2894L74.7005 63.0156C74.4403 62.7553 74.1306 62.5498 73.7897 62.4112C73.4488 62.2726 73.0835 62.2038 72.7155 62.2087C71.9981 62.2187 71.313 62.5082 70.8057 63.0156L68.853 64.9684L65.7274 61.8429C71.1053 55.5783 74.3778 47.4557 74.3778 38.5709C74.3778 18.8284 58.3141 2.76465 38.5715 2.76465ZM44.0586 24.7832H55.0813C55.4448 24.7818 55.805 24.8523 56.1411 24.9908C56.4772 25.1293 56.7826 25.3329 57.0396 25.5899C57.2967 25.847 57.5003 26.1524 57.6387 26.4885C57.7772 26.8246 57.8478 27.1847 57.8464 27.5482V38.5709C57.8545 38.9378 57.7893 39.3026 57.6545 39.6439C57.5198 39.9851 57.3182 40.2961 57.0616 40.5584C56.8051 40.8207 56.4987 41.0291 56.1605 41.1714C55.8222 41.3137 55.459 41.387 55.0921 41.387C54.7251 41.387 54.3619 41.3137 54.0237 41.1714C53.6855 41.0291 53.3791 40.8207 53.1225 40.5584C52.8659 40.2961 52.6644 39.9851 52.5296 39.6439C52.3948 39.3026 52.3296 38.9378 52.3377 38.5709V34.192L40.5027 46.0109C39.4284 47.0785 37.693 47.0785 36.6187 46.0109L33.0628 42.4496L23.9929 51.5195C21.4058 54.2931 17.3273 50.2371 20.0873 47.6355L31.11 36.6182C32.1844 35.5505 33.9197 35.5505 34.9941 36.6182L38.55 40.1956L48.4537 30.2918H44.0586C43.6917 30.3001 43.3269 30.2349 42.9855 30.1002C42.6441 29.9655 42.3331 29.7639 42.0707 29.5073C41.8083 29.2507 41.5998 28.9443 41.4574 28.6061C41.3151 28.2678 41.2418 27.9045 41.2418 27.5375C41.2418 27.1705 41.3151 26.8072 41.4574 26.4689C41.5998 26.1306 41.8083 25.8242 42.0707 25.5677C42.3331 25.3111 42.6441 25.1095 42.9855 24.9748C43.3269 24.8401 43.6917 24.7749 44.0586 24.7832Z"
                    fill="url(#paint0_linear_3026_2064)" />
                  <defs>
                    <linearGradient id="paint0_linear_3026_2064" x1="44.1513" y1="2.76465" x2="44.1513" y2="85.5633"
                      gradientUnits="userSpaceOnUse">
                      <stop stop-color="#FFE59E" />
                      <stop offset="1" stop-color="#FFBC01" />
                    </linearGradient>
                  </defs>
                </svg>