<svg xmlns="http://www.w3.org/2000/svg" width="88" height="88" viewBox="0 0 88 88" fill="none">
                      <path
                        d="M52.7555 67.2135C51.3088 67.0798 49.9081 66.6349 48.6495 65.9093C47.3908 65.1838 46.3039 64.1946 45.4633 63.0097C42.6609 59.4849 40.6504 55.398 39.5685 51.0268C36.7281 40.4279 38.7736 31.3113 44.3264 29.8235C49.8757 28.3357 56.2082 35.209 59.0477 45.8079C60.2958 50.1348 60.5981 54.6796 59.9339 59.1336C59.1462 63.4502 57.1419 66.2485 54.2907 67.0112C53.7901 67.1461 53.2739 67.2142 52.7555 67.2135ZM45.8491 33.2915C45.6555 33.2911 45.4626 33.3157 45.2753 33.3648C42.3498 34.149 40.8012 41.4627 43.1099 50.0779C44.0507 53.9249 45.8063 57.5253 48.2581 60.6357C50.0761 62.777 51.9793 63.8386 53.3418 63.4698C54.7069 63.1046 55.8223 61.2372 56.3272 58.4747C56.8947 54.5549 56.6148 50.5591 55.5063 46.7568C53.3427 38.6841 48.8176 33.2915 45.8491 33.2915Z"
                        fill="url(#paint0_linear_1798_1350)" />
                      <rect x="53" y="12" width="26" height="9" fill="#000326" />
                      <path
                        d="M50.4303 49.0665C50.1812 48.1362 49.7512 47.2641 49.165 46.5001C48.5788 45.736 47.8478 45.095 47.0137 44.6135C46.1797 44.132 45.259 43.8195 44.3042 43.694C43.3493 43.5684 42.3791 43.6321 41.449 43.8816L37.9076 44.8305C37.6751 44.8927 37.457 45.0001 37.266 45.1467C37.075 45.2932 36.9147 45.4759 36.7943 45.6844C36.6739 45.8929 36.5958 46.1231 36.5645 46.3618C36.5331 46.6005 36.5491 46.843 36.6115 47.0756L39.4581 57.6996C39.5203 57.9322 39.6278 58.1502 39.7743 58.3413C39.9208 58.5323 40.1036 58.6926 40.3121 58.813C40.5206 58.9334 40.7508 59.0115 40.9895 59.0428C41.2282 59.0742 41.4707 59.0582 41.7033 58.9958L45.2455 58.0469C47.1228 57.5417 48.723 56.3124 49.695 54.6288C50.667 52.9452 50.9315 50.9448 50.4303 49.0665Z"
                        fill="#000326" />
                      <path
                        d="M33.343 79.2329C32.2553 79.5244 31.0982 79.4029 30.0947 78.8918C29.0913 78.3807 28.3125 77.5163 27.9086 76.4652L23.1104 63.979L31.9647 61.6064L36.418 73.1951C36.6472 73.7915 36.7484 74.4294 36.7151 75.0675C36.6819 75.7055 36.5149 76.3294 36.2249 76.8987C35.935 77.4681 35.5286 77.97 35.0321 78.3722C34.5356 78.7743 33.9601 79.0675 33.343 79.2329Z"
                        fill="url(#paint1_linear_1798_1350)" />
                      <path
                        d="M10.9436 53.9561L13.5998 53.244L15.9736 62.0979L13.3175 62.8101C12.1434 63.1249 10.8923 62.9604 9.83947 62.3527C8.78666 61.7451 8.01834 60.7441 7.70354 59.57C7.38875 58.3959 7.55326 57.1449 8.16088 56.092C8.7685 55.0392 9.76947 54.2709 10.9436 53.9561Z"
                        fill="#000326" />
                      <path
                        d="M51.0566 63.0246C48.4525 61.6406 44.9864 57.0985 43.1118 50.0713C41.1093 42.5858 42.0689 36.7223 43.8074 34.4414C44.0882 34.0738 44.2196 33.6135 44.1752 33.153C44.1308 32.6925 43.9139 32.2659 43.568 31.9586C43.2222 31.6514 42.7729 31.4863 42.3104 31.4965C41.8479 31.5067 41.4064 31.6915 41.0744 32.0137L34.5288 38.357C31.1714 41.6031 27.045 43.944 22.5361 45.1604L15.7085 46.9792C14.3028 47.3627 13.1052 48.2855 12.376 49.547C11.6469 50.8085 11.4451 52.3069 11.8145 53.7164L14.1948 62.559C14.5062 63.734 15.198 64.7728 16.162 65.5132C17.1261 66.2537 18.3082 66.654 19.5238 66.6518C20.0011 66.6515 20.4765 66.5901 20.9382 66.4691L28.7415 64.3619C33.7215 63.0306 38.9754 63.1255 43.9041 64.6358L49.6601 66.3958C50.096 66.5293 50.5659 66.4955 50.9782 66.3012C51.3905 66.1068 51.7157 65.7658 51.8901 65.3447C52.0645 64.9236 52.0758 64.4525 51.9217 64.0236C51.7676 63.5946 51.4591 63.2384 51.0566 63.0246Z"
                        fill="url(#paint2_linear_1798_1350)" />
                      <circle cx="21.5" cy="22.5" r="7.5" fill="#000326" />
                      <path
                        d="M73.6979 42.4305L72.4158 43.7125L71.1338 42.4305C70.7129 42.0097 70.2133 41.6758 69.6634 41.448C69.1135 41.2203 68.5241 41.103 67.9289 41.103C67.3337 41.103 66.7443 41.2203 66.1944 41.448C65.6445 41.6758 65.1449 42.0097 64.724 42.4305C64.2825 42.8866 63.9471 43.4343 63.7414 44.0347C63.386 44.9888 63.2897 46.02 63.4623 47.0233C63.6349 48.0267 64.0702 48.9664 64.724 49.7469C66.6489 52.0525 68.7809 54.1769 71.0933 56.0935C71.4723 56.4084 71.9292 56.6151 72.4158 56.692C74.2288 56.692 80.1077 49.7469 80.1077 49.7469C80.9653 48.7208 81.4352 47.4261 81.4352 46.0888C81.4352 44.7515 80.9653 43.4567 80.1077 42.4306C79.6868 42.0097 79.1872 41.6759 78.6373 41.4481C78.0874 41.2203 77.498 41.1031 76.9028 41.1031C76.3076 41.1031 75.7182 41.2203 75.1683 41.4481C74.6184 41.6758 74.1188 42.0097 73.6979 42.4305Z"
                        fill="url(#paint3_linear_1798_1350)" />
                      <path
                        d="M31.4333 31.3672C33.1194 29.3462 34.2298 26.9083 34.648 24.3098C35.0662 21.7113 34.7766 19.0481 33.8098 16.6001C32.8429 14.1522 31.2344 12.0099 29.1535 10.3985C27.0725 8.78704 24.5958 7.76597 21.9838 7.44257C19.8466 7.177 17.6763 7.38508 15.6285 8.05203C13.5808 8.71898 11.7049 9.82846 10.1341 11.3017C8.56323 12.775 7.3359 14.576 6.53919 16.5768C5.74247 18.5776 5.3959 20.7293 5.52406 22.8791C5.79958 26.6567 7.5062 30.1867 10.2957 32.7489C13.0851 35.3112 16.7471 36.7124 20.5345 36.6667H31.0743C31.5936 36.6666 32.0997 36.5031 32.521 36.1994C32.9423 35.8957 33.2573 35.4672 33.4216 34.9745C33.5858 34.4818 33.591 33.95 33.4362 33.4542C33.2815 32.9585 32.9747 32.524 32.5594 32.2123L31.4333 31.3672ZM24.894 23.3305L18.7907 26.818C18.5577 26.9511 18.2939 27.0207 18.0256 27.0198C17.7573 27.0189 17.4939 26.9476 17.2619 26.8129C17.0298 26.6783 16.8372 26.485 16.7033 26.2525C16.5695 26.02 16.499 25.7564 16.499 25.4881V18.513C16.499 18.2447 16.5695 17.9812 16.7034 17.7487C16.8373 17.5162 17.0299 17.3229 17.2619 17.1883C17.494 17.0536 17.7573 16.9822 18.0256 16.9813C18.2939 16.9804 18.5577 17.05 18.7907 17.1831L24.894 20.6706C25.1285 20.8046 25.3233 20.9982 25.4589 21.2317C25.5944 21.4653 25.6658 21.7305 25.6658 22.0006C25.6658 22.2706 25.5944 22.5358 25.4589 22.7694C25.3233 23.0029 25.1285 23.1965 24.894 23.3305Z"
                        fill="url(#paint4_linear_1798_1350)" />
                      <path
                        d="M78.8333 7.3335H53.1667C52.1945 7.33461 51.2626 7.72127 50.5752 8.40867C49.8878 9.09606 49.5011 10.028 49.5 11.0002V22.0002C49.5011 22.9723 49.8878 23.9043 50.5752 24.5917C51.2626 25.2791 52.1945 25.6657 53.1667 25.6668H63.4076L67.9139 30.1732C68.2503 30.5143 68.6511 30.7852 69.0931 30.9702C69.535 31.1552 70.0093 31.2507 70.4884 31.251C70.8255 31.2506 71.1609 31.2049 71.4858 31.1149C72.1129 30.9454 72.683 30.6105 73.1365 30.1454C73.59 29.6802 73.9103 29.1018 74.0639 28.4705L74.7647 25.6668H78.8333C79.8055 25.6657 80.7374 25.2791 81.4248 24.5917C82.1122 23.9043 82.4989 22.9723 82.5 22.0002V11.0002C82.4989 10.028 82.1122 9.09606 81.4248 8.40867C80.7374 7.72127 79.8055 7.33461 78.8333 7.3335ZM58.6667 18.3341C58.3041 18.3341 57.9496 18.2265 57.6481 18.0251C57.3466 17.8236 57.1116 17.5373 56.9729 17.2023C56.8341 16.8673 56.7978 16.4987 56.8686 16.1431C56.9393 15.7874 57.1139 15.4608 57.3703 15.2044C57.6267 14.948 57.9534 14.7734 58.309 14.7026C58.6646 14.6319 59.0333 14.6682 59.3683 14.807C59.7032 14.9457 59.9896 15.1807 60.191 15.4822C60.3925 15.7837 60.5 16.1381 60.5 16.5007C60.5 16.987 60.3068 17.4533 59.963 17.7971C59.6192 18.1409 59.1529 18.3341 58.6667 18.3341ZM66 18.3341C65.6374 18.3341 65.2829 18.2265 64.9815 18.0251C64.68 17.8236 64.445 17.5373 64.3062 17.2023C64.1675 16.8673 64.1312 16.4987 64.2019 16.1431C64.2726 15.7874 64.4472 15.4608 64.7036 15.2044C64.96 14.948 65.2867 14.7734 65.6423 14.7026C65.998 14.6319 66.3666 14.6682 66.7016 14.807C67.0366 14.9457 67.3229 15.1807 67.5244 15.4822C67.7258 15.7837 67.8333 16.1381 67.8333 16.5007C67.8333 16.987 67.6402 17.4533 67.2964 17.7971C66.9525 18.1409 66.4862 18.3341 66 18.3341ZM73.3333 18.3341C72.9707 18.3341 72.6163 18.2265 72.3148 18.0251C72.0133 17.8236 71.7783 17.5373 71.6396 17.2023C71.5008 16.8673 71.4645 16.4987 71.5352 16.1431C71.606 15.7874 71.7806 15.4608 72.037 15.2044C72.2934 14.948 72.62 14.7734 72.9757 14.7026C73.3313 14.6319 73.6999 14.6682 74.0349 14.807C74.3699 14.9457 74.6562 15.1807 74.8577 15.4822C75.0591 15.7837 75.1667 16.1381 75.1667 16.5007C75.1667 16.987 74.9735 17.4533 74.6297 17.7971C74.2859 18.1409 73.8196 18.3341 73.3333 18.3341Z"
                        fill="url(#paint5_linear_1798_1350)" />
                      <defs>
                        <linearGradient id="paint0_linear_1798_1350" x1="49.2855" y1="29.6216" x2="49.2855" y2="67.2135"
                          gradientUnits="userSpaceOnUse">
                          <stop stop-color="#FFE59E" />
                          <stop offset="1" stop-color="#FFBC01" />
                        </linearGradient>
                        <linearGradient id="paint1_linear_1798_1350" x1="29.9158" y1="61.6064" x2="29.9158" y2="79.3882"
                          gradientUnits="userSpaceOnUse">
                          <stop stop-color="#FFE59E" />
                          <stop offset="1" stop-color="#FFBC01" />
                        </linearGradient>
                        <linearGradient id="paint2_linear_1798_1350" x1="31.8317" y1="31.4961" x2="31.8317" y2="66.6518"
                          gradientUnits="userSpaceOnUse">
                          <stop stop-color="#FFE59E" />
                          <stop offset="1" stop-color="#FFBC01" />
                        </linearGradient>
                        <linearGradient id="paint3_linear_1798_1350" x1="72.407" y1="41.103" x2="72.407" y2="56.692"
                          gradientUnits="userSpaceOnUse">
                          <stop stop-color="#FFE59E" />
                          <stop offset="1" stop-color="#FFBC01" />
                        </linearGradient>
                        <linearGradient id="paint4_linear_1798_1350" x1="20.1661" y1="7.33057" x2="20.1661" y2="36.6678"
                          gradientUnits="userSpaceOnUse">
                          <stop stop-color="#FFE59E" />
                          <stop offset="1" stop-color="#FFBC01" />
                        </linearGradient>
                        <linearGradient id="paint5_linear_1798_1350" x1="66" y1="7.3335" x2="66" y2="31.251"
                          gradientUnits="userSpaceOnUse">
                          <stop stop-color="#FFE59E" />
                          <stop offset="1" stop-color="#FFBC01" />
                        </linearGradient>
                      </defs>
                    </svg>