<svg xmlns="http://www.w3.org/2000/svg" width="88" height="88" viewBox="0 0 88 88" fill="none">
                  <g clip-path="url(#clip0_3026_2028)">
                    <path
                      d="M84.7193 8.6431L78.4632 9.53702L79.3571 3.28094C79.7457 0.561709 76.4337 -1.10032 74.4882 0.847021L63.0108 12.3245C62.5718 12.7635 62.287 13.3332 62.1992 13.9478L60.8998 23.0435L46.7292 37.2141C45.607 36.6771 44.3659 36.3516 43.0411 36.3516C38.2945 36.3516 34.4331 40.2129 34.4331 44.9596C34.4331 49.7063 38.2945 53.5676 43.0411 53.5676C47.7878 53.5676 51.6491 49.7063 51.6491 44.9596C51.6491 43.6348 51.3236 42.3937 50.7867 41.2715L64.9572 27.1009L74.0529 25.8016C74.6675 25.7137 75.2371 25.4289 75.6762 24.99L87.1537 13.5125C89.0931 11.5725 87.451 8.26033 84.7193 8.6431Z"
                      fill="url(#paint0_linear_3026_2028)" />
                    <path
                      d="M66.3196 33.8544L57.2291 42.9442C57.3226 43.6046 57.3878 44.274 57.3878 44.9598C57.3878 52.871 50.9522 59.3065 43.041 59.3065C35.1298 59.3065 28.6943 52.871 28.6943 44.9598C28.6943 37.0486 35.1296 30.613 43.041 30.613C43.7266 30.613 44.3959 30.678 45.0561 30.7715L54.1464 21.6812C50.7768 20.067 47.0201 19.1357 43.041 19.1357C28.8017 19.1357 17.2168 30.7206 17.2168 44.96C17.2168 59.1993 28.8017 70.7842 43.041 70.7842C57.2803 70.7842 68.8652 59.1993 68.8652 44.96C68.8651 40.9807 67.9342 37.224 66.3196 33.8544Z"
                      fill="url(#paint1_linear_3026_2028)" />
                    <path
                      d="M82.0261 26.7545L79.7335 29.0472C78.4258 30.3558 76.6959 31.2207 74.8644 31.4821L71.7535 31.9268C73.5669 35.9053 74.6039 40.3093 74.6039 44.9594C74.6039 62.3633 60.4448 76.5223 43.0409 76.5223C25.637 76.5223 11.478 62.3633 11.478 44.9594C11.478 27.5555 25.6372 13.3964 43.0409 13.3964C47.691 13.3964 52.0949 14.4333 56.0735 16.2468L56.518 13.1359C56.7794 11.3042 57.6444 9.57443 58.9529 8.26577L61.2451 5.97399C55.5909 3.32591 49.4268 1.91895 43.0407 1.91895C19.3079 1.91895 0.000488281 21.2265 0.000488281 44.9594C0.000488281 68.6922 19.3081 87.9998 43.0409 87.9998C66.7738 87.9998 86.0813 68.6922 86.0813 44.9594C86.0813 38.5732 84.6744 32.4087 82.0261 26.7545Z"
                      fill="url(#paint2_linear_3026_2028)" />
                  </g>
                  <defs>
                    <linearGradient id="paint0_linear_3026_2028" x1="61.2163" y1="0" x2="61.2163" y2="53.5676"
                      gradientUnits="userSpaceOnUse">
                      <stop stop-color="#FFE59E" />
                      <stop offset="1" stop-color="#FFBC01" />
                    </linearGradient>
                    <linearGradient id="paint1_linear_3026_2028" x1="43.041" y1="19.1357" x2="43.041" y2="70.7842"
                      gradientUnits="userSpaceOnUse">
                      <stop stop-color="#FFE59E" />
                      <stop offset="1" stop-color="#FFBC01" />
                    </linearGradient>
                    <linearGradient id="paint2_linear_3026_2028" x1="43.0409" y1="1.91895" x2="43.0409" y2="87.9998"
                      gradientUnits="userSpaceOnUse">
                      <stop stop-color="#FFE59E" />
                      <stop offset="1" stop-color="#FFBC01" />
                    </linearGradient>
                    <clipPath id="clip0_3026_2028">
                      <rect width="88" height="88" fill="white" />
                    </clipPath>
                  </defs>
                </svg>