<svg xmlns="http://www.w3.org/2000/svg" width="64" height="64" viewBox="0 0 64 64" fill="none">
                  <rect x="1.06667" y="1.06667" width="61.8667" height="61.8667" rx="13.6"
                    fill="url(#paint0_linear_2520_620)" />
                  <rect x="1.06667" y="1.06667" width="61.8667" height="61.8667" rx="13.6" stroke="#000326"
                    stroke-width="2.13333" />
                  <g clip-path="url(#clip0_2520_620)">
                    <path
                      d="M52.9335 36.5687C52.5284 36.5687 52.2001 36.897 52.2001 37.302V44.8333C52.2001 45.6434 51.5435 46.3 50.7335 46.3H38.8535C38.4484 46.3 38.1201 46.6283 38.1201 47.0333C38.1201 47.4383 38.4484 47.7667 38.8535 47.7667H50.7335C52.3535 47.7667 53.6668 46.4534 53.6668 44.8333V37.302C53.6668 36.897 53.3385 36.5687 52.9335 36.5687Z"
                      fill="#070322" />
                    <path
                      d="M49.2668 41.1666V43.3666H47.0668C46.6618 43.3666 46.3335 43.6949 46.3335 44.1C46.3335 44.505 46.6618 44.8333 47.0668 44.8333H50.0002C50.4052 44.8333 50.7335 44.505 50.7335 44.1V41.1666C50.7335 40.7616 50.4052 40.4333 50.0002 40.4333C49.5952 40.4333 49.2668 40.7616 49.2668 41.1666Z"
                      fill="#070322" />
                    <path
                      d="M50.7337 11.8333H12.6003C10.9803 11.8333 9.66699 13.1466 9.66699 14.7666V44.8333C9.66699 46.4534 10.9803 47.7666 12.6003 47.7666H20.051C20.456 47.7666 20.7843 47.4383 20.7843 47.0333C20.7843 46.6283 20.456 46.3 20.051 46.3H12.6003C11.7903 46.3 11.1337 45.6433 11.1337 44.8333V22.1H52.2003V26.8006C52.2003 27.2057 52.5287 27.534 52.9337 27.534C53.3387 27.534 53.667 27.2057 53.667 26.8006V14.7666C53.667 13.1466 52.3537 11.8333 50.7337 11.8333ZM11.1337 20.6333V14.7666C11.1337 13.9566 11.7903 13.3 12.6003 13.3H50.7337C51.5437 13.3 52.2003 13.9566 52.2003 14.7666V20.6333H11.1337Z"
                      fill="#070322" />
                    <path
                      d="M14.8001 14.7667C13.5851 14.7667 12.6001 15.7516 12.6001 16.9667C12.6001 18.1817 13.5851 19.1667 14.8001 19.1667C16.0151 19.1667 17.0001 18.1817 17.0001 16.9667C17.0001 15.7516 16.0151 14.7667 14.8001 14.7667ZM14.8001 17.7C14.3951 17.7 14.0668 17.3717 14.0668 16.9667C14.0668 16.5617 14.3951 16.2333 14.8001 16.2333C15.2051 16.2333 15.5334 16.5617 15.5334 16.9667C15.5334 17.3717 15.2051 17.7 14.8001 17.7Z"
                      fill="#070322" />
                    <path
                      d="M20.6668 14.7667C19.4518 14.7667 18.4668 15.7516 18.4668 16.9667C18.4668 18.1817 19.4518 19.1667 20.6668 19.1667C21.8818 19.1667 22.8668 18.1817 22.8668 16.9667C22.8668 15.7516 21.8818 14.7667 20.6668 14.7667ZM20.6668 17.7C20.2618 17.7 19.9335 17.3717 19.9335 16.9667C19.9335 16.5617 20.2618 16.2333 20.6668 16.2333C21.0718 16.2333 21.4001 16.5617 21.4001 16.9667C21.4001 17.3717 21.0718 17.7 20.6668 17.7Z"
                      fill="#070322" />
                    <path
                      d="M26.5335 14.7667C25.3185 14.7667 24.3335 15.7516 24.3335 16.9667C24.3335 18.1817 25.3185 19.1667 26.5335 19.1667C27.7485 19.1667 28.7335 18.1817 28.7335 16.9667C28.7335 15.7516 27.7485 14.7667 26.5335 14.7667ZM26.5335 17.7C26.1285 17.7 25.8002 17.3717 25.8002 16.9667C25.8002 16.5617 26.1285 16.2333 26.5335 16.2333C26.9385 16.2333 27.2668 16.5617 27.2668 16.9667C27.2668 17.3717 26.9385 17.7 26.5335 17.7Z"
                      fill="#070322" />
                    <path
                      d="M14.0668 25.7667H29.4668C29.8718 25.7667 30.2002 25.4383 30.2002 25.0333C30.2002 24.6283 29.8718 24.3 29.4668 24.3H14.0668C13.6618 24.3 13.3335 24.6283 13.3335 25.0333C13.3335 25.4383 13.6618 25.7667 14.0668 25.7667Z"
                      fill="#070322" />
                    <path
                      d="M14.0668 29.4333H29.4668C29.8718 29.4333 30.2002 29.105 30.2002 28.7C30.2002 28.295 29.8718 27.9667 29.4668 27.9667H14.0668C13.6618 27.9667 13.3335 28.295 13.3335 28.7C13.3335 29.105 13.6618 29.4333 14.0668 29.4333Z"
                      fill="#070322" />
                    <path
                      d="M14.0668 33.1H29.4668C29.8718 33.1 30.2002 32.7716 30.2002 32.3666C30.2002 31.9616 29.8718 31.6333 29.4668 31.6333H14.0668C13.6618 31.6333 13.3335 31.9616 13.3335 32.3666C13.3335 32.7716 13.6618 33.1 14.0668 33.1Z"
                      fill="#070322" />
                    <path
                      d="M14.0668 36.7667H29.4668C29.8718 36.7667 30.2002 36.4383 30.2002 36.0333C30.2002 35.6283 29.8718 35.3 29.4668 35.3H14.0668C13.6618 35.3 13.3335 35.6283 13.3335 36.0333C13.3335 36.4383 13.6618 36.7667 14.0668 36.7667Z"
                      fill="#070322" />
                    <path
                      d="M14.0668 40.4333H26.2548C26.6598 40.4333 26.9882 40.105 26.9882 39.7C26.9882 39.295 26.6598 38.9667 26.2548 38.9667H14.0668C13.6618 38.9667 13.3335 39.295 13.3335 39.7C13.3335 40.105 13.6618 40.4333 14.0668 40.4333Z"
                      fill="#070322" />
                    <path
                      d="M14.0668 44.1H21.4002C21.8052 44.1 22.1335 43.7716 22.1335 43.3666C22.1335 42.9616 21.8052 42.6333 21.4002 42.6333H14.0668C13.6618 42.6333 13.3335 42.9616 13.3335 43.3666C13.3335 43.7716 13.6618 44.1 14.0668 44.1Z"
                      fill="#070322" />
                    <path
                      d="M33.8671 25.7667H49.2671C49.6721 25.7667 50.0005 25.4383 50.0005 25.0333C50.0005 24.6283 49.6721 24.3 49.2671 24.3H33.8671C33.4621 24.3 33.1338 24.6283 33.1338 25.0333C33.1338 25.4383 33.4621 25.7667 33.8671 25.7667Z"
                      fill="#070322" />
                    <path
                      d="M33.8671 29.4333H41.9338C42.3388 29.4333 42.6671 29.105 42.6671 28.7C42.6671 28.295 42.3388 27.9667 41.9338 27.9667H33.8671C33.4621 27.9667 33.1338 28.295 33.1338 28.7C33.1338 29.105 33.4621 29.4333 33.8671 29.4333Z"
                      fill="#070322" />
                    <path
                      d="M33.8671 33.1H36.8005C37.2055 33.1 37.5338 32.7716 37.5338 32.3666C37.5338 31.9616 37.2055 31.6333 36.8005 31.6333H33.8671C33.4621 31.6333 33.1338 31.9616 33.1338 32.3666C33.1338 32.7716 33.4621 33.1 33.8671 33.1Z"
                      fill="#070322" />
                    <path
                      d="M20.8195 51.4847C21.0906 51.881 21.5398 52.1181 22.02 52.1183C22.1383 52.1181 22.2562 52.1039 22.3712 52.0757L30.3103 50.15C30.4861 50.1079 30.6525 50.0333 30.8009 49.93L45.1603 39.9977L48.1758 37.9129L52.3976 34.9927C53.7282 34.0701 54.0611 32.2447 53.1419 30.9117L51.4728 28.4991C50.5514 27.1666 48.7243 26.8333 47.3918 27.7547L43.17 30.6749L40.159 32.7597L25.7959 42.6935C25.6474 42.7954 25.5193 42.9242 25.4182 43.0733L20.8136 49.8244C20.4688 50.3248 20.4712 50.9867 20.8195 51.4847ZM40.3936 34.3833L43.7303 39.2087L30.4577 48.3849L27.1203 43.5603L40.3936 34.3833ZM43.4091 32.2977L46.7465 37.1231L44.933 38.3741L41.5963 33.5488L43.4091 32.2977ZM48.2344 28.9603C48.5544 28.739 48.9493 28.6539 49.332 28.7238C49.7148 28.7937 50.0541 29.0128 50.2753 29.3329L51.9436 31.7448C52.1652 32.0649 52.2504 32.4599 52.1805 32.8428C52.1106 33.2257 51.8914 33.5652 51.5711 33.7864L47.947 36.2885L44.6096 31.4632L48.2344 28.9603ZM26.1046 44.6691L29.0614 48.9444L26.0064 49.6851L24.3336 47.2658L26.1046 44.6691ZM23.4485 48.5638L24.4803 50.0554L22.0258 50.6501L23.4485 48.5638Z"
                      fill="#070322" />
                  </g>
                  <defs>
                    <linearGradient id="paint0_linear_2520_620" x1="32" y1="0" x2="32" y2="64"
                      gradientUnits="userSpaceOnUse">
                      <stop stop-color="#FFE59E" />
                      <stop offset="1" stop-color="#FFBC01" />
                    </linearGradient>
                    <clipPath id="clip0_2520_620">
                      <rect width="44" height="44" fill="white" transform="translate(9.66699 10)" />
                    </clipPath>
                  </defs>
                </svg>