<svg xmlns="http://www.w3.org/2000/svg" width="88" height="88" viewBox="0 0 88 88" fill="none">
                    <path
                      d="M53.211 20.3986C54.4321 20.3986 55.422 19.4087 55.422 18.1876C55.422 16.9665 54.4321 15.9766 53.211 15.9766C51.9899 15.9766 51 16.9665 51 18.1876C51 19.4087 51.9899 20.3986 53.211 20.3986Z"
                      fill="url(#paint0_linear_2936_1865)" />
                    <path
                      d="M60.9991 20.3986C62.2202 20.3986 63.2101 19.4087 63.2101 18.1876C63.2101 16.9665 62.2202 15.9766 60.9991 15.9766C59.778 15.9766 58.7881 16.9665 58.7881 18.1876C58.7881 19.4087 59.778 20.3986 60.9991 20.3986Z"
                      fill="url(#paint1_linear_2936_1865)" />
                    <path
                      d="M68.7872 20.3986C70.0083 20.3986 70.9982 19.4087 70.9982 18.1876C70.9982 16.9665 70.0083 15.9766 68.7872 15.9766C67.5661 15.9766 66.5762 16.9665 66.5762 18.1876C66.5762 19.4087 67.5661 20.3986 68.7872 20.3986Z"
                      fill="url(#paint2_linear_2936_1865)" />
                    <path
                      d="M55.1954 55.5241L62.4086 79.2346C63.1071 81.5308 66.3411 81.5803 67.1084 79.3033L70.4854 69.2823C70.7329 68.5508 71.3049 67.9788 72.0364 67.7313L82.0574 64.3543C84.3316 63.5871 84.2849 60.3531 81.9886 59.6546L58.2781 52.4413C56.3889 51.8693 54.6234 53.6348 55.1954 55.5241Z"
                      fill="url(#paint3_linear_2936_1865)" />
                    <path
                      d="M51.251 56.7236C50.635 54.7052 51.0035 52.5739 52.2575 50.8826C53.5005 49.2079 55.475 48.2069 57.5457 48.2069C58.1975 48.2069 58.8465 48.3031 59.479 48.4956L80.797 54.9774V17.2446C80.797 11.6071 76.2045 7.01465 70.567 7.01465H14.4917C8.85422 7.01465 4.26172 11.6071 4.26172 17.2446V63.0321C4.26172 68.6971 8.85422 73.2896 14.5192 73.2896H56.2862L51.251 56.7236ZM9.21172 24.4496V17.2474C9.21172 14.3351 11.5795 11.9674 14.4917 11.9674H70.5642C73.4765 11.9674 75.8442 14.3351 75.8442 17.2474V24.4496H9.21172Z"
                      fill="url(#paint4_linear_2936_1865)" />
                    <defs>
                      <linearGradient id="paint0_linear_2936_1865" x1="53.211" y1="15.9766" x2="53.211" y2="20.3986"
                        gradientUnits="userSpaceOnUse">
                        <stop stop-color="#FFE59E" />
                        <stop offset="1" stop-color="#FFBC01" />
                      </linearGradient>
                      <linearGradient id="paint1_linear_2936_1865" x1="60.9991" y1="15.9766" x2="60.9991" y2="20.3986"
                        gradientUnits="userSpaceOnUse">
                        <stop stop-color="#FFE59E" />
                        <stop offset="1" stop-color="#FFBC01" />
                      </linearGradient>
                      <linearGradient id="paint2_linear_2936_1865" x1="68.7872" y1="15.9766" x2="68.7872" y2="20.3986"
                        gradientUnits="userSpaceOnUse">
                        <stop stop-color="#FFE59E" />
                        <stop offset="1" stop-color="#FFBC01" />
                      </linearGradient>
                      <linearGradient id="paint3_linear_2936_1865" x1="69.4116" y1="52.3319" x2="69.4116" y2="80.9842"
                        gradientUnits="userSpaceOnUse">
                        <stop stop-color="#FFE59E" />
                        <stop offset="1" stop-color="#FFBC01" />
                      </linearGradient>
                      <linearGradient id="paint4_linear_2936_1865" x1="42.5293" y1="7.01465" x2="42.5293" y2="73.2896"
                        gradientUnits="userSpaceOnUse">
                        <stop stop-color="#FFE59E" />
                        <stop offset="1" stop-color="#FFBC01" />
                      </linearGradient>
                    </defs>
                  </svg>