<svg xmlns="http://www.w3.org/2000/svg" width="88" height="88" viewBox="0 0 88 88" fill="none">
                  <path
                    d="M74.0643 62.4058C73.846 62.2515 65.2997 43.6762 64.816 42.8501C64.9561 42.409 64.9803 41.9393 64.8863 41.4862C64.7923 41.033 64.5834 40.6117 64.2795 40.2627C60.9249 37.2944 52.7475 44.9646 49.5128 47.9004C48.0883 49.4133 38.219 58.5071 41.2554 62.3232C41.5864 62.6347 41.9916 62.8564 42.4324 62.9672C42.8732 63.078 43.3351 63.0742 43.774 62.9563L56.4902 69.6446L50.3247 75.5623C49.9919 75.8729 49.7253 76.2476 49.5408 76.6638C49.3564 77.08 49.2579 77.5292 49.2513 77.9844C49.2929 78.6613 49.4835 79.3207 49.8095 79.9154C50.1354 80.5102 50.5886 81.0256 51.1368 81.4249C51.452 81.755 51.8292 82.0196 52.2468 82.2038C52.6644 82.388 53.1142 82.4881 53.5705 82.4983C54.0267 82.5086 54.4806 82.4287 54.906 82.2635C55.3314 82.0982 55.7201 81.8507 56.0498 81.5351L64.307 73.6219C70.8201 75.8416 77.1639 68.5938 74.0643 62.4058ZM43.5125 60.2314C43.4964 59.0111 46.2413 54.8956 51.4119 49.8823C56.6566 44.8954 60.7915 42.4817 62.105 42.3957C61.3677 44.511 59.1676 47.8024 54.1232 52.7174C49.0305 57.4823 45.6285 59.6208 43.5125 60.2314Z"
                    fill="url(#paint0_linear_3030_2100)" />
                  <path
                    d="M51.3379 32.8574C51.1573 32.8645 50.9799 32.907 50.8158 32.9827C50.6516 33.0584 50.504 33.1656 50.3814 33.2984C50.2588 33.4311 50.1635 33.5867 50.1011 33.7563C50.0386 33.9259 50.0102 34.1061 50.0175 34.2867L50.2278 39.6222C50.235 39.8028 50.2776 39.9801 50.3533 40.1442C50.429 40.3083 50.5363 40.4558 50.669 40.5784C50.8017 40.701 50.9573 40.7963 51.1269 40.8588C51.2964 40.9213 51.4766 40.9498 51.6571 40.9426C51.8377 40.9355 52.0151 40.8928 52.1791 40.8171C52.3432 40.7415 52.4908 40.6342 52.6134 40.5015C52.736 40.3687 52.8313 40.2132 52.8937 40.0436C52.9562 39.8741 52.9847 39.6939 52.9776 39.5133L52.7672 34.1779C52.7626 33.9965 52.7217 33.8179 52.6469 33.6526C52.572 33.4873 52.4648 33.3388 52.3315 33.2156C52.1983 33.0925 52.0417 32.9974 51.871 32.9359C51.7003 32.8743 51.5191 32.8477 51.3379 32.8574Z"
                    fill="url(#paint1_linear_3030_2100)" />
                  <path
                    d="M35.8891 47.8214C35.5287 47.7975 35.1734 47.9162 34.8998 48.1518C34.6262 48.3875 34.4561 48.7213 34.4263 49.0812C34.3965 49.4411 34.5094 49.7983 34.7406 50.0758C34.9717 50.3532 35.3027 50.5287 35.662 50.5644L40.9833 51.0039C41.3429 51.0265 41.6971 50.9072 41.9698 50.6716C42.2425 50.436 42.4118 50.1028 42.4416 49.7437C42.4713 49.3845 42.359 49.0281 42.1288 48.7508C41.8986 48.4736 41.5688 48.2976 41.2103 48.2609L35.8891 47.8214Z"
                    fill="url(#paint2_linear_3030_2100)" />
                  <path
                    d="M44.4762 44.634C44.7306 44.8894 45.075 45.0348 45.4354 45.039C45.7959 45.0432 46.1436 44.9059 46.4039 44.6565C46.6641 44.4071 46.8162 44.0656 46.8274 43.7053C46.8386 43.345 46.7081 42.9947 46.4638 42.7296L43.27 39.3946C43.0172 39.132 42.6706 38.9803 42.3062 38.9729C41.9417 38.9655 41.5892 39.103 41.326 39.3552C41.0628 39.6074 40.9104 39.9536 40.9022 40.3181C40.894 40.6825 41.0307 41.0353 41.2823 41.299L44.4762 44.634Z"
                    fill="url(#paint3_linear_3030_2100)" />
                  <path
                    d="M26.2274 52.9805C22.7516 52.9849 19.4197 54.3685 16.9633 56.8275C14.5069 59.2865 13.1267 62.6199 13.126 66.0956C13.8443 83.4845 38.6304 83.4649 39.3427 66.0956C39.3411 62.6177 37.9588 59.2827 35.4995 56.8235C33.0403 54.3642 29.7053 52.982 26.2274 52.9805ZM28.856 63.5497V68.8344C28.8908 69.9302 28.4907 70.9954 27.7429 71.7972C26.9952 72.5991 25.9606 73.0726 24.865 73.1143H23.6814C22.7608 73.0565 21.8968 72.65 21.2653 71.9776C20.6338 71.3052 20.2823 70.4174 20.2823 69.4949C20.2823 68.5725 20.6338 67.6847 21.2653 67.0123C21.8968 66.3398 22.7608 65.9333 23.6814 65.8755C24.0533 65.8741 24.4114 66.0165 24.6807 66.273C24.95 66.5295 25.1097 66.8802 25.1264 67.2517C25.1332 67.4296 25.1041 67.6071 25.0408 67.7735C24.9776 67.9399 24.8814 68.0919 24.7581 68.2203C24.6348 68.3487 24.4869 68.451 24.3232 68.5211C24.1595 68.5911 23.9834 68.6274 23.8053 68.6279C23.372 68.5717 23.04 68.9643 23.0347 69.4949C23.0347 69.9629 23.3236 70.3619 23.6814 70.3619H24.865C25.2301 70.3198 25.5643 70.1363 25.7958 69.8508C26.0273 69.5652 26.1378 69.2004 26.1036 68.8344V60.4395C26.1101 60.173 26.1931 59.914 26.3428 59.6935C26.4924 59.4729 26.7024 59.3001 26.9476 59.1956C27.1929 59.0912 27.463 59.0595 27.7257 59.1043C27.9885 59.1492 28.2327 59.2688 28.4294 59.4487C29.7256 60.7009 31.1049 61.8642 32.558 62.9304C32.7615 62.9454 32.9589 63.0065 33.1353 63.109C33.3117 63.2115 33.4625 63.3528 33.5764 63.5222C33.6787 63.6712 33.7507 63.8389 33.7881 64.0158C33.8255 64.1927 33.8277 64.3752 33.7945 64.5529C33.7612 64.7306 33.6932 64.9 33.5944 65.0514C33.4956 65.2028 33.3678 65.3332 33.2185 65.4351C32.5442 65.9031 32.0212 66.2609 28.856 63.5497Z"
                    fill="url(#paint4_linear_3030_2100)" />
                  <path
                    d="M26.2272 47.3377C29.7029 47.337 33.0363 45.9568 35.4954 43.5004C37.9544 41.0439 39.338 37.712 39.3424 34.2362C38.6451 16.8479 13.8239 16.8384 13.1257 34.2363C13.1294 37.7099 14.5109 41.0402 16.9671 43.4964C19.4233 45.9526 22.7536 47.3341 26.2272 47.3377ZM21.6582 33.4105H23.7913V31.0984C23.7927 29.752 24.3282 28.4612 25.2802 27.5091C26.2323 26.5571 27.5231 26.0216 28.8695 26.0202C30.291 25.9874 32.9385 26.8163 31.9798 28.6627C31.7884 28.9711 31.4831 29.1917 31.1302 29.2766C30.7773 29.3616 30.4051 29.3042 30.0943 29.1167C29.7267 28.8887 29.3021 28.7694 28.8695 28.7726C28.564 28.7723 28.2614 28.8322 27.979 28.9489C27.6967 29.0657 27.4401 29.237 27.2241 29.453C27.008 29.6691 26.8367 29.9256 26.72 30.2079C26.6032 30.4903 26.5433 30.7929 26.5437 31.0984V33.4105H29.1447C29.5059 33.4162 29.8504 33.5637 30.1038 33.8211C30.3573 34.0786 30.4993 34.4254 30.4993 34.7867C30.4993 35.1479 30.3573 35.4947 30.1038 35.7522C29.8504 36.0096 29.5059 36.1572 29.1447 36.1629H26.5438V41.0759C26.5443 41.257 26.5092 41.4364 26.4402 41.6039C26.3713 41.7713 26.2701 41.9236 26.1422 42.0518C26.0144 42.1801 25.8625 42.2818 25.6952 42.3513C25.528 42.4207 25.3486 42.4564 25.1675 42.4564C24.9865 42.4564 24.8071 42.4207 24.6399 42.3513C24.4726 42.2818 24.3207 42.1801 24.1929 42.0518C24.065 41.9236 23.9638 41.7713 23.8949 41.6039C23.8259 41.4364 23.7908 41.257 23.7913 41.0759V36.1629H21.6582C21.297 36.1572 20.9525 36.0096 20.6991 35.7522C20.4457 35.4947 20.3036 35.1479 20.3036 34.7867C20.3036 34.4254 20.4457 34.0786 20.6991 33.8211C20.9525 33.5637 21.297 33.4162 21.6582 33.4105Z"
                    fill="url(#paint5_linear_3030_2100)" />
                  <path
                    d="M55.0175 32.0337C58.544 32.0282 61.9243 30.624 64.4166 28.1291C66.9089 25.6341 68.3097 22.2524 68.3116 18.7259C67.588 1.08185 42.4355 1.10088 41.7095 18.726C41.7145 22.2539 43.1182 25.6359 45.6128 28.1305C48.1075 30.6252 51.4895 32.0288 55.0175 32.0337ZM47.6273 14.8863C47.6264 13.9467 47.9983 13.0452 48.6614 12.3796C49.3244 11.7139 50.2245 11.3385 51.164 11.3357H58.857C59.798 11.3379 60.6998 11.7128 61.3652 12.3781C62.0306 13.0435 62.4054 13.9453 62.4077 14.8863V22.5792C62.4049 23.5188 62.0294 24.4188 61.3638 25.0819C60.6981 25.745 59.7966 26.1169 58.857 26.1161H51.164C50.6995 26.1162 50.2395 26.0248 49.8104 25.8471C49.3812 25.6695 48.9912 25.4089 48.6628 25.0805C48.3343 24.752 48.0738 24.3621 47.8961 23.9329C47.7185 23.5037 47.6271 23.0437 47.6273 22.5792V14.8863Z"
                    fill="url(#paint6_linear_3030_2100)" />
                  <path
                    d="M51.1641 23.3635H58.8571C58.9612 23.365 59.0645 23.3458 59.1611 23.307C59.2577 23.2683 59.3457 23.2108 59.4199 23.1378C59.4941 23.0649 59.5532 22.9779 59.5936 22.882C59.634 22.7861 59.655 22.6831 59.6553 22.5791V14.8861C59.6552 14.6745 59.571 14.4715 59.4213 14.3219C59.2717 14.1722 59.0688 14.0881 58.8571 14.0879H51.1641C51.06 14.0882 50.957 14.1092 50.8611 14.1496C50.7652 14.1901 50.6783 14.2491 50.6053 14.3233C50.5324 14.3976 50.4749 14.4855 50.4362 14.5821C50.3974 14.6787 50.3782 14.7821 50.3797 14.8861V22.5791C50.3785 22.6824 50.398 22.7849 50.437 22.8806C50.476 22.9763 50.5337 23.0633 50.6068 23.1364C50.6799 23.2095 50.7668 23.2672 50.8625 23.3062C50.9582 23.3452 51.0607 23.3647 51.1641 23.3635ZM55.0175 14.9549C56.011 14.9678 56.9593 15.3715 57.6573 16.0785C58.3552 16.7856 58.7466 17.7391 58.7466 18.7326C58.7466 19.7262 58.3552 20.6797 57.6572 21.3867C56.9592 22.0938 56.0108 22.4974 55.0174 22.5103C54.024 22.4974 53.0756 22.0937 52.3776 21.3866C51.6797 20.6796 51.2883 19.726 51.2884 18.7325C51.2884 17.739 51.6797 16.7855 52.3777 16.0784C53.0757 15.3714 54.0241 14.9677 55.0175 14.9549Z"
                    fill="url(#paint7_linear_3030_2100)" />
                  <path
                    d="M55.0176 19.7576C55.2849 19.7506 55.5389 19.6395 55.7254 19.4479C55.912 19.2564 56.0164 18.9996 56.0164 18.7323C56.0164 18.4649 55.912 18.2081 55.7254 18.0166C55.5388 17.8251 55.2848 17.714 55.0176 17.707C54.7503 17.714 54.4963 17.8251 54.3098 18.0166C54.1232 18.2082 54.0188 18.465 54.0188 18.7323C54.0188 18.9997 54.1232 19.2565 54.3098 19.448C54.4964 19.6395 54.7504 19.7506 55.0176 19.7576Z"
                    fill="url(#paint8_linear_3030_2100)" />
                  <defs>
                    <linearGradient id="paint0_linear_3030_2100" x1="57.7764" y1="39.5918" x2="57.7764" y2="82.4992"
                      gradientUnits="userSpaceOnUse">
                      <stop stop-color="#FFE59E" />
                      <stop offset="1" stop-color="#FFBC01" />
                    </linearGradient>
                    <linearGradient id="paint1_linear_3030_2100" x1="51.4975" y1="32.8555" x2="51.4975" y2="40.9437"
                      gradientUnits="userSpaceOnUse">
                      <stop stop-color="#FFE59E" />
                      <stop offset="1" stop-color="#FFBC01" />
                    </linearGradient>
                    <linearGradient id="paint2_linear_3030_2100" x1="38.4339" y1="47.8184" x2="38.4339" y2="51.0066"
                      gradientUnits="userSpaceOnUse">
                      <stop stop-color="#FFE59E" />
                      <stop offset="1" stop-color="#FFBC01" />
                    </linearGradient>
                    <linearGradient id="paint3_linear_3030_2100" x1="43.865" y1="38.9727" x2="43.865" y2="45.0391"
                      gradientUnits="userSpaceOnUse">
                      <stop stop-color="#FFE59E" />
                      <stop offset="1" stop-color="#FFBC01" />
                    </linearGradient>
                    <linearGradient id="paint4_linear_3030_2100" x1="26.2343" y1="52.9805" x2="26.2343" y2="79.1299"
                      gradientUnits="userSpaceOnUse">
                      <stop stop-color="#FFE59E" />
                      <stop offset="1" stop-color="#FFBC01" />
                    </linearGradient>
                    <linearGradient id="paint5_linear_3030_2100" x1="26.2341" y1="21.1914" x2="26.2341" y2="47.3377"
                      gradientUnits="userSpaceOnUse">
                      <stop stop-color="#FFE59E" />
                      <stop offset="1" stop-color="#FFBC01" />
                    </linearGradient>
                    <linearGradient id="paint6_linear_3030_2100" x1="55.0105" y1="5.5" x2="55.0105" y2="32.0337"
                      gradientUnits="userSpaceOnUse">
                      <stop stop-color="#FFE59E" />
                      <stop offset="1" stop-color="#FFBC01" />
                    </linearGradient>
                    <linearGradient id="paint7_linear_3030_2100" x1="55.0175" y1="14.0879" x2="55.0175" y2="23.3636"
                      gradientUnits="userSpaceOnUse">
                      <stop stop-color="#FFE59E" />
                      <stop offset="1" stop-color="#FFBC01" />
                    </linearGradient>
                    <linearGradient id="paint8_linear_3030_2100" x1="55.0176" y1="17.707" x2="55.0176" y2="19.7576"
                      gradientUnits="userSpaceOnUse">
                      <stop stop-color="#FFE59E" />
                      <stop offset="1" stop-color="#FFBC01" />
                    </linearGradient>
                  </defs>
                </svg>