<svg xmlns="http://www.w3.org/2000/svg" width="88" height="88" viewBox="0 0 88 88" fill="none">
                  <path
                    d="M80.1228 7.20312H45.4755C44.1651 7.20312 43.0981 8.26875 43.0981 9.5805V31.3454C43.0981 32.6571 44.1638 33.7227 45.4755 33.7227H48.7934C49.5538 33.7227 50.1684 34.3387 50.1684 35.0977V38.571L55.7028 34.0335C55.9489 33.8328 56.2555 33.7214 56.5745 33.7214H80.1228C81.4331 33.7214 82.5001 32.6557 82.5001 31.344V9.5805C82.5001 8.27013 81.4345 7.20312 80.1228 7.20312ZM56.7808 24.5377C56.7808 25.2967 56.1661 25.9127 55.4058 25.9127C54.6454 25.9127 54.0308 25.2967 54.0308 24.5377V23.0514H51.0786V24.5377C51.0786 25.2967 50.464 25.9127 49.7036 25.9127C48.9433 25.9127 48.3286 25.2967 48.3286 24.5377V17.7782C48.3286 15.8546 49.8934 14.2899 51.8156 14.2899H53.2938C55.216 14.2899 56.7808 15.8546 56.7808 17.7782V24.5377ZM67.074 22.4409C67.074 24.3562 65.5161 25.9127 63.6021 25.9127H59.9955C59.2351 25.9127 58.6205 25.2967 58.6205 24.5377V15.6662C58.6205 14.9072 59.2351 14.2912 59.9955 14.2912H63.6021C65.5175 14.2912 67.074 15.8491 67.074 17.7631V22.4409ZM71.9773 18.727H74.3918C76.0569 18.727 77.4113 20.0814 77.4113 21.7465V22.8919C77.4113 24.557 76.0569 25.9114 74.3918 25.9114H71.9773C70.3121 25.9114 68.9578 24.557 68.9578 22.8919C68.9578 22.1329 69.5724 21.5169 70.3328 21.5169C71.0931 21.5169 71.7078 22.1329 71.7078 22.8919C71.7078 23.0404 71.8288 23.1614 71.9773 23.1614H74.3918C74.5403 23.1614 74.6613 23.0404 74.6613 22.8919V21.7465C74.6613 21.598 74.5403 21.477 74.3918 21.477H71.9773C70.3121 21.477 68.9578 20.1226 68.9578 18.4575V17.3107C68.9578 15.6456 70.3121 14.2912 71.9773 14.2912H74.3918C76.0569 14.2912 77.4113 15.6456 77.4113 17.3107C77.4113 18.0697 76.7966 18.6857 76.0363 18.6857C75.2759 18.6857 74.6613 18.0697 74.6613 17.3107C74.6613 17.1622 74.5403 17.0412 74.3918 17.0412H71.9773C71.8288 17.0412 71.7078 17.1622 71.7078 17.3107V18.4575C71.7078 18.606 71.8288 18.727 71.9773 18.727Z"
                    fill="url(#paint0_linear_3030_2121)" />
                  <path d="M51.8842 75.5113L52.7669 72.9785H35.2329L36.1157 75.5113H51.8842Z"
                    fill="url(#paint1_linear_3030_2121)" />
                  <path
                    d="M63.6032 17.041H61.3716V23.1625H63.6032C64.002 23.1625 64.3251 22.838 64.3251 22.4406V17.7643C64.3251 17.3655 64.002 17.0424 63.6032 17.0424V17.041Z"
                    fill="url(#paint2_linear_3030_2121)" />
                  <path
                    d="M38.6279 42.2285C38.5247 42.2285 38.4381 42.2643 38.3831 42.2931C38.2882 42.3468 38.126 42.4733 38.126 42.729V59.9481C38.126 60.2039 38.2869 60.3304 38.3831 60.384C38.4794 60.4363 38.6719 60.505 38.8891 60.3703L52.6171 51.7614C52.8192 51.6349 52.8495 51.4424 52.8495 51.3393C52.8495 51.2361 52.8206 51.045 52.6171 50.9171L38.8891 42.3083C38.7956 42.2505 38.7062 42.2285 38.6279 42.2285Z"
                    fill="url(#paint3_linear_3030_2121)" />
                  <path
                    d="M76.7663 72.9782H55.6806L54.1599 77.3383C53.966 77.8897 53.4462 78.2595 52.8619 78.2595H35.1395C34.5537 78.2595 34.034 77.8897 33.8415 77.3383L32.3208 72.9782H11.2338C11.2228 72.9782 11.2145 72.9727 11.2035 72.9727H5.5V74.3394C5.5 77.9007 8.39712 80.7978 11.9584 80.7978H76.0416C79.6029 80.7978 82.5 77.9007 82.5 74.3394V72.9727H76.7965C76.7855 72.9727 76.7773 72.9782 76.7663 72.9782Z"
                    fill="url(#paint4_linear_3030_2121)" />
                  <path
                    d="M53.2952 17.041H51.8171C51.4101 17.041 51.0801 17.3724 51.0801 17.7794V20.3025H54.0322V17.7794C54.0322 17.3724 53.7022 17.041 53.2952 17.041Z"
                    fill="url(#paint5_linear_3030_2121)" />
                  <path
                    d="M45.4755 36.4714C42.6485 36.4714 40.3481 34.1711 40.3481 31.3441V28.1953H16.8851C14.527 28.1953 12.6089 30.1203 12.6089 32.4853V70.2222H75.3914V36.4714H57.0668L49.6651 42.5393C49.4149 42.7442 49.1055 42.8514 48.7934 42.8514C48.5926 42.8514 48.3933 42.8074 48.2049 42.7194C47.7236 42.4912 47.4184 42.0086 47.4184 41.4764V36.4728L45.4755 36.4714ZM54.0789 48.5879C55.0318 49.1861 55.5996 50.2146 55.5996 51.3393C55.5996 52.4641 55.0318 53.4939 54.0789 54.0907L40.3509 62.6996C39.8243 63.0296 39.2261 63.1959 38.6253 63.1959C38.0835 63.1959 37.5431 63.0612 37.0523 62.7903C36.0183 62.2183 35.3761 61.1293 35.3761 59.9482V42.7291C35.3761 41.5479 36.0183 40.4589 37.0523 39.8869C38.0821 39.3149 39.3499 39.3493 40.3495 39.9777L54.0775 48.5866L54.0789 48.5879Z"
                    fill="url(#paint6_linear_3030_2121)" />
                  <defs>
                    <linearGradient id="paint0_linear_3030_2121" x1="62.7991" y1="7.20312" x2="62.7991" y2="38.571"
                      gradientUnits="userSpaceOnUse">
                      <stop stop-color="#FFE59E" />
                      <stop offset="1" stop-color="#FFBC01" />
                    </linearGradient>
                    <linearGradient id="paint1_linear_3030_2121" x1="43.9999" y1="72.9785" x2="43.9999" y2="75.5113"
                      gradientUnits="userSpaceOnUse">
                      <stop stop-color="#FFE59E" />
                      <stop offset="1" stop-color="#FFBC01" />
                    </linearGradient>
                    <linearGradient id="paint2_linear_3030_2121" x1="62.8483" y1="17.041" x2="62.8483" y2="23.1625"
                      gradientUnits="userSpaceOnUse">
                      <stop stop-color="#FFE59E" />
                      <stop offset="1" stop-color="#FFBC01" />
                    </linearGradient>
                    <linearGradient id="paint3_linear_3030_2121" x1="45.4877" y1="42.2285" x2="45.4877" y2="60.4487"
                      gradientUnits="userSpaceOnUse">
                      <stop stop-color="#FFE59E" />
                      <stop offset="1" stop-color="#FFBC01" />
                    </linearGradient>
                    <linearGradient id="paint4_linear_3030_2121" x1="44" y1="72.9727" x2="44" y2="80.7978"
                      gradientUnits="userSpaceOnUse">
                      <stop stop-color="#FFE59E" />
                      <stop offset="1" stop-color="#FFBC01" />
                    </linearGradient>
                    <linearGradient id="paint5_linear_3030_2121" x1="52.5561" y1="17.041" x2="52.5561" y2="20.3025"
                      gradientUnits="userSpaceOnUse">
                      <stop stop-color="#FFE59E" />
                      <stop offset="1" stop-color="#FFBC01" />
                    </linearGradient>
                    <linearGradient id="paint6_linear_3030_2121" x1="44.0001" y1="28.1953" x2="44.0001" y2="70.2222"
                      gradientUnits="userSpaceOnUse">
                      <stop stop-color="#FFE59E" />
                      <stop offset="1" stop-color="#FFBC01" />
                    </linearGradient>
                  </defs>
                </svg>