<svg xmlns="http://www.w3.org/2000/svg" width="64" height="64" viewBox="0 0 64 64" fill="none">
                  <rect x="1.06667" y="1.06667" width="61.8667" height="61.8667" rx="13.6"
                    fill="url(#paint0_linear_2115_1054)" />
                  <rect x="1.06667" y="1.06667" width="61.8667" height="61.8667" rx="13.6" stroke="#000326"
                    stroke-width="2.13333" />
                  <g clip-path="url(#clip0_2115_1054)">
                    <path
                      d="M38.2261 34.9896C39.3265 33.5825 40.6961 31.8312 40.6961 29.0116C40.6961 24.2167 36.7951 20.3157 32.0003 20.3157C27.2055 20.3157 23.3044 24.2167 23.3044 29.0116C23.3044 31.8312 24.6739 33.5825 25.7744 34.9896C26.4633 35.8707 27.0075 36.5665 27.0075 37.2414C27.0075 37.2616 27.0096 37.2813 27.0105 37.3012V42.398C27.0105 43.1099 27.5877 43.6871 28.2996 43.6871H35.7024C36.4143 43.6871 36.9914 43.1099 36.9914 42.398V37.2729C36.9917 37.2624 36.9931 37.252 36.9931 37.2414C36.993 36.5666 37.5371 35.8707 38.2261 34.9896ZM25.8826 29.0116C25.8826 25.6383 28.627 22.8939 32.0003 22.8939C35.3736 22.8939 38.118 25.6383 38.118 29.0116C38.118 30.9429 37.184 32.1371 36.1953 33.4015C35.5787 34.1901 34.9472 34.9975 34.6279 35.9524H33.2894V31.2772L34.863 30.0183C35.4189 29.5735 35.5091 28.7623 35.0643 28.2064C34.6195 27.6505 33.8083 27.5603 33.2524 28.0051L32.0002 29.0068L30.7481 28.0051C30.1922 27.5604 29.381 27.6506 28.9363 28.2064C28.4916 28.7623 28.5817 29.5735 29.1376 30.0183L30.7112 31.2772V35.9524H29.3726C29.0533 34.9976 28.4219 34.1901 27.8053 33.4015C26.8165 32.1371 25.8826 30.9428 25.8826 29.0116ZM29.5886 41.1089V38.5305H34.4132V41.1089H29.5886Z"
                      fill="#000326" />
                    <path
                      d="M31.9998 17.7344C33.3809 17.7344 34.5945 17.0061 35.2787 15.914C37.4842 16.3633 39.5982 17.2733 41.4428 18.5733C41.6685 18.7324 41.9277 18.8088 42.1843 18.8088C42.5893 18.8088 42.9881 18.6184 43.2392 18.2622C43.6493 17.6803 43.51 16.8761 42.9281 16.466C40.8057 14.9702 38.3746 13.9211 35.8375 13.3975C35.6047 11.4859 33.9731 10 31.9998 10C29.8674 10 28.1326 11.7348 28.1326 13.8672C28.1326 15.9996 29.8674 17.7344 31.9998 17.7344ZM31.9998 12.5781C32.7105 12.5781 33.2888 13.1564 33.2888 13.8672C33.2888 14.578 32.7105 15.1562 31.9998 15.1562C31.289 15.1562 30.7107 14.578 30.7107 13.8672C30.7107 13.1564 31.289 12.5781 31.9998 12.5781Z"
                      fill="#000326" />
                    <path
                      d="M32.0003 46.2657C30.6192 46.2657 29.4056 46.994 28.7213 48.0861C26.5159 47.6367 24.4018 46.7268 22.5571 45.4268C21.9752 45.0168 21.171 45.1561 20.7608 45.7379C20.3508 46.3198 20.4901 47.1241 21.072 47.5341C23.1944 49.0299 25.6255 50.079 28.1626 50.6026C28.3952 52.5141 30.0269 54.0001 32.0002 54.0001C34.1326 54.0001 35.8674 52.2653 35.8674 50.1329C35.8675 48.0005 34.1326 46.2657 32.0003 46.2657ZM32.0003 51.4219C31.2895 51.4219 30.7112 50.8437 30.7112 50.1329C30.7112 49.4221 31.2895 48.8438 32.0003 48.8438C32.7111 48.8438 33.2893 49.4221 33.2893 50.1329C33.2893 50.8437 32.7111 51.4219 32.0003 51.4219Z"
                      fill="#000326" />
                    <path
                      d="M47.7023 37.1992C45.57 37.1992 43.8351 38.934 43.8351 41.0664C43.8351 41.7213 43.9994 42.3385 44.2879 42.8796C42.7905 44.5674 40.9471 45.9447 38.9079 46.8925C38.2623 47.1926 37.9822 47.9592 38.2823 48.6048C38.5007 49.0747 38.966 49.351 39.4521 49.351C39.6339 49.351 39.8188 49.3122 39.9946 49.2306C42.3397 48.1405 44.4602 46.5596 46.1861 44.6237C46.652 44.823 47.1644 44.9337 47.7023 44.9337C49.8347 44.9337 51.5695 43.1989 51.5695 41.0665C51.5695 38.934 49.8347 37.1992 47.7023 37.1992ZM47.7023 42.3555C46.9915 42.3555 46.4133 41.7773 46.4133 41.0664C46.4133 40.3556 46.9915 39.7773 47.7023 39.7773C48.4131 39.7773 48.9914 40.3556 48.9914 41.0664C48.9914 41.7773 48.4131 42.3555 47.7023 42.3555Z"
                      fill="#000326" />
                    <path
                      d="M16.4271 37.2023C15.8685 35.5312 15.5857 33.7846 15.5857 32C15.5857 31.5166 15.6074 31.0245 15.6504 30.5374C15.713 29.8282 15.1887 29.2026 14.4795 29.14C13.7703 29.0777 13.1447 29.6018 13.0822 30.3109C13.0327 30.873 13.0076 31.4412 13.0076 31.9999C13.0076 34.0498 13.3309 36.0572 13.969 37.9801C13.0345 38.6867 12.4292 39.8069 12.4292 41.0662C12.4292 43.1986 14.164 44.9334 16.2964 44.9334C18.4288 44.9334 20.1636 43.1986 20.1636 41.0662C20.1636 38.9776 18.4991 37.2718 16.4271 37.2023ZM16.2964 42.3553C15.5856 42.3553 15.0073 41.7771 15.0073 41.0663C15.0073 40.3555 15.5856 39.7772 16.2964 39.7772C17.0072 39.7772 17.5854 40.3555 17.5854 41.0663C17.5854 41.7771 17.0072 42.3553 16.2964 42.3553Z"
                      fill="#000326" />
                    <path
                      d="M47.5715 26.7974C48.1301 28.4681 48.4138 30.2135 48.4138 31.9999C48.4138 32.7118 48.991 33.289 49.7029 33.289C50.4148 33.289 50.992 32.7118 50.992 31.9999C50.992 29.9484 50.6679 27.9423 50.0298 26.0203C50.9648 25.3137 51.5703 24.1932 51.5703 22.9336C51.5703 20.8012 49.8355 19.0664 47.7031 19.0664C45.5708 19.0664 43.8359 20.8012 43.8359 22.9336C43.8359 25.0219 45.4999 26.7276 47.5715 26.7974ZM47.7031 21.6445C48.4139 21.6445 48.9922 22.2228 48.9922 22.9336C48.9922 23.6444 48.4139 24.2227 47.7031 24.2227C46.9923 24.2227 46.4141 23.6444 46.4141 22.9336C46.4141 22.2228 46.9923 21.6445 47.7031 21.6445Z"
                      fill="#000326" />
                    <path
                      d="M25.0908 17.1075C25.7365 16.8074 26.0165 16.0408 25.7164 15.3952C25.4163 14.7496 24.6498 14.4695 24.0041 14.7695C21.6589 15.8597 19.5386 17.4406 17.8126 19.3764C17.3467 19.1771 16.8343 19.0664 16.2964 19.0664C14.164 19.0664 12.4292 20.8012 12.4292 22.9336C12.4292 25.066 14.164 26.8008 16.2964 26.8008C18.4288 26.8008 20.1636 25.0661 20.1636 22.9336C20.1636 22.2787 19.9993 21.6616 19.7109 21.1204C21.2081 19.4326 23.0515 18.0553 25.0908 17.1075ZM16.2964 24.2227C15.5856 24.2227 15.0073 23.6444 15.0073 22.9336C15.0073 22.2228 15.5856 21.6445 16.2964 21.6445C17.0072 21.6445 17.5854 22.2228 17.5854 22.9336C17.5854 23.6444 17.0072 24.2227 16.2964 24.2227Z"
                      fill="#000326" />
                  </g>
                  <defs>
                    <linearGradient id="paint0_linear_2115_1054" x1="32" y1="0" x2="32" y2="64"
                      gradientUnits="userSpaceOnUse">
                      <stop stop-color="#FFE59E" />
                      <stop offset="1" stop-color="#FFBC01" />
                    </linearGradient>
                    <clipPath id="clip0_2115_1054">
                      <rect width="44" height="44" fill="white" transform="translate(10 10)" />
                    </clipPath>
                  </defs>
                </svg>