<svg xmlns="http://www.w3.org/2000/svg" width="70" height="70" viewBox="0 0 88 88" fill="none">
                  <path fill-rule="evenodd" clip-rule="evenodd"
                    d="M69.234 10.0835C72.006 10.0835 74.657 11.1322 76.615 12.9838C78.6317 14.8868 79.75 17.4755 79.75 20.1668V56.8335C79.75 59.5248 78.6317 62.1135 76.615 64.0165C74.657 65.8682 72.006 66.9168 69.234 66.9168H18.766C15.994 66.9168 13.343 65.8682 11.385 64.0165C9.36833 62.1135 8.25 59.5248 8.25 56.8335V20.1668C8.25 17.4755 9.36833 14.8868 11.385 12.9838C13.343 11.1322 15.994 10.0835 18.766 10.0835H69.234ZM25.6667 46.7502C25.6667 48.2682 26.8987 49.5002 28.4167 49.5002C29.9347 49.5002 31.1667 48.2682 31.1667 46.7502V42.1668H36.6667V46.7502C36.6667 48.2682 37.8987 49.5002 39.4167 49.5002C40.9347 49.5002 42.1667 48.2682 42.1667 46.7502V35.7502C42.1667 31.1925 38.4743 27.5002 33.9167 27.5002C29.359 27.5002 25.6667 31.1925 25.6667 35.7502V46.7502ZM36.6667 36.6668H31.1667V35.7502C31.1667 34.2322 32.3987 33.0002 33.9167 33.0002C35.4347 33.0002 36.6667 34.2322 36.6667 35.7502V36.6668ZM45.8333 46.7502C45.8333 48.2682 47.0653 49.5002 48.5833 49.5002H54.0833C58.641 49.5002 62.3333 45.8078 62.3333 41.2502V35.7502C62.3333 31.1925 58.641 27.5002 54.0833 27.5002H48.5833C47.0653 27.5002 45.8333 28.7322 45.8333 30.2502V46.7502ZM51.3333 44.0002V33.0002H54.0833C55.6013 33.0002 56.8333 34.2322 56.8333 35.7502V41.2502C56.8333 42.7682 55.6013 44.0002 54.0833 44.0002H51.3333Z"
                    fill="url(#paint0_linear_3013_2239)" />
                  <path fill-rule="evenodd" clip-rule="evenodd"
                    d="M80.6666 72.417C82.1846 72.417 83.4166 73.649 83.4166 75.167C83.4166 76.685 82.1846 77.917 80.6666 77.917H7.33325C5.81525 77.917 4.58325 76.685 4.58325 75.167C4.58325 73.649 5.81525 72.417 7.33325 72.417H80.6666Z"
                    fill="url(#paint1_linear_3013_2239)" />
                  <defs>
                    <linearGradient id="paint0_linear_3013_2239" x1="44" y1="10.0835" x2="44" y2="66.9168"
                      gradientUnits="userSpaceOnUse">
                      <stop stop-color="#FFE59E" />
                      <stop offset="1" stop-color="#FFBC01" />
                    </linearGradient>
                    <linearGradient id="paint1_linear_3013_2239" x1="43.9999" y1="72.417" x2="43.9999" y2="77.917"
                      gradientUnits="userSpaceOnUse">
                      <stop stop-color="#FFE59E" />
                      <stop offset="1" stop-color="#FFBC01" />
                    </linearGradient>
                  </defs>
                </svg>