<svg xmlns="http://www.w3.org/2000/svg" width="88" height="88" viewBox="0 0 88 88" fill="none">
                  <path
                    d="M50.1601 46.8168C49.6321 46.6408 49.1041 46.6408 48.7521 46.4648C48.5761 46.9928 48.4001 47.6968 48.2241 48.4008C48.7521 47.8728 49.4561 47.3448 50.1601 46.8168Z"
                    fill="url(#paint0_linear_3034_2062)" />
                  <path
                    d="M40.8323 64.7675C41.0083 58.9595 43.2963 53.8555 46.8163 49.9835C46.8163 49.6315 46.8163 49.2795 46.8163 49.1035C46.8163 48.2235 46.8163 47.5195 46.9923 46.6395C45.5843 46.8155 44.3523 47.1675 42.7683 47.5195C43.2963 46.6395 44.1763 46.1115 45.0563 45.5835C45.9363 45.0555 46.9923 44.8795 48.0483 44.8795C49.1043 44.8795 50.1603 45.2315 51.0403 45.7595C51.0403 45.7595 51.2163 45.9355 51.3923 45.9355C55.2643 43.2955 60.0163 41.7115 64.9443 41.7115H66.0003H66.1763C66.1763 41.7115 66.1763 41.5355 66.3523 41.5355C67.2323 38.7195 66.7043 35.5515 65.2963 33.2635C64.9443 32.9115 64.7683 32.3835 64.4163 32.0315C62.8323 33.4395 61.0723 34.4955 59.1363 35.1995C57.9043 35.7275 56.6723 36.0795 55.2643 36.0795C53.8563 36.0795 52.4483 35.9035 51.3923 35.0235C52.6243 35.3755 53.8563 35.0235 55.0883 34.8475C56.3203 34.4955 57.3763 34.1435 58.4323 33.6155C60.1923 32.9115 61.9523 32.2075 63.8883 31.3275C63.7123 31.1515 63.7123 30.7995 63.7123 30.6235C63.7123 30.4475 63.7123 30.2715 63.7123 30.0955C63.7123 28.8635 65.8243 25.5195 64.2403 20.9435C63.3603 18.8315 61.9523 16.8955 60.3683 15.1355C60.0163 14.7835 59.6643 14.2555 59.3123 13.9035C57.9043 14.9595 56.4963 15.8395 55.2643 16.8955C54.3843 17.5995 53.5043 18.3035 52.9763 19.1835C52.2723 20.0635 51.7443 20.9435 51.2163 22.1755C51.0403 20.9435 51.2163 19.7115 51.7443 18.4795C52.2723 17.2475 53.1523 16.3675 54.2083 15.6635C55.2643 14.7835 56.3203 14.2555 57.3763 13.9035C57.9043 13.7275 58.2563 13.5515 58.7843 13.3755C58.0803 12.4955 57.0243 11.2635 55.9683 9.85555C54.9123 8.44755 53.8563 7.03955 52.2723 6.15955H52.0963C48.9283 4.57555 45.4083 5.63155 42.0643 4.39955C40.8323 3.87155 39.9523 3.16755 38.8963 2.63955C38.0163 2.28755 37.3123 2.11155 36.4323 1.93555V14.6075H37.8403C38.7203 14.6075 39.6003 14.2555 40.3043 13.9035C41.1843 13.5515 41.8883 13.0235 42.5923 12.3195C43.2963 11.6155 43.8243 10.9115 44.5283 10.2075C44.0003 10.7355 43.4723 11.6155 42.9443 12.3195C42.2403 13.0235 41.5363 13.7275 40.8323 14.2555C39.9523 14.7835 39.0723 15.3115 38.0163 15.4875C37.4883 15.6635 36.9603 15.8395 36.2563 15.8395V31.3275C36.4323 31.3275 36.6083 31.1515 36.7843 30.9755C37.6643 30.4475 38.5443 30.0955 39.4243 29.9195C40.3043 29.7435 41.3603 29.7435 42.2403 29.9195C43.1203 30.2715 43.8243 30.7995 44.5283 31.5035C43.8243 30.9755 43.1203 30.4475 42.2403 30.4475C41.3603 30.4475 40.4803 30.4475 39.7763 30.7995C39.0723 31.1515 38.1923 31.5035 37.6643 32.0315C37.3123 32.3835 36.7843 32.7355 36.4323 33.0875V68.6395C37.3123 69.6955 38.5443 70.5755 39.7763 70.9275C40.3043 71.1035 41.0083 71.2795 41.5363 71.2795C41.0083 69.1675 40.8323 67.0555 40.8323 64.7675Z"
                    fill="url(#paint1_linear_3034_2062)" />
                  <path
                    d="M27.1042 4.0482C23.7602 5.2802 20.0642 4.2242 16.8962 5.8082C15.1362 6.8642 14.0802 8.6242 12.6722 10.2082C11.6162 11.4402 10.9122 12.3202 10.5602 12.8482C13.0242 14.0802 15.6642 16.0162 17.0722 18.4802C17.6002 19.5362 17.9522 20.7682 18.1282 22.0002C17.6002 18.4802 14.4322 16.1922 11.2642 14.7842C10.7362 14.4322 10.0322 14.2562 9.50416 14.0802C7.74416 16.1922 5.80815 18.3042 4.92815 20.9442C4.57615 22.0002 4.40016 23.0562 4.22416 24.2882C4.22416 25.5202 4.40016 26.9282 4.75216 28.1602C5.10416 28.6882 5.28015 29.3922 5.28015 30.0962C5.28015 30.4482 5.28016 30.6242 5.10416 30.9762C6.68816 32.2082 8.44816 33.0882 10.3842 33.9682C11.6162 34.4962 12.8482 35.0242 13.9042 35.2002C15.1362 35.3762 16.3682 35.5522 17.6002 35.0242C16.5442 35.7282 15.1362 35.9042 13.9042 35.7282C13.3762 35.7282 12.8482 35.5522 12.3202 35.5522C11.6162 35.3762 10.7362 35.2002 10.0322 35.0242C8.09615 34.3202 6.16015 33.6162 4.40015 32.5602C4.22415 32.9122 4.04816 33.0882 3.87216 33.4402C2.28816 36.0802 1.93616 39.0722 2.81616 41.7122C4.40016 46.9922 5.10416 44.3522 5.63216 51.5682C5.63216 51.9202 5.63215 52.4482 5.80815 52.8002C6.16015 55.6162 7.56816 58.0802 9.50416 60.0162C11.2642 61.7762 13.7282 62.8322 15.4882 64.4162C16.7202 65.6482 17.7762 67.0562 19.1842 68.1122C20.0642 68.8162 20.9442 69.3442 22.0002 69.6962C23.4082 70.9282 25.1682 71.6322 27.1042 71.6322C27.9842 71.6322 28.8642 71.4562 29.5682 71.1042C30.6242 70.7522 31.5042 70.2242 32.3842 69.5202L32.7362 69.1682L33.0882 68.8162V33.0882C32.7362 32.7362 32.3842 32.3842 31.8562 32.0322C31.1522 31.5042 30.4482 31.1522 29.7442 30.8002C29.0402 30.4482 28.1602 30.2722 27.2802 30.4482C26.4002 30.6242 25.6962 30.9762 24.9922 31.5042C25.5202 30.8002 26.4002 30.2722 27.2802 29.9202C28.1602 29.5682 29.2162 29.7442 30.0962 29.9202C30.9762 30.0962 31.8562 30.4482 32.7362 30.9762C32.9122 30.9762 33.0882 31.1522 33.2642 31.3282V15.8402C32.7362 15.8402 32.2082 15.6642 31.6802 15.6642C30.6242 15.4882 29.7442 14.9602 28.8642 14.4322C27.9842 13.9042 27.2802 13.2002 26.7522 12.4962C26.0482 11.7922 25.6962 10.9122 25.1682 10.0322C25.6962 10.7362 26.4002 11.4402 27.1042 12.1442C27.8082 12.6722 28.5122 13.3762 29.3922 13.7282C30.2722 14.0802 31.1522 14.4322 31.8562 14.4322H33.2642V1.4082C32.3842 1.5842 31.5042 1.7602 30.8002 2.2882C29.2162 2.8162 28.1602 3.5202 27.1042 4.0482ZM27.6322 63.1842C26.0482 63.7122 24.9922 64.2402 24.1122 65.1202C23.7602 65.4722 23.4082 66.0002 22.8802 66.7042C22.7042 67.0562 22.5282 67.2322 22.3522 67.5842C22.1762 67.9362 22.0002 68.2882 21.6482 68.6402C21.1202 67.0562 21.4722 65.2962 22.7042 63.8882C23.4082 63.1842 24.1122 62.8322 24.9922 62.6562C26.0482 62.6562 26.9282 62.8322 27.6322 63.1842ZM26.5762 47.3442C24.9922 46.9922 23.5842 46.6402 22.3522 46.4642C22.5282 47.3442 22.5282 48.0482 22.5282 48.9282C22.5282 49.9842 22.3522 50.8642 22.0002 51.9202C21.6482 52.8002 21.1202 53.6802 20.4162 54.3842C19.7122 55.0882 18.8322 55.6162 18.1282 55.9682C18.8322 55.4402 19.7122 54.9122 20.0642 54.0322C20.5922 53.3282 20.9442 52.4482 21.1202 51.5682C21.2962 50.6882 21.2962 49.8082 21.1202 48.9282C20.9442 48.0482 20.7682 47.1682 20.5922 46.4642C19.1842 46.6402 17.7762 47.1682 16.1922 48.0482C16.5442 47.1682 17.2482 46.2882 18.1282 45.5842C19.0082 44.8802 20.0642 44.7042 21.1202 44.7042C22.1762 44.7042 23.2322 44.8802 24.1122 45.4082C25.1682 45.9362 25.8722 46.6402 26.5762 47.3442Z"
                    fill="url(#paint2_linear_3034_2062)" />
                  <path
                    d="M66.0002 45.2316C54.5602 44.7036 44.8802 53.5036 44.3522 64.9436C43.8242 76.3836 52.6242 86.0636 64.0642 86.5916C75.5042 87.1196 85.1842 78.3196 85.7122 66.8796C86.2402 55.4396 77.4402 45.7596 66.0002 45.2316ZM69.5202 73.3916C69.3442 73.7436 68.9922 73.7436 68.4642 73.7436C67.9362 73.7436 67.4082 73.3916 67.2322 72.8636L66.0002 69.8716H59.4882L58.2562 72.8636C58.0802 73.2156 57.9042 73.3916 57.7282 73.5676C57.2002 73.9196 56.3202 73.9196 55.9682 73.3916C55.7922 73.0396 55.6162 72.8635 55.6162 72.3355C55.6162 72.1595 55.6162 71.9836 55.7922 71.8076L61.2482 59.1355C61.4242 58.7835 61.6002 58.6075 61.7762 58.2555C62.1282 58.0795 62.4802 57.9036 62.8322 57.9036H63.0082C63.3602 57.9036 63.7122 58.0795 64.0642 58.2555C64.2402 58.4315 64.5922 58.7836 64.5922 58.9596L70.0482 71.6316C70.2242 71.8076 70.2242 71.9836 70.2242 72.1596C70.0482 72.8636 69.8722 73.0396 69.5202 73.3916ZM74.6242 72.3355C74.6242 72.6875 74.4482 73.0396 74.2722 73.3916C73.9202 73.5676 73.7442 73.7436 73.2162 73.7436C72.8642 73.7436 72.5122 73.5676 72.1602 73.3916C71.8082 73.0396 71.8082 72.8635 71.8082 72.3355V59.3116C71.8082 58.9596 71.9842 58.6075 72.1602 58.2555C72.6882 57.7275 73.5682 57.7275 74.0962 58.2555C74.4482 58.6075 74.4482 58.7836 74.4482 59.3116V72.3355H74.6242Z"
                    fill="url(#paint3_linear_3034_2062)" />
                  <path d="M60.5439 67.2331H64.9439L62.6559 61.9531L60.5439 67.2331Z"
                    fill="url(#paint4_linear_3034_2062)" />
                  <defs>
                    <linearGradient id="paint0_linear_3034_2062" x1="49.1921" y1="46.4648" x2="49.1921" y2="48.4008"
                      gradientUnits="userSpaceOnUse">
                      <stop stop-color="#FFE59E" />
                      <stop offset="1" stop-color="#FFBC01" />
                    </linearGradient>
                    <linearGradient id="paint1_linear_3034_2062" x1="51.5195" y1="1.93555" x2="51.5195" y2="71.2795"
                      gradientUnits="userSpaceOnUse">
                      <stop stop-color="#FFE59E" />
                      <stop offset="1" stop-color="#FFBC01" />
                    </linearGradient>
                    <linearGradient id="paint2_linear_3034_2062" x1="17.8044" y1="1.4082" x2="17.8044" y2="71.6322"
                      gradientUnits="userSpaceOnUse">
                      <stop stop-color="#FFE59E" />
                      <stop offset="1" stop-color="#FFBC01" />
                    </linearGradient>
                    <linearGradient id="paint3_linear_3034_2062" x1="65.0322" y1="45.209" x2="65.0322" y2="86.6141"
                      gradientUnits="userSpaceOnUse">
                      <stop stop-color="#FFE59E" />
                      <stop offset="1" stop-color="#FFBC01" />
                    </linearGradient>
                    <linearGradient id="paint4_linear_3034_2062" x1="62.7439" y1="61.9531" x2="62.7439" y2="67.2331"
                      gradientUnits="userSpaceOnUse">
                      <stop stop-color="#FFE59E" />
                      <stop offset="1" stop-color="#FFBC01" />
                    </linearGradient>
                  </defs>
                </svg>