<svg xmlns="http://www.w3.org/2000/svg" width="64" height="64" viewBox="0 0 64 64" fill="none">
                  <rect x="1.06667" y="1.06667" width="61.8667" height="61.8667" rx="13.6"
                    fill="url(#paint0_linear_2527_3657)" />
                  <rect x="1.06667" y="1.06667" width="61.8667" height="61.8667" rx="13.6" stroke="#000326"
                    stroke-width="2.13333" />
                  <g clip-path="url(#clip0_2527_3657)">
                    <path
                      d="M12.5332 33.4669C13.1168 33.4679 13.6767 33.2365 14.0893 32.8238C14.1465 32.7666 17.6665 29.2532 17.6665 29.2532L19.4727 31.0609C20.1604 31.7491 21.0935 32.1359 22.0665 32.1359C23.0395 32.1359 23.9726 31.7491 24.6603 31.0609L35.4198 20.2977L38.6919 23.5713C40.1254 25.0023 42.4468 25.0023 43.8803 23.5713L50.4304 17.0124L50.9745 17.5565C51.4591 18.0406 52.1812 18.1982 52.8235 17.96C53.4657 17.7218 53.9104 17.1315 53.9621 16.4485L54.3288 11.7251V11.7177C54.3606 11.2546 54.1905 10.8004 53.8625 10.4721C53.5344 10.1437 53.0803 9.97327 52.6172 10.0047L47.8894 10.3713C47.2066 10.4202 46.6152 10.8632 46.3763 11.5047C46.1375 12.1462 46.2952 12.8681 46.7799 13.3516L47.324 13.8972L41.285 19.9391L38.0136 16.6655C37.3259 15.9772 36.3928 15.5905 35.4198 15.5905C34.4468 15.5905 33.5137 15.9772 32.826 16.6655L22.0665 27.4294L20.2618 25.6203C18.8285 24.1888 16.5067 24.1888 15.0735 25.6203L10.9851 29.7196C10.3568 30.3465 10.1681 31.2902 10.507 32.1105C10.8459 32.9309 11.6456 33.4662 12.5332 33.4669ZM12.0199 30.7536L16.1111 26.6535C16.5238 26.2404 17.0837 26.0083 17.6676 26.0083C18.2515 26.0083 18.8115 26.2404 19.2241 26.6535L21.5481 28.9789C21.6856 29.1166 21.8723 29.194 22.0669 29.194C22.2615 29.194 22.4482 29.1166 22.5857 28.9789L33.8629 17.7003C34.734 16.8679 36.1056 16.8679 36.9767 17.7003L40.2488 20.9739C40.8292 21.5282 41.743 21.5282 42.3234 20.9739L48.8801 14.4135C49.1659 14.1272 49.1659 13.6635 48.8801 13.3773L47.8146 12.3117C47.734 12.2369 47.7085 12.1199 47.7508 12.0184C47.7878 11.9106 47.887 11.8364 48.0009 11.8314L52.7257 11.4669C52.7627 11.4653 52.7985 11.4797 52.824 11.5065C52.853 11.5344 52.8686 11.5734 52.8665 11.6136L52.4999 16.3363C52.4918 16.4481 52.4193 16.5451 52.3143 16.5843C52.2092 16.6236 52.0909 16.598 52.0115 16.5189L50.9489 15.4548C50.6577 15.1796 50.2024 15.1796 49.9112 15.4548L42.8426 22.5337C41.9709 23.3637 40.6013 23.3637 39.7296 22.5337L36.4575 19.2601C36.183 18.9837 35.8093 18.8287 35.4198 18.8296C35.031 18.8291 34.658 18.9838 34.3836 19.2593L23.6241 30.0239C22.7529 30.8559 21.3816 30.8559 20.5104 30.0239L18.7042 28.2163C18.1315 27.6442 17.2037 27.6442 16.6311 28.2163L13.0502 31.7913C12.7629 32.0724 12.3035 32.0724 12.0162 31.7913C11.8775 31.6565 11.7992 31.4713 11.7992 31.2779C11.7992 31.0845 11.8775 30.8994 12.0162 30.7646L12.0199 30.7536Z"
                      fill="#070322" />
                    <path
                      d="M39.6666 37.8673C39.6731 34.4142 37.2696 31.4244 33.8957 30.6886C30.5219 29.9529 27.0919 31.6706 25.6601 34.8129C24.2283 37.9552 25.1827 41.6707 27.9516 43.734H27.9333C27.0638 43.7301 26.2744 44.2409 25.9216 45.0355C25.5688 45.8302 25.7193 46.7583 26.3053 47.4006C25.5426 48.2297 25.5426 49.5049 26.3053 50.334C25.7193 50.9763 25.5688 51.9044 25.9216 52.6991C26.2744 53.4937 27.0638 54.0045 27.9333 54.0006H36.7333C37.6027 54.0045 38.3922 53.4937 38.745 52.6991C39.0978 51.9044 38.9473 50.9763 38.3613 50.334C39.124 49.5049 39.124 48.2297 38.3613 47.4006C38.9473 46.7583 39.0978 45.8302 38.745 45.0355C38.3922 44.2409 37.6027 43.7301 36.7333 43.734H36.715C38.5701 42.3543 39.6644 40.1792 39.6666 37.8673ZM37.4666 48.8673C37.4666 49.2723 37.1383 49.6006 36.7333 49.6006H27.9333C27.5283 49.6006 27.2 49.2723 27.2 48.8673C27.2 48.4623 27.5283 48.134 27.9333 48.134H36.7333C37.1383 48.134 37.4666 48.4623 37.4666 48.8673ZM36.7333 52.534H27.9333C27.5283 52.534 27.2 52.2056 27.2 51.8006C27.2 51.3956 27.5283 51.0673 27.9333 51.0673H36.7333C37.1383 51.0673 37.4666 51.3956 37.4666 51.8006C37.4666 52.2056 37.1383 52.534 36.7333 52.534ZM36.7333 45.2006C37.1383 45.2006 37.4666 45.529 37.4666 45.934C37.4666 46.339 37.1383 46.6673 36.7333 46.6673H27.9333C27.5283 46.6673 27.2 46.339 27.2 45.934C27.2 45.529 27.5283 45.2006 27.9333 45.2006H36.7333ZM26.4666 37.8673C26.4666 34.6272 29.0932 32.0006 32.3333 32.0006C35.5734 32.0006 38.2 34.6272 38.2 37.8673C38.2 41.1074 35.5734 43.734 32.3333 43.734C29.0947 43.7303 26.4703 41.1059 26.4666 37.8673Z"
                      fill="#070322" />
                    <path fill-rule="evenodd" clip-rule="evenodd"
                      d="M32.3333 37.1335C31.9775 37.1331 31.6733 36.8774 31.6117 36.527C31.5502 36.1766 31.749 35.8325 32.0834 35.7109C32.4178 35.5894 32.7912 35.7253 32.9691 36.0335C33.0957 36.2688 33.3404 36.4166 33.6077 36.4192C33.8749 36.4219 34.1224 36.2789 34.2537 36.046C34.3849 35.8132 34.3791 35.5274 34.2385 35.3001C33.9726 34.854 33.5575 34.5163 33.0666 34.3468V34.2001C33.0666 33.7951 32.7383 33.4668 32.3333 33.4668C31.9283 33.4668 31.5999 33.7951 31.5999 34.2001V34.3351C30.5905 34.6906 29.9846 35.7224 30.166 36.7772C30.3473 37.832 31.263 38.6022 32.3333 38.6001C32.6891 38.6005 32.9933 38.8562 33.0548 39.2066C33.1164 39.557 32.9175 39.9011 32.5831 40.0227C32.2488 40.1442 31.8754 40.0083 31.6975 39.7001C31.4889 39.363 31.0502 39.2527 30.707 39.451C30.3638 39.6493 30.2402 40.0844 30.4281 40.4335C30.6943 40.8799 31.11 41.2176 31.6014 41.3868V41.5335C31.6014 41.9385 31.9297 42.2668 32.3347 42.2668C32.7397 42.2668 33.0681 41.9385 33.0681 41.5335V41.3985C34.0778 41.0429 34.6837 40.0107 34.5019 38.9557C34.3201 37.9007 33.4038 37.1307 32.3333 37.1335Z"
                      fill="#070322" />
                    <path
                      d="M46.9999 24.667C43.8408 24.6635 41.0354 26.6858 40.0402 29.684C39.045 32.6822 40.0842 35.9807 42.6182 37.867H42.5999C41.7305 37.8632 40.941 38.3739 40.5882 39.1686C40.2354 39.9632 40.386 40.8913 40.9719 41.5337C40.2092 42.3627 40.2092 43.638 40.9719 44.467C40.2092 45.296 40.2092 46.5713 40.9719 47.4003C40.2092 48.2294 40.2092 49.5046 40.9719 50.3337C40.386 50.976 40.2354 51.9041 40.5882 52.6988C40.941 53.4934 41.7305 54.0042 42.5999 54.0003H51.3999C52.2694 54.0042 53.0588 53.4934 53.4116 52.6988C53.7644 51.9041 53.6139 50.976 53.0279 50.3337C53.7906 49.5046 53.7906 48.2294 53.0279 47.4003C53.7906 46.5713 53.7906 45.296 53.0279 44.467C53.7906 43.638 53.7906 42.3627 53.0279 41.5337C53.6139 40.8913 53.7644 39.9632 53.4116 39.1686C53.0588 38.3739 52.2694 37.8632 51.3999 37.867H51.3808C53.9158 35.9812 54.9557 32.6824 53.9605 29.6838C52.9653 26.6852 50.1594 24.6628 46.9999 24.667ZM52.1332 43.0003C52.1332 43.4053 51.8049 43.7337 51.3999 43.7337H42.5999C42.1949 43.7337 41.8666 43.4053 41.8666 43.0003C41.8666 42.5953 42.1949 42.267 42.5999 42.267H51.3999C51.8049 42.267 52.1332 42.5953 52.1332 43.0003ZM52.1332 45.9337C52.1332 46.3387 51.8049 46.667 51.3999 46.667H42.5999C42.1949 46.667 41.8666 46.3387 41.8666 45.9337C41.8666 45.5287 42.1949 45.2003 42.5999 45.2003H51.3999C51.8049 45.2003 52.1332 45.5287 52.1332 45.9337ZM52.1332 48.867C52.1332 49.272 51.8049 49.6003 51.3999 49.6003H42.5999C42.1949 49.6003 41.8666 49.272 41.8666 48.867C41.8666 48.462 42.1949 48.1337 42.5999 48.1337H51.3999C51.8049 48.1337 52.1332 48.462 52.1332 48.867ZM51.3999 52.5337H42.5999C42.1949 52.5337 41.8666 52.2053 41.8666 51.8003C41.8666 51.3953 42.1949 51.067 42.5999 51.067H51.3999C51.8049 51.067 52.1332 51.3953 52.1332 51.8003C52.1332 52.2053 51.8049 52.5337 51.3999 52.5337ZM51.3999 39.3337C51.8049 39.3337 52.1332 39.662 52.1332 40.067C52.1332 40.472 51.8049 40.8003 51.3999 40.8003H42.5999C42.1949 40.8003 41.8666 40.472 41.8666 40.067C41.8666 39.662 42.1949 39.3337 42.5999 39.3337H51.3999ZM46.9999 37.867C43.7598 37.867 41.1332 35.2404 41.1332 32.0003C41.1332 28.7603 43.7598 26.1337 46.9999 26.1337C50.24 26.1337 52.8666 28.7603 52.8666 32.0003C52.8629 35.2389 50.2385 37.8634 46.9999 37.867Z"
                      fill="#070322" />
                    <path fill-rule="evenodd" clip-rule="evenodd"
                      d="M46.9999 31.2673C46.6441 31.2669 46.3399 31.0112 46.2783 30.6608C46.2168 30.3104 46.4156 29.9663 46.75 29.8447C47.0844 29.7232 47.4578 29.8591 47.6357 30.1673C47.8442 30.5044 48.2829 30.6147 48.6262 30.4164C48.9694 30.2181 49.0929 29.783 48.9051 29.4339C48.6396 28.9875 48.2243 28.6497 47.7332 28.4806V28.3339C47.7332 27.9289 47.4049 27.6006 46.9999 27.6006C46.5949 27.6006 46.2666 27.9289 46.2666 28.3339V28.4689C45.2571 28.8244 44.6513 29.8562 44.8326 30.911C45.014 31.9658 45.9296 32.7359 46.9999 32.7339C47.3557 32.7343 47.6599 32.99 47.7215 33.3404C47.783 33.6908 47.5841 34.0349 47.2498 34.1564C46.9154 34.278 46.542 34.142 46.3641 33.8339C46.1555 33.4968 45.7169 33.3865 45.3736 33.5848C45.0304 33.783 44.9068 34.2182 45.0947 34.5673C45.3606 35.014 45.7764 35.3518 46.268 35.5206V35.6673C46.268 36.0723 46.5963 36.4006 47.0014 36.4006C47.4064 36.4006 47.7347 36.0723 47.7347 35.6673V35.5323C48.7444 35.1767 49.3503 34.1445 49.1685 33.0895C48.9868 32.0345 48.0704 31.2645 46.9999 31.2673Z"
                      fill="#070322" />
                    <path
                      d="M13.2849 49.6004H13.2666C12.0515 49.6004 11.0666 50.5854 11.0666 51.8004C11.0666 53.0155 12.0515 54.0004 13.2666 54.0004H22.0666C23.2816 54.0004 24.2666 53.0155 24.2666 51.8004C24.2666 50.5854 23.2816 49.6004 22.0666 49.6004H22.0482C24.5827 47.7119 25.622 44.412 24.6272 41.4119C23.6324 38.4118 20.8273 36.3867 17.6666 36.3867C14.5059 36.3867 11.7008 38.4118 10.706 41.4119C9.71113 44.412 10.7504 47.7119 13.2849 49.6004ZM22.0666 51.0671C22.4716 51.0671 22.7999 51.3954 22.7999 51.8004C22.7999 52.2054 22.4716 52.5338 22.0666 52.5338H13.2666C12.8616 52.5338 12.5332 52.2054 12.5332 51.8004C12.5332 51.3954 12.8616 51.0671 13.2666 51.0671H22.0666ZM17.6666 37.8671C20.9066 37.8671 23.5332 40.4937 23.5332 43.7338C23.5332 46.9738 20.9066 49.6004 17.6666 49.6004C14.4265 49.6004 11.7999 46.9738 11.7999 43.7338C11.8035 40.4952 14.428 37.8707 17.6666 37.8671Z"
                      fill="#070322" />
                    <path fill-rule="evenodd" clip-rule="evenodd"
                      d="M17.6665 44.4673C18.0223 44.4677 18.3265 44.7234 18.3881 45.0738C18.4496 45.4242 18.2508 45.7683 17.9164 45.8898C17.582 46.0114 17.2086 45.8754 17.0307 45.5673C16.9041 45.332 16.6594 45.1842 16.3921 45.1815C16.1249 45.1789 15.8774 45.3219 15.7461 45.5547C15.6149 45.7876 15.6207 46.0734 15.7613 46.3007C16.0275 46.7471 16.4432 47.0848 16.9347 47.254V47.4007C16.9347 47.8057 17.263 48.134 17.668 48.134C18.073 48.134 18.4013 47.8057 18.4013 47.4007V47.2657C19.4111 46.9101 20.0169 45.8779 19.8352 44.8229C19.6534 43.7679 18.7371 42.9979 17.6665 43.0007C17.3107 43.0003 17.0065 42.7446 16.945 42.3942C16.8834 42.0438 17.0823 41.6997 17.4166 41.5781C17.751 41.4565 18.1244 41.5925 18.3023 41.9007C18.429 42.136 18.6736 42.2838 18.9409 42.2864C19.2082 42.2891 19.4557 42.1461 19.5869 41.9132C19.7182 41.6804 19.7123 41.3946 19.5717 41.1673C19.3059 40.7212 18.8908 40.3835 18.3999 40.214V40.0673C18.3999 39.6623 18.0715 39.334 17.6665 39.334C17.2615 39.334 16.9332 39.6623 16.9332 40.0673V40.2022C15.9237 40.5578 15.3179 41.5896 15.4992 42.6444C15.6806 43.6992 16.5963 44.4693 17.6665 44.4673Z"
                      fill="#070322" />
                  </g>
                  <defs>
                    <linearGradient id="paint0_linear_2527_3657" x1="32" y1="0" x2="32" y2="64"
                      gradientUnits="userSpaceOnUse">
                      <stop stop-color="#FFE59E" />
                      <stop offset="1" stop-color="#FFBC01" />
                    </linearGradient>
                    <clipPath id="clip0_2527_3657">
                      <rect width="44" height="44" fill="white" transform="translate(10.3333 10)" />
                    </clipPath>
                  </defs>
                </svg>