<svg xmlns="http://www.w3.org/2000/svg" width="52" height="56" viewBox="0 0 52 56" fill="none">
                      <path
                        d="M38.0925 19.3132C37.1367 19.5863 36.1833 19.8594 35.2275 20.1325C35.0676 20.1782 34.9088 20.224 34.7489 20.2697C33.9109 20.5103 33.0717 20.7485 32.2325 20.9892C31.0446 21.3285 29.8568 21.669 28.6689 22.007C27.9656 22.2092 27.261 22.4101 26.5565 22.6122C26.4711 22.6363 26.3869 22.6604 26.3016 22.6856C25.8519 22.8132 25.4034 22.9431 24.9538 23.0706C23.9859 23.3474 23.0205 23.6241 22.0526 23.9008C23.1816 20.0916 24.3094 16.2824 25.4383 12.4732C26.3533 15.1707 27.2658 17.8694 28.182 20.5669L31.7468 19.5466C29.5514 13.0303 27.3596 6.51633 25.1654 0C22.3147 8.4847 19.4629 16.9694 16.6122 25.4541C11.0744 27.0375 5.53781 28.622 0 30.2042C4.18161 32.655 8.36442 35.1047 12.546 37.5567C10.7161 43.0046 8.88501 48.4502 7.05511 53.8969L15.2139 46.9895C15.375 46.4457 15.5362 45.8995 15.6985 45.3556C15.9245 44.594 16.1493 43.8312 16.3742 43.0708C16.4247 42.9048 16.4727 42.7411 16.522 42.5751C16.7481 41.8111 16.9741 41.0459 17.2013 40.2831C17.5296 39.1786 17.8554 38.0729 18.1824 36.9696C18.263 36.6989 18.3423 36.4282 18.4229 36.1599C18.566 35.6762 18.7102 35.1937 18.8533 34.7112C19.1178 33.8173 19.3823 32.927 19.6456 32.0342C19.9642 30.9598 20.2816 29.8829 20.599 28.8073L14.917 30.5038C14.4733 31.8261 14.0297 33.1423 13.586 34.4622C11.5553 33.3529 9.52344 32.2448 7.49155 31.1354C8.92229 30.7083 10.353 30.2812 11.7838 29.8541C11.9184 29.8132 12.0531 29.7735 12.1877 29.7338C12.7745 29.5569 13.36 29.3824 13.9467 29.208C14.4673 29.0528 14.9867 28.8976 15.5085 28.7424C17.3769 28.1841 19.2465 27.6246 21.1148 27.0675C21.7845 26.8666 22.4542 26.6681 23.1239 26.4672C24.6352 26.0172 26.1465 25.566 27.6578 25.1148C28.2818 24.9283 28.9082 24.7418 29.5322 24.5553C30.714 24.2028 31.8959 23.8503 33.0777 23.4978C34.2175 23.1573 35.3549 22.8168 36.4923 22.4775C36.7556 22.3981 37.0189 22.3211 37.2822 22.2417C39.2011 21.669 41.1187 21.0951 43.0376 20.5223C44.8086 19.9954 45.2959 19.8426 47.0669 19.3132L51.6272 15.4534C47.3433 16.2673 43.0328 17.9007 38.0937 19.3132H38.0925ZM35.2707 30.0093C34.6996 28.3188 34.1298 26.6272 33.5623 24.9367L30.0203 25.9931C30.7633 28.1853 31.5063 30.3787 32.2482 32.5684C33.9218 37.5086 35.5954 42.4488 37.2702 47.389C32.7038 44.8972 28.1399 42.4043 23.5735 39.9125C22.2318 39.1798 20.8876 38.4471 19.5458 37.7143L18.5503 41.0736C19.2705 41.4959 19.9871 41.917 20.7073 42.3381C28.4801 46.8921 36.2506 51.446 44.0235 56C41.1055 47.336 38.1875 38.6733 35.2719 30.0093H35.2707Z"
                        fill="#FFBC01" />
                      <path
                        d="M38.0925 19.3132C37.1367 19.5863 36.1833 19.8594 35.2275 20.1325C35.0676 20.1782 34.9088 20.224 34.7489 20.2697C33.9109 20.5103 33.0717 20.7485 32.2325 20.9892C31.0446 21.3285 29.8568 21.669 28.6689 22.007C27.9656 22.2092 27.261 22.4101 26.5565 22.6122C26.4711 22.6363 26.3869 22.6604 26.3016 22.6856C25.8519 22.8132 25.4034 22.9431 24.9538 23.0706C23.9859 23.3474 23.0205 23.6241 22.0526 23.9008C23.1816 20.0916 24.3094 16.2824 25.4383 12.4732C26.3533 15.1707 27.2658 17.8694 28.182 20.5669L31.7468 19.5466C29.5514 13.0303 27.3596 6.51633 25.1654 0C22.3147 8.4847 19.4629 16.9694 16.6122 25.4541C11.0744 27.0375 5.53781 28.622 0 30.2042C4.18161 32.655 8.36442 35.1047 12.546 37.5567C10.7161 43.0046 8.88501 48.4502 7.05511 53.8969L15.2139 46.9895C15.375 46.4457 15.5362 45.8995 15.6985 45.3556C15.9245 44.594 16.1493 43.8312 16.3742 43.0708C16.4247 42.9048 16.4727 42.7411 16.522 42.5751C16.7481 41.8111 16.9741 41.0459 17.2013 40.2831C17.5296 39.1786 17.8554 38.0729 18.1824 36.9696C18.263 36.6989 18.3423 36.4282 18.4229 36.1599C18.566 35.6762 18.7102 35.1937 18.8533 34.7112C19.1178 33.8173 19.3823 32.927 19.6456 32.0342C19.9642 30.9598 20.2816 29.8829 20.599 28.8073L14.917 30.5038C14.4733 31.8261 14.0297 33.1423 13.586 34.4622C11.5553 33.3529 9.52344 32.2448 7.49155 31.1354C8.92229 30.7083 10.353 30.2812 11.7838 29.8541C11.9184 29.8132 12.0531 29.7735 12.1877 29.7338C12.7745 29.5569 13.36 29.3824 13.9467 29.208C14.4673 29.0528 14.9867 28.8976 15.5085 28.7424C17.3769 28.1841 19.2465 27.6246 21.1148 27.0675C21.7845 26.8666 22.4542 26.6681 23.1239 26.4672C24.6352 26.0172 26.1465 25.566 27.6578 25.1148C28.2818 24.9283 28.9082 24.7418 29.5322 24.5553C30.714 24.2028 31.8959 23.8503 33.0777 23.4978C34.2175 23.1573 35.3549 22.8168 36.4923 22.4775C36.7556 22.3981 37.0189 22.3211 37.2822 22.2417C39.2011 21.669 41.1187 21.0951 43.0376 20.5223C44.8086 19.9954 45.2959 19.8426 47.0669 19.3132L51.6272 15.4534C47.3433 16.2673 43.0328 17.9007 38.0937 19.3132H38.0925ZM35.2707 30.0093C34.6996 28.3188 34.1298 26.6272 33.5623 24.9367L30.0203 25.9931C30.7633 28.1853 31.5063 30.3787 32.2482 32.5684C33.9218 37.5086 35.5954 42.4488 37.2702 47.389C32.7038 44.8972 28.1399 42.4043 23.5735 39.9125C22.2318 39.1798 20.8876 38.4471 19.5458 37.7143L18.5503 41.0736C19.2705 41.4959 19.9871 41.917 20.7073 42.3381C28.4801 46.8921 36.2506 51.446 44.0235 56C41.1055 47.336 38.1875 38.6733 35.2719 30.0093H35.2707Z"
                        fill="url(#paint0_linear_2524_2246)" />
                      <defs>
                        <linearGradient id="paint0_linear_2524_2246" x1="26.6481" y1="0" x2="26.6481" y2="56"
                          gradientUnits="userSpaceOnUse">
                          <stop stop-color="#FFE59E" />
                          <stop offset="1" stop-color="#FFBC01" />
                        </linearGradient>
                      </defs>
                    </svg>