<svg xmlns="http://www.w3.org/2000/svg" width="88" height="88" viewBox="0 0 88 88" fill="none">
                  <g clip-path="url(#clip0_3047_2161)">
                    <path
                      d="M57.0625 0C40.0026 0 26.125 13.8775 26.125 30.9375C26.125 38.5409 28.8939 45.5018 33.4603 50.8941L28.022 56.3324C25.1519 54.9778 21.6444 55.4163 19.2743 57.7863L2.37535 74.6986C-4.87004 81.944 6.10469 92.8429 13.3123 85.6355L30.2138 68.7256C32.5839 66.3554 33.0222 62.848 31.6677 59.9778L37.106 54.5395C42.4982 59.1061 49.4591 61.875 57.0625 61.875C74.1225 61.875 88 47.9975 88 30.9375C88 13.8775 74.1225 0 57.0625 0ZM74.9458 24.1094L67.2114 44.7344C66.3763 46.9557 63.2176 46.9557 62.3824 44.7344L57.0625 30.5448L51.7427 44.7346C50.9873 46.7436 47.6691 46.7436 46.9137 44.7346L39.1793 24.1096C37.9823 20.9057 42.8158 19.1209 44.0083 22.2968L49.3282 36.4865L54.648 22.2967C55.4034 20.2876 58.7216 20.2876 59.477 22.2967L64.7969 36.4865L70.1168 22.2967C71.3008 19.1275 76.1444 20.901 74.9458 24.1094Z"
                      fill="url(#paint0_linear_3047_2161)" />
                  </g>
                  <defs>
                    <linearGradient id="paint0_linear_3047_2161" x1="44" y1="0" x2="44" y2="88"
                      gradientUnits="userSpaceOnUse">
                      <stop stop-color="#FFE59E" />
                      <stop offset="1" stop-color="#FFBC01" />
                    </linearGradient>
                    <clipPath id="clip0_3047_2161">
                      <rect width="88" height="88" fill="white" />
                    </clipPath>
                  </defs>
                </svg>