<svg xmlns="http://www.w3.org/2000/svg" width="64" height="64" viewBox="0 0 64 64" fill="none">
                  <rect x="1.06667" y="1.06667" width="61.8667" height="61.8667" rx="13.6"
                    fill="url(#paint0_linear_2686_2918)" />
                  <rect x="1.06667" y="1.06667" width="61.8667" height="61.8667" rx="13.6" stroke="#000326"
                    stroke-width="2.13333" />
                  <path
                    d="M41.5135 24.9636C40.773 25.1752 40.0343 25.3868 39.2937 25.5984C39.1698 25.6338 39.0469 25.6692 38.923 25.7047C38.2737 25.8911 37.6235 26.0757 36.9733 26.2621C36.0529 26.525 35.1326 26.7888 34.2122 27.0507C33.6673 27.2073 33.1214 27.363 32.5756 27.5196C32.5094 27.5383 32.4442 27.5569 32.3781 27.5765C32.0297 27.6753 31.6822 27.776 31.3338 27.8748C30.5839 28.0892 29.8359 28.3036 29.0861 28.518C29.9608 25.5667 30.8345 22.6154 31.7092 19.664C32.4181 21.754 33.1252 23.8449 33.835 25.9349L36.597 25.1444C34.896 20.0956 33.1978 15.0488 31.4978 10C29.2891 16.5738 27.0795 23.1476 24.8709 29.7215C20.5803 30.9482 16.2906 32.1759 12 33.4018C15.2398 35.3006 18.4806 37.1986 21.7205 39.0984C20.3027 43.3194 18.884 47.5385 17.4662 51.7585L23.7875 46.4068C23.9124 45.9854 24.0372 45.5622 24.1629 45.1409C24.3381 44.5508 24.5123 43.9598 24.6865 43.3706C24.7256 43.242 24.7628 43.1152 24.801 42.9866C24.9762 42.3946 25.1513 41.8018 25.3273 41.2107C25.5817 40.355 25.8341 39.4983 26.0875 38.6435C26.1499 38.4337 26.2114 38.224 26.2738 38.0161C26.3846 37.6414 26.4964 37.2676 26.6073 36.8938C26.8122 36.2011 27.0171 35.5113 27.2211 34.8196C27.468 33.9872 27.7139 33.1529 27.9598 32.3195L23.5574 33.6339C23.2137 34.6584 22.87 35.6782 22.5262 36.7008C20.9529 35.8413 19.3786 34.9828 17.8043 34.1233C18.9129 33.7924 20.0214 33.4614 21.1299 33.1305C21.2342 33.0988 21.3386 33.068 21.4429 33.0373C21.8975 32.9002 22.3511 32.7651 22.8057 32.6299C23.2091 32.5097 23.6115 32.3894 24.0158 32.2692C25.4633 31.8366 26.9119 31.4031 28.3595 30.9715C28.8783 30.8159 29.3972 30.6621 29.916 30.5064C31.087 30.1577 32.2579 29.8082 33.4288 29.4586C33.9123 29.3141 34.3976 29.1696 34.8811 29.0251C35.7968 28.752 36.7125 28.4789 37.6282 28.2057C38.5112 27.9419 39.3925 27.6781 40.2737 27.4152C40.4777 27.3537 40.6817 27.294 40.8857 27.2325C42.3724 26.7888 43.8582 26.3441 45.3449 25.9004C46.717 25.4921 47.0946 25.3737 48.4667 24.9636L52 21.9731C48.6809 22.6037 45.3412 23.8692 41.5145 24.9636H41.5135ZM39.3273 33.2507C38.8848 31.941 38.4432 30.6304 38.0036 29.3206L35.2593 30.1391C35.835 31.8375 36.4106 33.5369 36.9854 35.2335C38.2821 39.0611 39.5788 42.8887 40.8764 46.7163C37.3384 44.7857 33.8024 42.8542 30.2644 40.9236C29.2249 40.3559 28.1834 39.7882 27.1438 39.2205L26.3725 41.8232C26.9305 42.1504 27.4857 42.4767 28.0437 42.8029C34.066 46.3313 40.0864 49.8596 46.1088 53.388C43.848 46.6753 41.5871 39.9635 39.3282 33.2507H39.3273Z"
                    fill="#000326" />
                  <defs>
                    <linearGradient id="paint0_linear_2686_2918" x1="32" y1="0" x2="32" y2="64"
                      gradientUnits="userSpaceOnUse">
                      <stop stop-color="#FFE59E" />
                      <stop offset="1" stop-color="#FFBC01" />
                    </linearGradient>
                  </defs>
                </svg>