<svg width="32" height="32" viewBox="0 0 32 32" fill="none" xmlns="http://www.w3.org/2000/svg">
<rect width="32" height="32" fill="url(#paint0_linear_1794_1110)"/>
<path d="M14.5391 22.9809C14.5365 22.9809 14.5335 22.9809 14.5309 22.9809C14.4238 22.9787 14.3228 22.9329 14.2502 22.8544L6.84681 14.8041C6.71986 14.6659 6.7082 14.4578 6.81917 14.3063C6.93014 14.1551 7.13222 14.1033 7.30234 14.1828L14.0784 17.3555C14.1354 17.3823 14.2027 17.3694 14.2463 17.324L24.5825 6.52115C24.7224 6.37477 24.9512 6.3588 25.1101 6.48488C25.269 6.61096 25.3057 6.83722 25.1947 7.00691L14.913 22.7576C14.8983 22.7805 14.8811 22.8012 14.8621 22.8207L14.8167 22.866C14.7429 22.9394 14.6427 22.9809 14.5391 22.9809Z" fill="black"/>
<path d="M14.5391 22.9809C14.5365 22.9809 14.5335 22.9809 14.5309 22.9809C14.4238 22.9787 14.3228 22.9329 14.2502 22.8544L6.84681 14.8041C6.71986 14.6659 6.7082 14.4578 6.81917 14.3063C6.93014 14.1551 7.13222 14.1033 7.30234 14.1828L14.0784 17.3555C14.1354 17.3823 14.2027 17.3694 14.2463 17.324L24.5825 6.52115C24.7224 6.37477 24.9512 6.3588 25.1101 6.48488C25.269 6.61096 25.3057 6.83722 25.1947 7.00691L14.913 22.7576C14.8983 22.7805 14.8811 22.8012 14.8621 22.8207L14.8167 22.866C14.7429 22.9394 14.6427 22.9809 14.5391 22.9809Z" fill="#070513"/>
<defs>
<linearGradient id="paint0_linear_1794_1110" x1="16" y1="0" x2="16" y2="32" gradientUnits="userSpaceOnUse">
<stop stop-color="#FFE59E"/>
<stop offset="1" stop-color="#FFBC01"/>
</linearGradient>
</defs>
</svg>
