<svg width="1920" height="157" viewBox="0 0 1920 157" fill="none" xmlns="http://www.w3.org/2000/svg">
<g clip-path="url(#clip0_2153_515)">
<path d="M700.579 9.85208C689.704 3.30888 677.735 0.0258789 664.626 0.0258789H435.956C422.846 0.0258789 410.854 3.30888 400.002 9.85208C389.127 16.4181 380.418 25.1043 373.875 35.9793C367.309 46.8542 364.049 58.8235 364.049 71.9327V148.491C364.049 161.942 367.332 174.093 373.875 184.968C380.418 195.821 389.127 204.552 400.002 211.096C410.877 217.662 422.846 220.922 435.956 220.922H661.525C663.258 220.922 664.717 221.446 665.926 222.472C667.134 223.498 667.727 224.889 667.727 226.622V297.502C667.727 299.235 667.111 300.694 665.926 301.902C664.717 303.111 663.258 303.704 661.525 303.704H438.555C436.822 303.704 435.363 303.111 434.155 301.902C432.946 300.694 432.354 299.235 432.354 297.502V272.15H364.072V300.603C364.072 313.712 367.355 325.704 373.898 336.556C380.441 347.409 389.15 356.141 400.025 362.684C410.9 369.25 422.869 372.51 435.978 372.51H664.649C677.758 372.51 689.75 369.227 700.602 362.684C711.477 356.141 720.163 347.431 726.729 336.556C733.273 325.681 736.556 313.712 736.556 300.603V224.045C736.556 210.594 733.273 198.442 726.729 187.567C720.163 176.692 711.477 168.006 700.602 161.44C689.727 154.897 677.758 151.614 664.649 151.614H438.578C436.845 151.614 435.386 151.09 434.177 150.064C432.969 149.038 432.376 147.647 432.376 145.914V75.0333C432.376 73.3006 432.969 71.8415 434.177 70.6332C435.386 69.4248 436.845 68.8321 438.578 68.8321H661.548C663.281 68.8321 664.74 69.4476 665.948 70.6332C667.157 71.8415 667.749 73.3006 667.749 75.0333V100.385H736.556V71.9327C736.556 58.8235 733.273 46.8314 726.729 35.9793C720.163 25.1043 711.477 16.4181 700.602 9.85208H700.579Z" fill="#000326"/>
<path d="M995.183 100.385H926.399V372.51H995.183V100.385Z" fill="#000326"/>
<path d="M1146.77 0H774.29V68.8063H1146.77V0Z" fill="url(#paint0_linear_2153_515)"/>
<path d="M1521.83 10.3784C1510.8 3.83524 1498.72 0.552246 1485.63 0.552246H1185.58V372.512H1253.86V245.25L1375.67 244.976L1482.53 372.512H1557.04V353.361L1465.07 244.771L1485.63 244.725C1498.74 244.725 1510.8 241.534 1521.83 235.15C1532.87 228.767 1541.67 220.057 1548.21 209.023C1554.76 197.988 1558.04 185.928 1558.04 172.819V72.4591C1558.04 59.3499 1554.76 47.3579 1548.21 36.5057C1541.67 25.6308 1532.87 16.9445 1521.83 10.3784ZM1489.23 170.22C1489.23 171.952 1488.55 173.32 1487.16 174.369C1485.77 175.395 1484.22 175.919 1482.51 175.919H1260.06C1258.33 175.919 1256.87 175.395 1255.66 174.369C1254.45 173.343 1253.86 171.952 1253.86 170.22V75.0353C1253.86 73.3026 1254.45 71.8435 1255.66 70.6352C1256.87 69.4269 1258.33 68.8342 1260.06 68.8342H1482.51C1484.24 68.8342 1485.79 69.4497 1487.16 70.6352C1488.53 71.8435 1489.23 73.3026 1489.23 75.0353V170.22Z" fill="#000326"/>
<path d="M1976.05 35.9793C1969.48 25.1043 1960.71 16.4181 1949.67 9.85208C1938.64 3.30888 1926.55 0.0258789 1913.47 0.0258789H1685.32C1672.21 0.0258789 1660.22 3.30888 1649.37 9.85208C1638.52 16.4181 1629.78 25.1043 1623.24 35.9793C1616.7 46.8542 1613.42 58.8235 1613.42 71.9327V372.51H1681.7V247.323H1917.09V372.51H1985.9V71.9327C1985.9 58.8235 1982.62 46.8314 1976.07 35.9793H1976.05ZM1917.07 179.018H1681.67V75.0333C1681.67 73.3006 1682.27 71.8415 1683.48 70.6332C1684.68 69.4248 1686.14 68.8321 1687.88 68.8321H1910.32C1912.05 68.8321 1913.61 69.4476 1914.97 70.6332C1916.34 71.8415 1917.05 73.3006 1917.05 75.0333V179.018H1917.07Z" fill="#000326"/>
<path d="M270.28 9.84915C259.245 3.30595 247.162 0.0229492 234.076 0.0229492H5.90688C-7.20233 0.0229492 -19.1944 3.30595 -30.0466 9.84915C-40.9215 16.4152 -49.6306 25.1014 -56.1738 35.9764C-62.7398 46.8513 -66 58.8206 -66 71.9298V372.53H2.2819V247.32H237.678V372.53H306.484V71.9298C306.484 58.8206 303.201 46.8285 296.658 35.9764C290.092 25.1014 281.314 16.4152 270.28 9.84915ZM237.701 179.015H2.2819V75.0303C2.2819 73.2977 2.87466 71.8386 4.08299 70.6302C5.29132 69.4219 6.75043 68.8292 8.48312 68.8292H230.952C232.685 68.8292 234.235 69.4447 235.603 70.6302C236.971 71.8386 237.678 73.2977 237.678 75.0303V179.015H237.701Z" fill="#000326"/>
</g>
<defs>
<linearGradient id="paint0_linear_2153_515" x1="960.532" y1="0" x2="960.532" y2="68.8063" gradientUnits="userSpaceOnUse">
<stop stop-color="#FFE59E"/>
<stop offset="1" stop-color="#FFBC01"/>
</linearGradient>
<clipPath id="clip0_2153_515">
<rect width="2051.9" height="372.53" fill="white" transform="translate(-66)"/>
</clipPath>
</defs>
</svg>
