<svg width="1444" height="1372" viewBox="0 0 1444 1372" fill="none" xmlns="http://www.w3.org/2000/svg">
<path d="M539.39 1006.7C531.74 1002.09 523.32 999.79 514.09 999.79H353.18C343.96 999.79 335.52 1002.1 327.88 1006.7C320.23 1011.32 314.1 1017.43 309.5 1025.09C304.88 1032.74 302.59 1041.16 302.59 1050.39V1104.26C302.59 1113.72 304.9 1122.27 309.5 1129.92C314.1 1137.56 320.23 1143.7 327.88 1148.31C335.53 1152.93 343.95 1155.22 353.18 1155.22H511.9C513.12 1155.22 514.15 1155.59 515 1156.31C515.85 1157.04 516.26 1158.01 516.26 1159.23V1209.1C516.26 1210.32 515.83 1211.35 515 1212.19C514.15 1213.04 513.12 1213.46 511.9 1213.46H355.01C353.79 1213.46 352.76 1213.04 351.91 1212.19C351.06 1211.34 350.64 1210.31 350.64 1209.1V1191.26H302.59V1211.28C302.59 1220.5 304.9 1228.94 309.5 1236.58C314.1 1244.22 320.23 1250.36 327.88 1254.97C335.53 1259.59 343.95 1261.88 353.18 1261.88H514.08C523.31 1261.88 531.75 1259.57 539.38 1254.97C547.03 1250.36 553.14 1244.24 557.76 1236.58C562.37 1228.93 564.68 1220.51 564.68 1211.28V1157.41C564.68 1147.95 562.37 1139.4 557.76 1131.74C553.14 1124.09 547.03 1117.98 539.38 1113.36C531.73 1108.75 523.31 1106.45 514.08 1106.45H355.01C353.79 1106.45 352.76 1106.08 351.91 1105.36C351.06 1104.64 350.64 1103.66 350.64 1102.44V1052.57C350.64 1051.35 351.06 1050.32 351.91 1049.47C352.76 1048.62 353.79 1048.21 355.01 1048.21H511.91C513.13 1048.21 514.15 1048.64 515 1049.47C515.85 1050.32 516.27 1051.35 516.27 1052.57V1070.41H564.69V1050.39C564.69 1041.16 562.38 1032.73 557.77 1025.09C553.15 1017.44 547.04 1011.32 539.39 1006.7Z" fill="#000326"/>
<path d="M746.69 1070.41H698.29V1261.89H746.69V1070.41Z" fill="#000326"/>
<path d="M853.36 999.77H591.26V1048.19H853.36V999.77Z" fill="#FFBC01"/>
<path d="M853.36 999.77H591.26V1048.19H853.36V999.77Z" fill="url(#paint0_linear_2883_1017)"/>
<path d="M1117.27 1007.07C1109.51 1002.47 1101 1000.16 1091.8 1000.16H880.66V1261.89H928.71V1172.34L1014.42 1172.15L1089.61 1261.89H1142.04V1248.42L1077.33 1172.01L1091.8 1171.98C1101.02 1171.98 1109.51 1169.73 1117.27 1165.24C1125.03 1160.75 1131.23 1154.62 1135.83 1146.86C1140.43 1139.09 1142.74 1130.61 1142.74 1121.39V1050.77C1142.74 1041.54 1140.43 1033.1 1135.83 1025.47C1131.22 1017.82 1125.03 1011.71 1117.27 1007.08V1007.07ZM1094.33 1119.55C1094.33 1120.77 1093.85 1121.73 1092.87 1122.47C1091.9 1123.19 1090.8 1123.56 1089.6 1123.56H933.08C931.86 1123.56 930.83 1123.19 929.98 1122.47C929.13 1121.75 928.72 1120.77 928.72 1119.55V1052.57C928.72 1051.35 929.13 1050.32 929.98 1049.47C930.83 1048.62 931.86 1048.21 933.08 1048.21H1089.6C1090.82 1048.21 1091.91 1048.64 1092.87 1049.47C1093.84 1050.32 1094.33 1051.35 1094.33 1052.57V1119.55Z" fill="#000326"/>
<path d="M1436.88 1025.09C1432.26 1017.44 1426.08 1011.32 1418.32 1006.7C1410.56 1002.09 1402.05 999.79 1392.85 999.79H1232.31C1223.08 999.79 1214.65 1002.1 1207.01 1006.7C1199.37 1011.32 1193.23 1017.43 1188.63 1025.09C1184.02 1032.74 1181.72 1041.16 1181.72 1050.39V1261.89H1229.76V1173.8H1395.4V1261.89H1443.82V1050.39C1443.82 1041.16 1441.51 1032.73 1436.91 1025.09H1436.89H1436.88ZM1395.38 1125.74H1229.74V1052.57C1229.74 1051.35 1230.15 1050.32 1231 1049.47C1231.85 1048.62 1232.88 1048.21 1234.1 1048.21H1390.63C1391.85 1048.21 1392.94 1048.64 1393.9 1049.47C1394.86 1050.32 1395.36 1051.35 1395.36 1052.57V1125.74H1395.38Z" fill="#000326"/>
<path d="M236.61 1006.7C228.85 1002.09 220.34 999.79 211.14 999.79H50.59C41.37 999.79 32.93 1002.1 25.29 1006.7C17.64 1011.32 11.51 1017.43 6.91 1025.08C2.29 1032.73 0 1041.15 0 1050.38V1261.9H48.05V1173.79H213.69V1261.9H262.11V1050.38C262.11 1041.15 259.8 1032.71 255.2 1025.08C250.58 1017.43 244.4 1011.32 236.64 1006.7H236.61ZM213.69 1125.73H48.04V1052.56C48.04 1051.34 48.46 1050.31 49.31 1049.46C50.16 1048.61 51.19 1048.19 52.41 1048.19H208.95C210.17 1048.19 211.26 1048.63 212.22 1049.46C213.18 1050.31 213.68 1051.34 213.68 1052.56V1125.73H213.7H213.69Z" fill="#000326"/>
<path d="M172.35 1370.32V1310.7H199.52C204.97 1310.7 209.68 1311.58 213.66 1313.34C217.63 1315.1 220.69 1317.64 222.82 1320.96C224.95 1324.28 226.01 1328.19 226.01 1332.67C226.01 1337.15 224.95 1341.19 222.82 1344.42C220.69 1347.66 217.64 1350.14 213.66 1351.87C209.68 1353.6 204.97 1354.47 199.52 1354.47H181.63L189.21 1347.31V1370.31H172.35V1370.32ZM189.22 1349.29L181.64 1341.45H198.51C202.03 1341.45 204.67 1340.68 206.43 1339.15C208.19 1337.62 209.07 1335.46 209.07 1332.68C209.07 1329.9 208.19 1327.9 206.43 1326.33C204.67 1324.77 202.03 1323.99 198.51 1323.99H181.64L189.22 1316.24V1349.29ZM209.15 1370.32L194.33 1348.6H212.3L227.21 1370.32H209.15Z" fill="#000326"/>
<path d="M260.51 1357.21H291.68V1370.33H243.9V1310.71H290.58V1323.83H260.51V1357.22V1357.21ZM259.31 1333.78H286.99V1346.3H259.31V1333.78Z" fill="#000326"/>
<path d="M330.52 1371.52C325.58 1371.52 320.85 1370.91 316.34 1369.69C311.83 1368.47 308.18 1366.92 305.4 1365.05L310.94 1352.53C313.61 1354.23 316.69 1355.64 320.18 1356.75C323.67 1357.86 327.15 1358.41 330.61 1358.41C332.99 1358.41 334.88 1358.21 336.27 1357.81C337.66 1357.41 338.68 1356.85 339.34 1356.11C339.99 1355.37 340.32 1354.49 340.32 1353.47C340.32 1352.16 339.69 1351.13 338.45 1350.36C337.2 1349.59 335.57 1348.94 333.55 1348.4C331.53 1347.86 329.35 1347.35 326.99 1346.87C324.63 1346.39 322.23 1345.75 319.79 1344.95C317.35 1344.16 315.13 1343.11 313.15 1341.8C311.16 1340.49 309.56 1338.79 308.34 1336.69C307.12 1334.59 306.51 1331.95 306.51 1328.77C306.51 1325.25 307.47 1322.04 309.41 1319.15C311.34 1316.25 314.26 1313.93 318.18 1312.17C322.1 1310.41 326.98 1309.53 332.83 1309.53C336.75 1309.53 340.59 1309.97 344.37 1310.85C348.15 1311.73 351.48 1313.05 354.38 1314.81L349.27 1327.25C346.43 1325.66 343.62 1324.5 340.84 1323.76C338.06 1323.02 335.36 1322.65 332.75 1322.65C330.42 1322.65 328.55 1322.91 327.13 1323.42C325.71 1323.93 324.69 1324.58 324.06 1325.38C323.44 1326.18 323.12 1327.03 323.12 1327.94C323.12 1329.3 323.74 1330.37 324.99 1331.13C326.24 1331.9 327.86 1332.52 329.84 1333C331.83 1333.48 334.03 1333.98 336.44 1334.49C338.85 1335 341.25 1335.64 343.64 1336.41C346.03 1337.18 348.22 1338.2 350.24 1339.48C352.25 1340.76 353.89 1342.43 355.14 1344.51C356.39 1346.58 357.01 1349.18 357.01 1352.3C357.01 1355.76 356.03 1358.96 354.07 1361.88C352.11 1364.81 349.17 1367.15 345.25 1368.91C341.33 1370.67 336.42 1371.55 330.51 1371.55L330.52 1371.52Z" fill="#000326"/>
<path d="M400.7 1371.52C391.9 1371.52 385.04 1369.11 380.13 1364.28C375.22 1359.45 372.76 1352.64 372.76 1343.84V1310.71H389.63V1343.33C389.63 1348.38 390.62 1352.02 392.61 1354.23C394.6 1356.45 397.35 1357.55 400.87 1357.55C404.39 1357.55 407.13 1356.44 409.09 1354.23C411.05 1352.02 412.03 1348.38 412.03 1343.33V1310.71H428.72V1343.84C428.72 1352.64 426.23 1359.46 421.27 1364.28C416.3 1369.11 409.44 1371.52 400.7 1371.52Z" fill="#000326"/>
<path d="M448.74 1370.32V1310.7H465.61V1356.95H493.97V1370.32H448.74Z" fill="#000326"/>
<path d="M521.82 1370.32V1324.07H503.51V1310.7H556.92V1324.07H538.69V1370.32H521.82Z" fill="#000326"/>
<path d="M592.69 1371.52C587.75 1371.52 583.02 1370.91 578.51 1369.69C574 1368.47 570.35 1366.92 567.57 1365.05L573.11 1352.53C575.78 1354.23 578.86 1355.64 582.35 1356.75C585.84 1357.86 589.32 1358.41 592.78 1358.41C595.16 1358.41 597.05 1358.21 598.44 1357.81C599.83 1357.41 600.85 1356.85 601.51 1356.11C602.16 1355.37 602.49 1354.49 602.49 1353.47C602.49 1352.16 601.87 1351.13 600.62 1350.36C599.37 1349.59 597.74 1348.94 595.72 1348.4C593.7 1347.86 591.52 1347.35 589.16 1346.87C586.8 1346.39 584.4 1345.75 581.96 1344.95C579.52 1344.16 577.3 1343.11 575.32 1341.8C573.33 1340.49 571.73 1338.79 570.51 1336.69C569.29 1334.59 568.68 1331.95 568.68 1328.77C568.68 1325.25 569.65 1322.04 571.58 1319.15C573.51 1316.25 576.43 1313.93 580.35 1312.17C584.27 1310.41 589.15 1309.53 595 1309.53C598.92 1309.53 602.76 1309.97 606.54 1310.85C610.32 1311.73 613.65 1313.05 616.55 1314.81L611.44 1327.25C608.6 1325.66 605.79 1324.5 603.01 1323.76C600.23 1323.02 597.53 1322.65 594.92 1322.65C592.59 1322.65 590.72 1322.91 589.3 1323.42C587.88 1323.93 586.86 1324.58 586.23 1325.38C585.61 1326.18 585.29 1327.03 585.29 1327.94C585.29 1329.3 585.91 1330.37 587.16 1331.13C588.41 1331.9 590.03 1332.52 592.01 1333C594 1333.48 596.2 1333.98 598.61 1334.49C601.02 1335 603.42 1335.64 605.81 1336.41C608.2 1337.18 610.39 1338.2 612.41 1339.48C614.43 1340.76 616.06 1342.43 617.31 1344.51C618.56 1346.58 619.18 1349.18 619.18 1352.3C619.18 1355.76 618.2 1358.96 616.24 1361.88C614.28 1364.81 611.34 1367.15 607.42 1368.91C603.5 1370.67 598.59 1371.55 592.68 1371.55L592.69 1371.52Z" fill="#000326"/>
<path d="M668.75 1370.32V1310.7H682.63L707.25 1351.24H699.92L724.02 1310.7H737.9L737.99 1370.32H722.49L722.32 1334.29H724.96L706.99 1364.44H699.49L681.01 1334.29H684.25V1370.32H668.75Z" fill="#000326"/>
<path d="M751.28 1370.32L777.6 1310.7H794.21L820.61 1370.32H803.06L782.45 1318.96H789.09L768.48 1370.32H751.27H751.28ZM765.67 1358.66L770.01 1346.31H799.14L803.48 1358.66H765.66H765.67Z" fill="#000326"/>
<path d="M833.98 1370.32V1310.7H861.15C866.6 1310.7 871.31 1311.58 875.29 1313.34C879.26 1315.1 882.32 1317.64 884.45 1320.96C886.58 1324.28 887.64 1328.19 887.64 1332.67C887.64 1337.15 886.58 1341.19 884.45 1344.42C882.32 1347.66 879.27 1350.14 875.29 1351.87C871.32 1353.6 866.6 1354.47 861.15 1354.47H843.26L850.84 1347.31V1370.31H833.97L833.98 1370.32ZM850.85 1349.29L843.27 1341.45H860.13C863.65 1341.45 866.29 1340.68 868.05 1339.15C869.81 1337.62 870.69 1335.46 870.69 1332.68C870.69 1329.9 869.81 1327.9 868.05 1326.33C866.29 1324.77 863.65 1323.99 860.13 1323.99H843.27L850.85 1316.24V1349.29ZM870.78 1370.32L855.96 1348.6H873.93L888.84 1370.32H870.78Z" fill="#000326"/>
<path d="M905.53 1370.32V1310.7H922.14V1370.32H905.53ZM920.52 1357.12L919.58 1338.21L945.22 1310.7H963.7L938.32 1338.38L928.87 1348.17L920.52 1357.11V1357.12ZM945.48 1370.32L926.06 1345.7L937.05 1333.95L965.07 1370.32H945.48Z" fill="#000326"/>
<path d="M994.71 1357.21H1025.88V1370.33H978.1V1310.71H1024.78V1323.83H994.71V1357.22V1357.21ZM993.52 1333.78H1021.2V1346.3H993.52V1333.78Z" fill="#000326"/>
<path d="M1056.46 1370.32V1324.07H1038.15V1310.7H1091.56V1324.07H1073.33V1370.32H1056.46Z" fill="#000326"/>
<path d="M1106.46 1370.32V1310.7H1123.33V1370.32H1106.46Z" fill="#000326"/>
<path d="M1143.85 1370.32V1310.7H1157.73L1190.52 1350.39H1183.96V1310.7H1200.48V1370.32H1186.6L1153.72 1330.63H1160.28V1370.32H1143.84H1143.85Z" fill="#000326"/>
<path d="M1250.74 1371.52C1245.97 1371.52 1241.6 1370.77 1237.62 1369.26C1233.64 1367.75 1230.18 1365.63 1227.23 1362.87C1224.28 1360.12 1221.98 1356.84 1220.33 1353.03C1218.68 1349.23 1217.86 1345.05 1217.86 1340.51C1217.86 1335.97 1218.68 1331.79 1220.33 1327.99C1221.98 1324.19 1224.29 1320.91 1227.27 1318.15C1230.25 1315.4 1233.76 1313.27 1237.79 1311.76C1241.82 1310.26 1246.28 1309.5 1251.16 1309.5C1256.72 1309.5 1261.72 1310.44 1266.15 1312.31C1270.58 1314.18 1274.24 1316.88 1277.14 1320.4L1266.41 1330.11C1264.37 1327.84 1262.16 1326.16 1259.81 1325.08C1257.45 1324 1254.83 1323.46 1251.93 1323.46C1249.38 1323.46 1247.05 1323.86 1244.95 1324.65C1242.85 1325.45 1241.06 1326.6 1239.58 1328.1C1238.1 1329.61 1236.95 1331.41 1236.13 1333.51C1235.31 1335.61 1234.9 1337.94 1234.9 1340.49C1234.9 1343.04 1235.31 1345.29 1236.13 1347.39C1236.95 1349.49 1238.1 1351.29 1239.58 1352.8C1241.06 1354.31 1242.83 1355.47 1244.9 1356.29C1246.97 1357.11 1249.26 1357.53 1251.76 1357.53C1254.26 1357.53 1256.7 1357.12 1259.09 1356.29C1261.48 1355.47 1263.89 1354.06 1266.33 1352.07L1275.78 1363.91C1272.32 1366.35 1268.36 1368.23 1263.9 1369.53C1259.44 1370.84 1255.05 1371.49 1250.74 1371.49V1371.52ZM1260.79 1361.81V1339.24H1275.78V1363.94L1260.79 1361.81Z" fill="#000326"/>
<path d="M720.92 102.11C750.24 189.12 779.52 276.09 808.85 363.09L810.11 366.83C816.04 365.14 821.96 363.45 827.97 361.73H827.99C829.05 361.42 830.1 361.12 831.17 360.81C832.23 360.51 833.31 360.2 834.38 359.89C840.76 358.07 847.14 356.25 853.51 354.42C859.89 352.6 866.27 350.77 872.66 348.95L873.28 348.77C937.06 330.51 997.03 308.07 1055.01 297.06L1119.11 284.89L1069.29 327.02L1008.36 378.56L1005.62 380.87L1002.19 381.9C978.75 388.9 971.91 391.04 948.33 398.05C935.52 401.87 922.71 405.69 909.9 409.52C897.08 413.35 884.26 417.18 871.44 421C869.66 421.54 867.88 422.06 866.14 422.58C864.37 423.1 862.65 423.62 860.93 424.14H860.88C851.35 426.99 841.83 429.84 832.29 432.69L833.1 435.08C839.37 453.75 845.67 472.43 851.98 491.11H852L855.93 502.8C894.89 618.47 933.87 734.13 972.86 849.81L987.51 893.28L947.93 870.1C896 839.7 844.08 809.3 792.16 778.89C740.24 748.49 688.33 718.09 636.4 687.69C627.06 682.23 617.75 676.77 608.44 671.32C607.49 674.52 606.55 677.71 605.6 680.91C604.97 683.04 604.31 685.28 603.62 687.53C600.62 697.66 597.62 707.88 594.59 718.06V718.08C592.42 725.32 590.28 732.57 588.12 739.86L586.67 744.77L582.76 748.08L473.75 840.3L426.8 880.02L446.4 821.73C469.37 753.4 492.34 685.11 515.31 616.79C463.45 586.41 411.59 556.05 359.73 525.67L325.08 505.38L363.69 494.36C434.79 474.06 505.86 453.73 576.96 433.41C595.05 379.62 613.14 325.83 631.23 272.04C650.28 215.4 669.33 158.76 688.37 102.12L704.62 53.79L720.9 102.11H720.92ZM742.87 459.36C722.69 465.38 702.5 471.4 682.31 477.41C677.82 478.76 673.34 480.1 668.86 481.43C667.35 481.88 665.83 482.33 664.32 482.78L660.1 497.07C655.86 511.42 651.62 525.82 647.36 540.18C643.84 552.09 640.3 564.01 636.78 575.91C635.09 581.61 633.43 587.15 631.77 592.78L637.81 596.08C646.77 600.97 655.74 605.86 664.71 610.75C673.68 615.64 682.65 620.53 691.61 625.43C722.12 642.06 752.62 658.71 783.12 675.35C800.76 684.97 818.4 694.59 836.03 704.21C818.37 652.12 800.71 600.04 783.05 547.95C773.14 518.71 763.21 489.43 753.29 460.16L752.09 456.62C749.02 457.54 745.96 458.45 742.89 459.37L742.87 459.36ZM536.21 521.02H536.16L536.11 521.05C534.3 521.58 532.57 522.09 530.85 522.61H530.81L530.77 522.63C524.82 524.41 518.86 526.18 512.91 527.95C522.01 532.91 531.11 537.88 540.21 542.84C543.08 534.31 545.95 525.78 548.82 517.24C544.62 518.49 540.42 519.74 536.22 521.01L536.21 521.02ZM702.14 355.3C697.56 370.74 692.98 386.17 688.41 401.61C691.31 400.78 694.22 399.95 697.12 399.12H697.15C700.13 398.27 703.11 397.41 706.11 396.55C709.04 395.71 712 394.86 714.97 394.02L718.59 392.98C722.22 391.94 725.84 390.9 729.44 389.87L709.39 330.79C706.97 338.96 704.55 347.12 702.13 355.29L702.14 355.3Z" fill="url(#paint1_linear_2883_1017)"/>
<path d="M390.95 932.85L494.61 624.55L281.77 499.91L563.58 419.4L704.61 0L769.09 191.37C786.43 242.86 803.77 294.34 821.13 345.83L868.42 332.31C889.52 326.27 910.36 319.72 930.5 313.39C972.46 300.2 1012.09 287.74 1051.79 280.21L1180 255.87L1013.95 396.3L1007.08 398.35C996.6 401.48 989.44 403.64 982.62 405.69C974.18 408.24 966.25 410.63 953.2 414.51L854.21 444.05C857.57 454.02 860.93 463.98 864.29 473.94H864.31L872.19 497.33C906.03 597.81 939.9 698.3 973.77 798.79L1018.42 931.27L618.66 697.2L601.66 754.56L390.92 932.85H390.95ZM598.24 645.44L956.62 855.29L941.27 809.76C907.4 709.26 873.53 608.78 839.68 508.28L835.74 496.6C829.42 477.91 823.12 459.22 816.84 440.54L810.34 421.34L943.43 381.61C956.43 377.74 964.33 375.36 972.74 372.83C979.59 370.77 986.77 368.6 997.28 365.46L1058.2 313.93C1020.48 321.09 981.78 333.26 940.8 346.14C920.45 352.54 899.4 359.15 877.99 365.28L799.05 387.84L792.57 368.57C773.89 313.16 755.22 257.75 736.55 202.33L704.64 107.6L590.35 447.45L368.4 510.87L536.01 609.04L462.66 827.2L571.66 734.98L598.21 645.43L598.24 645.44ZM866.39 740.33L611.35 601.2L630.89 535.33C634.57 522.95 638.22 510.57 641.87 498.21L650.49 469.01L737.95 442.91L762.99 435.44L866.39 740.32V740.33ZM652.16 584.37L805.65 668.08L741.13 477.79C723.15 483.15 705.17 488.51 687.19 493.86L678.15 496.57L674.47 509.03C670.93 521.04 667.38 533.07 663.82 545.07L652.17 584.37H652.16ZM550.01 567.51L504.68 543.03L468.49 523.28L526.23 506.08C527.78 505.61 529.35 505.15 530.97 504.68L531.23 504.6L575.61 491.35L550 567.51H550.01ZM663.06 426.72L708.29 274.14L751.48 401.43L663.06 426.72Z" fill="#000326"/>
<defs>
<linearGradient id="paint0_linear_2883_1017" x1="722.31" y1="999.77" x2="722.31" y2="1048.19" gradientUnits="userSpaceOnUse">
<stop stop-color="#FFE59E"/>
<stop offset="1" stop-color="#FFBC01"/>
</linearGradient>
<linearGradient id="paint1_linear_2883_1017" x1="722.11" y1="53.8" x2="722.11" y2="893.27" gradientUnits="userSpaceOnUse">
<stop stop-color="#FFE59E"/>
<stop offset="1" stop-color="#FFBC01"/>
</linearGradient>
</defs>
</svg>
