<svg width="189" height="180" viewBox="0 0 189 180" fill="none" xmlns="http://www.w3.org/2000/svg">
<path d="M94.001 13.5215C97.8185 24.8508 101.632 36.1745 105.451 47.5029L105.615 47.9893C106.388 47.7689 107.159 47.5504 107.94 47.3262L107.942 47.3252C108.08 47.2858 108.218 47.2468 108.356 47.207C108.495 47.1673 108.635 47.127 108.775 47.0869L113.76 45.6621L113.879 45.6279C122.17 43.252 129.966 40.3362 137.503 38.9053L145.85 37.3213L139.363 42.8076L131.43 49.5176L131.073 49.8184L130.626 49.9521C127.574 50.8639 126.683 51.1429 123.613 52.0557L123.612 52.0547C121.944 52.5521 120.277 53.0507 118.609 53.5488C116.941 54.0471 115.272 54.546 113.603 55.0439L113.602 55.043C113.37 55.1129 113.138 55.1829 112.912 55.25C112.682 55.3182 112.458 55.3847 112.234 55.4521L112.228 55.4541C110.987 55.8239 109.747 56.1936 108.506 56.5645L108.61 56.876C109.427 59.3073 110.248 61.7398 111.069 64.1719H111.071L111.584 65.6934C116.656 80.7552 121.733 95.8147 126.81 110.877L128.717 116.537L123.562 113.52C109.944 105.547 96.6178 97.7413 83 89.7686C81.7837 89.0579 80.5717 88.3462 79.3594 87.6357C79.2361 88.0522 79.1127 88.4688 78.9893 88.8857L78.9883 88.8887C78.9049 89.1694 78.8182 89.4668 78.7275 89.7646C78.3388 91.0785 77.9476 92.402 77.5557 93.7217L77.5547 93.7256C77.2732 94.668 76.9942 95.6128 76.7129 96.5615L76.5234 97.2012L76.0137 97.6318L61.8203 109.641L55.707 114.812L58.2588 107.223C61.2498 98.3261 64.2415 89.4341 67.2324 80.5371C60.48 76.5811 53.7271 72.6282 46.9736 68.6729L42.4619 66.0312L47.4893 64.5967C56.7466 61.9537 66.0007 59.3055 75.2588 56.6602C80.0652 42.3648 84.9642 27.8043 89.7656 13.5234L91.8809 7.23047L94.001 13.5215ZM96.8594 60.0381L96.8584 60.0391C94.2306 60.823 91.6015 61.6055 88.9727 62.3877L88.9736 62.3887C88.3891 62.5639 87.8049 62.7386 87.2227 62.9121C87.0255 62.9709 86.8286 63.0292 86.6318 63.0879L86.083 64.9492C85.5311 66.8182 84.9777 68.6928 84.4229 70.5625C83.9649 72.1142 83.5037 73.6654 83.0449 75.2148V75.2158C82.8251 75.9565 82.6089 76.678 82.3916 77.4102L83.1777 77.8398C84.3444 78.4765 85.5125 79.1131 86.6807 79.75C87.8487 80.3868 89.0171 81.024 90.1846 81.6611H90.1836C94.1559 83.8272 98.1276 85.9937 102.099 88.1602C104.395 89.4128 106.691 90.6645 108.987 91.917C106.687 85.1355 104.389 78.3536 102.09 71.5723C100.799 67.7654 99.5064 63.9524 98.2139 60.1416L98.0576 59.6807C97.6577 59.7999 97.2582 59.919 96.8594 60.0381ZM69.9502 68.0664L69.9375 68.0703C69.7018 68.1398 69.476 68.2064 69.252 68.2744L69.2422 68.2773C68.4667 68.5087 67.6906 68.7393 66.915 68.9707C68.0997 69.6167 69.2843 70.263 70.4688 70.9092C70.8428 69.7984 71.2169 68.6885 71.5908 67.5762C71.0438 67.7393 70.4969 67.9017 69.9502 68.0664ZM91.5557 46.4883C90.9598 48.4983 90.3636 50.5084 89.7676 52.5186C90.1453 52.4105 90.5232 52.3024 90.9014 52.1943L90.9062 52.1934C91.2938 52.0835 91.6812 51.9724 92.0723 51.8604C92.4543 51.7509 92.84 51.6408 93.2266 51.5312C93.3842 51.4846 93.5373 51.4408 93.6875 51.3984L95.1104 50.9902L95.0156 50.71C94.1763 48.2405 93.3386 45.7688 92.501 43.2979C92.1857 44.3613 91.8709 45.4248 91.5557 46.4883Z" fill="#FFBC01"/>
<path d="M94.001 13.5215C97.8185 24.8508 101.632 36.1745 105.451 47.5029L105.615 47.9893C106.388 47.7689 107.159 47.5504 107.94 47.3262L107.942 47.3252C108.08 47.2858 108.218 47.2468 108.356 47.207C108.495 47.1673 108.635 47.127 108.775 47.0869L113.76 45.6621L113.879 45.6279C122.17 43.252 129.966 40.3362 137.503 38.9053L145.85 37.3213L139.363 42.8076L131.43 49.5176L131.073 49.8184L130.626 49.9521C127.574 50.8639 126.683 51.1429 123.613 52.0557L123.612 52.0547C121.944 52.5521 120.277 53.0507 118.609 53.5488C116.941 54.0471 115.272 54.546 113.603 55.0439L113.602 55.043C113.37 55.1129 113.138 55.1829 112.912 55.25C112.682 55.3182 112.458 55.3847 112.234 55.4521L112.228 55.4541C110.987 55.8239 109.747 56.1936 108.506 56.5645L108.61 56.876C109.427 59.3073 110.248 61.7398 111.069 64.1719H111.071L111.584 65.6934C116.656 80.7552 121.733 95.8147 126.81 110.877L128.717 116.537L123.562 113.52C109.944 105.547 96.6178 97.7413 83 89.7686C81.7837 89.0579 80.5717 88.3462 79.3594 87.6357C79.2361 88.0522 79.1127 88.4688 78.9893 88.8857L78.9883 88.8887C78.9049 89.1694 78.8182 89.4668 78.7275 89.7646C78.3388 91.0785 77.9476 92.402 77.5557 93.7217L77.5547 93.7256C77.2732 94.668 76.9942 95.6128 76.7129 96.5615L76.5234 97.2012L76.0137 97.6318L61.8203 109.641L55.707 114.812L58.2588 107.223C61.2498 98.3261 64.2415 89.4341 67.2324 80.5371C60.48 76.5811 53.7271 72.6282 46.9736 68.6729L42.4619 66.0312L47.4893 64.5967C56.7466 61.9537 66.0007 59.3055 75.2588 56.6602C80.0652 42.3648 84.9642 27.8043 89.7656 13.5234L91.8809 7.23047L94.001 13.5215ZM96.8594 60.0381L96.8584 60.0391C94.2306 60.823 91.6015 61.6055 88.9727 62.3877L88.9736 62.3887C88.3891 62.5639 87.8049 62.7386 87.2227 62.9121C87.0255 62.9709 86.8286 63.0292 86.6318 63.0879L86.083 64.9492C85.5311 66.8182 84.9777 68.6928 84.4229 70.5625C83.9649 72.1142 83.5037 73.6654 83.0449 75.2148V75.2158C82.8251 75.9565 82.6089 76.678 82.3916 77.4102L83.1777 77.8398C84.3444 78.4765 85.5125 79.1131 86.6807 79.75C87.8487 80.3868 89.0171 81.024 90.1846 81.6611H90.1836C94.1559 83.8272 98.1276 85.9937 102.099 88.1602C104.395 89.4128 106.691 90.6645 108.987 91.917C106.687 85.1355 104.389 78.3536 102.09 71.5723C100.799 67.7654 99.5064 63.9524 98.2139 60.1416L98.0576 59.6807C97.6577 59.7999 97.2582 59.919 96.8594 60.0381ZM69.9502 68.0664L69.9375 68.0703C69.7018 68.1398 69.476 68.2064 69.252 68.2744L69.2422 68.2773C68.4667 68.5087 67.6906 68.7393 66.915 68.9707C68.0997 69.6167 69.2843 70.263 70.4688 70.9092C70.8428 69.7984 71.2169 68.6885 71.5908 67.5762C71.0438 67.7393 70.4969 67.9017 69.9502 68.0664ZM91.5557 46.4883C90.9598 48.4983 90.3636 50.5084 89.7676 52.5186C90.1453 52.4105 90.5232 52.3024 90.9014 52.1943L90.9062 52.1934C91.2938 52.0835 91.6812 51.9724 92.0723 51.8604C92.4543 51.7509 92.84 51.6408 93.2266 51.5312C93.3842 51.4846 93.5373 51.4408 93.6875 51.3984L95.1104 50.9902L95.0156 50.71C94.1763 48.2405 93.3386 45.7688 92.501 43.2979C92.1857 44.3613 91.8709 45.4248 91.5557 46.4883Z" fill="url(#paint0_linear_2733_64)"/>
<path d="M94.001 13.5215C97.8185 24.8508 101.632 36.1745 105.451 47.5029L105.615 47.9893C106.388 47.7689 107.159 47.5504 107.94 47.3262L107.942 47.3252C108.08 47.2858 108.218 47.2468 108.356 47.207C108.495 47.1673 108.635 47.127 108.775 47.0869L113.76 45.6621L113.879 45.6279C122.17 43.252 129.966 40.3362 137.503 38.9053L145.85 37.3213L139.363 42.8076L131.43 49.5176L131.073 49.8184L130.626 49.9521C127.574 50.8639 126.683 51.1429 123.613 52.0557L123.612 52.0547C121.944 52.5521 120.277 53.0507 118.609 53.5488C116.941 54.0471 115.272 54.546 113.603 55.0439L113.602 55.043C113.37 55.1129 113.138 55.1829 112.912 55.25C112.682 55.3182 112.458 55.3847 112.234 55.4521L112.228 55.4541C110.987 55.8239 109.747 56.1936 108.506 56.5645L108.61 56.876C109.427 59.3073 110.248 61.7398 111.069 64.1719H111.071L111.584 65.6934C116.656 80.7552 121.733 95.8147 126.81 110.877L128.717 116.537L123.562 113.52C109.944 105.547 96.6178 97.7413 83 89.7686C81.7837 89.0579 80.5717 88.3462 79.3594 87.6357C79.2361 88.0522 79.1127 88.4688 78.9893 88.8857L78.9883 88.8887C78.9049 89.1694 78.8182 89.4668 78.7275 89.7646C78.3388 91.0785 77.9476 92.402 77.5557 93.7217L77.5547 93.7256C77.2732 94.668 76.9942 95.6128 76.7129 96.5615L76.5234 97.2012L76.0137 97.6318L61.8203 109.641L55.707 114.812L58.2588 107.223C61.2498 98.3261 64.2415 89.4341 67.2324 80.5371C60.48 76.5811 53.7271 72.6282 46.9736 68.6729L42.4619 66.0312L47.4893 64.5967C56.7466 61.9537 66.0007 59.3055 75.2588 56.6602C80.0652 42.3648 84.9642 27.8043 89.7656 13.5234L91.8809 7.23047L94.001 13.5215ZM96.8594 60.0381L96.8584 60.0391C94.2306 60.823 91.6015 61.6055 88.9727 62.3877L88.9736 62.3887C88.3891 62.5639 87.8049 62.7386 87.2227 62.9121C87.0255 62.9709 86.8286 63.0292 86.6318 63.0879L86.083 64.9492C85.5311 66.8182 84.9777 68.6928 84.4229 70.5625C83.9649 72.1142 83.5037 73.6654 83.0449 75.2148V75.2158C82.8251 75.9565 82.6089 76.678 82.3916 77.4102L83.1777 77.8398C84.3444 78.4765 85.5125 79.1131 86.6807 79.75C87.8487 80.3868 89.0171 81.024 90.1846 81.6611H90.1836C94.1559 83.8272 98.1276 85.9937 102.099 88.1602C104.395 89.4128 106.691 90.6645 108.987 91.917C106.687 85.1355 104.389 78.3536 102.09 71.5723C100.799 67.7654 99.5064 63.9524 98.2139 60.1416L98.0576 59.6807C97.6577 59.7999 97.2582 59.919 96.8594 60.0381ZM69.9502 68.0664L69.9375 68.0703C69.7018 68.1398 69.476 68.2064 69.252 68.2744L69.2422 68.2773C68.4667 68.5087 67.6906 68.7393 66.915 68.9707C68.0997 69.6167 69.2843 70.263 70.4688 70.9092C70.8428 69.7984 71.2169 68.6885 71.5908 67.5762C71.0438 67.7393 70.4969 67.9017 69.9502 68.0664ZM91.5557 46.4883C90.9598 48.4983 90.3636 50.5084 89.7676 52.5186C90.1453 52.4105 90.5232 52.3024 90.9014 52.1943L90.9062 52.1934C91.2938 52.0835 91.6812 51.9724 92.0723 51.8604C92.4543 51.7509 92.84 51.6408 93.2266 51.5312C93.3842 51.4846 93.5373 51.4408 93.6875 51.3984L95.1104 50.9902L95.0156 50.71C94.1763 48.2405 93.3386 45.7688 92.501 43.2979C92.1857 44.3613 91.8709 45.4248 91.5557 46.4883Z" stroke="#000326" stroke-width="4.46935"/>
<path d="M46.536 170.414L43.4612 175.585L40.3216 170.414H38.2383V179.363H40.5642V174.748L42.8525 178.48H43.9779L46.2829 174.614L46.3059 179.363H48.6319L48.6193 170.414H46.536Z" fill="#000326"/>
<path d="M57.1345 170.414L53.1833 179.365H55.7666L56.4694 177.614H60.2532L60.9561 179.365H63.5895L59.6257 170.414H57.1325H57.1345ZM57.2119 175.759L58.3603 172.897L59.5086 175.759H57.2119Z" fill="#000326"/>
<path d="M75.7294 175.476C76.0494 174.991 76.2084 174.403 76.2084 173.711C76.2084 173.018 76.0494 172.452 75.7294 171.954C75.4094 171.456 74.9513 171.073 74.3552 170.81C73.759 170.546 73.052 170.412 72.2321 170.412H68.1533V179.362H70.6843V176.984H72.0543L73.6775 179.362H76.3883L74.4535 176.545C74.9994 176.288 75.4282 175.934 75.7294 175.476ZM73.2675 172.759C73.531 172.993 73.6628 173.311 73.6628 173.711C73.6628 174.11 73.531 174.453 73.2675 174.683C73.0039 174.913 72.6065 175.028 72.0794 175.028H70.6864V172.408H72.0794C72.6086 172.408 73.0039 172.525 73.2675 172.759Z" fill="#000326"/>
<path d="M90.1811 170.414H87.4076L83.9437 174.131V170.414H81.4504V179.363H83.9437V177.12L84.8829 176.114L87.4452 179.363H90.3861L86.5458 174.378L90.1811 170.414Z" fill="#000326"/>
<path d="M97.3927 175.758H101.369V173.878H97.3927V172.382H101.904V170.414H94.8994V179.362H102.072V177.394H97.3927V175.758Z" fill="#000326"/>
<path d="M106.469 172.42H109.217V179.363H111.75V172.42H114.486V170.414H106.469V172.42Z" fill="#000326"/>
<path d="M121.811 170.414H119.28V179.365H121.811V170.414Z" fill="#000326"/>
<path d="M133.471 175.179L129.533 170.414H127.449V179.362H129.917V174.593L133.867 179.362H135.952V170.414H133.471V175.179Z" fill="#000326"/>
<path d="M147.561 177.156C147.475 177.195 147.389 177.229 147.306 177.258C146.948 177.381 146.582 177.444 146.205 177.444C145.829 177.444 145.488 177.381 145.176 177.258C144.865 177.135 144.599 176.959 144.377 176.733C144.155 176.507 143.982 176.237 143.858 175.921C143.735 175.606 143.672 175.26 143.672 174.886C143.672 174.512 143.735 174.154 143.858 173.838C143.982 173.522 144.155 173.252 144.377 173.027C144.599 172.801 144.867 172.629 145.182 172.508C145.498 172.389 145.848 172.328 146.23 172.328C146.665 172.328 147.059 172.41 147.412 172.571C147.766 172.732 148.096 172.985 148.404 173.326L150.014 171.868C149.579 171.339 149.029 170.935 148.366 170.653C147.701 170.372 146.952 170.23 146.115 170.23C145.381 170.23 144.714 170.343 144.107 170.569C143.503 170.795 142.976 171.115 142.528 171.527C142.08 171.941 141.733 172.433 141.486 173.004C141.24 173.575 141.116 174.202 141.116 174.882C141.116 175.562 141.24 176.191 141.486 176.76C141.733 177.331 142.078 177.823 142.522 178.237C142.965 178.651 143.484 178.971 144.082 179.195C144.678 179.421 145.335 179.534 146.05 179.534C146.699 179.534 147.356 179.435 148.025 179.239C148.694 179.042 149.288 178.762 149.809 178.396V174.687H147.559V177.147L147.561 177.156Z" fill="#000326"/>
<path d="M70.3305 131.483C69.3327 130.883 68.2346 130.582 67.0319 130.582H46.0523C44.8495 130.582 43.7493 130.883 42.7537 131.483C41.7559 132.086 40.9569 132.883 40.3566 133.88C39.7542 134.878 39.4551 135.976 39.4551 137.179V144.203C39.4551 145.437 39.7563 146.552 40.3566 147.55C40.9569 148.545 41.7559 149.346 42.7537 149.947C43.7514 150.549 44.8495 150.848 46.0523 150.848H66.7474C66.9064 150.848 67.0402 150.896 67.1511 150.99C67.262 151.085 67.3163 151.212 67.3163 151.371V157.874C67.3163 158.033 67.2599 158.167 67.1511 158.278C67.0402 158.389 66.9064 158.443 66.7474 158.443H46.2907C46.1317 158.443 45.9979 158.389 45.887 158.278C45.7762 158.167 45.7218 158.033 45.7218 157.874V155.548H39.4572V158.159C39.4572 159.361 39.7584 160.462 40.3587 161.457C40.959 162.453 41.758 163.254 42.7558 163.854C43.7535 164.457 44.8516 164.756 46.0543 164.756H67.034C68.2367 164.756 69.3369 164.455 70.3326 163.854C71.3303 163.254 72.1272 162.455 72.7296 161.457C73.3299 160.46 73.6311 159.361 73.6311 158.159V151.135C73.6311 149.901 73.3299 148.786 72.7296 147.788C72.1272 146.79 71.3303 145.993 70.3326 145.391C69.3348 144.791 68.2367 144.49 67.034 144.49H46.2928C46.1338 144.49 46 144.441 45.8891 144.347C45.7782 144.253 45.7239 144.126 45.7239 143.967V137.464C45.7239 137.305 45.7782 137.171 45.8891 137.06C46 136.949 46.1338 136.895 46.2928 136.895H66.7495C66.9085 136.895 67.0423 136.951 67.1532 137.06C67.264 137.171 67.3184 137.305 67.3184 137.464V139.79H73.6311V137.179C73.6311 135.976 73.3299 134.876 72.7296 133.88C72.1272 132.883 71.3303 132.086 70.3326 131.483H70.3305Z" fill="#000326"/>
<path d="M97.3594 139.79H91.0488V164.756H97.3594V139.79Z" fill="#000326"/>
<path d="M111.268 130.58H77.0938V136.893H111.268V130.58Z" fill="#FFBC01"/>
<path d="M111.268 130.58H77.0938V136.893H111.268V130.58Z" fill="url(#paint1_linear_2733_64)"/>
<path d="M145.677 131.532C144.665 130.932 143.556 130.631 142.356 130.631H114.827V164.757H121.092V153.081L132.268 153.056L142.071 164.757H148.907V163L140.469 153.037L142.356 153.033C143.559 153.033 144.665 152.74 145.677 152.154C146.69 151.569 147.497 150.769 148.098 149.757C148.698 148.745 148.999 147.638 148.999 146.436V137.228C148.999 136.025 148.698 134.925 148.098 133.929C147.497 132.932 146.69 132.135 145.677 131.532ZM142.686 146.197C142.686 146.356 142.624 146.482 142.496 146.578C142.368 146.672 142.226 146.72 142.069 146.72H121.661C121.502 146.72 121.368 146.672 121.257 146.578C121.146 146.484 121.092 146.356 121.092 146.197V137.464C121.092 137.305 121.146 137.171 121.257 137.061C121.368 136.95 121.502 136.895 121.661 136.895H142.069C142.228 136.895 142.37 136.952 142.496 137.061C142.621 137.171 142.686 137.305 142.686 137.464V146.197Z" fill="#000326"/>
<path d="M187.35 133.881C186.748 132.883 185.943 132.086 184.93 131.484C183.918 130.883 182.809 130.582 181.609 130.582H160.677C159.475 130.582 158.374 130.883 157.379 131.484C156.383 132.086 155.582 132.883 154.982 133.881C154.381 134.878 154.08 135.977 154.08 137.179V164.756H160.345V153.271H181.941V164.756H188.254V137.179C188.254 135.977 187.953 134.876 187.353 133.881H187.35ZM181.939 147.004H160.343V137.464C160.343 137.305 160.397 137.171 160.508 137.06C160.619 136.949 160.753 136.895 160.912 136.895H181.32C181.479 136.895 181.621 136.951 181.747 137.06C181.872 137.171 181.937 137.305 181.937 137.464V147.004H181.939Z" fill="#000326"/>
<path d="M30.8524 131.483C29.84 130.883 28.7314 130.582 27.5308 130.582H6.59718C5.39446 130.582 4.29423 130.883 3.29859 131.483C2.30085 132.086 1.50183 132.883 0.901517 133.88C0.299111 134.878 0 135.976 0 137.179V164.758H6.2646V153.27H27.8613V164.758H34.174V137.179C34.174 135.976 33.8728 134.876 33.2725 133.88C32.67 132.883 31.8647 132.086 30.8524 131.483ZM27.8634 147.004H6.2646V137.463C6.2646 137.304 6.31898 137.171 6.42984 137.06C6.5407 136.949 6.67457 136.894 6.83354 136.894H27.2442C27.4032 136.894 27.5454 136.951 27.6709 137.06C27.7964 137.171 27.8613 137.304 27.8613 137.463V147.004H27.8634Z" fill="#000326"/>
<defs>
<linearGradient id="paint0_linear_2733_64" x1="94.4632" y1="14.2354" x2="94.4632" y2="111.591" gradientUnits="userSpaceOnUse">
<stop stop-color="#FFE59E"/>
<stop offset="1" stop-color="#FFBC01"/>
</linearGradient>
<linearGradient id="paint1_linear_2733_64" x1="94.7331" y1="130.58" x2="94.7331" y2="136.893" gradientUnits="userSpaceOnUse">
<stop stop-color="#FFE59E"/>
<stop offset="1" stop-color="#FFBC01"/>
</linearGradient>
</defs>
</svg>
