<svg width="240" height="106" viewBox="0 0 240 106" fill="none" xmlns="http://www.w3.org/2000/svg">
<g clip-path="url(#clip0_1627_539)">
<path d="M71.76 36.3687C69.96 36.8838 68.1644 37.3967 66.3644 37.9118C66.0633 37.9969 65.7644 38.0842 65.4633 38.1693C63.8836 38.6211 62.304 39.0707 60.7222 39.5225C58.4836 40.1599 56.2473 40.8015 54.0087 41.441C52.6844 41.8208 51.3556 42.2006 50.0291 42.5804C49.8698 42.6262 49.7084 42.672 49.5491 42.7179C48.7025 42.958 47.8582 43.2024 47.0116 43.4425C45.1898 43.9641 43.3702 44.4836 41.5462 45.0052C43.6713 37.8332 45.7985 30.659 47.9236 23.487C49.6451 28.5681 51.3665 33.6492 53.0902 38.7281L59.8058 36.8074C55.6713 24.5368 51.5411 12.2706 47.4065 0C42.0349 15.9788 36.6655 31.9555 31.2938 47.9321C20.8604 50.9157 10.4313 53.8971 0 56.8764C7.87636 61.4904 15.7571 66.1044 23.6356 70.7206C20.1884 80.9789 16.7389 91.2349 13.2916 101.491L28.6604 88.4848C28.9636 87.4612 29.2669 86.4332 29.5724 85.4073C29.9978 83.9734 30.4211 82.5372 30.8465 81.1054C30.9404 80.7933 31.032 80.4834 31.1236 80.1713C31.5491 78.7308 31.9767 77.2924 32.4022 75.8541C33.0196 73.7741 33.6349 71.6919 34.2502 69.6141C34.4029 69.1055 34.5513 68.5948 34.7018 68.0884C34.9702 67.1783 35.2429 66.2681 35.5113 65.3602C36.0087 63.6774 36.5062 61.999 37.0058 60.3205C37.6058 58.2973 38.2036 56.2696 38.8036 54.2442L28.0996 57.4395C27.264 59.9299 26.4284 62.4093 25.5927 64.8931C21.768 62.8043 17.9389 60.7178 14.112 58.6268C16.8065 57.8215 19.5033 57.0183 22.1978 56.2129C22.4531 56.1365 22.704 56.0601 22.9593 55.9859C24.0633 55.6541 25.1673 55.3246 26.2735 54.995C27.2553 54.7025 28.2327 54.4101 29.2145 54.1198C32.7338 53.0699 36.2553 52.0157 39.7767 50.9659C41.0378 50.5883 42.3011 50.2129 43.5622 49.8353C46.4095 48.9885 49.2567 48.1373 52.104 47.2882C53.28 46.9368 54.4582 46.5876 55.6342 46.234C57.8596 45.5705 60.0873 44.9048 62.3127 44.2413C64.4596 43.5996 66.6022 42.9579 68.7447 42.3206C69.24 42.1722 69.7374 42.026 70.2327 41.8776C73.8458 40.7994 77.4611 39.719 81.0742 38.6408C84.4102 37.6477 87.7462 36.6524 91.0822 35.655L99.672 28.3869C90.3665 31.0453 81.0655 33.7059 71.76 36.3643V36.3687ZM66.4429 56.5119C65.3673 53.3297 64.2938 50.1431 63.2247 46.9608L56.5527 48.9492C57.9513 53.0765 59.352 57.2081 60.7505 61.3311C63.9033 70.6333 67.056 79.9356 70.2109 89.24C61.6102 84.5496 53.0116 79.8548 44.4109 75.16C41.8844 73.7806 39.3513 72.4012 36.8225 71.0218L34.9484 77.347C36.3055 78.1437 37.656 78.9359 39.0109 79.7282C53.6531 88.3037 68.2909 96.8791 82.9331 105.455C77.4371 89.1396 71.9389 72.8268 66.4451 56.5119H66.4429Z" fill="#FFBC01"/>
<path d="M71.76 36.3687C69.96 36.8838 68.1644 37.3967 66.3644 37.9118C66.0633 37.9969 65.7644 38.0842 65.4633 38.1693C63.8836 38.6211 62.304 39.0707 60.7222 39.5225C58.4836 40.1599 56.2473 40.8015 54.0087 41.441C52.6844 41.8208 51.3556 42.2006 50.0291 42.5804C49.8698 42.6262 49.7084 42.672 49.5491 42.7179C48.7025 42.958 47.8582 43.2024 47.0116 43.4425C45.1898 43.9641 43.3702 44.4836 41.5462 45.0052C43.6713 37.8332 45.7985 30.659 47.9236 23.487C49.6451 28.5681 51.3665 33.6492 53.0902 38.7281L59.8058 36.8074C55.6713 24.5368 51.5411 12.2706 47.4065 0C42.0349 15.9788 36.6655 31.9555 31.2938 47.9321C20.8604 50.9157 10.4313 53.8971 0 56.8764C7.87636 61.4904 15.7571 66.1044 23.6356 70.7206C20.1884 80.9789 16.7389 91.2349 13.2916 101.491L28.6604 88.4848C28.9636 87.4612 29.2669 86.4332 29.5724 85.4073C29.9978 83.9734 30.4211 82.5372 30.8465 81.1054C30.9404 80.7933 31.032 80.4834 31.1236 80.1713C31.5491 78.7308 31.9767 77.2924 32.4022 75.8541C33.0196 73.7741 33.6349 71.6919 34.2502 69.6141C34.4029 69.1055 34.5513 68.5948 34.7018 68.0884C34.9702 67.1783 35.2429 66.2681 35.5113 65.3602C36.0087 63.6774 36.5062 61.999 37.0058 60.3205C37.6058 58.2973 38.2036 56.2696 38.8036 54.2442L28.0996 57.4395C27.264 59.9299 26.4284 62.4093 25.5927 64.8931C21.768 62.8043 17.9389 60.7178 14.112 58.6268C16.8065 57.8215 19.5033 57.0183 22.1978 56.2129C22.4531 56.1365 22.704 56.0601 22.9593 55.9859C24.0633 55.6541 25.1673 55.3246 26.2735 54.995C27.2553 54.7025 28.2327 54.4101 29.2145 54.1198C32.7338 53.0699 36.2553 52.0157 39.7767 50.9659C41.0378 50.5883 42.3011 50.2129 43.5622 49.8353C46.4095 48.9885 49.2567 48.1373 52.104 47.2882C53.28 46.9368 54.4582 46.5876 55.6342 46.234C57.8596 45.5705 60.0873 44.9048 62.3127 44.2413C64.4596 43.5996 66.6022 42.9579 68.7447 42.3206C69.24 42.1722 69.7374 42.026 70.2327 41.8776C73.8458 40.7994 77.4611 39.719 81.0742 38.6408C84.4102 37.6477 87.7462 36.6524 91.0822 35.655L99.672 28.3869C90.3665 31.0453 81.0655 33.7059 71.76 36.3643V36.3687ZM66.4429 56.5119C65.3673 53.3297 64.2938 50.1431 63.2247 46.9608L56.5527 48.9492C57.9513 53.0765 59.352 57.2081 60.7505 61.3311C63.9033 70.6333 67.056 79.9356 70.2109 89.24C61.6102 84.5496 53.0116 79.8548 44.4109 75.16C41.8844 73.7806 39.3513 72.4012 36.8225 71.0218L34.9484 77.347C36.3055 78.1437 37.656 78.9359 39.0109 79.7282C53.6531 88.3037 68.2909 96.8791 82.9331 105.455C77.4371 89.1396 71.9389 72.8268 66.4451 56.5119H66.4429Z" fill="url(#paint0_linear_1627_539)"/>
<path d="M112.316 44.3025C111.236 43.6521 110.047 43.3247 108.744 43.3247H86.0292C84.7267 43.3247 83.5376 43.6499 82.4576 44.3025C81.3776 44.9529 80.5136 45.8194 79.8612 46.8998C79.2089 47.9802 78.8838 49.1697 78.8838 50.4727V58.0813C78.8838 59.417 79.2089 60.6262 79.8612 61.7066C80.5114 62.787 81.3776 63.6513 82.4576 64.3039C83.5376 64.9543 84.7267 65.2817 86.0292 65.2817H108.437C108.607 65.2817 108.753 65.3341 108.873 65.4366C108.993 65.5392 109.052 65.6767 109.052 65.847V72.8902C109.052 73.0626 108.991 73.2067 108.873 73.3267C108.753 73.4468 108.607 73.5057 108.437 73.5057H86.2867C86.1143 73.5057 85.9703 73.4468 85.8503 73.3267C85.7303 73.2067 85.6714 73.0626 85.6714 72.8902V70.3715H78.8882V73.2001C78.8882 74.5032 79.2132 75.6927 79.8656 76.7731C80.5158 77.8535 81.382 78.7178 82.462 79.3704C83.542 80.0208 84.7311 80.3482 86.0336 80.3482H108.749C110.051 80.3482 111.24 80.023 112.32 79.3704C113.4 78.7199 114.264 77.8535 114.917 76.7731C115.567 75.6927 115.894 74.5032 115.894 73.2001V65.5916C115.894 64.2558 115.569 63.0467 114.917 61.9663C114.266 60.8859 113.4 60.0216 112.32 59.369C111.24 58.7186 110.051 58.3912 108.749 58.3912H86.2889C86.1165 58.3912 85.9725 58.3388 85.8525 58.2362C85.7325 58.1337 85.6736 57.9962 85.6736 57.8259V50.7827C85.6736 50.6124 85.7325 50.4662 85.8525 50.3461C85.9725 50.2261 86.1165 50.1672 86.2889 50.1672H108.439C108.609 50.1672 108.755 50.2283 108.875 50.3461C108.995 50.4662 109.054 50.6124 109.054 50.7827V53.3014H115.89V50.4727C115.89 49.1697 115.565 47.9802 114.912 46.8998C114.262 45.8194 113.396 44.9551 112.316 44.3025Z" fill="white"/>
<path d="M141.582 53.2993H134.749V80.3439H141.582V53.2993Z" fill="white"/>
<path d="M156.641 43.3247H119.638V50.1628H156.641V43.3247Z" fill="#FFBC01"/>
<path d="M156.641 43.3247H119.638V50.1628H156.641V43.3247Z" fill="url(#paint1_linear_1627_539)"/>
<path d="M193.901 44.3548C192.803 43.7043 191.606 43.377 190.303 43.377H160.495V80.3415H167.278V67.6933L179.379 67.6671L189.993 80.3415H197.394V78.4383L188.259 67.6453L190.303 67.6409C191.606 67.6409 192.803 67.3244 193.901 66.6893C194.996 66.0564 195.871 65.1899 196.521 64.092C197.171 62.9963 197.499 61.7959 197.499 60.4929V50.5184C197.499 49.2154 197.174 48.0259 196.521 46.9455C195.871 45.8651 194.996 45.0008 193.901 44.3482V44.3548ZM190.663 60.2397C190.663 60.4122 190.593 60.5475 190.458 60.6501C190.321 60.7526 190.166 60.805 189.995 60.805H167.896C167.723 60.805 167.579 60.7526 167.459 60.6501C167.339 60.5475 167.281 60.41 167.281 60.2397V50.7803C167.281 50.6101 167.339 50.4639 167.459 50.3438C167.579 50.2238 167.723 50.1648 167.896 50.1648H189.995C190.166 50.1648 190.321 50.226 190.458 50.3438C190.595 50.4639 190.663 50.6101 190.663 50.7803V60.2397Z" fill="white"/>
<path d="M239.022 46.8998C238.37 45.8194 237.497 44.9551 236.402 44.3025C235.304 43.6521 234.107 43.3247 232.804 43.3247H210.139C208.837 43.3247 207.648 43.6499 206.568 44.3025C205.488 44.9529 204.624 45.8194 203.971 46.8998C203.321 47.9802 202.996 49.1697 202.996 50.4727V80.3438H209.779V67.903H233.164V80.3438H240V50.4727C240 49.1697 239.675 47.9802 239.022 46.8998ZM233.164 61.1151H209.779V50.7805C209.779 50.6102 209.838 50.464 209.958 50.344C210.078 50.2239 210.224 50.165 210.395 50.165H232.494C232.664 50.165 232.819 50.2261 232.957 50.344C233.094 50.464 233.162 50.6102 233.162 50.7805V61.1151H233.164Z" fill="white"/>
<path d="M107.911 85.5298L104.581 91.1303L101.182 85.5298H98.9258V95.2227H101.446V90.2246L103.924 94.2667H105.142L107.638 90.0805L107.662 95.2227H110.182L110.167 85.5298H107.911Z" fill="#FFBC01"/>
<path d="M107.911 85.5298L104.581 91.1303L101.182 85.5298H98.9258V95.2227H101.446V90.2246L103.924 94.2667H105.142L107.638 90.0805L107.662 95.2227H110.182L110.167 85.5298H107.911Z" fill="url(#paint2_linear_1627_539)"/>
<path d="M119.387 85.5298L115.108 95.2227H117.905L118.667 93.326H122.764L123.526 95.2227H126.377L122.086 85.5298H119.387ZM119.472 91.318L120.716 88.2188L121.959 91.318H119.472Z" fill="#FFBC01"/>
<path d="M119.387 85.5298L115.108 95.2227H117.905L118.667 93.326H122.764L123.526 95.2227H126.377L122.086 85.5298H119.387ZM119.472 91.318L120.716 88.2188L121.959 91.318H119.472Z" fill="url(#paint3_linear_1627_539)"/>
<path d="M139.521 91.0122C139.868 90.4862 140.04 89.8489 140.04 89.1003C140.04 88.3516 139.868 87.7361 139.521 87.197C139.174 86.6579 138.679 86.2432 138.033 85.9573C137.387 85.6714 136.621 85.5273 135.735 85.5273H131.319V95.2203H134.06V92.6448H135.541L137.298 95.2203H140.232L138.138 92.1668C138.729 91.8874 139.194 91.5055 139.519 91.01L139.521 91.0122ZM136.857 88.0701C137.143 88.3233 137.287 88.6681 137.287 89.1024C137.287 89.5368 137.143 89.9056 136.857 90.1545C136.571 90.4033 136.141 90.5277 135.57 90.5277H134.06V87.6881H135.57C136.141 87.6881 136.571 87.8147 136.857 88.0679V88.0701Z" fill="#FFBC01"/>
<path d="M139.521 91.0122C139.868 90.4862 140.04 89.8489 140.04 89.1003C140.04 88.3516 139.868 87.7361 139.521 87.197C139.174 86.6579 138.679 86.2432 138.033 85.9573C137.387 85.6714 136.621 85.5273 135.735 85.5273H131.319V95.2203H134.06V92.6448H135.541L137.298 95.2203H140.232L138.138 92.1668C138.729 91.8874 139.194 91.5055 139.519 91.01L139.521 91.0122ZM136.857 88.0701C137.143 88.3233 137.287 88.6681 137.287 89.1024C137.287 89.5368 137.143 89.9056 136.857 90.1545C136.571 90.4033 136.141 90.5277 135.57 90.5277H134.06V87.6881H135.57C136.141 87.6881 136.571 87.8147 136.857 88.0679V88.0701Z" fill="url(#paint4_linear_1627_539)"/>
<path d="M155.171 85.5298H152.166L148.416 89.5567V85.5298H145.717V95.2227H148.416V92.7935L149.432 91.7044L152.208 95.2227H155.393L151.235 89.8251L155.171 85.5298Z" fill="#FFBC01"/>
<path d="M155.171 85.5298H152.166L148.416 89.5567V85.5298H145.717V95.2227H148.416V92.7935L149.432 91.7044L152.208 95.2227H155.393L151.235 89.8251L155.171 85.5298Z" fill="url(#paint5_linear_1627_539)"/>
<path d="M162.979 91.318H167.284V89.2817H162.979V87.6622H167.865V85.5298H160.278V95.2227H168.046V93.0903H162.979V91.318Z" fill="#FFBC01"/>
<path d="M162.979 91.318H167.284V89.2817H162.979V87.6622H167.865V85.5298H160.278V95.2227H168.046V93.0903H162.979V91.318Z" fill="url(#paint6_linear_1627_539)"/>
<path d="M172.807 87.7037H175.783V95.2227H178.525V87.7037H181.488V85.5298H172.807V87.7037Z" fill="#FFBC01"/>
<path d="M172.807 87.7037H175.783V95.2227H178.525V87.7037H181.488V85.5298H172.807V87.7037Z" fill="url(#paint7_linear_1627_539)"/>
<path d="M189.419 85.5298H186.679V95.2227H189.419V85.5298Z" fill="#FFBC01"/>
<path d="M189.419 85.5298H186.679V95.2227H189.419V85.5298Z" fill="url(#paint8_linear_1627_539)"/>
<path d="M202.043 90.6916L197.779 85.5298H195.523V95.2227H198.196V90.0565L202.473 95.2227H204.729V85.5298H202.043V90.6916Z" fill="#FFBC01"/>
<path d="M202.043 90.6916L197.779 85.5298H195.523V95.2227H198.196V90.0565L202.473 95.2227H204.729V85.5298H202.043V90.6916Z" fill="url(#paint9_linear_1627_539)"/>
<path d="M217.298 92.8327C217.206 92.8741 217.113 92.9134 217.021 92.944C216.633 93.0771 216.235 93.1448 215.83 93.1448C215.424 93.1448 215.053 93.0771 214.715 92.944C214.377 92.8109 214.089 92.621 213.849 92.3765C213.609 92.1321 213.421 91.8396 213.288 91.4969C213.155 91.1564 213.087 90.781 213.087 90.3751C213.087 89.9691 213.155 89.5806 213.288 89.2401C213.421 88.8996 213.609 88.605 213.849 88.3605C214.089 88.1161 214.379 87.9284 214.721 87.7996C215.062 87.6708 215.441 87.6054 215.856 87.6054C216.327 87.6054 216.753 87.6927 217.137 87.8694C217.518 88.0441 217.876 88.3169 218.21 88.6857L219.953 87.1077C219.482 86.5359 218.886 86.0972 218.169 85.7916C217.449 85.486 216.637 85.3354 215.731 85.3354C214.937 85.3354 214.213 85.4577 213.558 85.7021C212.904 85.9466 212.332 86.2936 211.848 86.741C211.363 87.1885 210.988 87.721 210.72 88.3409C210.451 88.9586 210.318 89.6374 210.318 90.3773C210.318 91.1172 210.451 91.7938 210.72 92.4136C210.988 93.0313 211.361 93.566 211.841 94.0135C212.321 94.4609 212.884 94.8079 213.53 95.0524C214.176 95.2968 214.887 95.4191 215.662 95.4191C216.362 95.4191 217.075 95.3121 217.8 95.1004C218.524 94.8887 219.168 94.5831 219.731 94.1859V90.1699H217.294V92.8349L217.298 92.8327Z" fill="#FFBC01"/>
<path d="M217.298 92.8327C217.206 92.8741 217.113 92.9134 217.021 92.944C216.633 93.0771 216.235 93.1448 215.83 93.1448C215.424 93.1448 215.053 93.0771 214.715 92.944C214.377 92.8109 214.089 92.621 213.849 92.3765C213.609 92.1321 213.421 91.8396 213.288 91.4969C213.155 91.1564 213.087 90.781 213.087 90.3751C213.087 89.9691 213.155 89.5806 213.288 89.2401C213.421 88.8996 213.609 88.605 213.849 88.3605C214.089 88.1161 214.379 87.9284 214.721 87.7996C215.062 87.6708 215.441 87.6054 215.856 87.6054C216.327 87.6054 216.753 87.6927 217.137 87.8694C217.518 88.0441 217.876 88.3169 218.21 88.6857L219.953 87.1077C219.482 86.5359 218.886 86.0972 218.169 85.7916C217.449 85.486 216.637 85.3354 215.731 85.3354C214.937 85.3354 214.213 85.4577 213.558 85.7021C212.904 85.9466 212.332 86.2936 211.848 86.741C211.363 87.1885 210.988 87.721 210.72 88.3409C210.451 88.9586 210.318 89.6374 210.318 90.3773C210.318 91.1172 210.451 91.7938 210.72 92.4136C210.988 93.0313 211.361 93.566 211.841 94.0135C212.321 94.4609 212.884 94.8079 213.53 95.0524C214.176 95.2968 214.887 95.4191 215.662 95.4191C216.362 95.4191 217.075 95.3121 217.8 95.1004C218.524 94.8887 219.168 94.5831 219.731 94.1859V90.1699H217.294V92.8349L217.298 92.8327Z" fill="url(#paint10_linear_1627_539)"/>
</g>
<defs>
<linearGradient id="paint0_linear_1627_539" x1="49.836" y1="0" x2="49.836" y2="105.455" gradientUnits="userSpaceOnUse">
<stop stop-color="#FFE59E"/>
<stop offset="1" stop-color="#FFBC01"/>
</linearGradient>
<linearGradient id="paint1_linear_1627_539" x1="138.14" y1="43.3247" x2="138.14" y2="50.1628" gradientUnits="userSpaceOnUse">
<stop stop-color="#FFE59E"/>
<stop offset="1" stop-color="#FFBC01"/>
</linearGradient>
<linearGradient id="paint2_linear_1627_539" x1="104.554" y1="85.5298" x2="104.554" y2="95.2227" gradientUnits="userSpaceOnUse">
<stop stop-color="#FFE59E"/>
<stop offset="1" stop-color="#FFBC01"/>
</linearGradient>
<linearGradient id="paint3_linear_1627_539" x1="120.743" y1="85.5298" x2="120.743" y2="95.2227" gradientUnits="userSpaceOnUse">
<stop stop-color="#FFE59E"/>
<stop offset="1" stop-color="#FFBC01"/>
</linearGradient>
<linearGradient id="paint4_linear_1627_539" x1="135.776" y1="85.5273" x2="135.776" y2="95.2203" gradientUnits="userSpaceOnUse">
<stop stop-color="#FFE59E"/>
<stop offset="1" stop-color="#FFBC01"/>
</linearGradient>
<linearGradient id="paint5_linear_1627_539" x1="150.555" y1="85.5298" x2="150.555" y2="95.2227" gradientUnits="userSpaceOnUse">
<stop stop-color="#FFE59E"/>
<stop offset="1" stop-color="#FFBC01"/>
</linearGradient>
<linearGradient id="paint6_linear_1627_539" x1="164.162" y1="85.5298" x2="164.162" y2="95.2227" gradientUnits="userSpaceOnUse">
<stop stop-color="#FFE59E"/>
<stop offset="1" stop-color="#FFBC01"/>
</linearGradient>
<linearGradient id="paint7_linear_1627_539" x1="177.147" y1="85.5298" x2="177.147" y2="95.2227" gradientUnits="userSpaceOnUse">
<stop stop-color="#FFE59E"/>
<stop offset="1" stop-color="#FFBC01"/>
</linearGradient>
<linearGradient id="paint8_linear_1627_539" x1="188.049" y1="85.5298" x2="188.049" y2="95.2227" gradientUnits="userSpaceOnUse">
<stop stop-color="#FFE59E"/>
<stop offset="1" stop-color="#FFBC01"/>
</linearGradient>
<linearGradient id="paint9_linear_1627_539" x1="200.126" y1="85.5298" x2="200.126" y2="95.2227" gradientUnits="userSpaceOnUse">
<stop stop-color="#FFE59E"/>
<stop offset="1" stop-color="#FFBC01"/>
</linearGradient>
<linearGradient id="paint10_linear_1627_539" x1="215.136" y1="85.3354" x2="215.136" y2="95.4191" gradientUnits="userSpaceOnUse">
<stop stop-color="#FFE59E"/>
<stop offset="1" stop-color="#FFBC01"/>
</linearGradient>
<clipPath id="clip0_1627_539">
<rect width="240" height="105.455" fill="white"/>
</clipPath>
</defs>
</svg>
