<svg width="214" height="95" viewBox="0 0 214 95" fill="none" xmlns="http://www.w3.org/2000/svg">
<g clip-path="url(#clip0_2153_624)">
<path d="M63.986 32.4287C62.381 32.888 60.7799 33.3454 59.1749 33.8047C58.9064 33.8806 58.6399 33.9584 58.3714 34.0343C56.9629 34.4372 55.5544 34.8381 54.1439 35.2409C52.1479 35.8092 50.1538 36.3814 48.1578 36.9516C46.9769 37.2902 45.7921 37.6289 44.6093 37.9675C44.4673 38.0084 44.3233 38.0492 44.1813 38.0901C43.4264 38.3042 42.6735 38.5221 41.9187 38.7362C40.2943 39.2013 38.6717 39.6645 37.0453 40.1297C38.9402 33.7346 40.837 27.3376 42.7319 20.9425C44.2669 25.4732 45.8018 30.0038 47.3387 34.5325L53.3269 32.8199C49.6402 21.8786 45.9575 10.9413 42.2708 0C37.4811 14.2478 32.6934 28.4936 27.9037 42.7395C18.6005 45.3998 9.30122 48.0583 0 50.7148C7.02309 54.8289 14.0501 58.9431 21.0751 63.0592C18.0013 72.2061 14.9255 81.3511 11.8517 90.4961L25.5555 78.899C25.8259 77.9862 26.0963 77.0696 26.3687 76.1549C26.7481 74.8763 27.1255 73.5957 27.5048 72.319C27.5885 72.0407 27.6702 71.7644 27.7519 71.4861C28.1313 70.2016 28.5126 68.9191 28.8919 67.6366C29.4425 65.7819 29.9911 63.9253 30.5397 62.0725C30.6759 61.6191 30.8082 61.1637 30.9425 60.7122C31.1817 59.9006 31.4249 59.0891 31.6642 58.2795C32.1078 56.779 32.5513 55.2824 32.9969 53.7858C33.5319 51.9817 34.0649 50.1738 34.5999 48.3677L25.0555 51.2169C24.3104 53.4375 23.5653 55.6483 22.8202 57.863C19.4098 56.0005 15.9955 54.14 12.5832 52.2756C14.9858 51.5575 17.3904 50.8413 19.7931 50.1231C20.0207 50.055 20.2444 49.9869 20.472 49.9208C21.4564 49.6249 22.4408 49.3311 23.4272 49.0372C24.3026 48.7764 25.1742 48.5156 26.0496 48.2568C29.1877 47.3207 32.3276 46.3807 35.4676 45.4446C36.5921 45.1079 37.7185 44.7732 38.8429 44.4365C41.3818 43.6814 43.9206 42.9224 46.4594 42.1653C47.508 41.852 48.5585 41.5406 49.6071 41.2253C51.5915 40.6337 53.5778 40.0401 55.5622 39.4485C57.4765 38.8763 59.3869 38.3042 61.2974 37.7359C61.739 37.6036 62.1826 37.4732 62.6242 37.3408C65.8459 36.3794 69.0695 35.4161 72.2911 34.4547C75.2657 33.5692 78.2403 32.6817 81.215 31.7923L88.8742 25.3117C80.5768 27.6821 72.2834 30.0544 63.986 32.4248V32.4287ZM59.2449 50.3898C58.2858 47.5523 57.3287 44.7109 56.3754 41.8734L50.4262 43.6464C51.6732 47.3265 52.9222 51.0106 54.1692 54.6869C56.9804 62.9814 59.7916 71.2759 62.6047 79.5723C54.9357 75.39 47.2687 71.2039 39.5997 67.0177C37.3469 65.7877 35.0882 64.5578 32.8334 63.3278L31.1623 68.9677C32.3724 69.6781 33.5766 70.3845 34.7847 71.091C47.8407 78.7374 60.8927 86.3839 73.9487 94.0303C69.0481 79.4828 64.1455 64.9373 59.2469 50.3898H59.2449Z" fill="#FFBC01"/>
<path d="M63.986 32.4287C62.381 32.888 60.7799 33.3454 59.1749 33.8047C58.9064 33.8806 58.6399 33.9584 58.3714 34.0343C56.9629 34.4372 55.5544 34.8381 54.1439 35.2409C52.1479 35.8092 50.1538 36.3814 48.1578 36.9516C46.9769 37.2902 45.7921 37.6289 44.6093 37.9675C44.4673 38.0084 44.3233 38.0492 44.1813 38.0901C43.4264 38.3042 42.6735 38.5221 41.9187 38.7362C40.2943 39.2013 38.6717 39.6645 37.0453 40.1297C38.9402 33.7346 40.837 27.3376 42.7319 20.9425C44.2669 25.4732 45.8018 30.0038 47.3387 34.5325L53.3269 32.8199C49.6402 21.8786 45.9575 10.9413 42.2708 0C37.4811 14.2478 32.6934 28.4936 27.9037 42.7395C18.6005 45.3998 9.30122 48.0583 0 50.7148C7.02309 54.8289 14.0501 58.9431 21.0751 63.0592C18.0013 72.2061 14.9255 81.3511 11.8517 90.4961L25.5555 78.899C25.8259 77.9862 26.0963 77.0696 26.3687 76.1549C26.7481 74.8763 27.1255 73.5957 27.5048 72.319C27.5885 72.0407 27.6702 71.7644 27.7519 71.4861C28.1313 70.2016 28.5126 68.9191 28.8919 67.6366C29.4425 65.7819 29.9911 63.9253 30.5397 62.0725C30.6759 61.6191 30.8082 61.1637 30.9425 60.7122C31.1817 59.9006 31.4249 59.0891 31.6642 58.2795C32.1078 56.779 32.5513 55.2824 32.9969 53.7858C33.5319 51.9817 34.0649 50.1738 34.5999 48.3677L25.0555 51.2169C24.3104 53.4375 23.5653 55.6483 22.8202 57.863C19.4098 56.0005 15.9955 54.14 12.5832 52.2756C14.9858 51.5575 17.3904 50.8413 19.7931 50.1231C20.0207 50.055 20.2444 49.9869 20.472 49.9208C21.4564 49.6249 22.4408 49.3311 23.4272 49.0372C24.3026 48.7764 25.1742 48.5156 26.0496 48.2568C29.1877 47.3207 32.3276 46.3807 35.4676 45.4446C36.5921 45.1079 37.7185 44.7732 38.8429 44.4365C41.3818 43.6814 43.9206 42.9224 46.4594 42.1653C47.508 41.852 48.5585 41.5406 49.6071 41.2253C51.5915 40.6337 53.5778 40.0401 55.5622 39.4485C57.4765 38.8763 59.3869 38.3042 61.2974 37.7359C61.739 37.6036 62.1826 37.4732 62.6242 37.3408C65.8459 36.3794 69.0695 35.4161 72.2911 34.4547C75.2657 33.5692 78.2403 32.6817 81.215 31.7923L88.8742 25.3117C80.5768 27.6821 72.2834 30.0544 63.986 32.4248V32.4287ZM59.2449 50.3898C58.2858 47.5523 57.3287 44.7109 56.3754 41.8734L50.4262 43.6464C51.6732 47.3265 52.9222 51.0106 54.1692 54.6869C56.9804 62.9814 59.7916 71.2759 62.6047 79.5723C54.9357 75.39 47.2687 71.2039 39.5997 67.0177C37.3469 65.7877 35.0882 64.5578 32.8334 63.3278L31.1623 68.9677C32.3724 69.6781 33.5766 70.3845 34.7847 71.091C47.8407 78.7374 60.8927 86.3839 73.9487 94.0303C69.0481 79.4828 64.1455 64.9373 59.2469 50.3898H59.2449Z" fill="url(#paint0_linear_2153_624)"/>
<path d="M100.148 39.5035C99.1851 38.9235 98.1248 38.6316 96.9634 38.6316H76.7093C75.5478 38.6316 74.4875 38.9216 73.5245 39.5035C72.5615 40.0834 71.7911 40.856 71.2095 41.8194C70.6278 42.7827 70.3379 43.8434 70.3379 45.0052V51.7895C70.3379 52.9806 70.6278 54.0587 71.2095 55.0221C71.7892 55.9854 72.5615 56.7561 73.5245 57.338C74.4875 57.918 75.5478 58.2099 76.7093 58.2099H96.6891C96.8408 58.2099 96.9712 58.2566 97.0782 58.3481C97.1852 58.4395 97.2377 58.5621 97.2377 58.7139V64.9942C97.2377 65.1479 97.1832 65.2764 97.0782 65.3834C96.9712 65.4904 96.8408 65.543 96.6891 65.543H76.9388C76.7851 65.543 76.6567 65.4904 76.5497 65.3834C76.4427 65.2764 76.3902 65.1479 76.3902 64.9942V62.7483H70.3418V65.2705C70.3418 66.4324 70.6317 67.493 71.2133 68.4564C71.7931 69.4197 72.5654 70.1904 73.5284 70.7723C74.4914 71.3523 75.5517 71.6442 76.7131 71.6442H96.9673C98.1287 71.6442 99.189 71.3542 100.152 70.7723C101.115 70.1923 101.885 69.4197 102.467 68.4564C103.047 67.493 103.339 66.4324 103.339 65.2705V58.4862C103.339 57.2952 103.049 56.217 102.467 55.2537C101.887 54.2903 101.115 53.5197 100.152 52.9378C99.189 52.3578 98.1287 52.0659 96.9673 52.0659H76.9408C76.7871 52.0659 76.6587 52.0192 76.5517 51.9277C76.4447 51.8362 76.3921 51.7136 76.3921 51.5618V45.2816C76.3921 45.1298 76.4447 44.9994 76.5517 44.8924C76.6587 44.7853 76.7871 44.7328 76.9408 44.7328H96.691C96.8428 44.7328 96.9731 44.7873 97.0801 44.8924C97.1871 44.9994 97.2396 45.1298 97.2396 45.2816V47.5275H103.335V45.0052C103.335 43.8434 103.045 42.7827 102.463 41.8194C101.883 40.856 101.111 40.0854 100.148 39.5035Z" fill="white"/>
<path d="M126.245 47.5256H120.151V71.6404H126.245V47.5256Z" fill="white"/>
<path d="M139.672 38.6316H106.677V44.7289H139.672V38.6316Z" fill="#FFBC01"/>
<path d="M139.672 38.6316H106.677V44.7289H139.672V38.6316Z" fill="url(#paint1_linear_2153_624)"/>
<path d="M172.895 39.5496C171.917 38.9697 170.849 38.6777 169.687 38.6777H143.108V71.6378H149.157V60.3598L159.946 60.3365L169.411 71.6378H176.01V69.9407L167.864 60.317L169.687 60.3131C170.849 60.3131 171.917 60.0309 172.895 59.4646C173.872 58.9002 174.652 58.1276 175.232 57.1487C175.811 56.1717 176.103 55.1013 176.103 53.9395V45.0455C176.103 43.8837 175.813 42.823 175.232 41.8597C174.652 40.8963 173.872 40.1257 172.895 39.5438V39.5496ZM170.008 53.7137C170.008 53.8675 169.946 53.9881 169.825 54.0796C169.703 54.1711 169.565 54.2178 169.413 54.2178H149.707C149.554 54.2178 149.425 54.1711 149.318 54.0796C149.211 53.9881 149.159 53.8655 149.159 53.7137V45.2791C149.159 45.1273 149.211 44.9969 149.318 44.8899C149.425 44.7828 149.554 44.7303 149.707 44.7303H169.413C169.565 44.7303 169.703 44.7848 169.825 44.8899C169.948 44.9969 170.008 45.1273 170.008 45.2791V53.7137Z" fill="white"/>
<path d="M213.128 41.8191C212.547 40.8558 211.768 40.0851 210.792 39.5032C209.813 38.9233 208.745 38.6313 207.584 38.6313H187.374C186.213 38.6313 185.153 38.9213 184.19 39.5032C183.227 40.0832 182.456 40.8558 181.874 41.8191C181.295 42.7825 181.005 43.8431 181.005 45.005V71.64H187.053V60.547H207.905V71.64H214V45.005C214 43.8431 213.71 42.7825 213.128 41.8191ZM207.905 54.4944H187.053V45.2794C187.053 45.1276 187.106 44.9972 187.213 44.8902C187.32 44.7831 187.45 44.7306 187.602 44.7306H207.307C207.459 44.7306 207.597 44.7851 207.72 44.8902C207.842 44.9972 207.903 45.1276 207.903 45.2794V54.4944H207.905Z" fill="white"/>
<path d="M96.2204 76.2642L93.2516 81.258L90.2206 76.2642H88.209V84.907H90.456V80.4503L92.666 84.0546H93.7516L95.9772 80.3219L95.9986 84.907H98.2456L98.232 76.2642H96.2204Z" fill="#FFBC01"/>
<path d="M96.2204 76.2642L93.2516 81.258L90.2206 76.2642H88.209V84.907H90.456V80.4503L92.666 84.0546H93.7516L95.9772 80.3219L95.9986 84.907H98.2456L98.232 76.2642H96.2204Z" fill="url(#paint2_linear_2153_624)"/>
<path d="M106.454 76.2642L102.639 84.907H105.133L105.812 83.2158H109.465L110.144 84.907H112.687L108.86 76.2642H106.454ZM106.53 81.4254L107.638 78.6618L108.747 81.4254H106.53Z" fill="#FFBC01"/>
<path d="M106.454 76.2642L102.639 84.907H105.133L105.812 83.2158H109.465L110.144 84.907H112.687L108.86 76.2642H106.454ZM106.53 81.4254L107.638 78.6618L108.747 81.4254H106.53Z" fill="url(#paint3_linear_2153_624)"/>
<path d="M124.406 81.1524C124.715 80.6834 124.869 80.1151 124.869 79.4476C124.869 78.78 124.715 78.2312 124.406 77.7505C124.096 77.2698 123.655 76.9001 123.079 76.6451C122.503 76.3902 121.82 76.2617 121.03 76.2617H117.093V84.9046H119.536V82.6081H120.857L122.423 84.9046H125.04L123.172 82.1819C123.7 81.9328 124.114 81.5922 124.404 81.1505L124.406 81.1524ZM122.03 78.529C122.285 78.7547 122.414 79.0622 122.414 79.4495C122.414 79.8368 122.285 80.1657 122.03 80.3876C121.775 80.6094 121.392 80.7204 120.883 80.7204H119.536V78.1884H120.883C121.392 78.1884 121.775 78.3013 122.03 78.527V78.529Z" fill="#FFBC01"/>
<path d="M124.406 81.1524C124.715 80.6834 124.869 80.1151 124.869 79.4476C124.869 78.78 124.715 78.2312 124.406 77.7505C124.096 77.2698 123.655 76.9001 123.079 76.6451C122.503 76.3902 121.82 76.2617 121.03 76.2617H117.093V84.9046H119.536V82.6081H120.857L122.423 84.9046H125.04L123.172 82.1819C123.7 81.9328 124.114 81.5922 124.404 81.1505L124.406 81.1524ZM122.03 78.529C122.285 78.7547 122.414 79.0622 122.414 79.4495C122.414 79.8368 122.285 80.1657 122.03 80.3876C121.775 80.6094 121.392 80.7204 120.883 80.7204H119.536V78.1884H120.883C121.392 78.1884 121.775 78.3013 122.03 78.527V78.529Z" fill="url(#paint4_linear_2153_624)"/>
<path d="M138.361 76.2642H135.682L132.338 79.8548V76.2642H129.932V84.907H132.338V82.741L133.245 81.7698L135.719 84.907H138.56L134.852 80.0942L138.361 76.2642Z" fill="#FFBC01"/>
<path d="M138.361 76.2642H135.682L132.338 79.8548V76.2642H129.932V84.907H132.338V82.741L133.245 81.7698L135.719 84.907H138.56L134.852 80.0942L138.361 76.2642Z" fill="url(#paint5_linear_2153_624)"/>
<path d="M145.324 81.4254H149.162V79.6096H145.324V78.1656H149.679V76.2642H142.915V84.907H149.841V83.0056H145.324V81.4254Z" fill="#FFBC01"/>
<path d="M145.324 81.4254H149.162V79.6096H145.324V78.1656H149.679V76.2642H142.915V84.907H149.841V83.0056H145.324V81.4254Z" fill="url(#paint6_linear_2153_624)"/>
<path d="M154.086 78.2025H156.74V84.907H159.185V78.2025H161.827V76.2642H154.086V78.2025Z" fill="#FFBC01"/>
<path d="M154.086 78.2025H156.74V84.907H159.185V78.2025H161.827V76.2642H154.086V78.2025Z" fill="url(#paint7_linear_2153_624)"/>
<path d="M168.899 76.2642H166.455V84.907H168.899V76.2642Z" fill="#FFBC01"/>
<path d="M168.899 76.2642H166.455V84.907H168.899V76.2642Z" fill="url(#paint8_linear_2153_624)"/>
<path d="M180.155 80.8668L176.353 76.2642H174.342V84.907H176.725V80.3005L180.538 84.907H182.55V76.2642H180.155V80.8668Z" fill="#FFBC01"/>
<path d="M180.155 80.8668L176.353 76.2642H174.342V84.907H176.725V80.3005L180.538 84.907H182.55V76.2642H180.155V80.8668Z" fill="url(#paint9_linear_2153_624)"/>
<path d="M193.758 82.7758C193.676 82.8128 193.592 82.8479 193.511 82.8751C193.164 82.9938 192.81 83.0542 192.448 83.0542C192.087 83.0542 191.756 82.9938 191.454 82.8751C191.153 82.7564 190.896 82.5871 190.682 82.3691C190.468 82.1511 190.301 81.8904 190.182 81.5848C190.063 81.2812 190.003 80.9465 190.003 80.5845C190.003 80.2225 190.063 79.8761 190.182 79.5725C190.301 79.2689 190.468 79.0062 190.682 78.7882C190.896 78.5702 191.155 78.4028 191.46 78.288C191.764 78.1732 192.102 78.1148 192.472 78.1148C192.892 78.1148 193.271 78.1927 193.614 78.3503C193.954 78.506 194.273 78.7493 194.571 79.0782L196.125 77.6711C195.705 77.1612 195.174 76.77 194.534 76.4976C193.892 76.2251 193.168 76.0908 192.361 76.0908C191.653 76.0908 191.007 76.1998 190.423 76.4178C189.84 76.6357 189.33 76.9452 188.898 77.3441C188.466 77.7431 188.131 78.218 187.892 78.7707C187.653 79.3214 187.534 79.9267 187.534 80.5864C187.534 81.2462 187.653 81.8495 187.892 82.4022C188.131 82.953 188.464 83.4298 188.892 83.8287C189.32 84.2277 189.822 84.5371 190.398 84.7551C190.974 84.9731 191.608 85.082 192.299 85.082C192.923 85.082 193.559 84.9867 194.205 84.7979C194.851 84.6091 195.425 84.3367 195.927 83.9825V80.4015H193.754V82.7778L193.758 82.7758Z" fill="#FFBC01"/>
<path d="M193.758 82.7758C193.676 82.8128 193.592 82.8479 193.511 82.8751C193.164 82.9938 192.81 83.0542 192.448 83.0542C192.087 83.0542 191.756 82.9938 191.454 82.8751C191.153 82.7564 190.896 82.5871 190.682 82.3691C190.468 82.1511 190.301 81.8904 190.182 81.5848C190.063 81.2812 190.003 80.9465 190.003 80.5845C190.003 80.2225 190.063 79.8761 190.182 79.5725C190.301 79.2689 190.468 79.0062 190.682 78.7882C190.896 78.5702 191.155 78.4028 191.46 78.288C191.764 78.1732 192.102 78.1148 192.472 78.1148C192.892 78.1148 193.271 78.1927 193.614 78.3503C193.954 78.506 194.273 78.7493 194.571 79.0782L196.125 77.6711C195.705 77.1612 195.174 76.77 194.534 76.4976C193.892 76.2251 193.168 76.0908 192.361 76.0908C191.653 76.0908 191.007 76.1998 190.423 76.4178C189.84 76.6357 189.33 76.9452 188.898 77.3441C188.466 77.7431 188.131 78.218 187.892 78.7707C187.653 79.3214 187.534 79.9267 187.534 80.5864C187.534 81.2462 187.653 81.8495 187.892 82.4022C188.131 82.953 188.464 83.4298 188.892 83.8287C189.32 84.2277 189.822 84.5371 190.398 84.7551C190.974 84.9731 191.608 85.082 192.299 85.082C192.923 85.082 193.559 84.9867 194.205 84.7979C194.851 84.6091 195.425 84.3367 195.927 83.9825V80.4015H193.754V82.7778L193.758 82.7758Z" fill="url(#paint10_linear_2153_624)"/>
</g>
<defs>
<linearGradient id="paint0_linear_2153_624" x1="44.4371" y1="0" x2="44.4371" y2="94.0303" gradientUnits="userSpaceOnUse">
<stop stop-color="#FFE59E"/>
<stop offset="1" stop-color="#FFBC01"/>
</linearGradient>
<linearGradient id="paint1_linear_2153_624" x1="123.174" y1="38.6316" x2="123.174" y2="44.7289" gradientUnits="userSpaceOnUse">
<stop stop-color="#FFE59E"/>
<stop offset="1" stop-color="#FFBC01"/>
</linearGradient>
<linearGradient id="paint2_linear_2153_624" x1="93.2273" y1="76.2642" x2="93.2273" y2="84.907" gradientUnits="userSpaceOnUse">
<stop stop-color="#FFE59E"/>
<stop offset="1" stop-color="#FFBC01"/>
</linearGradient>
<linearGradient id="paint3_linear_2153_624" x1="107.663" y1="76.2642" x2="107.663" y2="84.907" gradientUnits="userSpaceOnUse">
<stop stop-color="#FFE59E"/>
<stop offset="1" stop-color="#FFBC01"/>
</linearGradient>
<linearGradient id="paint4_linear_2153_624" x1="121.066" y1="76.2617" x2="121.066" y2="84.9046" gradientUnits="userSpaceOnUse">
<stop stop-color="#FFE59E"/>
<stop offset="1" stop-color="#FFBC01"/>
</linearGradient>
<linearGradient id="paint5_linear_2153_624" x1="134.246" y1="76.2642" x2="134.246" y2="84.907" gradientUnits="userSpaceOnUse">
<stop stop-color="#FFE59E"/>
<stop offset="1" stop-color="#FFBC01"/>
</linearGradient>
<linearGradient id="paint6_linear_2153_624" x1="146.378" y1="76.2642" x2="146.378" y2="84.907" gradientUnits="userSpaceOnUse">
<stop stop-color="#FFE59E"/>
<stop offset="1" stop-color="#FFBC01"/>
</linearGradient>
<linearGradient id="paint7_linear_2153_624" x1="157.956" y1="76.2642" x2="157.956" y2="84.907" gradientUnits="userSpaceOnUse">
<stop stop-color="#FFE59E"/>
<stop offset="1" stop-color="#FFBC01"/>
</linearGradient>
<linearGradient id="paint8_linear_2153_624" x1="167.677" y1="76.2642" x2="167.677" y2="84.907" gradientUnits="userSpaceOnUse">
<stop stop-color="#FFE59E"/>
<stop offset="1" stop-color="#FFBC01"/>
</linearGradient>
<linearGradient id="paint9_linear_2153_624" x1="178.446" y1="76.2642" x2="178.446" y2="84.907" gradientUnits="userSpaceOnUse">
<stop stop-color="#FFE59E"/>
<stop offset="1" stop-color="#FFBC01"/>
</linearGradient>
<linearGradient id="paint10_linear_2153_624" x1="191.83" y1="76.0908" x2="191.83" y2="85.082" gradientUnits="userSpaceOnUse">
<stop stop-color="#FFE59E"/>
<stop offset="1" stop-color="#FFBC01"/>
</linearGradient>
<clipPath id="clip0_2153_624">
<rect width="214" height="94.0303" fill="white"/>
</clipPath>
</defs>
</svg>
