<svg width="622" height="46" viewBox="0 0 622 46" fill="none" xmlns="http://www.w3.org/2000/svg">
<path d="M-1.19209e-07 -1H535.5L573.562 45.5H-0.803711L-1.19209e-07 -1Z" fill="#FFBC01"/>
<path d="M44.328 30.144C43.272 30.144 42.3867 29.984 41.672 29.664C40.9573 29.344 40.4187 28.896 40.056 28.32C39.6933 27.744 39.5067 27.0827 39.496 26.336H42.04C42.0507 26.72 42.136 27.056 42.296 27.344C42.4667 27.6213 42.7227 27.84 43.064 28C43.416 28.16 43.8693 28.24 44.424 28.24C44.8507 28.24 45.224 28.192 45.544 28.096C45.864 27.9893 46.1093 27.8293 46.28 27.616C46.4507 27.392 46.536 27.1093 46.536 26.768C46.536 26.512 46.4933 26.2987 46.408 26.128C46.3227 25.9573 46.1733 25.8133 45.96 25.696C45.7573 25.5787 45.48 25.4827 45.128 25.408C44.776 25.3227 44.3387 25.232 43.816 25.136C43.144 25.04 42.552 24.9013 42.04 24.72C41.5387 24.5387 41.1173 24.3147 40.776 24.048C40.4347 23.7813 40.1787 23.4613 40.008 23.088C39.8373 22.704 39.752 22.256 39.752 21.744C39.752 21.008 39.9333 20.3787 40.296 19.856C40.6693 19.3227 41.1973 18.912 41.88 18.624C42.5627 18.336 43.3733 18.192 44.312 18.192C45.2293 18.192 46.0187 18.336 46.68 18.624C47.3413 18.912 47.8533 19.3173 48.216 19.84C48.5893 20.3627 48.776 20.9707 48.776 21.664H46.264C46.2533 21.2907 46.152 20.9867 45.96 20.752C45.7787 20.5173 45.5387 20.3467 45.24 20.24C44.9413 20.1333 44.6053 20.08 44.232 20.08C43.8373 20.08 43.496 20.1333 43.208 20.24C42.9307 20.336 42.7173 20.4853 42.568 20.688C42.4187 20.88 42.344 21.1253 42.344 21.424C42.344 21.7333 42.424 21.984 42.584 22.176C42.744 22.3573 43.0267 22.5067 43.432 22.624C43.848 22.7307 44.4187 22.848 45.144 22.976C45.6453 23.0507 46.1307 23.152 46.6 23.28C47.0693 23.408 47.496 23.6 47.88 23.856C48.264 24.1013 48.568 24.448 48.792 24.896C49.016 25.3333 49.128 25.904 49.128 26.608C49.128 27.3013 48.9467 27.92 48.584 28.464C48.232 28.9973 47.6987 29.4133 46.984 29.712C46.28 30 45.3947 30.144 44.328 30.144ZM60.7651 30V20.256H63.2611V30H60.7651ZM57.3251 20.496V18.336H66.7651V20.496H57.3251ZM80.6748 30.144C79.8001 30.144 79.0054 30.0107 78.2908 29.744C77.5761 29.4773 76.9574 29.088 76.4348 28.576C75.9228 28.064 75.5281 27.44 75.2508 26.704C74.9734 25.9573 74.8348 25.1093 74.8348 24.16C74.8348 23.2107 74.9734 22.368 75.2508 21.632C75.5281 20.896 75.9228 20.272 76.4348 19.76C76.9574 19.248 77.5761 18.8587 78.2908 18.592C79.0054 18.3253 79.8001 18.192 80.6748 18.192C81.5601 18.192 82.3601 18.3253 83.0748 18.592C83.8001 18.8587 84.4188 19.248 84.9308 19.76C85.4534 20.272 85.8534 20.896 86.1308 21.632C86.4081 22.368 86.5468 23.2107 86.5468 24.16C86.5468 25.1093 86.4081 25.9573 86.1308 26.704C85.8534 27.44 85.4534 28.064 84.9308 28.576C84.4081 29.088 83.7894 29.4773 83.0748 29.744C82.3601 30.0107 81.5601 30.144 80.6748 30.144ZM80.6748 28.016C81.3574 28.016 81.9441 27.872 82.4348 27.584C82.9254 27.296 83.3041 26.8693 83.5708 26.304C83.8481 25.728 83.9868 25.0133 83.9868 24.16C83.9868 23.52 83.9068 22.9653 83.7468 22.496C83.5868 22.016 83.3628 21.616 83.0748 21.296C82.7974 20.9653 82.4508 20.72 82.0348 20.56C81.6294 20.4 81.1761 20.32 80.6748 20.32C80.0134 20.32 79.4374 20.464 78.9468 20.752C78.4561 21.0293 78.0721 21.456 77.7948 22.032C77.5281 22.5973 77.3948 23.3067 77.3948 24.16C77.3948 24.8 77.4694 25.3653 77.6188 25.856C77.7788 26.336 78.0028 26.736 78.2908 27.056C78.5788 27.376 78.9201 27.616 79.3148 27.776C79.7201 27.936 80.1734 28.016 80.6748 28.016ZM95.7421 30V18.336H100.51C101.491 18.336 102.307 18.496 102.958 18.816C103.609 19.1253 104.094 19.568 104.414 20.144C104.745 20.7093 104.91 21.3813 104.91 22.16C104.91 22.9813 104.729 23.68 104.366 24.256C104.003 24.832 103.491 25.2747 102.83 25.584C102.169 25.8827 101.395 26.032 100.51 26.032H98.0141V24.096H100.302C101.017 24.096 101.539 23.92 101.87 23.568C102.211 23.216 102.382 22.7733 102.382 22.24C102.382 21.6213 102.19 21.168 101.806 20.88C101.433 20.592 100.931 20.448 100.302 20.448H97.9181L98.2381 20.144V30H95.7421ZM129.883 30.144C129.051 30.144 128.299 30.0107 127.627 29.744C126.955 29.4773 126.373 29.0933 125.883 28.592C125.403 28.08 125.029 27.4667 124.763 26.752C124.507 26.0267 124.379 25.216 124.379 24.32C124.379 23.3493 124.523 22.4853 124.811 21.728C125.099 20.9707 125.504 20.3307 126.027 19.808C126.56 19.2747 127.189 18.8747 127.915 18.608C128.651 18.3307 129.472 18.192 130.379 18.192C131.392 18.192 132.293 18.3573 133.083 18.688C133.872 19.008 134.512 19.4667 135.003 20.064C135.504 20.6507 135.808 21.36 135.915 22.192H133.387C133.269 21.8187 133.072 21.4933 132.795 21.216C132.517 20.928 132.171 20.7093 131.755 20.56C131.349 20.4 130.885 20.32 130.363 20.32C129.616 20.32 128.987 20.4853 128.475 20.816C127.973 21.136 127.589 21.5893 127.323 22.176C127.067 22.7627 126.939 23.4507 126.939 24.24C126.939 24.8587 127.019 25.408 127.179 25.888C127.339 26.368 127.563 26.7733 127.851 27.104C128.149 27.424 128.501 27.6693 128.907 27.84C129.323 28.0107 129.787 28.096 130.299 28.096C130.917 28.096 131.456 27.9893 131.915 27.776C132.384 27.552 132.747 27.2427 133.003 26.848C133.269 26.4533 133.403 25.9893 133.403 25.456V24.96L133.915 25.424H130.091V23.616H136.059V30H134.075L133.947 28.16H133.851C133.669 28.5547 133.381 28.9013 132.987 29.2C132.592 29.4987 132.128 29.7333 131.595 29.904C131.061 30.064 130.491 30.144 129.883 30.144ZM150.258 30.144C149.212 30.144 148.316 29.9573 147.57 29.584C146.834 29.2107 146.268 28.6827 145.874 28C145.49 27.3067 145.298 26.496 145.298 25.568V18.336H147.778V25.552C147.778 26.0747 147.879 26.5173 148.082 26.88C148.284 27.232 148.567 27.4987 148.93 27.68C149.303 27.8507 149.751 27.936 150.274 27.936C150.828 27.936 151.287 27.8453 151.65 27.664C152.023 27.472 152.3 27.2 152.482 26.848C152.674 26.4853 152.77 26.0533 152.77 25.552V18.336H155.25V25.568C155.25 26.528 155.047 27.3493 154.642 28.032C154.236 28.7147 153.66 29.2373 152.914 29.6C152.167 29.9627 151.282 30.144 150.258 30.144ZM164.838 30V18.336H173.318V20.464H166.806L167.334 19.936V28.4L166.806 27.872H173.35V30H164.838ZM166.806 25.072V23.072H172.534V25.072H166.806ZM186.769 30.144C185.713 30.144 184.828 29.984 184.113 29.664C183.399 29.344 182.86 28.896 182.497 28.32C182.135 27.744 181.948 27.0827 181.937 26.336H184.481C184.492 26.72 184.577 27.056 184.737 27.344C184.908 27.6213 185.164 27.84 185.505 28C185.857 28.16 186.311 28.24 186.865 28.24C187.292 28.24 187.665 28.192 187.985 28.096C188.305 27.9893 188.551 27.8293 188.721 27.616C188.892 27.392 188.977 27.1093 188.977 26.768C188.977 26.512 188.935 26.2987 188.849 26.128C188.764 25.9573 188.615 25.8133 188.401 25.696C188.199 25.5787 187.921 25.4827 187.569 25.408C187.217 25.3227 186.78 25.232 186.257 25.136C185.585 25.04 184.993 24.9013 184.481 24.72C183.98 24.5387 183.559 24.3147 183.217 24.048C182.876 23.7813 182.62 23.4613 182.449 23.088C182.279 22.704 182.193 22.256 182.193 21.744C182.193 21.008 182.375 20.3787 182.737 19.856C183.111 19.3227 183.639 18.912 184.321 18.624C185.004 18.336 185.815 18.192 186.753 18.192C187.671 18.192 188.46 18.336 189.121 18.624C189.783 18.912 190.295 19.3173 190.657 19.84C191.031 20.3627 191.217 20.9707 191.217 21.664H188.705C188.695 21.2907 188.593 20.9867 188.401 20.752C188.22 20.5173 187.98 20.3467 187.681 20.24C187.383 20.1333 187.047 20.08 186.673 20.08C186.279 20.08 185.937 20.1333 185.649 20.24C185.372 20.336 185.159 20.4853 185.009 20.688C184.86 20.88 184.785 21.1253 184.785 21.424C184.785 21.7333 184.865 21.984 185.025 22.176C185.185 22.3573 185.468 22.5067 185.873 22.624C186.289 22.7307 186.86 22.848 187.585 22.976C188.087 23.0507 188.572 23.152 189.041 23.28C189.511 23.408 189.937 23.6 190.321 23.856C190.705 24.1013 191.009 24.448 191.233 24.896C191.457 25.3333 191.569 25.904 191.569 26.608C191.569 27.3013 191.388 27.92 191.025 28.464C190.673 28.9973 190.14 29.4133 189.425 29.712C188.721 30 187.836 30.144 186.769 30.144ZM205.289 30.144C204.233 30.144 203.348 29.984 202.633 29.664C201.919 29.344 201.38 28.896 201.017 28.32C200.655 27.744 200.468 27.0827 200.457 26.336H203.001C203.012 26.72 203.097 27.056 203.257 27.344C203.428 27.6213 203.684 27.84 204.025 28C204.377 28.16 204.831 28.24 205.385 28.24C205.812 28.24 206.185 28.192 206.505 28.096C206.825 27.9893 207.071 27.8293 207.241 27.616C207.412 27.392 207.497 27.1093 207.497 26.768C207.497 26.512 207.455 26.2987 207.369 26.128C207.284 25.9573 207.135 25.8133 206.921 25.696C206.719 25.5787 206.441 25.4827 206.089 25.408C205.737 25.3227 205.3 25.232 204.777 25.136C204.105 25.04 203.513 24.9013 203.001 24.72C202.5 24.5387 202.079 24.3147 201.737 24.048C201.396 23.7813 201.14 23.4613 200.969 23.088C200.799 22.704 200.713 22.256 200.713 21.744C200.713 21.008 200.895 20.3787 201.257 19.856C201.631 19.3227 202.159 18.912 202.841 18.624C203.524 18.336 204.335 18.192 205.273 18.192C206.191 18.192 206.98 18.336 207.641 18.624C208.303 18.912 208.815 19.3173 209.177 19.84C209.551 20.3627 209.737 20.9707 209.737 21.664H207.225C207.215 21.2907 207.113 20.9867 206.921 20.752C206.74 20.5173 206.5 20.3467 206.201 20.24C205.903 20.1333 205.567 20.08 205.193 20.08C204.799 20.08 204.457 20.1333 204.169 20.24C203.892 20.336 203.679 20.4853 203.529 20.688C203.38 20.88 203.305 21.1253 203.305 21.424C203.305 21.7333 203.385 21.984 203.545 22.176C203.705 22.3573 203.988 22.5067 204.393 22.624C204.809 22.7307 205.38 22.848 206.105 22.976C206.607 23.0507 207.092 23.152 207.561 23.28C208.031 23.408 208.457 23.6 208.841 23.856C209.225 24.1013 209.529 24.448 209.753 24.896C209.977 25.3333 210.089 25.904 210.089 26.608C210.089 27.3013 209.908 27.92 209.545 28.464C209.193 28.9973 208.66 29.4133 207.945 29.712C207.241 30 206.356 30.144 205.289 30.144ZM219.226 30V18.336H221.722V30H219.226ZM231.449 30V18.336H234.505L239.369 26.496H239.465L239.353 22.848V18.336H241.769V30H238.873L233.993 21.936H233.897L233.993 25.312V30H231.449ZM256.46 30.144C255.628 30.144 254.876 30.0107 254.204 29.744C253.532 29.4773 252.951 29.0933 252.46 28.592C251.98 28.08 251.607 27.4667 251.34 26.752C251.084 26.0267 250.956 25.216 250.956 24.32C250.956 23.3493 251.1 22.4853 251.388 21.728C251.676 20.9707 252.082 20.3307 252.604 19.808C253.138 19.2747 253.767 18.8747 254.492 18.608C255.228 18.3307 256.05 18.192 256.956 18.192C257.97 18.192 258.871 18.3573 259.66 18.688C260.45 19.008 261.09 19.4667 261.58 20.064C262.082 20.6507 262.386 21.36 262.492 22.192H259.964C259.847 21.8187 259.65 21.4933 259.372 21.216C259.095 20.928 258.748 20.7093 258.332 20.56C257.927 20.4 257.463 20.32 256.94 20.32C256.194 20.32 255.564 20.4853 255.052 20.816C254.551 21.136 254.167 21.5893 253.9 22.176C253.644 22.7627 253.516 23.4507 253.516 24.24C253.516 24.8587 253.596 25.408 253.756 25.888C253.916 26.368 254.14 26.7733 254.428 27.104C254.727 27.424 255.079 27.6693 255.484 27.84C255.9 28.0107 256.364 28.096 256.876 28.096C257.495 28.096 258.034 27.9893 258.492 27.776C258.962 27.552 259.324 27.2427 259.58 26.848C259.847 26.4533 259.98 25.9893 259.98 25.456V24.96L260.492 25.424H256.668V23.616H262.636V30H260.652L260.524 28.16H260.428C260.247 28.5547 259.959 28.9013 259.564 29.2C259.17 29.4987 258.706 29.7333 258.172 29.904C257.639 30.064 257.068 30.144 256.46 30.144ZM272.972 30.128C272.609 30.128 272.316 30.0267 272.092 29.824C271.868 29.6107 271.756 29.3333 271.756 28.992C271.756 28.64 271.868 28.3627 272.092 28.16C272.316 27.9467 272.609 27.84 272.972 27.84C273.335 27.84 273.628 27.9467 273.852 28.16C274.076 28.3627 274.188 28.64 274.188 28.992C274.188 29.3333 274.076 29.6107 273.852 29.824C273.628 30.0267 273.335 30.128 272.972 30.128ZM298.456 30.144C297.4 30.144 296.515 29.984 295.8 29.664C295.085 29.344 294.547 28.896 294.184 28.32C293.821 27.744 293.635 27.0827 293.624 26.336H296.168C296.179 26.72 296.264 27.056 296.424 27.344C296.595 27.6213 296.851 27.84 297.192 28C297.544 28.16 297.997 28.24 298.552 28.24C298.979 28.24 299.352 28.192 299.672 28.096C299.992 27.9893 300.237 27.8293 300.408 27.616C300.579 27.392 300.664 27.1093 300.664 26.768C300.664 26.512 300.621 26.2987 300.536 26.128C300.451 25.9573 300.301 25.8133 300.088 25.696C299.885 25.5787 299.608 25.4827 299.256 25.408C298.904 25.3227 298.467 25.232 297.944 25.136C297.272 25.04 296.68 24.9013 296.168 24.72C295.667 24.5387 295.245 24.3147 294.904 24.048C294.563 23.7813 294.307 23.4613 294.136 23.088C293.965 22.704 293.88 22.256 293.88 21.744C293.88 21.008 294.061 20.3787 294.424 19.856C294.797 19.3227 295.325 18.912 296.008 18.624C296.691 18.336 297.501 18.192 298.44 18.192C299.357 18.192 300.147 18.336 300.808 18.624C301.469 18.912 301.981 19.3173 302.344 19.84C302.717 20.3627 302.904 20.9707 302.904 21.664H300.392C300.381 21.2907 300.28 20.9867 300.088 20.752C299.907 20.5173 299.667 20.3467 299.368 20.24C299.069 20.1333 298.733 20.08 298.36 20.08C297.965 20.08 297.624 20.1333 297.336 20.24C297.059 20.336 296.845 20.4853 296.696 20.688C296.547 20.88 296.472 21.1253 296.472 21.424C296.472 21.7333 296.552 21.984 296.712 22.176C296.872 22.3573 297.155 22.5067 297.56 22.624C297.976 22.7307 298.547 22.848 299.272 22.976C299.773 23.0507 300.259 23.152 300.728 23.28C301.197 23.408 301.624 23.6 302.008 23.856C302.392 24.1013 302.696 24.448 302.92 24.896C303.144 25.3333 303.256 25.904 303.256 26.608C303.256 27.3013 303.075 27.92 302.712 28.464C302.36 28.9973 301.827 29.4133 301.112 29.712C300.408 30 299.523 30.144 298.456 30.144ZM314.893 30V20.256H317.389V30H314.893ZM311.453 20.496V18.336H320.893V20.496H311.453ZM327.69 30L331.562 18.336H335.114L338.986 30H336.394L333.834 21.728L333.402 20.224H333.29L332.842 21.728L330.282 30H327.69ZM330.842 27.6L331.354 25.68H335.322L335.834 27.6H330.842ZM347.901 30V18.336H353.837C354.317 18.336 354.755 18.3787 355.149 18.464C355.544 18.5493 355.896 18.6773 356.205 18.848C356.525 19.0187 356.792 19.232 357.005 19.488C357.229 19.744 357.4 20.0427 357.517 20.384C357.635 20.7253 357.693 21.1093 357.693 21.536C357.693 22.2613 357.501 22.8747 357.117 23.376C356.733 23.8667 356.211 24.2027 355.549 24.384V24.48C355.997 24.5547 356.36 24.6933 356.637 24.896C356.925 25.088 357.133 25.3387 357.261 25.648C357.389 25.9467 357.453 26.3147 357.453 26.752V28.672C357.453 28.8853 357.459 29.104 357.469 29.328C357.491 29.552 357.549 29.776 357.645 30H355.133C355.069 29.8613 355.021 29.6747 354.989 29.44C354.968 29.2053 354.957 28.9493 354.957 28.672V27.184C354.957 26.8533 354.904 26.576 354.797 26.352C354.701 26.128 354.525 25.9573 354.269 25.84C354.013 25.712 353.645 25.648 353.165 25.648H350.173V23.68H353.261C353.933 23.68 354.413 23.52 354.701 23.2C354.989 22.88 355.133 22.48 355.133 22C355.133 21.7013 355.085 21.456 354.989 21.264C354.904 21.0613 354.776 20.896 354.605 20.768C354.435 20.64 354.237 20.5493 354.013 20.496C353.789 20.432 353.539 20.4 353.261 20.4H350.397V30H347.901ZM369.641 30V20.256H372.137V30H369.641ZM366.201 20.496V18.336H375.641V20.496H366.201ZM400.515 30.144C399.683 30.144 398.931 30.0107 398.259 29.744C397.587 29.4773 397.006 29.0933 396.515 28.592C396.035 28.08 395.662 27.4667 395.395 26.752C395.139 26.0267 395.011 25.216 395.011 24.32C395.011 23.3493 395.155 22.4853 395.443 21.728C395.731 20.9707 396.137 20.3307 396.659 19.808C397.193 19.2747 397.822 18.8747 398.547 18.608C399.283 18.3307 400.105 18.192 401.011 18.192C402.025 18.192 402.926 18.3573 403.715 18.688C404.505 19.008 405.145 19.4667 405.635 20.064C406.137 20.6507 406.441 21.36 406.547 22.192H404.019C403.902 21.8187 403.705 21.4933 403.427 21.216C403.15 20.928 402.803 20.7093 402.387 20.56C401.982 20.4 401.518 20.32 400.995 20.32C400.249 20.32 399.619 20.4853 399.107 20.816C398.606 21.136 398.222 21.5893 397.955 22.176C397.699 22.7627 397.571 23.4507 397.571 24.24C397.571 24.8587 397.651 25.408 397.811 25.888C397.971 26.368 398.195 26.7733 398.483 27.104C398.782 27.424 399.134 27.6693 399.539 27.84C399.955 28.0107 400.419 28.096 400.931 28.096C401.55 28.096 402.089 27.9893 402.547 27.776C403.017 27.552 403.379 27.2427 403.635 26.848C403.902 26.4533 404.035 25.9893 404.035 25.456V24.96L404.547 25.424H400.723V23.616H406.691V30H404.707L404.579 28.16H404.483C404.302 28.5547 404.014 28.9013 403.619 29.2C403.225 29.4987 402.761 29.7333 402.227 29.904C401.694 30.064 401.123 30.144 400.515 30.144ZM416.138 30V18.336H422.074C422.554 18.336 422.991 18.3787 423.386 18.464C423.78 18.5493 424.132 18.6773 424.442 18.848C424.762 19.0187 425.028 19.232 425.242 19.488C425.466 19.744 425.636 20.0427 425.754 20.384C425.871 20.7253 425.93 21.1093 425.93 21.536C425.93 22.2613 425.738 22.8747 425.354 23.376C424.97 23.8667 424.447 24.2027 423.786 24.384V24.48C424.234 24.5547 424.596 24.6933 424.874 24.896C425.162 25.088 425.37 25.3387 425.498 25.648C425.626 25.9467 425.69 26.3147 425.69 26.752V28.672C425.69 28.8853 425.695 29.104 425.706 29.328C425.727 29.552 425.786 29.776 425.882 30H423.37C423.306 29.8613 423.258 29.6747 423.226 29.44C423.204 29.2053 423.194 28.9493 423.194 28.672V27.184C423.194 26.8533 423.14 26.576 423.034 26.352C422.938 26.128 422.762 25.9573 422.506 25.84C422.25 25.712 421.882 25.648 421.402 25.648H418.41V23.68H421.498C422.17 23.68 422.65 23.52 422.938 23.2C423.226 22.88 423.37 22.48 423.37 22C423.37 21.7013 423.322 21.456 423.226 21.264C423.14 21.0613 423.012 20.896 422.842 20.768C422.671 20.64 422.474 20.5493 422.25 20.496C422.026 20.432 421.775 20.4 421.498 20.4H418.634V30H416.138ZM440.642 30.144C439.767 30.144 438.972 30.0107 438.258 29.744C437.543 29.4773 436.924 29.088 436.402 28.576C435.89 28.064 435.495 27.44 435.218 26.704C434.94 25.9573 434.802 25.1093 434.802 24.16C434.802 23.2107 434.94 22.368 435.218 21.632C435.495 20.896 435.89 20.272 436.402 19.76C436.924 19.248 437.543 18.8587 438.258 18.592C438.972 18.3253 439.767 18.192 440.642 18.192C441.527 18.192 442.327 18.3253 443.042 18.592C443.767 18.8587 444.386 19.248 444.898 19.76C445.42 20.272 445.82 20.896 446.098 21.632C446.375 22.368 446.514 23.2107 446.514 24.16C446.514 25.1093 446.375 25.9573 446.098 26.704C445.82 27.44 445.42 28.064 444.898 28.576C444.375 29.088 443.756 29.4773 443.042 29.744C442.327 30.0107 441.527 30.144 440.642 30.144ZM440.642 28.016C441.324 28.016 441.911 27.872 442.402 27.584C442.892 27.296 443.271 26.8693 443.538 26.304C443.815 25.728 443.954 25.0133 443.954 24.16C443.954 23.52 443.874 22.9653 443.714 22.496C443.554 22.016 443.33 21.616 443.042 21.296C442.764 20.9653 442.418 20.72 442.002 20.56C441.596 20.4 441.143 20.32 440.642 20.32C439.98 20.32 439.404 20.464 438.914 20.752C438.423 21.0293 438.039 21.456 437.762 22.032C437.495 22.5973 437.362 23.3067 437.362 24.16C437.362 24.8 437.436 25.3653 437.586 25.856C437.746 26.336 437.97 26.736 438.258 27.056C438.546 27.376 438.887 27.616 439.282 27.776C439.687 27.936 440.14 28.016 440.642 28.016ZM457.441 30L454.753 18.336H457.505L458.657 24.464L459.169 27.664H459.297L459.841 24.464L461.041 18.336H464.113L465.313 24.256L465.905 27.696H466.017L466.529 24.256L467.617 18.336H470.369L467.681 30H464.257L463.217 24.64L462.641 21.12H462.513L461.921 24.64L460.849 30H457.441ZM479.307 30V18.336H481.803V30H479.307ZM491.53 30V18.336H494.586L499.45 26.496H499.546L499.434 22.848V18.336H501.85V30H498.954L494.074 21.936H493.978L494.074 25.312V30H491.53ZM516.542 30.144C515.71 30.144 514.958 30.0107 514.286 29.744C513.614 29.4773 513.032 29.0933 512.542 28.592C512.062 28.08 511.688 27.4667 511.422 26.752C511.166 26.0267 511.038 25.216 511.038 24.32C511.038 23.3493 511.182 22.4853 511.47 21.728C511.758 20.9707 512.163 20.3307 512.686 19.808C513.219 19.2747 513.848 18.8747 514.574 18.608C515.31 18.3307 516.131 18.192 517.038 18.192C518.051 18.192 518.952 18.3573 519.742 18.688C520.531 19.008 521.171 19.4667 521.662 20.064C522.163 20.6507 522.467 21.36 522.574 22.192H520.046C519.928 21.8187 519.731 21.4933 519.454 21.216C519.176 20.928 518.83 20.7093 518.414 20.56C518.008 20.4 517.544 20.32 517.022 20.32C516.275 20.32 515.646 20.4853 515.134 20.816C514.632 21.136 514.248 21.5893 513.982 22.176C513.726 22.7627 513.598 23.4507 513.598 24.24C513.598 24.8587 513.678 25.408 513.838 25.888C513.998 26.368 514.222 26.7733 514.51 27.104C514.808 27.424 515.16 27.6693 515.566 27.84C515.982 28.0107 516.446 28.096 516.958 28.096C517.576 28.096 518.115 27.9893 518.574 27.776C519.043 27.552 519.406 27.2427 519.662 26.848C519.928 26.4533 520.062 25.9893 520.062 25.456V24.96L520.574 25.424H516.75V23.616H522.718V30H520.734L520.606 28.16H520.51C520.328 28.5547 520.04 28.9013 519.646 29.2C519.251 29.4987 518.787 29.7333 518.254 29.904C517.72 30.064 517.15 30.144 516.542 30.144ZM533.053 30.128C532.691 30.128 532.397 30.0267 532.173 29.824C531.949 29.6107 531.837 29.3333 531.837 28.992C531.837 28.64 531.949 28.3627 532.173 28.16C532.397 27.9467 532.691 27.84 533.053 27.84C533.416 27.84 533.709 27.9467 533.933 28.16C534.157 28.3627 534.269 28.64 534.269 28.992C534.269 29.3333 534.157 29.6107 533.933 29.824C533.709 30.0267 533.416 30.128 533.053 30.128Z" fill="black"/>
<path d="M560 0H584.5L621.5 44.5L598 45.5L560 0Z" fill="#FFBC01"/>
</svg>
