<svg width="171" height="69" viewBox="0 0 171 69" fill="none" xmlns="http://www.w3.org/2000/svg">
<path d="M32.4814 7.55422C34.6498 13.9897 36.8153 20.4222 38.9858 26.8577L39.079 27.1343C39.5177 27.0087 39.9555 26.884 40.3993 26.7574H40.4003C40.4784 26.7351 40.5564 26.7118 40.6354 26.6895C40.7135 26.6672 40.7935 26.6439 40.8725 26.6216C41.3447 26.4868 41.8159 26.352 42.2881 26.2173C42.7603 26.0825 43.2325 25.9477 43.7047 25.813L43.7503 25.7998C48.4683 24.4491 52.9035 22.7893 57.1918 21.9756L61.9331 21.0758L58.2487 24.1917L53.7415 28.0037L53.5389 28.175L53.2845 28.251C51.5508 28.7688 51.0441 28.9269 49.3012 29.4457C48.3538 29.7284 47.4063 30.0111 46.4589 30.2938C45.5115 30.5765 44.563 30.8602 43.6145 31.143C43.4828 31.1825 43.3511 31.222 43.2224 31.2595C43.0917 31.298 42.964 31.3365 42.8373 31.375H42.8333C42.129 31.5858 41.4238 31.7965 40.7185 32.0073L40.7783 32.1836C41.2424 33.5648 41.7085 34.9469 42.1746 36.328H42.1757L42.4665 37.1924C45.3483 45.7477 48.2312 54.3031 51.115 62.8594L52.1983 66.0746L49.2708 64.3601C45.4294 62.1116 41.59 59.8631 37.7495 57.6145C33.9091 55.366 30.0697 53.1175 26.2293 50.869C25.5382 50.4657 24.8502 50.0614 24.1611 49.6581C24.0912 49.8942 24.0213 50.1313 23.9514 50.3674C23.9047 50.5255 23.8561 50.6906 23.8054 50.8568C23.5835 51.6067 23.3616 52.3616 23.1377 53.1144V53.1165C22.9766 53.6515 22.8185 54.1886 22.6584 54.7276L22.551 55.0914L22.2612 55.3366L14.1983 62.1582L10.7257 65.0958L12.1747 60.7842C13.874 55.7308 15.5723 50.6795 17.2716 45.6251C13.4363 43.3776 9.59991 41.1321 5.76455 38.8856L3.2019 37.3849L6.0574 36.5702C11.3165 35.0685 16.5735 33.5648 21.8325 32.062C23.1701 28.0838 24.5087 24.1045 25.8462 20.1263C27.2547 15.9373 28.6642 11.7473 30.0727 7.55827L31.2745 3.98334L32.4793 7.55726L32.4814 7.55422ZM34.1047 33.9782C32.6121 34.424 31.1185 34.8689 29.6249 35.3127C29.2925 35.413 28.9611 35.5113 28.6308 35.6106C28.5183 35.6441 28.4069 35.6775 28.2954 35.7109L27.9833 36.7678C27.6702 37.8298 27.3561 38.8947 27.0409 39.9567C26.7805 40.8383 26.5191 41.7188 26.2587 42.5994C26.134 43.0209 26.0114 43.4313 25.8878 43.8468L26.3347 44.091C26.9974 44.4527 27.6611 44.8145 28.3248 45.1762C28.9885 45.538 29.6522 45.8997 30.3149 46.2615C32.5715 47.4916 34.8272 48.7228 37.0828 49.954C38.3869 50.6663 39.692 51.3766 40.9962 52.089C39.69 48.2364 38.3828 44.3838 37.0767 40.5312C36.3441 38.3688 35.6094 36.2024 34.8748 34.038L34.7856 33.7765C34.5586 33.8444 34.3317 33.9123 34.1057 33.9792L34.1047 33.9782ZM18.82 38.5381H18.8159L18.8119 38.5411C18.6781 38.5806 18.5504 38.6181 18.4228 38.6566H18.4197L18.4167 38.6586C17.9759 38.7904 17.5361 38.9211 17.0953 39.0528C17.7682 39.4196 18.441 39.7865 19.1138 40.1543C19.3266 39.523 19.5384 38.8927 19.7512 38.2604C19.4401 38.3526 19.1301 38.4458 18.819 38.5391L18.82 38.5381ZM31.0921 26.2811C30.7537 27.4231 30.4152 28.5641 30.0758 29.7061C30.2906 29.6443 30.5054 29.5835 30.7202 29.5227H30.7223C30.9422 29.4599 31.163 29.396 31.385 29.3332C31.6018 29.2714 31.8207 29.2086 32.0406 29.1457L32.3081 29.0687C32.5766 28.9917 32.8441 28.9147 33.1106 28.8387L31.6282 24.4693C31.4488 25.0733 31.2705 25.6772 31.0911 26.2811H31.0921Z" fill="url(#paint0_linear_3226_1343)"/>
<path d="M8.07503 68.999L15.7427 46.1956L0 36.9765L20.8447 31.0213L31.2767 0L36.0463 14.1549C37.3291 17.9629 38.612 21.7709 39.8958 25.5799L43.3938 24.5797C44.9553 24.1329 46.4955 23.6485 47.9861 23.1804C51.0898 22.2046 54.0213 21.2835 56.9569 20.7261L66.4394 18.9265L54.1581 29.3139L53.6504 29.4659C52.8753 29.6979 52.3463 29.857 51.8417 30.009C51.2175 30.1975 50.6308 30.3738 49.6661 30.6606L42.345 32.8463C42.5933 33.584 42.8415 34.3206 43.0908 35.0573H43.0918L43.6745 36.787C46.1773 44.2196 48.6822 51.6512 51.1881 59.0848L54.4905 68.8835L24.9222 51.5701L23.6647 55.8128L8.07706 69L8.07503 68.999ZM23.4074 47.7409L49.9154 63.2627L48.7805 59.8944C46.2756 52.4608 43.7697 45.0293 41.2668 37.5956L40.975 36.7323C40.5079 35.3502 40.0418 33.968 39.5777 32.5859L39.0964 31.1652L48.9406 28.2266C49.9022 27.9409 50.4869 27.7646 51.1081 27.5771C51.6147 27.4241 52.1457 27.264 52.9229 27.0319L57.4291 23.2199C54.6394 23.7498 51.7758 24.6497 48.7461 25.6022C47.2403 26.0754 45.6838 26.5648 44.1011 27.0177L38.2624 28.6867L37.7831 27.262C36.401 23.1631 35.0208 19.0653 33.6397 14.9665L31.2787 7.95951L22.8257 33.0966L6.40915 37.7872L18.8069 45.0485L13.3817 61.1854L21.4446 54.3648L23.4084 47.7409H23.4074ZM43.2418 54.76L24.3781 44.4689L25.8231 39.5969C26.0946 38.6809 26.3652 37.7659 26.6347 36.8509L27.2721 34.6915L33.741 32.7612L35.5923 32.2089L43.2408 54.76H43.2418ZM27.3967 43.2246L38.7498 49.4158L33.9771 35.341C32.6477 35.7372 31.3172 36.1334 29.9878 36.5297L29.319 36.7303L29.0464 37.6524C28.7839 38.5411 28.5215 39.4307 28.258 40.3184L27.3967 43.2256V43.2246ZM19.8405 41.9762L16.4875 40.1654L13.8113 38.7042L18.0824 37.4325C18.1969 37.398 18.3135 37.3636 18.433 37.3292L18.4523 37.3231L21.7354 36.3432L19.8415 41.9762H19.8405ZM28.2023 31.5634L31.5482 20.2772L34.7432 29.6919L28.2033 31.5624L28.2023 31.5634Z" fill="#000326"/>
<path d="M99.1651 30.0658C98.5612 29.702 97.8965 29.5197 97.1679 29.5197H84.4611C83.7325 29.5197 83.0668 29.702 82.4628 30.0658C81.8589 30.4306 81.3745 30.913 81.0108 31.5179C80.646 32.1218 80.4646 32.7866 80.4646 33.5151V37.769C80.4646 38.5168 80.647 39.1917 81.0108 39.7956C81.3745 40.3985 81.8579 40.8839 82.4628 41.2476C83.0668 41.6124 83.7325 41.7938 84.4611 41.7938H96.9957C97.0919 41.7938 97.173 41.8232 97.2399 41.8799C97.3067 41.9377 97.3402 42.0147 97.3402 42.111V46.0497C97.3402 46.146 97.3057 46.227 97.2399 46.2939C97.173 46.3608 97.0909 46.3942 96.9957 46.3942H84.606C84.5097 46.3942 84.4286 46.3608 84.3618 46.2939C84.2949 46.227 84.2615 46.146 84.2615 46.0497V44.6412H80.4676V46.222C80.4676 46.9505 80.65 47.6163 81.0138 48.2192C81.3776 48.8221 81.8609 49.3075 82.4659 49.6713C83.0698 50.036 83.7355 50.2174 84.4641 50.2174H97.171C97.8995 50.2174 98.5663 50.035 99.1692 49.6713C99.7731 49.3075 100.256 48.8241 100.621 48.2192C100.985 47.6153 101.167 46.9495 101.167 46.222V41.9681C101.167 41.2203 100.985 40.5454 100.621 39.9415C100.256 39.3376 99.7741 38.8542 99.1692 38.4894C98.5653 38.1257 97.8995 37.9433 97.171 37.9433H84.609C84.5128 37.9433 84.4317 37.9139 84.3648 37.8571C84.2979 37.8004 84.2645 37.7224 84.2645 37.6271V33.6884C84.2645 33.5921 84.2969 33.5111 84.3648 33.4442C84.4317 33.3773 84.5128 33.3439 84.609 33.3439H96.9987C97.095 33.3439 97.176 33.3783 97.2429 33.4442C97.3098 33.5111 97.3432 33.5931 97.3432 33.6884V35.0969H101.166V33.5161C101.166 32.7876 100.984 32.1218 100.62 31.5189C100.255 30.915 99.7731 30.4316 99.1682 30.0668H99.1672L99.1651 30.0658Z" fill="#000326"/>
<path d="M115.536 35.0969H111.714V50.2184H115.536V35.0969Z" fill="#000326"/>
<path d="M123.96 29.5188H103.262V33.342H123.96V29.5188Z" fill="#FFBC01"/>
<path d="M123.96 29.5188H103.262V33.342H123.96V29.5188Z" fill="url(#paint1_linear_3226_1343)"/>
<path d="M144.801 30.0952C144.188 29.7314 143.516 29.549 142.79 29.549H126.117V50.2174H129.912V43.1455L136.681 43.1303L142.619 50.2174H146.759V49.1534L141.649 43.1192L142.792 43.1162C143.52 43.1162 144.19 42.9388 144.803 42.5842C145.416 42.2295 145.906 41.7451 146.27 41.1321C146.633 40.519 146.816 39.8482 146.816 39.1207V33.5435C146.816 32.8149 146.633 32.1481 146.27 31.5452C145.906 30.9413 145.417 30.4579 144.803 30.0932L144.801 30.0952ZM142.989 38.9778C142.989 39.0741 142.951 39.1501 142.874 39.2078C142.797 39.2646 142.711 39.294 142.616 39.294H130.255C130.159 39.294 130.078 39.2646 130.011 39.2078C129.944 39.1511 129.911 39.0731 129.911 38.9778V33.6884C129.911 33.5921 129.943 33.511 130.011 33.4442C130.078 33.3773 130.16 33.3438 130.255 33.3438H142.616C142.712 33.3438 142.798 33.3783 142.874 33.4442C142.95 33.511 142.989 33.5931 142.989 33.6884V38.9778Z" fill="#000326"/>
<path d="M170.04 31.5179C169.675 30.914 169.188 30.4306 168.574 30.0658C167.96 29.702 167.289 29.5197 166.562 29.5197H153.885C153.156 29.5197 152.49 29.702 151.886 30.0658C151.284 30.4306 150.798 30.913 150.434 31.5179C150.071 32.1218 149.888 32.7866 149.888 33.5151V50.2174H153.682V43.2611H166.763V50.2174H170.586V33.5151C170.586 32.7866 170.404 32.1208 170.04 31.5179ZM166.763 39.4663H153.682V33.6884C153.682 33.5921 153.714 33.5111 153.782 33.4442C153.849 33.3773 153.931 33.3439 154.027 33.3439H166.388C166.484 33.3439 166.57 33.3783 166.646 33.4442C166.722 33.5111 166.762 33.5931 166.762 33.6884V39.4663H166.763Z" fill="#000326"/>
<path d="M75.2552 30.0659C74.6422 29.7021 73.9703 29.5197 73.2438 29.5197H60.5653C59.8368 29.5197 59.17 29.7021 58.5671 30.0659C57.9632 30.4307 57.4788 30.913 57.115 31.518C56.7502 32.1219 56.5688 32.7876 56.5688 33.5162V50.2195H60.3627V43.2622H73.4434V50.2195H77.2666V33.5162C77.2666 32.7876 77.0842 32.1209 76.7204 31.518C76.3557 30.914 75.8683 30.4307 75.2542 30.0659H75.2552ZM73.4444 39.4663H60.3627V33.6885C60.3627 33.5922 60.3951 33.5111 60.463 33.4442C60.5299 33.3774 60.6109 33.3439 60.7072 33.3439H73.0695C73.1658 33.3439 73.2519 33.3784 73.3279 33.4442C73.4039 33.5111 73.4434 33.5922 73.4434 33.6885V39.4663H73.4444Z" fill="#000326"/>
<path d="M70.1807 58.781V54.0721H72.3258C72.7565 54.0721 73.1284 54.1421 73.4425 54.2809C73.7566 54.4197 73.9978 54.6203 74.166 54.8828C74.3342 55.1452 74.4183 55.4533 74.4183 55.8079C74.4183 56.1626 74.3342 56.4808 74.166 56.7361C73.9978 56.9915 73.7566 57.1881 73.4425 57.3249C73.1284 57.4616 72.7565 57.5306 72.3258 57.5306H70.9133L71.5121 56.9651V58.781H70.1807ZM71.5132 57.1202L70.9143 56.501H72.2458C72.5234 56.501 72.7322 56.4402 72.871 56.3196C73.0098 56.1991 73.0797 56.0278 73.0797 55.809C73.0797 55.5901 73.0098 55.431 72.871 55.3084C72.7322 55.1847 72.5234 55.1229 72.2458 55.1229H70.9143L71.5132 54.5109V57.1212V57.1202ZM73.0868 58.781L71.9165 57.0654H73.3361L74.5136 58.781H73.0878H73.0868Z" fill="#000326"/>
<path d="M77.1421 57.7454H79.6034V58.781H75.8298V54.0721H79.5162V55.1077H77.1421V57.7444V57.7454ZM77.0478 55.8961H79.2335V56.8851H77.0478V55.8961Z" fill="#000326"/>
<path d="M82.6716 58.8752C82.2814 58.8752 81.9085 58.8265 81.5519 58.7303C81.1952 58.634 80.9074 58.5114 80.6875 58.3635L81.1242 57.3745C81.335 57.5092 81.5782 57.6197 81.8538 57.7078C82.1294 57.795 82.404 57.8386 82.6776 57.8386C82.8661 57.8386 83.0151 57.8234 83.1245 57.7919C83.2339 57.7605 83.315 57.716 83.3667 57.6572C83.4184 57.5994 83.4437 57.5295 83.4437 57.4484C83.4437 57.3451 83.394 57.264 83.2958 57.2032C83.1975 57.1424 83.0678 57.0907 82.9087 57.0482C82.7496 57.0056 82.5763 56.9651 82.3909 56.9276C82.2044 56.8891 82.0149 56.8394 81.8224 56.7766C81.6299 56.7138 81.4546 56.6307 81.2975 56.5273C81.1404 56.424 81.0138 56.2892 80.9175 56.1241C80.8213 55.9579 80.7726 55.7501 80.7726 55.4988C80.7726 55.2212 80.8486 54.9679 81.0016 54.7389C81.1536 54.5099 81.3847 54.3265 81.6947 54.1876C82.0038 54.0488 82.3899 53.9789 82.8519 53.9789C83.161 53.9789 83.465 54.0133 83.7629 54.0833C84.0608 54.1532 84.3243 54.2575 84.5533 54.3964L84.15 55.3783C83.926 55.2526 83.7041 55.1604 83.4842 55.1026C83.2643 55.0449 83.0515 55.0155 82.8448 55.0155C82.6604 55.0155 82.5125 55.0358 82.401 55.0763C82.2885 55.1168 82.2085 55.1685 82.1588 55.2313C82.1092 55.2942 82.0849 55.361 82.0849 55.433C82.0849 55.5404 82.1345 55.6245 82.2328 55.6853C82.3311 55.7461 82.4588 55.7957 82.6158 55.8332C82.7729 55.8717 82.9462 55.9102 83.1367 55.9508C83.3272 55.9913 83.5167 56.042 83.7051 56.1018C83.8936 56.1615 84.0669 56.2426 84.226 56.3439C84.3851 56.4453 84.5137 56.577 84.613 56.7412C84.7113 56.9053 84.761 57.11 84.761 57.3562C84.761 57.6298 84.684 57.8821 84.5289 58.1132C84.3739 58.3442 84.1419 58.5296 83.8328 58.6685C83.5237 58.8073 83.1356 58.8772 82.6695 58.8772L82.6716 58.8752Z" fill="#000326"/>
<path d="M88.2133 58.8752C87.5182 58.8752 86.9771 58.6847 86.589 58.3037C86.2009 57.9227 86.0073 57.3847 86.0073 56.6895V54.0732H87.3388V56.649C87.3388 57.0482 87.4168 57.335 87.5739 57.5103C87.731 57.6856 87.9478 57.7728 88.2265 57.7728C88.5051 57.7728 88.721 57.6856 88.876 57.5103C89.031 57.335 89.108 57.0482 89.108 56.649V54.0732H90.4264V56.6895C90.4264 57.3847 90.2298 57.9227 89.8376 58.3037C89.4455 58.6847 88.9034 58.8752 88.2133 58.8752Z" fill="#000326"/>
<path d="M92.0071 58.781V54.0721H93.3386V57.7241H95.578V58.78H92.0061L92.0071 58.781Z" fill="#000326"/>
<path d="M97.778 58.781V55.129H96.332V54.0732H100.549V55.129H99.1095V58.781H97.778Z" fill="#000326"/>
<path d="M103.374 58.8752C102.984 58.8752 102.611 58.8265 102.255 58.7303C101.898 58.634 101.61 58.5114 101.39 58.3635L101.827 57.3745C102.038 57.5092 102.281 57.6197 102.557 57.7078C102.832 57.795 103.107 57.8386 103.381 57.8386C103.569 57.8386 103.718 57.8234 103.827 57.7919C103.937 57.7605 104.018 57.716 104.07 57.6572C104.121 57.5994 104.147 57.5295 104.147 57.4484C104.147 57.3451 104.097 57.264 103.999 57.2032C103.9 57.1424 103.771 57.0907 103.612 57.0482C103.452 57.0056 103.279 56.9651 103.094 56.9276C102.907 56.8891 102.718 56.8394 102.525 56.7766C102.333 56.7138 102.157 56.6307 102 56.5273C101.843 56.424 101.717 56.2892 101.62 56.1241C101.524 55.9579 101.475 55.7501 101.475 55.4988C101.475 55.2212 101.551 54.9679 101.705 54.7389C101.856 54.5099 102.088 54.3265 102.398 54.1876C102.707 54.0488 103.093 53.9789 103.555 53.9789C103.864 53.9789 104.168 54.0133 104.466 54.0833C104.764 54.1532 105.027 54.2575 105.256 54.3964L104.853 55.3783C104.629 55.2526 104.407 55.1604 104.187 55.1026C103.967 55.0449 103.754 55.0155 103.548 55.0155C103.363 55.0155 103.215 55.0358 103.104 55.0763C102.991 55.1168 102.911 55.1685 102.862 55.2313C102.812 55.2942 102.788 55.361 102.788 55.433C102.788 55.5404 102.837 55.6245 102.936 55.6853C103.034 55.7461 103.162 55.7957 103.319 55.8332C103.476 55.8717 103.649 55.9102 103.84 55.9508C104.03 55.9913 104.22 56.042 104.408 56.1018C104.596 56.1626 104.77 56.2426 104.929 56.3439C105.088 56.4453 105.217 56.577 105.316 56.7412C105.414 56.9053 105.464 57.11 105.464 57.3562C105.464 57.6298 105.387 57.8821 105.232 58.1132C105.077 58.3442 104.845 58.5296 104.536 58.6685C104.227 58.8073 103.839 58.8772 103.372 58.8772L103.374 58.8752Z" fill="#000326"/>
<path d="M109.38 58.781V54.0721H110.477L112.42 57.2742H111.841L113.745 54.0721H114.842L114.849 58.781H113.625L113.612 55.9356H113.82L112.401 58.3169H111.809L110.35 55.9356H110.605V58.781H109.381H109.38Z" fill="#000326"/>
<path d="M115.899 58.781L117.977 54.0721H119.288L121.374 58.781H119.989L118.361 54.7247H118.886L117.259 58.781H115.9H115.899ZM117.035 57.8599L117.378 56.8841H119.679L120.022 57.8599H117.036H117.035Z" fill="#000326"/>
<path d="M122.43 58.781V54.0721H124.576C125.007 54.0721 125.378 54.1421 125.693 54.2809C126.007 54.4197 126.248 54.6203 126.416 54.8828C126.584 55.1452 126.668 55.4533 126.668 55.8079C126.668 56.1626 126.584 56.4808 126.416 56.7361C126.248 56.9915 126.007 57.1881 125.693 57.3249C125.378 57.4616 125.007 57.5306 124.576 57.5306H123.163L123.762 56.9651V58.781H122.431H122.43ZM123.761 57.1202L123.162 56.501H124.494C124.771 56.501 124.98 56.4402 125.119 56.3196C125.258 56.1991 125.328 56.0278 125.328 55.809C125.328 55.5901 125.258 55.431 125.119 55.3084C124.98 55.1847 124.771 55.1229 124.494 55.1229H123.162L123.761 54.5109V57.1212V57.1202ZM125.335 58.781L124.164 57.0654H125.584L126.762 58.781H125.336H125.335Z" fill="#000326"/>
<path d="M128.08 58.781V54.0721H129.391V58.781H128.08ZM129.263 57.7393L129.189 56.2457L131.214 54.0732H132.673L130.669 56.2589L129.922 57.032L129.262 57.7383L129.263 57.7393ZM131.234 58.781L129.701 56.8374L130.569 55.9093L132.782 58.781H131.234Z" fill="#000326"/>
<path d="M135.122 57.7454H137.584V58.781H133.81V54.0721H137.496V55.1077H135.122V57.7444V57.7454ZM135.028 55.8961H137.214V56.8851H135.028V55.8961Z" fill="#000326"/>
<path d="M139.998 58.781V55.129H138.552V54.0732H142.77V55.129H141.33V58.781H139.998Z" fill="#000326"/>
<path d="M143.946 58.781V54.0721H145.278V58.781H143.946Z" fill="#000326"/>
<path d="M146.899 58.781V54.0721H147.995L150.585 57.2063H150.068V54.0721H151.373V58.781H150.276L147.68 55.6468H148.198V58.781H146.9H146.899Z" fill="#000326"/>
<path d="M155.341 58.8751C154.964 58.8751 154.618 58.8153 154.305 58.6968C153.992 58.5782 153.717 58.41 153.484 58.1922C153.251 57.9743 153.07 57.7159 152.939 57.415C152.81 57.115 152.744 56.7847 152.744 56.426C152.744 56.0673 152.808 55.7379 152.939 55.437C153.069 55.137 153.252 54.8776 153.487 54.6598C153.723 54.4419 153.999 54.2737 154.318 54.1551C154.637 54.0366 154.989 53.9768 155.374 53.9768C155.814 53.9768 156.208 54.0508 156.558 54.1987C156.907 54.3467 157.197 54.5595 157.425 54.8381L156.578 55.6052C156.417 55.4258 156.243 55.2931 156.057 55.208C155.871 55.1229 155.664 55.0803 155.435 55.0803C155.233 55.0803 155.049 55.1117 154.884 55.1745C154.718 55.2374 154.577 55.3286 154.46 55.4471C154.344 55.5657 154.252 55.7085 154.188 55.8747C154.123 56.0409 154.09 56.2243 154.09 56.426C154.09 56.6276 154.123 56.8049 154.188 56.9711C154.252 57.1373 154.344 57.2792 154.46 57.3987C154.577 57.5173 154.717 57.6095 154.881 57.6744C155.045 57.7392 155.225 57.7716 155.422 57.7716C155.618 57.7716 155.812 57.7392 156 57.6744C156.189 57.6095 156.379 57.498 156.572 57.341L157.319 58.2763C157.045 58.4688 156.732 58.6167 156.38 58.7201C156.029 58.8235 155.682 58.8751 155.341 58.8751ZM156.134 58.1091V56.3267H157.318V58.2773L156.134 58.1091Z" fill="#000326"/>
<defs>
<linearGradient id="paint0_linear_3226_1343" x1="32.5695" y1="3.9803" x2="32.5695" y2="66.0716" gradientUnits="userSpaceOnUse">
<stop stop-color="#FFE59E"/>
<stop offset="1" stop-color="#FFBC01"/>
</linearGradient>
<linearGradient id="paint1_linear_3226_1343" x1="113.611" y1="29.5188" x2="113.611" y2="33.342" gradientUnits="userSpaceOnUse">
<stop stop-color="#FFE59E"/>
<stop offset="1" stop-color="#FFBC01"/>
</linearGradient>
</defs>
</svg>
