<svg width="112" height="22" viewBox="0 0 112 22" fill="none" xmlns="http://www.w3.org/2000/svg">
<g clip-path="url(#clip0_2153_667)">
<path d="M13.6329 8.17532C13.3977 8.17532 13.148 7.99379 13.0751 7.77012L10.773 0.685126C10.7001 0.461403 10.5825 0.461403 10.5097 0.685126L8.20791 7.77012C8.13504 7.99384 7.88537 8.17532 7.65017 8.17532H0.200448C-0.0347544 8.17532 -0.071395 8.28739 0.119042 8.42588L6.14565 12.8039C6.33609 12.9424 6.43155 13.236 6.35868 13.4597L4.05699 20.5443C3.98412 20.768 4.07958 20.8374 4.27001 20.6989L10.2966 16.3209C10.4871 16.1824 10.7956 16.1824 10.986 16.3209L17.0126 20.6994C17.2031 20.8379 17.2985 20.7684 17.2257 20.5447L14.9239 13.4601C14.8511 13.2364 14.9465 12.9428 15.137 12.8043L21.1636 8.4263C21.354 8.28781 21.3174 8.17574 21.0822 8.17574H13.6329V8.17532Z" fill="#FFC107"/>
</g>
<g clip-path="url(#clip1_2153_667)">
<path d="M36.2579 8.17532C36.0227 8.17532 35.773 7.99379 35.7001 7.77012L33.398 0.685126C33.3251 0.461403 33.2075 0.461403 33.1347 0.685126L30.8329 7.77012C30.76 7.99384 30.5104 8.17532 30.2752 8.17532H22.8254C22.5902 8.17532 22.5536 8.28739 22.744 8.42588L28.7707 12.8039C28.9611 12.9424 29.0565 13.236 28.9837 13.4597L26.682 20.5443C26.6091 20.768 26.7046 20.8374 26.895 20.6989L32.9216 16.3209C33.1121 16.1824 33.4206 16.1824 33.611 16.3209L39.6376 20.6994C39.8281 20.8379 39.9235 20.7684 39.8507 20.5447L37.5489 13.4601C37.4761 13.2364 37.5715 12.9428 37.762 12.8043L43.7886 8.4263C43.979 8.28781 43.9424 8.17574 43.7072 8.17574H36.2579V8.17532Z" fill="#FFC107"/>
</g>
<g clip-path="url(#clip2_2153_667)">
<path d="M58.8741 8.17556C58.6389 8.17556 58.3892 7.99404 58.3163 7.77037L56.0142 0.68537C55.9413 0.461648 55.8237 0.461648 55.7509 0.68537L53.4491 7.77037C53.3763 7.99409 53.1266 8.17556 52.8914 8.17556H45.4417C45.2065 8.17556 45.1698 8.28763 45.3603 8.42612L51.3869 12.8042C51.5773 12.9427 51.6728 13.2362 51.5999 13.4599L49.2982 20.5445C49.2253 20.7682 49.3208 20.8376 49.5112 20.6992L55.5378 16.3211C55.7283 16.1827 56.0368 16.1827 56.2272 16.3211L62.2539 20.6996C62.4443 20.8381 62.5398 20.7686 62.4669 20.5449L60.1651 13.4603C60.0923 13.2366 60.1877 12.9431 60.3782 12.8046L66.4048 8.42654C66.5952 8.28805 66.5586 8.17598 66.3234 8.17598H58.8741V8.17556Z" fill="#FFC107"/>
</g>
<g clip-path="url(#clip3_2153_667)">
<path d="M81.4898 8.17532C81.2546 8.17532 81.0049 7.99379 80.9321 7.77012L78.6299 0.685126C78.557 0.461403 78.4395 0.461403 78.3666 0.685126L76.0648 7.77012C75.992 7.99384 75.7423 8.17532 75.5071 8.17532H68.0574C67.8222 8.17532 67.7855 8.28739 67.976 8.42588L74.0026 12.8039C74.193 12.9424 74.2885 13.236 74.2156 13.4597L71.9139 20.5443C71.8411 20.768 71.9365 20.8374 72.1269 20.6989L78.1536 16.3209C78.344 16.1824 78.6525 16.1824 78.843 16.3209L84.8696 20.6994C85.06 20.8379 85.1555 20.7684 85.0826 20.5447L82.7809 13.4601C82.708 13.2364 82.8035 12.9428 82.9939 12.8043L89.0205 8.4263C89.2109 8.28781 89.1743 8.17574 88.9391 8.17574H81.4898V8.17532Z" fill="#FFC107"/>
</g>
<g clip-path="url(#clip4_2153_667)">
<path d="M104.115 8.17532C103.88 8.17532 103.63 7.99379 103.557 7.77012L101.255 0.685126C101.182 0.461403 101.064 0.461403 100.992 0.685126L98.6898 7.77012C98.617 7.99384 98.3673 8.17532 98.1321 8.17532H90.6824C90.4472 8.17532 90.4105 8.28739 90.601 8.42588L96.6276 12.8039C96.818 12.9424 96.9135 13.236 96.8406 13.4597L94.5389 20.5443C94.4661 20.768 94.5615 20.8374 94.7519 20.6989L100.779 16.3209C100.969 16.1824 101.278 16.1824 101.468 16.3209L107.495 20.6994C107.685 20.8379 107.78 20.7684 107.708 20.5447L105.406 13.4601C105.333 13.2364 105.428 12.9428 105.619 12.8043L111.646 8.4263C111.836 8.28781 111.799 8.17574 111.564 8.17574H104.115V8.17532Z" fill="#FFC107"/>
</g>
<defs>
<clipPath id="clip0_2153_667">
<rect width="21.2885" height="21.2885" fill="white"/>
</clipPath>
<clipPath id="clip1_2153_667">
<rect width="21.2885" height="21.2885" fill="white" transform="translate(22.6191)"/>
</clipPath>
<clipPath id="clip2_2153_667">
<rect width="21.2885" height="21.2885" fill="white" transform="translate(45.2383)"/>
</clipPath>
<clipPath id="clip3_2153_667">
<rect width="21.2885" height="21.2885" fill="white" transform="translate(67.8569)"/>
</clipPath>
<clipPath id="clip4_2153_667">
<rect width="21.2885" height="21.2885" fill="white" transform="translate(90.4761)"/>
</clipPath>
</defs>
</svg>
