<svg width="112" height="17" viewBox="0 0 112 17" fill="none" xmlns="http://www.w3.org/2000/svg">
<g clip-path="url(#clip0_2900_1467)">
<path d="M11.5034 5.85825C11.215 5.94131 10.927 6.0239 10.6385 6.10673C10.5902 6.12046 10.5423 6.13441 10.4942 6.14814C10.2409 6.2209 9.98763 6.29343 9.73413 6.36619C9.37532 6.46892 9.01674 6.57211 8.65793 6.6753C8.4455 6.73639 8.23262 6.79771 8.01997 6.8588C7.99455 6.86612 7.96868 6.87367 7.94303 6.881C7.80732 6.91966 7.67206 6.95902 7.53634 6.99768C7.24426 7.08166 6.95262 7.1654 6.66031 7.24937C7.00096 6.09415 7.34207 4.93847 7.68272 3.78324C7.95869 4.60167 8.23467 5.42009 8.51087 6.23829L9.58752 5.92895C8.9246 3.95233 8.26258 1.97662 7.59966 0C6.73861 2.5738 5.87779 5.14736 5.01674 7.72093C3.34411 8.20141 1.6724 8.68167 0 9.1617C1.26275 9.90485 2.52596 10.6482 3.78894 11.3918C3.23631 13.0442 2.68323 14.6962 2.13061 16.3484L4.59438 14.2535C4.64295 14.0885 4.69152 13.9228 4.74054 13.7576C4.80885 13.5266 4.87671 13.2952 4.94479 13.0646C4.95977 13.0143 4.97452 12.9644 4.98928 12.9141C5.05759 12.682 5.12613 12.4503 5.19421 12.2187C5.29316 11.8838 5.39189 11.5483 5.49038 11.2136C5.51489 11.1317 5.53872 11.0495 5.56278 10.9679C5.6059 10.8212 5.64948 10.6745 5.6926 10.5283C5.77226 10.2572 5.85214 9.98699 5.93226 9.71654C6.02848 9.39073 6.12426 9.064 6.22048 8.73773L4.50451 9.25253C4.37061 9.65362 4.23671 10.0531 4.10258 10.4531C3.48936 10.1167 2.87569 9.78061 2.26224 9.44358C2.69413 9.31385 3.12647 9.18458 3.55835 9.05485C3.59921 9.04249 3.6396 9.03013 3.68045 9.01824C3.85748 8.9647 4.0345 8.91161 4.21174 8.85876C4.36925 8.81163 4.52584 8.76449 4.68312 8.71782C5.24732 8.54873 5.81174 8.37873 6.3764 8.20965C6.57861 8.14879 6.78105 8.08839 6.98326 8.02752C7.43966 7.89116 7.89606 7.75411 8.35245 7.61728C8.54105 7.56077 8.72987 7.50448 8.91847 7.44751C9.27523 7.34066 9.63245 7.23335 9.98922 7.1265C10.3333 7.02308 10.6769 6.91966 11.0203 6.81716C11.0997 6.79336 11.1793 6.7698 11.2588 6.74577C11.838 6.57211 12.4176 6.39799 12.9968 6.22433C13.5317 6.0644 14.0664 5.90401 14.6011 5.74339L15.978 4.57261C14.4862 5.00093 12.9952 5.42948 11.5034 5.85756V5.85825ZM10.6512 9.10312C10.4788 8.59061 10.3067 8.07717 10.1354 7.56466L9.06576 7.88498C9.28999 8.54988 9.51444 9.21524 9.73867 9.87945C10.2441 11.3779 10.7495 12.8763 11.2551 14.3752C9.87643 13.6197 8.49793 12.8633 7.11921 12.1071C6.7141 11.8849 6.30808 11.6627 5.90275 11.4406L5.60227 12.4594C5.81991 12.5878 6.03643 12.7155 6.25362 12.8431C8.60096 14.2244 10.9474 15.6057 13.2948 16.9872C12.4137 14.3592 11.5323 11.7314 10.6517 9.10335H10.6515L10.6512 9.10312Z" fill="url(#paint0_linear_2900_1467)"/>
</g>
<g clip-path="url(#clip1_2900_1467)">
<path d="M35.5034 5.85825C35.215 5.94131 34.927 6.0239 34.6385 6.10673C34.5902 6.12046 34.5423 6.13441 34.4942 6.14814C34.2409 6.2209 33.9876 6.29343 33.7341 6.36619C33.3753 6.46892 33.0167 6.57211 32.6579 6.6753C32.4455 6.73639 32.2326 6.79771 32.02 6.8588C31.9946 6.86612 31.9687 6.87367 31.943 6.881C31.8073 6.91966 31.6721 6.95902 31.5363 6.99768C31.2443 7.08166 30.9526 7.1654 30.6603 7.24937C31.001 6.09415 31.3421 4.93847 31.6827 3.78324C31.9587 4.60167 32.2347 5.42009 32.5109 6.23829L33.5875 5.92895C32.9246 3.95233 32.2626 1.97662 31.5997 0C30.7386 2.5738 29.8778 5.14736 29.0167 7.72093C27.3441 8.20141 25.6724 8.68167 24 9.1617C25.2628 9.90485 26.526 10.6482 27.7889 11.3918C27.2363 13.0442 26.6832 14.6962 26.1306 16.3484L28.5944 14.2535C28.643 14.0885 28.6915 13.9228 28.7405 13.7576C28.8089 13.5266 28.8767 13.2952 28.9448 13.0646C28.9598 13.0143 28.9745 12.9644 28.9893 12.9141C29.0576 12.682 29.1261 12.4503 29.1942 12.2187C29.2932 11.8838 29.3919 11.5483 29.4904 11.2136C29.5149 11.1317 29.5387 11.0495 29.5628 10.9679C29.6059 10.8212 29.6495 10.6745 29.6926 10.5283C29.7723 10.2572 29.8521 9.98699 29.9323 9.71654C30.0285 9.39073 30.1243 9.064 30.2205 8.73773L28.5045 9.25253C28.3706 9.65362 28.2367 10.0531 28.1026 10.4531C27.4894 10.1167 26.8757 9.78061 26.2622 9.44358C26.6941 9.31385 27.1265 9.18458 27.5584 9.05485C27.5992 9.04249 27.6396 9.03013 27.6805 9.01824C27.8575 8.9647 28.0345 8.91161 28.2117 8.85876C28.3692 8.81163 28.5258 8.76449 28.6831 8.71782C29.2473 8.54873 29.8117 8.37873 30.3764 8.20965C30.5786 8.14879 30.781 8.08839 30.9833 8.02752C31.4397 7.89116 31.8961 7.75411 32.3525 7.61728C32.541 7.56077 32.7299 7.50448 32.9185 7.44751C33.2752 7.34066 33.6325 7.23335 33.9892 7.1265C34.3333 7.02308 34.6769 6.91966 35.0203 6.81716C35.0997 6.79336 35.1793 6.7698 35.2588 6.74577C35.838 6.57211 36.4176 6.39799 36.9968 6.22433C37.5317 6.0644 38.0664 5.90401 38.6011 5.74339L39.978 4.57261C38.4862 5.00093 36.9952 5.42948 35.5034 5.85756V5.85825ZM34.6512 9.10312C34.4788 8.59061 34.3067 8.07717 34.1354 7.56466L33.0658 7.88498C33.29 8.54988 33.5144 9.21524 33.7387 9.87945C34.2441 11.3779 34.7495 12.8763 35.2551 14.3752C33.8764 13.6197 32.4979 12.8633 31.1192 12.1071C30.7141 11.8849 30.3081 11.6627 29.9028 11.4406L29.6023 12.4594C29.8199 12.5878 30.0364 12.7155 30.2536 12.8431C32.601 14.2244 34.9474 15.6057 37.2948 16.9872C36.4137 14.3592 35.5323 11.7314 34.6517 9.10335H34.6515L34.6512 9.10312Z" fill="url(#paint1_linear_2900_1467)"/>
</g>
<g clip-path="url(#clip2_2900_1467)">
<path d="M59.5034 5.85825C59.215 5.94131 58.927 6.0239 58.6385 6.10673C58.5902 6.12046 58.5423 6.13441 58.4942 6.14814C58.2409 6.2209 57.9876 6.29343 57.7341 6.36619C57.3753 6.46892 57.0167 6.57211 56.6579 6.6753C56.4455 6.73639 56.2326 6.79771 56.02 6.8588C55.9946 6.86612 55.9687 6.87367 55.943 6.881C55.8073 6.91966 55.6721 6.95902 55.5363 6.99768C55.2443 7.08166 54.9526 7.1654 54.6603 7.24937C55.001 6.09415 55.3421 4.93847 55.6827 3.78324C55.9587 4.60167 56.2347 5.42009 56.5109 6.23829L57.5875 5.92895C56.9246 3.95233 56.2626 1.97662 55.5997 0C54.7386 2.5738 53.8778 5.14736 53.0167 7.72093C51.3441 8.20141 49.6724 8.68167 48 9.1617C49.2628 9.90485 50.526 10.6482 51.7889 11.3918C51.2363 13.0442 50.6832 14.6962 50.1306 16.3484L52.5944 14.2535C52.643 14.0885 52.6915 13.9228 52.7405 13.7576C52.8089 13.5266 52.8767 13.2952 52.9448 13.0646C52.9598 13.0143 52.9745 12.9644 52.9893 12.9141C53.0576 12.682 53.1261 12.4503 53.1942 12.2187C53.2932 11.8838 53.3919 11.5483 53.4904 11.2136C53.5149 11.1317 53.5387 11.0495 53.5628 10.9679C53.6059 10.8212 53.6495 10.6745 53.6926 10.5283C53.7723 10.2572 53.8521 9.98699 53.9323 9.71654C54.0285 9.39073 54.1243 9.064 54.2205 8.73773L52.5045 9.25253C52.3706 9.65362 52.2367 10.0531 52.1026 10.4531C51.4894 10.1167 50.8757 9.78061 50.2622 9.44358C50.6941 9.31385 51.1265 9.18458 51.5584 9.05485C51.5992 9.04249 51.6396 9.03013 51.6805 9.01824C51.8575 8.9647 52.0345 8.91161 52.2117 8.85876C52.3692 8.81163 52.5258 8.76449 52.6831 8.71782C53.2473 8.54873 53.8117 8.37873 54.3764 8.20965C54.5786 8.14879 54.781 8.08839 54.9833 8.02752C55.4397 7.89116 55.8961 7.75411 56.3525 7.61728C56.541 7.56077 56.7299 7.50448 56.9185 7.44751C57.2752 7.34066 57.6325 7.23335 57.9892 7.1265C58.3333 7.02308 58.6769 6.91966 59.0203 6.81716C59.0997 6.79336 59.1793 6.7698 59.2588 6.74577C59.838 6.57211 60.4176 6.39799 60.9968 6.22433C61.5317 6.0644 62.0664 5.90401 62.6011 5.74339L63.978 4.57261C62.4862 5.00093 60.9952 5.42948 59.5034 5.85756V5.85825ZM58.6512 9.10312C58.4788 8.59061 58.3067 8.07717 58.1354 7.56466L57.0658 7.88498C57.29 8.54988 57.5144 9.21524 57.7387 9.87945C58.2441 11.3779 58.7495 12.8763 59.2551 14.3752C57.8764 13.6197 56.4979 12.8633 55.1192 12.1071C54.7141 11.8849 54.3081 11.6627 53.9028 11.4406L53.6023 12.4594C53.8199 12.5878 54.0364 12.7155 54.2536 12.8431C56.601 14.2244 58.9474 15.6057 61.2948 16.9872C60.4137 14.3592 59.5323 11.7314 58.6517 9.10335H58.6515L58.6512 9.10312Z" fill="url(#paint2_linear_2900_1467)"/>
</g>
<g clip-path="url(#clip3_2900_1467)">
<path d="M83.5034 5.85825C83.215 5.94131 82.927 6.0239 82.6385 6.10673C82.5902 6.12046 82.5423 6.13441 82.4942 6.14814C82.2409 6.2209 81.9876 6.29343 81.7341 6.36619C81.3753 6.46892 81.0167 6.57211 80.6579 6.6753C80.4455 6.73639 80.2326 6.79771 80.02 6.8588C79.9946 6.86612 79.9687 6.87367 79.943 6.881C79.8073 6.91966 79.6721 6.95902 79.5363 6.99768C79.2443 7.08166 78.9526 7.1654 78.6603 7.24937C79.001 6.09415 79.3421 4.93847 79.6827 3.78324C79.9587 4.60167 80.2347 5.42009 80.5109 6.23829L81.5875 5.92895C80.9246 3.95233 80.2626 1.97662 79.5997 0C78.7386 2.5738 77.8778 5.14736 77.0167 7.72093C75.3441 8.20141 73.6724 8.68167 72 9.1617C73.2628 9.90485 74.526 10.6482 75.7889 11.3918C75.2363 13.0442 74.6832 14.6962 74.1306 16.3484L76.5944 14.2535C76.643 14.0885 76.6915 13.9228 76.7405 13.7576C76.8089 13.5266 76.8767 13.2952 76.9448 13.0646C76.9598 13.0143 76.9745 12.9644 76.9893 12.9141C77.0576 12.682 77.1261 12.4503 77.1942 12.2187C77.2932 11.8838 77.3919 11.5483 77.4904 11.2136C77.5149 11.1317 77.5387 11.0495 77.5628 10.9679C77.6059 10.8212 77.6495 10.6745 77.6926 10.5283C77.7723 10.2572 77.8521 9.98699 77.9323 9.71654C78.0285 9.39073 78.1243 9.064 78.2205 8.73773L76.5045 9.25253C76.3706 9.65362 76.2367 10.0531 76.1026 10.4531C75.4894 10.1167 74.8757 9.78061 74.2622 9.44358C74.6941 9.31385 75.1265 9.18458 75.5584 9.05485C75.5992 9.04249 75.6396 9.03013 75.6805 9.01824C75.8575 8.9647 76.0345 8.91161 76.2117 8.85876C76.3692 8.81163 76.5258 8.76449 76.6831 8.71782C77.2473 8.54873 77.8117 8.37873 78.3764 8.20965C78.5786 8.14879 78.781 8.08839 78.9833 8.02752C79.4397 7.89116 79.8961 7.75411 80.3525 7.61728C80.541 7.56077 80.7299 7.50448 80.9185 7.44751C81.2752 7.34066 81.6325 7.23335 81.9892 7.1265C82.3333 7.02308 82.6769 6.91966 83.0203 6.81716C83.0997 6.79336 83.1793 6.7698 83.2588 6.74577C83.838 6.57211 84.4176 6.39799 84.9968 6.22433C85.5317 6.0644 86.0664 5.90401 86.6011 5.74339L87.978 4.57261C86.4862 5.00093 84.9952 5.42948 83.5034 5.85756V5.85825ZM82.6512 9.10312C82.4788 8.59061 82.3067 8.07717 82.1354 7.56466L81.0658 7.88498C81.29 8.54988 81.5144 9.21524 81.7387 9.87945C82.2441 11.3779 82.7495 12.8763 83.2551 14.3752C81.8764 13.6197 80.4979 12.8633 79.1192 12.1071C78.7141 11.8849 78.3081 11.6627 77.9028 11.4406L77.6023 12.4594C77.8199 12.5878 78.0364 12.7155 78.2536 12.8431C80.601 14.2244 82.9474 15.6057 85.2948 16.9872C84.4137 14.3592 83.5323 11.7314 82.6517 9.10335H82.6515L82.6512 9.10312Z" fill="url(#paint3_linear_2900_1467)"/>
</g>
<g clip-path="url(#clip4_2900_1467)">
<path d="M107.503 5.85825C107.215 5.94131 106.927 6.0239 106.639 6.10673C106.59 6.12046 106.542 6.13441 106.494 6.14814C106.241 6.2209 105.988 6.29343 105.734 6.36619C105.375 6.46892 105.017 6.57211 104.658 6.6753C104.446 6.73639 104.233 6.79771 104.02 6.8588C103.995 6.86612 103.969 6.87367 103.943 6.881C103.807 6.91966 103.672 6.95902 103.536 6.99768C103.244 7.08166 102.953 7.1654 102.66 7.24937C103.001 6.09415 103.342 4.93847 103.683 3.78324C103.959 4.60167 104.235 5.42009 104.511 6.23829L105.588 5.92895C104.925 3.95233 104.263 1.97662 103.6 0C102.739 2.5738 101.878 5.14736 101.017 7.72093C99.3441 8.20141 97.6724 8.68167 96 9.1617C97.2628 9.90485 98.526 10.6482 99.7889 11.3918C99.2363 13.0442 98.6832 14.6962 98.1306 16.3484L100.594 14.2535C100.643 14.0885 100.692 13.9228 100.741 13.7576C100.809 13.5266 100.877 13.2952 100.945 13.0646C100.96 13.0143 100.975 12.9644 100.989 12.9141C101.058 12.682 101.126 12.4503 101.194 12.2187C101.293 11.8838 101.392 11.5483 101.49 11.2136C101.515 11.1317 101.539 11.0495 101.563 10.9679C101.606 10.8212 101.649 10.6745 101.693 10.5283C101.772 10.2572 101.852 9.98699 101.932 9.71654C102.028 9.39073 102.124 9.064 102.22 8.73773L100.505 9.25253C100.371 9.65362 100.237 10.0531 100.103 10.4531C99.4894 10.1167 98.8757 9.78061 98.2622 9.44358C98.6941 9.31385 99.1265 9.18458 99.5584 9.05485C99.5992 9.04249 99.6396 9.03013 99.6805 9.01824C99.8575 8.9647 100.034 8.91161 100.212 8.85876C100.369 8.81163 100.526 8.76449 100.683 8.71782C101.247 8.54873 101.812 8.37873 102.376 8.20965C102.579 8.14879 102.781 8.08839 102.983 8.02752C103.44 7.89116 103.896 7.75411 104.352 7.61728C104.541 7.56077 104.73 7.50448 104.918 7.44751C105.275 7.34066 105.632 7.23335 105.989 7.1265C106.333 7.02308 106.677 6.91966 107.02 6.81716C107.1 6.79336 107.179 6.7698 107.259 6.74577C107.838 6.57211 108.418 6.39799 108.997 6.22433C109.532 6.0644 110.066 5.90401 110.601 5.74339L111.978 4.57261C110.486 5.00093 108.995 5.42948 107.503 5.85756V5.85825ZM106.651 9.10312C106.479 8.59061 106.307 8.07717 106.135 7.56466L105.066 7.88498C105.29 8.54988 105.514 9.21524 105.739 9.87945C106.244 11.3779 106.75 12.8763 107.255 14.3752C105.876 13.6197 104.498 12.8633 103.119 12.1071C102.714 11.8849 102.308 11.6627 101.903 11.4406L101.602 12.4594C101.82 12.5878 102.036 12.7155 102.254 12.8431C104.601 14.2244 106.947 15.6057 109.295 16.9872C108.414 14.3592 107.532 11.7314 106.652 9.10335H106.651L106.651 9.10312Z" fill="url(#paint4_linear_2900_1467)"/>
</g>
<defs>
<linearGradient id="paint0_linear_2900_1467" x1="7.98888" y1="0" x2="7.98888" y2="16.9867" gradientUnits="userSpaceOnUse">
<stop stop-color="#FFE59E"/>
<stop offset="1" stop-color="#FFBC01"/>
</linearGradient>
<linearGradient id="paint1_linear_2900_1467" x1="31.9889" y1="0" x2="31.9889" y2="16.9867" gradientUnits="userSpaceOnUse">
<stop stop-color="#FFE59E"/>
<stop offset="1" stop-color="#FFBC01"/>
</linearGradient>
<linearGradient id="paint2_linear_2900_1467" x1="55.9889" y1="0" x2="55.9889" y2="16.9867" gradientUnits="userSpaceOnUse">
<stop stop-color="#FFE59E"/>
<stop offset="1" stop-color="#FFBC01"/>
</linearGradient>
<linearGradient id="paint3_linear_2900_1467" x1="79.9889" y1="0" x2="79.9889" y2="16.9867" gradientUnits="userSpaceOnUse">
<stop stop-color="#FFE59E"/>
<stop offset="1" stop-color="#FFBC01"/>
</linearGradient>
<linearGradient id="paint4_linear_2900_1467" x1="103.989" y1="0" x2="103.989" y2="16.9867" gradientUnits="userSpaceOnUse">
<stop stop-color="#FFE59E"/>
<stop offset="1" stop-color="#FFBC01"/>
</linearGradient>
<clipPath id="clip0_2900_1467">
<rect width="16" height="17" fill="white"/>
</clipPath>
<clipPath id="clip1_2900_1467">
<rect width="16" height="17" fill="white" transform="translate(24)"/>
</clipPath>
<clipPath id="clip2_2900_1467">
<rect width="16" height="17" fill="white" transform="translate(48)"/>
</clipPath>
<clipPath id="clip3_2900_1467">
<rect width="16" height="17" fill="white" transform="translate(72)"/>
</clipPath>
<clipPath id="clip4_2900_1467">
<rect width="16" height="17" fill="white" transform="translate(96)"/>
</clipPath>
</defs>
</svg>
