<svg width="78" height="26" viewBox="0 0 78 26" fill="none" xmlns="http://www.w3.org/2000/svg">
<path d="M33.3773 13.5107C33.3773 17.2044 30.4877 19.9262 26.9416 19.9262C23.3954 19.9262 20.5059 17.2044 20.5059 13.5107C20.5059 9.79098 23.3954 7.09521 26.9416 7.09521C30.4877 7.09521 33.3773 9.79098 33.3773 13.5107ZM30.56 13.5107C30.56 11.2025 28.8853 9.62322 26.9416 9.62322C24.9978 9.62322 23.3231 11.2025 23.3231 13.5107C23.3231 15.7957 24.9978 17.3981 26.9416 17.3981C28.8853 17.3981 30.56 15.7928 30.56 13.5107Z" fill="#E73124"/>
<path d="M47.2601 13.5107C47.2601 17.2044 44.3705 19.9262 40.8244 19.9262C37.2782 19.9262 34.3887 17.2044 34.3887 13.5107C34.3887 9.79388 37.2782 7.09521 40.8244 7.09521C44.3705 7.09521 47.2601 9.79098 47.2601 13.5107ZM44.4429 13.5107C44.4429 11.2025 42.7681 9.62322 40.8244 9.62322C38.8807 9.62322 37.2059 11.2025 37.2059 13.5107C37.2059 15.7957 38.8807 17.3981 40.8244 17.3981C42.7681 17.3981 44.4429 15.7928 44.4429 13.5107Z" fill="#FBB101"/>
<path d="M60.5644 7.4828V19.0006C60.5644 23.7384 57.7702 25.6735 54.4671 25.6735C51.3577 25.6735 49.4862 23.5938 48.7805 21.893L51.2333 20.872C51.67 21.9162 52.7403 23.1484 54.4642 23.1484C56.5785 23.1484 57.8888 21.8439 57.8888 19.3882V18.4655H57.7905C57.1599 19.2435 55.9451 19.9233 54.4121 19.9233C51.2044 19.9233 48.2656 17.1291 48.2656 13.5338C48.2656 9.91247 51.2044 7.09521 54.4121 7.09521C55.9422 7.09521 57.157 7.77494 57.7905 8.52987H57.8888V7.4857H60.5644V7.4828ZM58.0884 13.5338C58.0884 11.2748 56.5814 9.62322 54.6637 9.62322C52.72 9.62322 51.0916 11.2748 51.0916 13.5338C51.0916 15.7697 52.72 17.3981 54.6637 17.3981C56.5814 17.3981 58.0884 15.7697 58.0884 13.5338Z" fill="#3074F0"/>
<path d="M64.9763 0.731689V19.5327H62.2285V0.731689H64.9763Z" fill="#239A40"/>
<path d="M75.6821 15.6221L77.8688 17.0799C77.163 18.1241 75.4623 19.9232 72.5235 19.9232C68.879 19.9232 66.1572 17.106 66.1572 13.5078C66.1572 9.6926 68.9022 7.09229 72.2082 7.09229C75.5375 7.09229 77.1659 9.74178 77.6981 11.1735L77.9903 11.9024L69.4141 15.4544C70.0707 16.7415 71.0918 17.3981 72.5235 17.3981C73.9582 17.3981 74.9532 16.6923 75.6821 15.6221ZM68.9513 13.314L74.6842 10.9335C74.3689 10.1323 73.4202 9.57401 72.3037 9.57401C70.8719 9.57401 68.879 10.838 68.9513 13.314Z" fill="#E63023"/>
<path d="M10.1034 11.8417V9.11992H19.2753C19.365 9.59428 19.4113 10.1554 19.4113 10.7628C19.4113 12.8049 18.853 15.33 17.0539 17.1291C15.304 18.9514 13.0681 19.9232 10.1062 19.9232C4.61636 19.9232 0 15.4515 0 9.96162C0 4.47174 4.61636 0 10.1062 0C13.1433 0 15.3069 1.19169 16.9324 2.74494L15.0119 4.66553C13.8462 3.57218 12.2669 2.7218 10.1034 2.7218C6.09441 2.7218 2.95898 5.95268 2.95898 9.96162C2.95898 13.9706 6.09441 17.2014 10.1034 17.2014C12.7037 17.2014 14.1846 16.1573 15.1333 15.2085C15.9027 14.4391 16.4089 13.34 16.6085 11.8388L10.1034 11.8417Z" fill="#3074F0"/>
</svg>
