<svg width="24" height="24" viewBox="0 0 24 24" fill="none" xmlns="http://www.w3.org/2000/svg">
<path d="M12.2525 1.33735L14.7588 9.05264C14.8079 9.15093 14.9062 9.24921 15.0045 9.24921H23.1129C23.4078 9.24921 23.5061 9.5932 23.2603 9.74063L16.7245 14.5074C16.6262 14.5565 16.577 14.704 16.6262 14.8023L19.1324 22.5175C19.2307 22.7633 18.9359 23.009 18.6901 22.8124L12.1543 18.0456C12.056 17.9965 11.9085 17.9965 11.8103 18.0456L5.27438 22.8124C5.07781 22.9598 4.73382 22.7633 4.83211 22.5175L7.33835 14.8023C7.38749 14.704 7.33835 14.5565 7.24006 14.5074L0.704178 9.74063C0.50761 9.5932 0.605894 9.24921 0.851604 9.24921H8.96003C9.05831 9.24921 9.20574 9.15093 9.20574 9.05264L11.712 1.33735C11.8103 1.0425 12.2034 1.0425 12.2525 1.33735Z" fill="#FFBC01"/>
</svg>
